<svg xmlns="http://www.w3.org/2000/svg" xmlns:xlink="http://www.w3.org/1999/xlink" width="100" zoomAndPan="magnify" viewBox="0 0 75 74.999997" height="100" preserveAspectRatio="xMidYMid meet" version="1.0"><defs><clipPath id="9132b18162"><path d="M 0 4.875 L 75 4.875 L 75 70 L 0 70 Z M 0 4.875 " clip-rule="nonzero"/></clipPath></defs><g clip-path="url(#9132b18162)"><path fill="#299740" d="M 74.503906 5.867188 C 73.320312 5.558594 72.132812 5.253906 70.949219 4.945312 C 70.855469 4.894531 70.742188 4.875 70.613281 4.898438 C 70.550781 4.90625 70.496094 4.921875 70.445312 4.945312 C 70.214844 5.019531 69.988281 5.101562 69.761719 5.1875 C 68.988281 5.472656 68.230469 5.785156 67.480469 6.121094 C 66.351562 6.621094 65.25 7.167969 64.167969 7.746094 C 62.710938 8.523438 61.296875 9.363281 59.917969 10.25 C 58.195312 11.359375 56.527344 12.542969 54.917969 13.785156 C 53.042969 15.238281 51.25 16.777344 49.535156 18.390625 C 47.5625 20.25 45.699219 22.203125 43.941406 24.238281 C 41.949219 26.542969 40.09375 28.945312 38.371094 31.429688 C 36.433594 34.230469 34.667969 37.132812 33.066406 40.105469 C 31.261719 43.457031 29.664062 46.898438 28.253906 50.402344 C 27.976562 51.085938 27.710938 51.769531 27.449219 52.457031 C 26.539062 51.746094 25.628906 51.035156 24.71875 50.328125 C 22.328125 48.464844 19.941406 46.605469 17.550781 44.746094 C 15.355469 43.035156 13.160156 41.324219 10.964844 39.613281 C 10.410156 39.179688 9.851562 38.746094 9.292969 38.3125 C 9.148438 38.199219 9.027344 38.09375 8.847656 38.027344 C 8.296875 37.820312 7.722656 37.546875 7.148438 37.402344 C 6.929688 37.347656 6.652344 37.421875 6.429688 37.457031 C 6.046875 37.515625 5.660156 37.574219 5.277344 37.632812 C 5.03125 37.671875 4.703125 37.671875 4.503906 37.8125 C 4.390625 37.890625 4.339844 37.992188 4.273438 38.101562 C 3.65625 39.109375 3.039062 40.113281 2.425781 41.121094 C 1.738281 42.242188 1.054688 43.363281 0.367188 44.484375 C 0.207031 44.746094 0.0234375 44.964844 0.078125 45.28125 C 0.144531 45.648438 0.222656 46.011719 0.292969 46.378906 C 0.570312 47.78125 0.84375 49.183594 1.121094 50.582031 C 1.203125 51.015625 1.269531 51.453125 1.375 51.882812 C 1.4375 52.132812 1.621094 52.265625 1.871094 52.355469 C 2.085938 52.4375 2.304688 52.515625 2.519531 52.597656 C 2.597656 52.625 2.675781 52.65625 2.75 52.6875 C 2.792969 52.703125 2.835938 52.71875 2.875 52.734375 C 2.898438 52.742188 2.921875 52.75 2.941406 52.757812 C 2.945312 52.761719 2.949219 52.761719 2.949219 52.761719 C 3.167969 52.847656 3.386719 52.933594 3.601562 53.019531 C 4.832031 53.503906 6.054688 54.015625 7.265625 54.542969 C 10.898438 56.128906 14.457031 57.878906 17.882812 59.816406 C 21.917969 62.09375 25.808594 64.636719 29.261719 67.625 C 30.085938 68.339844 30.886719 69.082031 31.652344 69.855469 C 31.917969 70.121094 32.46875 69.992188 32.554688 69.636719 C 32.660156 69.183594 32.78125 68.738281 32.902344 68.289062 C 33.242188 67.042969 33.609375 65.804688 33.996094 64.570312 C 34.585938 62.6875 35.222656 60.820312 35.902344 58.964844 C 36.761719 56.609375 37.6875 54.273438 38.679688 51.964844 C 39.824219 49.308594 41.054688 46.683594 42.382812 44.105469 C 43.84375 41.269531 45.417969 38.484375 47.121094 35.769531 C 48.902344 32.9375 50.824219 30.179688 52.910156 27.535156 C 55.035156 24.839844 57.339844 22.265625 59.839844 19.859375 C 62.34375 17.449219 65.050781 15.203125 67.972656 13.222656 C 69.449219 12.222656 70.976562 11.285156 72.554688 10.429688 C 72.917969 10.230469 73.460938 10.058594 73.632812 9.6875 C 73.691406 9.5625 73.734375 9.429688 73.78125 9.304688 C 74.007812 8.71875 74.234375 8.136719 74.460938 7.550781 C 74.601562 7.191406 74.738281 6.832031 74.878906 6.472656 C 74.976562 6.222656 74.765625 5.933594 74.503906 5.867188 " fill-opacity="1" fill-rule="nonzero"/></g></svg>