<svg xmlns="http://www.w3.org/2000/svg" xmlns:xlink="http://www.w3.org/1999/xlink" width="100" zoomAndPan="magnify" viewBox="0 0 75 74.999997" height="100" preserveAspectRatio="xMidYMid meet" version="1.0"><defs><clipPath id="857b59cde0"><path d="M 7.5 0 L 63.75 0 L 63.75 75 L 7.5 75 Z M 7.5 0 " clip-rule="nonzero"/></clipPath></defs><g clip-path="url(#857b59cde0)"><path fill="#eb2f1f" d="M 63.75 7.675781 C 62.824219 8.460938 61.898438 9.175781 60.972656 9.886719 C 60.191406 10.53125 59.476562 11.175781 58.765625 11.890625 C 58.054688 12.53125 57.269531 13.246094 56.558594 13.960938 C 56.058594 14.460938 55.632812 15.03125 55.132812 15.53125 C 54.851562 15.816406 54.566406 16.175781 54.28125 16.460938 C 53.285156 17.175781 52.714844 18.246094 52 19.175781 C 51.714844 19.53125 51.359375 19.890625 51.003906 20.246094 C 50.007812 21.246094 49.011719 22.246094 48.015625 23.320312 C 46.660156 24.890625 45.378906 26.460938 44.027344 28.105469 C 43.386719 28.890625 42.746094 29.75 42.105469 30.535156 C 42.035156 30.675781 41.890625 30.75 41.75 30.820312 C 41.25 31.105469 41.035156 31.535156 40.75 31.964844 C 40.464844 32.535156 39.96875 33.035156 39.613281 33.535156 C 39.328125 33.964844 38.972656 34.390625 38.6875 34.890625 C 38.617188 35.105469 38.6875 35.390625 38.757812 35.605469 C 39.183594 36.894531 39.542969 38.25 40.039062 39.464844 C 40.609375 41.109375 41.25 42.75 41.960938 44.394531 C 42.316406 45.25 42.746094 46.035156 43.101562 46.894531 C 43.601562 47.964844 44.027344 49.039062 44.597656 50.109375 C 45.238281 51.464844 46.019531 52.824219 46.660156 54.179688 C 47.015625 54.894531 47.300781 55.609375 47.585938 56.324219 C 47.871094 56.96875 48.226562 57.539062 48.582031 58.109375 C 49.226562 59.253906 49.9375 60.394531 50.578125 61.539062 C 50.71875 61.753906 50.933594 61.96875 51.148438 62.183594 C 51.714844 62.609375 52.359375 62.96875 52.925781 63.398438 C 53.070312 63.46875 53.140625 63.683594 53.285156 63.824219 C 53.425781 64.039062 53.566406 64.253906 53.710938 64.398438 C 54.066406 64.753906 54.207031 65.113281 54.351562 65.613281 C 54.707031 67.113281 53.925781 68.039062 53 68.898438 C 52.855469 69.039062 52.570312 69.183594 52.5 69.398438 C 52.214844 70.328125 51.433594 70.328125 50.71875 70.539062 C 50.007812 70.753906 49.296875 70.46875 48.65625 70.46875 L 48.582031 70.46875 C 47.941406 69.753906 46.804688 69.753906 46.304688 68.898438 C 45.59375 67.613281 44.667969 66.539062 44.523438 65.039062 C 44.523438 64.96875 44.453125 64.898438 44.453125 64.824219 C 44.597656 63.609375 43.957031 62.609375 43.457031 61.539062 C 42.886719 60.324219 42.175781 59.183594 41.675781 57.96875 C 40.894531 56.324219 40.183594 54.609375 39.46875 52.964844 C 39.042969 51.964844 38.472656 50.964844 38.046875 49.964844 C 37.617188 48.894531 37.191406 47.824219 36.765625 46.679688 C 36.621094 46.324219 36.410156 46.035156 36.335938 45.75 C 35.980469 44.824219 35.625 43.894531 35.199219 42.964844 C 34.914062 42.25 34.628906 41.609375 34.34375 41.035156 C 33.703125 40.964844 33.558594 41.320312 33.417969 41.609375 C 32.777344 43.035156 31.707031 44.25 30.855469 45.609375 C 30.070312 46.824219 29.074219 47.824219 28.21875 48.964844 C 27.4375 50.109375 26.796875 51.324219 25.941406 52.324219 C 24.304688 54.253906 23.234375 56.539062 21.882812 58.609375 C 21.171875 59.683594 20.246094 60.539062 19.675781 61.609375 C 19.460938 61.96875 19.320312 62.253906 19.105469 62.609375 C 18.964844 62.824219 18.890625 63.039062 18.75 63.183594 C 17.753906 64.039062 17.324219 65.324219 16.328125 66.253906 C 16.042969 66.46875 16.042969 66.96875 15.902344 67.324219 C 15.476562 68.113281 15.261719 68.96875 14.621094 69.613281 C 14.40625 69.828125 14.335938 70.328125 14.265625 70.683594 C 13.980469 71.753906 13.625 72.753906 12.769531 73.46875 C 12.625 73.613281 12.484375 73.828125 12.339844 74.042969 C 11.984375 74.542969 11.058594 74.828125 10.417969 74.683594 C 10.0625 74.542969 9.707031 74.46875 9.28125 74.398438 C 8.566406 74.253906 7.785156 73.613281 7.714844 72.898438 C 7.5 71.613281 7.5 70.398438 8.285156 69.253906 C 9.421875 67.613281 10.492188 65.898438 11.628906 64.253906 C 12.984375 62.253906 14.40625 60.253906 15.757812 58.253906 C 16.398438 57.394531 17.042969 56.539062 17.683594 55.679688 C 18.179688 54.96875 18.609375 54.179688 19.105469 53.46875 C 20.457031 51.464844 21.882812 49.539062 23.234375 47.609375 C 24.515625 45.824219 25.800781 44.035156 27.082031 42.25 C 27.152344 42.179688 27.222656 42.035156 27.292969 41.964844 C 28.148438 41.179688 28.71875 40.25 29.289062 39.25 C 29.859375 38.320312 30.570312 37.464844 31.28125 36.605469 C 31.496094 36.320312 31.707031 36.035156 31.851562 35.679688 C 32.066406 35.25 32.136719 34.820312 31.992188 34.390625 C 31.636719 33.464844 31.351562 32.535156 30.996094 31.605469 C 30.5 30.25 30.070312 28.820312 29.644531 27.460938 C 28.789062 24.746094 27.933594 22.035156 27.082031 19.390625 C 26.796875 18.460938 26.441406 17.53125 26.15625 16.605469 C 25.726562 15.246094 25.300781 13.816406 24.800781 12.460938 C 24.304688 10.960938 23.734375 9.53125 23.234375 8.101562 C 23.09375 7.675781 22.949219 7.246094 22.808594 6.816406 C 22.738281 6.601562 22.667969 6.386719 22.523438 6.246094 C 21.667969 5.53125 21.667969 4.386719 21.597656 3.457031 C 21.527344 2.316406 22.097656 1.171875 23.234375 0.457031 C 23.664062 0.171875 24.089844 0.316406 24.445312 0.457031 C 25.230469 0.457031 26.011719 0.816406 26.726562 1.171875 C 27.578125 1.601562 28.21875 2.171875 28.292969 3.246094 C 28.292969 3.53125 28.433594 3.886719 28.574219 4.171875 C 28.789062 4.816406 29.144531 5.316406 29.074219 6.03125 L 29.074219 6.101562 C 29.859375 7.386719 29.929688 8.886719 30.355469 10.246094 C 30.710938 11.175781 30.925781 12.101562 31.210938 13.03125 C 31.851562 14.960938 32.351562 16.960938 33.0625 18.890625 C 33.632812 20.460938 34.058594 22.035156 34.558594 23.605469 C 34.699219 24.105469 34.914062 24.605469 35.125 25.175781 C 35.484375 26.25 35.839844 27.25 36.195312 28.320312 C 36.410156 28.890625 36.550781 28.890625 37.050781 28.675781 C 37.617188 28.460938 37.976562 28.035156 38.257812 27.460938 C 38.472656 27.105469 38.542969 26.675781 39.113281 26.675781 C 39.183594 26.675781 39.328125 26.535156 39.398438 26.390625 C 40.039062 25.390625 40.679688 24.320312 41.390625 23.390625 C 41.890625 22.675781 42.53125 22.035156 43.171875 21.320312 C 43.316406 21.105469 43.457031 20.890625 43.601562 20.675781 C 43.8125 20.460938 43.957031 20.175781 44.167969 20.03125 C 44.882812 19.605469 45.449219 18.960938 45.949219 18.246094 C 46.734375 17.175781 47.660156 16.246094 48.582031 15.246094 C 49.226562 14.460938 50.007812 13.816406 50.648438 13.101562 C 51.503906 12.246094 52.429688 11.390625 53.140625 10.386719 C 53.996094 9.246094 54.921875 8.101562 56.132812 7.246094 C 56.84375 6.746094 57.484375 6.03125 58.054688 5.316406 C 59.050781 4.101562 61.117188 4.03125 62.183594 4.960938 C 62.683594 5.386719 63.039062 5.960938 63.394531 6.53125 C 63.464844 6.886719 63.535156 7.171875 63.75 7.675781 Z M 63.75 7.675781 " fill-opacity="1" fill-rule="nonzero"/></g></svg>