<svg xmlns="http://www.w3.org/2000/svg" xmlns:xlink="http://www.w3.org/1999/xlink" width="100" zoomAndPan="magnify" viewBox="0 0 75 74.999997" height="100" preserveAspectRatio="xMidYMid meet" version="1.0"><defs><clipPath id="8b7069f133"><path d="M 19 0 L 56.40625 0 L 56.40625 75 L 19 75 Z M 19 0 " clip-rule="nonzero"/></clipPath></defs><g clip-path="url(#8b7069f133)"><path fill="#000000" d="M 56.007812 10.730469 C 55.722656 10.347656 55.292969 10.09375 54.820312 10.035156 C 54.554688 10 48.234375 9.214844 43.289062 12.03125 C 41.488281 13.058594 40.152344 14.609375 39.167969 16.207031 L 39.167969 1.746094 C 39.167969 0.78125 38.382812 0 37.410156 0 C 36.4375 0 35.648438 0.78125 35.648438 1.746094 L 35.648438 49.007812 C 35.027344 47.804688 34.265625 46.816406 33.375 46.0625 C 31.601562 44.554688 28.878906 43.671875 25.277344 43.433594 C 22.730469 43.265625 20.652344 43.488281 20.566406 43.496094 C 20.089844 43.550781 19.660156 43.792969 19.367188 44.164062 C 19.078125 44.542969 18.953125 45.019531 19.023438 45.488281 C 19.058594 45.75 20.050781 51.992188 24.144531 55.921875 C 27.292969 58.9375 32.132812 59.351562 34.566406 59.351562 C 35.023438 59.351562 35.390625 59.335938 35.648438 59.324219 L 35.648438 73.246094 C 35.648438 74.210938 36.4375 74.992188 37.410156 74.992188 C 38.382812 74.992188 39.167969 74.210938 39.167969 73.246094 L 39.167969 24.710938 C 39.945312 24.863281 41.046875 25.042969 42.292969 25.125 C 42.800781 25.160156 43.289062 25.175781 43.765625 25.175781 C 46.4375 25.175781 48.625 24.632812 50.285156 23.550781 C 52.238281 22.277344 53.847656 19.925781 55.078125 16.5625 C 55.949219 14.179688 56.304688 12.136719 56.320312 12.050781 C 56.398438 11.585938 56.285156 11.105469 56.003906 10.722656 Z M 26.59375 53.410156 C 24.578125 51.476562 23.488281 48.691406 22.949219 46.855469 C 25.511719 46.824219 29.242188 47.140625 31.085938 48.710938 C 32.925781 50.277344 33.710938 53.59375 33.992188 55.863281 C 31.792969 55.789062 28.53125 55.273438 26.589844 53.414062 Z M 48.355469 20.636719 C 46.332031 21.957031 42.90625 21.792969 40.632812 21.429688 C 41.25 19.519531 42.582031 16.460938 45.046875 15.054688 C 47.476562 13.667969 50.480469 13.402344 52.40625 13.398438 C 51.726562 15.847656 50.386719 19.3125 48.355469 20.632812 Z M 48.355469 20.636719 " fill-opacity="1" fill-rule="nonzero"/></g></svg>