<svg xmlns="http://www.w3.org/2000/svg" xmlns:xlink="http://www.w3.org/1999/xlink" width="100" zoomAndPan="magnify" viewBox="0 0 75 74.999997" height="100" preserveAspectRatio="xMidYMid meet" version="1.0"><path fill="#000000" d="M 60.875 37.601562 C 55.683594 27.050781 39.910156 1.925781 39.242188 0.859375 C 38.894531 0.308594 38.253906 0.0585938 37.652344 0.175781 C 37.046875 0.0585938 36.402344 0.3125 36.058594 0.859375 C 35.390625 1.925781 19.617188 27.050781 14.421875 37.601562 C 11.066406 44.425781 10.273438 56.109375 15.425781 64.320312 C 20.667969 72.671875 29.964844 74.675781 37.148438 74.8125 C 37.203125 74.820312 37.257812 74.820312 37.3125 74.820312 C 37.34375 74.820312 37.378906 74.820312 37.40625 74.820312 C 37.59375 74.894531 37.785156 74.933594 37.976562 74.933594 C 38.1875 74.933594 38.398438 74.886719 38.589844 74.800781 C 45.710938 74.589844 54.738281 72.5 59.871094 64.320312 C 65.023438 56.113281 64.234375 44.425781 60.875 37.601562 Z M 37.648438 4.09375 C 40.972656 9.425781 51.648438 26.675781 56.808594 36.394531 C 56.644531 36.519531 56.503906 36.683594 56.394531 36.875 L 37.429688 71.226562 L 18.347656 36.660156 C 23.453125 26.988281 34.296875 9.476562 37.648438 4.09375 Z M 18.03125 62.707031 C 13.253906 55.101562 14.566406 45.25 16.703125 40.019531 L 34.132812 71.589844 C 26.679688 70.847656 21.269531 67.871094 18.03125 62.707031 Z M 57.273438 62.707031 C 53.964844 67.976562 48.402344 70.96875 40.710938 71.632812 L 58.410156 39.574219 C 60.652344 44.679688 62.183594 54.882812 57.269531 62.710938 Z M 57.273438 62.707031 " fill-opacity="1" fill-rule="nonzero"/></svg>