<svg xmlns="http://www.w3.org/2000/svg" xmlns:xlink="http://www.w3.org/1999/xlink" width="100" zoomAndPan="magnify" viewBox="0 0 75 74.999997" height="100" preserveAspectRatio="xMidYMid meet" version="1.0"><defs><clipPath id="54877a4853"><path d="M 17.90625 0 L 56.90625 0 L 56.90625 75 L 17.90625 75 Z M 17.90625 0 " clip-rule="nonzero"/></clipPath></defs><g clip-path="url(#54877a4853)"><path fill="#000000" d="M 43.339844 19.484375 C 46.164062 18.582031 48.765625 17.035156 50.953125 14.910156 C 54.597656 11.371094 56.703125 6.625 56.886719 1.546875 C 56.914062 0.753906 56.300781 0.0898438 55.511719 0.0625 C 54.71875 0.0351562 54.0625 0.652344 54.035156 1.445312 C 53.710938 10.472656 46.40625 17.546875 37.410156 17.546875 C 28.410156 17.546875 21.109375 10.46875 20.785156 1.441406 C 20.757812 0.652344 20.105469 0.03125 19.308594 0.0585938 C 18.519531 0.0898438 17.902344 0.753906 17.933594 1.546875 C 18.113281 6.625 20.222656 11.371094 23.863281 14.910156 C 26.050781 17.035156 28.652344 18.582031 31.480469 19.484375 C 26.300781 21.785156 22.675781 26.988281 22.675781 33.035156 C 22.675781 39.078125 26.472656 44.527344 31.84375 46.738281 C 29.0625 48.566406 27.21875 51.726562 27.21875 55.308594 C 27.21875 59.367188 29.582031 62.878906 32.992188 64.539062 C 31.929688 65.644531 31.273438 67.152344 31.273438 68.8125 C 31.273438 72.210938 34.027344 74.976562 37.410156 74.976562 C 40.796875 74.976562 43.546875 72.210938 43.546875 68.8125 C 43.546875 67.152344 42.890625 65.648438 41.832031 64.539062 C 45.242188 62.882812 47.605469 59.367188 47.605469 55.308594 C 47.605469 51.726562 45.757812 48.566406 42.976562 46.738281 C 48.351562 44.527344 52.148438 39.21875 52.148438 33.035156 C 52.148438 26.847656 48.523438 21.785156 43.34375 19.484375 Z M 40.691406 68.8125 C 40.691406 70.628906 39.21875 72.113281 37.410156 72.113281 C 35.597656 72.113281 34.125 70.632812 34.125 68.8125 C 34.125 67.132812 35.382812 65.746094 37 65.542969 C 37.132812 65.550781 37.269531 65.554688 37.410156 65.554688 C 37.546875 65.554688 37.679688 65.550781 37.820312 65.542969 C 39.433594 65.746094 40.691406 67.132812 40.691406 68.8125 Z M 44.746094 55.3125 C 44.746094 59.214844 41.714844 62.414062 37.894531 62.667969 C 37.734375 62.65625 37.574219 62.648438 37.410156 62.648438 C 37.246094 62.648438 37.085938 62.65625 36.921875 62.667969 C 33.105469 62.414062 30.070312 59.214844 30.070312 55.3125 C 30.070312 51.410156 33.359375 47.941406 37.410156 47.941406 C 41.457031 47.941406 44.746094 51.246094 44.746094 55.3125 Z M 37.410156 44.972656 C 30.859375 44.972656 25.53125 39.617188 25.53125 33.035156 C 25.53125 26.457031 30.859375 21.101562 37.410156 21.101562 C 43.957031 21.101562 49.289062 26.457031 49.289062 33.035156 C 49.289062 39.617188 43.957031 44.972656 37.410156 44.972656 Z M 37.410156 44.972656 " fill-opacity="1" fill-rule="nonzero"/></g></svg>