<svg xmlns="http://www.w3.org/2000/svg" xmlns:xlink="http://www.w3.org/1999/xlink" width="100" zoomAndPan="magnify" viewBox="0 0 75 74.999997" height="100" preserveAspectRatio="xMidYMid meet" version="1.0"><defs><clipPath id="e174b932ec"><path d="M 11.546875 0 L 63 0 L 63 75 L 11.546875 75 Z M 11.546875 0 " clip-rule="nonzero"/></clipPath></defs><g clip-path="url(#e174b932ec)"><path fill="#000000" d="M 59.683594 14.648438 C 59.007812 15.121094 58.078125 14.953125 57.605469 14.277344 C 57.136719 13.601562 57.300781 12.675781 57.96875 12.203125 C 58.070312 12.128906 60.117188 10.597656 59.886719 7.84375 C 59.699219 5.566406 58.339844 4.496094 57.234375 3.996094 C 55.359375 3.148438 53.007812 3.394531 51.382812 4.605469 C 49.796875 5.789062 49.132812 7.695312 49.453125 10.121094 C 49.824219 12.933594 51.785156 15.023438 53.855469 17.226562 C 56.265625 19.792969 58.757812 22.449219 58.757812 26.382812 L 58.757812 40.695312 C 58.757812 42.53125 57.113281 44.316406 55.210938 46.390625 C 53.882812 47.835938 52.0625 49.816406 52.0625 50.808594 C 52.0625 52.476562 51.9375 56.28125 51.820312 59.960938 C 51.722656 62.925781 51.632812 65.730469 51.632812 66.699219 C 51.632812 69.574219 49.15625 71.847656 44.269531 73.460938 C 41 74.542969 37.789062 74.953125 37.652344 74.96875 C 37.589844 74.976562 37.527344 74.980469 37.464844 74.980469 C 37.449219 74.980469 37.433594 74.976562 37.417969 74.976562 C 37.398438 74.976562 37.382812 74.980469 37.367188 74.980469 C 37.304688 74.980469 37.242188 74.976562 37.179688 74.96875 C 37.046875 74.953125 33.828125 74.542969 30.5625 73.460938 C 25.675781 71.847656 23.199219 69.570312 23.199219 66.699219 C 23.199219 65.730469 23.109375 62.925781 23.011719 59.960938 C 22.894531 56.28125 22.769531 52.476562 22.769531 50.808594 C 22.769531 49.816406 20.953125 47.835938 19.625 46.390625 C 17.71875 44.316406 16.074219 42.53125 16.074219 40.695312 L 16.074219 26.382812 C 16.074219 22.449219 18.566406 19.796875 20.976562 17.226562 C 23.046875 15.019531 25.007812 12.933594 25.382812 10.121094 C 25.703125 7.695312 25.035156 5.789062 23.449219 4.605469 C 21.828125 3.394531 19.476562 3.148438 17.597656 3.996094 C 16.492188 4.496094 15.132812 5.570312 14.945312 7.84375 C 14.710938 10.613281 16.777344 12.140625 16.867188 12.207031 C 17.53125 12.6875 17.6875 13.617188 17.210938 14.289062 C 16.738281 14.957031 15.824219 15.121094 15.152344 14.652344 C 15.003906 14.550781 11.597656 12.113281 11.972656 7.59375 C 12.222656 4.730469 13.824219 2.425781 16.378906 1.273438 C 19.210938 -0.0117188 22.769531 0.367188 25.234375 2.207031 C 27.703125 4.050781 28.808594 7 28.339844 10.515625 C 27.839844 14.28125 25.347656 16.9375 23.148438 19.277344 C 20.953125 21.613281 19.058594 23.632812 19.058594 26.382812 L 19.058594 40.695312 C 19.058594 41.363281 20.855469 43.316406 21.816406 44.367188 C 23.84375 46.570312 25.753906 48.648438 25.753906 50.808594 C 25.753906 52.429688 25.882812 56.378906 25.992188 59.863281 C 26.097656 62.988281 26.183594 65.683594 26.183594 66.699219 C 26.183594 69.316406 32.835938 71.386719 37.417969 71.988281 C 42 71.386719 48.65625 69.316406 48.65625 66.699219 C 48.65625 65.683594 48.742188 62.988281 48.84375 59.863281 C 48.957031 56.378906 49.085938 52.429688 49.085938 50.808594 C 49.085938 48.652344 50.996094 46.570312 53.019531 44.367188 C 53.984375 43.316406 55.78125 41.363281 55.78125 40.695312 L 55.78125 26.382812 C 55.78125 23.636719 53.882812 21.617188 51.691406 19.277344 C 49.492188 16.933594 47 14.28125 46.5 10.515625 C 46.03125 7.003906 47.136719 4.050781 49.601562 2.207031 C 52.070312 0.367188 55.625 -0.0078125 58.460938 1.273438 C 61.015625 2.425781 62.617188 4.730469 62.859375 7.59375 C 63.238281 12.113281 59.824219 14.550781 59.679688 14.652344 Z M 59.683594 14.648438 " fill-opacity="1" fill-rule="nonzero"/></g></svg>