<svg xmlns="http://www.w3.org/2000/svg" xmlns:xlink="http://www.w3.org/1999/xlink" width="100" zoomAndPan="magnify" viewBox="0 0 75 74.999997" height="100" preserveAspectRatio="xMidYMid meet" version="1.0"><defs><clipPath id="0285c0ad44"><path d="M 0 4.5 L 75 4.5 L 75 70.5 L 0 70.5 Z M 0 4.5 " clip-rule="nonzero"/></clipPath></defs><g clip-path="url(#0285c0ad44)"><path fill="#000000" d="M 74.660156 5.207031 C 74.410156 4.769531 73.945312 4.5 73.441406 4.5 L 1.578125 4.5 C 1.078125 4.5 0.613281 4.765625 0.359375 5.199219 C 0.105469 5.628906 0.101562 6.164062 0.347656 6.601562 L 35.761719 69.765625 C 36.011719 70.207031 36.476562 70.484375 36.980469 70.488281 L 36.988281 70.488281 C 37.492188 70.488281 37.957031 70.21875 38.210938 69.78125 L 74.660156 6.617188 C 74.914062 6.179688 74.914062 5.640625 74.660156 5.207031 Z M 37.179688 8.367188 C 39.6875 8.574219 45.117188 13.027344 45.117188 17.09375 C 45.117188 40.757812 39.78125 57.234375 37.179688 63.871094 C 34.574219 57.246094 29.242188 40.792969 29.242188 17.09375 C 29.242188 13.027344 34.671875 8.574219 37.183594 8.367188 Z M 32.691406 7.320312 C 29.480469 9.480469 26.421875 13.308594 26.421875 17.09375 C 26.421875 34.660156 29.230469 48.210938 31.816406 56.964844 L 3.984375 7.320312 Z M 42.734375 56.300781 C 45.265625 47.53125 47.9375 34.21875 47.9375 17.09375 C 47.9375 13.308594 44.875 9.484375 41.667969 7.320312 L 70.996094 7.320312 Z M 42.734375 56.300781 " fill-opacity="1" fill-rule="nonzero"/></g></svg>