<svg xmlns="http://www.w3.org/2000/svg" xmlns:xlink="http://www.w3.org/1999/xlink" width="100" zoomAndPan="magnify" viewBox="0 0 75 74.999997" height="100" preserveAspectRatio="xMidYMid meet" version="1.0"><defs><clipPath id="ccc7c55c91"><path d="M 0.78125 0 L 74.28125 0 L 74.28125 75 L 0.78125 75 Z M 0.78125 0 " clip-rule="nonzero"/></clipPath></defs><g clip-path="url(#ccc7c55c91)"><path fill="#000000" d="M 73.097656 35.183594 L 48.03125 26.871094 L 39.59375 1.214844 C 39.359375 0.507812 38.699219 0.0429688 37.949219 0.0351562 C 37.203125 0.0429688 36.542969 0.527344 36.320312 1.242188 L 28.429688 26.433594 L 1.972656 34.960938 C 1.261719 35.191406 0.78125 35.851562 0.78125 36.601562 C 0.78125 37.347656 1.265625 38.007812 1.980469 38.234375 L 27.773438 46.4375 L 36.210938 73.765625 C 36.433594 74.484375 37.097656 74.972656 37.851562 74.976562 C 38.605469 74.976562 39.269531 74.488281 39.496094 73.773438 L 48.039062 46.546875 L 73.082031 38.453125 C 73.789062 38.226562 74.273438 37.570312 74.273438 36.824219 C 74.273438 36.082031 73.800781 35.421875 73.097656 35.1875 Z M 46.136719 43.550781 C 45.605469 43.722656 45.191406 44.140625 45.023438 44.671875 L 37.867188 67.476562 L 30.792969 44.570312 C 30.628906 44.035156 30.210938 43.613281 29.671875 43.441406 L 8.136719 36.585938 L 30.332031 29.429688 C 30.863281 29.257812 31.277344 28.839844 31.445312 28.308594 L 38 7.382812 L 45.027344 28.761719 C 45.195312 29.28125 45.605469 29.6875 46.121094 29.855469 L 67.023438 36.789062 L 46.132812 43.542969 Z M 46.136719 43.550781 " fill-opacity="1" fill-rule="nonzero"/></g></svg>