<svg xmlns="http://www.w3.org/2000/svg" xmlns:xlink="http://www.w3.org/1999/xlink" width="100" zoomAndPan="magnify" viewBox="0 0 75 74.999997" height="100" preserveAspectRatio="xMidYMid meet" version="1.0"><defs><clipPath id="c49718040b"><path d="M 9.875 0 L 65.375 0 L 65.375 75 L 9.875 75 Z M 9.875 0 " clip-rule="nonzero"/></clipPath></defs><g clip-path="url(#c49718040b)"><path fill="#000000" d="M 65.324219 1.992188 C 65.324219 1.992188 65.324219 1.96875 65.328125 1.960938 C 65.332031 1.914062 65.339844 1.871094 65.34375 1.824219 C 65.34375 1.804688 65.34375 1.789062 65.34375 1.769531 C 65.34375 1.730469 65.34375 1.6875 65.34375 1.648438 C 65.34375 1.628906 65.34375 1.605469 65.34375 1.585938 C 65.34375 1.546875 65.335938 1.511719 65.332031 1.472656 C 65.332031 1.453125 65.328125 1.425781 65.324219 1.40625 C 65.320312 1.371094 65.3125 1.335938 65.304688 1.300781 C 65.296875 1.277344 65.292969 1.257812 65.289062 1.234375 C 65.277344 1.199219 65.261719 1.164062 65.25 1.125 C 65.242188 1.105469 65.238281 1.089844 65.230469 1.074219 C 65.1875 0.960938 65.132812 0.855469 65.066406 0.757812 C 65.0625 0.75 65.054688 0.738281 65.050781 0.730469 C 65.019531 0.691406 64.992188 0.652344 64.960938 0.613281 C 64.960938 0.609375 64.957031 0.605469 64.953125 0.601562 C 64.945312 0.59375 64.9375 0.585938 64.929688 0.578125 C 64.902344 0.542969 64.871094 0.511719 64.839844 0.480469 C 64.828125 0.46875 64.8125 0.453125 64.796875 0.441406 C 64.769531 0.414062 64.738281 0.386719 64.707031 0.363281 C 64.691406 0.347656 64.675781 0.335938 64.65625 0.324219 C 64.628906 0.300781 64.597656 0.285156 64.566406 0.261719 C 64.542969 0.25 64.523438 0.234375 64.5 0.222656 C 64.488281 0.214844 64.476562 0.207031 64.464844 0.199219 C 64.445312 0.191406 64.425781 0.183594 64.410156 0.175781 C 64.390625 0.164062 64.363281 0.152344 64.339844 0.140625 C 64.308594 0.125 64.273438 0.113281 64.242188 0.101562 C 64.21875 0.09375 64.199219 0.0859375 64.171875 0.078125 C 64.136719 0.0664062 64.097656 0.0546875 64.0625 0.046875 C 64.039062 0.0390625 64.019531 0.0351562 64 0.03125 C 63.957031 0.0234375 63.914062 0.015625 63.871094 0.0078125 C 63.855469 0.0078125 63.839844 0.00390625 63.824219 0.00390625 C 63.765625 -0.00390625 63.703125 -0.0078125 63.644531 -0.0078125 L 11.609375 -0.0078125 C 11.546875 -0.0078125 11.484375 -0.00390625 11.425781 0.00390625 C 11.414062 0.00390625 11.410156 0.00390625 11.398438 0.0078125 C 11.351562 0.0117188 11.300781 0.0234375 11.25 0.03125 C 11.234375 0.0351562 11.21875 0.0390625 11.203125 0.0429688 C 11.160156 0.0507812 11.121094 0.0664062 11.082031 0.078125 C 11.058594 0.0820312 11.039062 0.09375 11.019531 0.0976562 C 10.984375 0.109375 10.949219 0.125 10.917969 0.140625 C 10.894531 0.148438 10.871094 0.160156 10.847656 0.171875 C 10.828125 0.183594 10.8125 0.1875 10.792969 0.199219 C 10.78125 0.207031 10.769531 0.214844 10.753906 0.222656 C 10.734375 0.234375 10.710938 0.246094 10.691406 0.261719 C 10.660156 0.28125 10.632812 0.300781 10.601562 0.324219 C 10.582031 0.335938 10.5625 0.351562 10.546875 0.363281 C 10.515625 0.386719 10.484375 0.414062 10.457031 0.441406 C 10.441406 0.453125 10.429688 0.464844 10.414062 0.480469 C 10.382812 0.511719 10.351562 0.542969 10.324219 0.578125 C 10.320312 0.585938 10.308594 0.59375 10.304688 0.601562 C 10.304688 0.605469 10.296875 0.605469 10.292969 0.613281 C 10.261719 0.652344 10.230469 0.691406 10.207031 0.730469 C 10.199219 0.738281 10.195312 0.75 10.1875 0.757812 C 10.125 0.855469 10.066406 0.960938 10.023438 1.074219 C 10.019531 1.089844 10.011719 1.105469 10.007812 1.125 C 9.992188 1.164062 9.980469 1.199219 9.96875 1.234375 C 9.960938 1.257812 9.960938 1.277344 9.953125 1.300781 C 9.945312 1.335938 9.9375 1.371094 9.929688 1.40625 C 9.929688 1.425781 9.925781 1.453125 9.921875 1.472656 C 9.917969 1.511719 9.914062 1.546875 9.910156 1.585938 C 9.910156 1.605469 9.910156 1.628906 9.910156 1.648438 C 9.910156 1.6875 9.910156 1.730469 9.910156 1.769531 C 9.910156 1.789062 9.910156 1.804688 9.910156 1.824219 C 9.914062 1.871094 9.917969 1.914062 9.925781 1.960938 C 9.925781 1.96875 9.925781 1.980469 9.929688 1.992188 L 9.933594 2.023438 C 9.933594 2.023438 9.933594 2.027344 9.933594 2.027344 L 22.714844 73.601562 C 22.714844 73.601562 22.714844 73.605469 22.714844 73.605469 C 22.726562 73.695312 22.753906 73.78125 22.785156 73.867188 C 22.789062 73.882812 22.792969 73.894531 22.796875 73.90625 C 22.828125 73.984375 22.863281 74.0625 22.90625 74.140625 C 22.914062 74.152344 22.921875 74.164062 22.929688 74.175781 C 22.972656 74.25 23.023438 74.320312 23.078125 74.386719 C 23.085938 74.394531 23.09375 74.402344 23.101562 74.410156 C 23.160156 74.480469 23.222656 74.542969 23.292969 74.601562 C 23.355469 74.65625 23.429688 74.707031 23.503906 74.753906 C 23.519531 74.757812 23.53125 74.769531 23.542969 74.773438 C 23.550781 74.78125 23.558594 74.785156 23.566406 74.789062 C 23.640625 74.828125 23.710938 74.859375 23.78125 74.886719 C 23.796875 74.890625 23.8125 74.894531 23.828125 74.902344 C 23.898438 74.925781 23.96875 74.945312 24.042969 74.960938 C 24.066406 74.964844 24.089844 74.96875 24.109375 74.972656 C 24.199219 74.988281 24.289062 74.996094 24.378906 74.996094 C 24.378906 74.996094 24.378906 74.996094 24.382812 74.996094 L 50.851562 74.996094 C 50.851562 74.996094 50.851562 74.996094 50.855469 74.996094 C 50.945312 74.996094 51.035156 74.988281 51.125 74.972656 C 51.148438 74.96875 51.167969 74.964844 51.191406 74.960938 C 51.261719 74.945312 51.332031 74.925781 51.402344 74.902344 C 51.417969 74.894531 51.433594 74.890625 51.449219 74.886719 C 51.519531 74.859375 51.59375 74.828125 51.664062 74.789062 C 51.671875 74.785156 51.679688 74.78125 51.6875 74.773438 C 51.699219 74.769531 51.714844 74.757812 51.726562 74.753906 C 51.804688 74.707031 51.875 74.65625 51.9375 74.601562 C 52.011719 74.542969 52.074219 74.480469 52.132812 74.410156 C 52.136719 74.402344 52.148438 74.394531 52.152344 74.386719 C 52.207031 74.320312 52.257812 74.25 52.300781 74.175781 C 52.308594 74.164062 52.316406 74.152344 52.324219 74.140625 C 52.367188 74.066406 52.402344 73.988281 52.433594 73.90625 C 52.441406 73.894531 52.445312 73.882812 52.445312 73.867188 C 52.476562 73.78125 52.503906 73.695312 52.519531 73.605469 C 52.519531 73.605469 52.519531 73.605469 52.519531 73.601562 L 65.320312 2.03125 C 65.320312 2.03125 65.320312 2.023438 65.320312 2.023438 L 65.324219 1.996094 Z M 53.417969 49.300781 L 39.648438 49.300781 L 39.566406 49.15625 L 60.144531 11.625 L 53.417969 49.304688 Z M 50.039062 68.253906 L 41.503906 52.691406 L 52.8125 52.691406 L 50.035156 68.253906 Z M 22.441406 52.691406 L 33.746094 52.691406 L 25.214844 68.253906 L 22.4375 52.691406 Z M 35.6875 49.15625 L 35.605469 49.300781 L 21.835938 49.300781 L 15.109375 11.625 L 35.6875 49.160156 Z M 14.476562 3.390625 L 60.777344 3.390625 L 37.628906 45.617188 Z M 37.628906 52.699219 L 47.996094 71.609375 L 27.257812 71.609375 Z M 37.628906 52.699219 " fill-opacity="1" fill-rule="nonzero"/></g></svg>