<svg xmlns="http://www.w3.org/2000/svg" xmlns:xlink="http://www.w3.org/1999/xlink" width="100" zoomAndPan="magnify" viewBox="0 0 75 74.999997" height="100" preserveAspectRatio="xMidYMid meet" version="1.0"><defs><clipPath id="14c51e5627"><path d="M 12.5 0 L 62.75 0 L 62.75 75 L 12.5 75 Z M 12.5 0 " clip-rule="nonzero"/></clipPath></defs><g clip-path="url(#14c51e5627)"><path fill="#000000" d="M 61.230469 19.523438 C 60.308594 19.28125 59.367188 19.832031 59.128906 20.75 C 59.050781 21.03125 57.300781 27.726562 56.453125 33.726562 C 56.042969 36.636719 55.550781 41.03125 55.152344 44.773438 C 53.628906 42.167969 51.539062 39.929688 49.042969 38.226562 C 49.703125 35.703125 51.289062 28.945312 51.464844 21.746094 C 51.671875 12.945312 51.78125 8.441406 51.78125 8.441406 C 51.800781 7.492188 51.050781 6.707031 50.09375 6.683594 C 49.144531 6.660156 48.351562 7.414062 48.328125 8.363281 C 48.328125 8.363281 48.222656 12.863281 48.011719 21.667969 C 47.867188 27.734375 46.621094 33.613281 45.921875 36.484375 C 43.902344 35.582031 41.707031 34.992188 39.402344 34.792969 C 39.539062 29.777344 39.886719 14.535156 39.457031 1.691406 C 39.425781 0.742188 38.632812 0.0078125 37.675781 0.0351562 C 36.722656 0.0664062 35.976562 0.863281 36.007812 1.808594 C 36.441406 14.636719 36.085938 29.898438 35.949219 34.785156 C 33.425781 34.992188 31.035156 35.65625 28.855469 36.699219 C 28.167969 33.917969 26.863281 27.902344 26.714844 21.664062 C 26.503906 12.863281 26.398438 8.359375 26.398438 8.359375 C 26.375 7.410156 25.589844 6.664062 24.628906 6.683594 C 23.675781 6.703125 22.925781 7.492188 22.945312 8.4375 C 22.945312 8.4375 23.050781 12.945312 23.261719 21.746094 C 23.441406 29.261719 25.167969 36.304688 25.761719 38.539062 C 23.464844 40.195312 21.53125 42.320312 20.097656 44.773438 C 19.699219 41.03125 19.207031 36.636719 18.796875 33.722656 C 17.949219 27.722656 16.199219 21.027344 16.121094 20.746094 C 15.882812 19.828125 14.941406 19.277344 14.019531 19.519531 C 13.09375 19.757812 12.542969 20.695312 12.785156 21.613281 C 12.804688 21.679688 14.558594 28.398438 15.378906 34.199219 C 16.207031 40.070312 17.382812 52.136719 17.394531 52.257812 C 17.40625 52.398438 17.445312 52.535156 17.488281 52.664062 C 17.410156 53.386719 17.363281 54.121094 17.363281 54.867188 C 17.363281 65.980469 26.453125 75.023438 37.625 75.023438 C 48.796875 75.023438 57.886719 65.980469 57.886719 54.867188 C 57.886719 54.121094 57.839844 53.382812 57.757812 52.660156 C 57.804688 52.53125 57.839844 52.398438 57.855469 52.261719 C 57.867188 52.140625 59.042969 40.070312 59.867188 34.203125 C 60.6875 28.40625 62.441406 21.683594 62.460938 21.617188 C 62.703125 20.699219 62.152344 19.761719 61.230469 19.523438 Z M 37.628906 71.589844 C 28.359375 71.589844 20.820312 64.085938 20.820312 54.867188 C 20.820312 45.644531 28.359375 38.144531 37.628906 38.144531 C 46.894531 38.144531 54.4375 45.644531 54.4375 54.867188 C 54.4375 64.085938 46.894531 71.589844 37.628906 71.589844 Z M 37.628906 71.589844 " fill-opacity="1" fill-rule="nonzero"/></g></svg>