<svg xmlns="http://www.w3.org/2000/svg" xmlns:xlink="http://www.w3.org/1999/xlink" width="100" zoomAndPan="magnify" viewBox="0 0 75 74.999997" height="100" preserveAspectRatio="xMidYMid meet" version="1.0"><path fill="#000000" d="M 37.507812 0 C 16.824219 0 0 16.824219 0 37.507812 C 0 58.1875 16.824219 75.011719 37.507812 75.011719 C 58.1875 75.011719 75.011719 58.1875 75.011719 37.507812 C 75.011719 16.824219 58.1875 0 37.507812 0 Z M 42.050781 50.980469 C 29.242188 50.980469 18.824219 40.5625 18.824219 27.753906 C 18.824219 14.945312 29.242188 4.527344 42.050781 4.527344 C 54.859375 4.527344 65.277344 14.945312 65.277344 27.753906 C 65.277344 40.5625 54.859375 50.980469 42.050781 50.980469 Z M 29.105469 4.46875 C 20.9375 9.03125 15.402344 17.757812 15.402344 27.753906 C 15.402344 34.695312 18.070312 41.019531 22.429688 45.769531 C 22.417969 45.777344 22.40625 45.785156 22.398438 45.796875 L 10.15625 57.820312 C 5.929688 52.140625 3.425781 45.113281 3.425781 37.507812 C 3.421875 21.609375 14.359375 8.226562 29.105469 4.46875 Z M 12.335938 60.464844 L 24.789062 48.234375 C 24.828125 48.199219 24.851562 48.15625 24.886719 48.121094 C 26.539062 49.515625 28.371094 50.71875 30.332031 51.683594 L 23.335938 68.503906 C 19.148438 66.582031 15.40625 63.832031 12.335938 60.464844 Z M 26.507812 69.769531 L 33.492188 52.984375 C 35.664062 53.726562 37.964844 54.191406 40.347656 54.34375 L 40.453125 71.464844 C 39.480469 71.546875 38.5 71.589844 37.507812 71.589844 C 33.660156 71.589844 29.960938 70.949219 26.507812 69.769531 Z M 43.871094 70.992188 L 43.769531 54.34375 C 57.667969 53.453125 68.699219 41.871094 68.699219 27.753906 C 68.699219 26.035156 68.53125 24.359375 68.21875 22.730469 C 70.378906 27.203125 71.589844 32.214844 71.589844 37.507812 C 71.589844 54.125 59.632812 68.003906 43.871094 70.992188 Z M 43.871094 70.992188 " fill-opacity="1" fill-rule="nonzero"/></svg>