<svg xmlns="http://www.w3.org/2000/svg" xmlns:xlink="http://www.w3.org/1999/xlink" width="100" zoomAndPan="magnify" viewBox="0 0 75 74.999997" height="100" preserveAspectRatio="xMidYMid meet" version="1.0"><path fill="#000000" d="M 50.21875 27.304688 C 47.539062 21.847656 39.496094 8.988281 38.984375 8.171875 L 38.984375 1.492188 C 38.984375 0.667969 38.316406 0 37.488281 0 C 36.660156 0 35.988281 0.667969 35.988281 1.492188 L 35.988281 8.367188 C 34.84375 10.199219 27.429688 22.109375 24.878906 27.304688 C 23.054688 31.019531 22.628906 37.386719 25.4375 41.867188 C 26.949219 44.28125 29.992188 47.125 35.992188 47.585938 L 35.992188 73.507812 C 35.992188 74.335938 36.660156 75.003906 37.488281 75.003906 C 38.316406 75.003906 38.988281 74.335938 38.988281 73.507812 L 38.988281 47.597656 C 45.066406 47.164062 48.144531 44.300781 49.664062 41.867188 C 52.46875 37.386719 52.042969 31.019531 50.222656 27.304688 Z M 27.976562 40.285156 C 25.609375 36.496094 26.3125 31.179688 27.570312 28.613281 C 29.257812 25.183594 33.277344 18.488281 35.988281 14.0625 L 35.988281 44.589844 C 32.25 44.257812 29.558594 42.8125 27.976562 40.285156 Z M 47.121094 40.285156 C 45.519531 42.839844 42.789062 44.289062 38.984375 44.601562 L 38.984375 13.863281 C 41.695312 18.28125 45.8125 25.128906 47.523438 28.613281 C 48.78125 31.179688 49.492188 36.496094 47.117188 40.285156 Z M 47.121094 40.285156 " fill-opacity="1" fill-rule="nonzero"/></svg>