<svg xmlns="http://www.w3.org/2000/svg" xmlns:xlink="http://www.w3.org/1999/xlink" width="100" zoomAndPan="magnify" viewBox="0 0 75 74.999997" height="100" preserveAspectRatio="xMidYMid meet" version="1.0"><defs><clipPath id="52bee75acd"><path d="M 0 6 L 75 6 L 75 69.859375 L 0 69.859375 Z M 0 6 " clip-rule="nonzero"/></clipPath></defs><g clip-path="url(#52bee75acd)"><path fill="#000000" d="M 74.757812 17.5625 C 74.714844 14.703125 74.636719 12.449219 74.515625 10.859375 C 74.332031 8.351562 74.109375 7.371094 73.230469 6.855469 C 71.933594 6.097656 70.414062 6.980469 68.054688 8.875 C 66.542969 10.089844 64.574219 11.851562 62.210938 14.105469 C 59.476562 16.710938 56.820312 19.398438 55.402344 20.851562 L 39.019531 6.449219 C 38.417969 5.921875 37.515625 5.921875 36.917969 6.453125 L 21.007812 20.523438 C 19.597656 18.988281 16.96875 16.171875 14.210938 13.480469 C 6.695312 6.140625 4.152344 5.355469 2.488281 6.46875 C 1.375 7.214844 0.113281 8.058594 1.382812 38.144531 C 1.992188 52.59375 2.933594 67.011719 2.941406 67.15625 C 2.960938 67.476562 3.078125 67.78125 3.273438 68.035156 C 3.8125 68.726562 4.058594 69.042969 13.476562 69.402344 C 18.679688 69.601562 25.710938 69.75 33.28125 69.816406 C 36.191406 69.84375 39.3125 69.855469 42.480469 69.855469 C 53.566406 69.855469 65.167969 69.671875 69.882812 69.125 C 71.554688 68.929688 72.6875 68.730469 73.152344 67.722656 C 74.054688 65.757812 74.613281 38.507812 74.636719 37.347656 C 74.746094 31.851562 74.859375 23.957031 74.765625 17.5625 Z M 71.4375 37.984375 C 71.152344 51.714844 70.640625 62.863281 70.304688 65.859375 C 67.507812 66.324219 56.78125 66.742188 37.9375 66.652344 C 21.515625 66.578125 9.457031 66.15625 6.035156 65.761719 C 3.980469 33.953125 3.675781 13.859375 4.414062 9.480469 C 5.382812 9.957031 7.699219 11.503906 12.710938 16.472656 C 16.394531 20.121094 19.667969 23.785156 19.703125 23.820312 C 20.285156 24.472656 21.285156 24.53125 21.9375 23.953125 L 37.972656 9.777344 L 54.441406 24.25 C 55.082031 24.808594 56.046875 24.765625 56.632812 24.15625 C 62.003906 18.5625 68.484375 12.375 71.296875 10.390625 C 71.609375 13.78125 71.753906 22.867188 71.4375 37.984375 Z M 71.4375 37.984375 " fill-opacity="1" fill-rule="nonzero"/></g></svg>