<svg xmlns="http://www.w3.org/2000/svg" xmlns:xlink="http://www.w3.org/1999/xlink" width="100" zoomAndPan="magnify" viewBox="0 0 75 74.999997" height="100" preserveAspectRatio="xMidYMid meet" version="1.0"><defs><clipPath id="bff0d28cae"><path d="M 0 3.203125 L 75 3.203125 L 75 71.453125 L 0 71.453125 Z M 0 3.203125 " clip-rule="nonzero"/></clipPath></defs><g clip-path="url(#bff0d28cae)"><path fill="#000000" d="M 73.015625 28.398438 L 55.089844 28.398438 C 54.746094 25.28125 53.578125 22.40625 51.808594 19.996094 L 58.78125 13.578125 C 59.574219 12.847656 59.625 11.621094 58.894531 10.832031 C 58.160156 10.046875 56.925781 9.996094 56.136719 10.722656 L 49.175781 17.125 C 46.519531 14.796875 43.164062 13.25 39.457031 12.847656 L 39.457031 5.144531 C 39.457031 4.070312 38.585938 3.203125 37.507812 3.203125 C 36.429688 3.203125 35.554688 4.070312 35.554688 5.144531 L 35.554688 12.847656 C 31.753906 13.261719 28.308594 14.878906 25.621094 17.3125 L 18.460938 10.722656 C 17.667969 9.996094 16.433594 10.042969 15.703125 10.832031 C 14.972656 11.621094 15.015625 12.847656 15.8125 13.578125 L 23.042969 20.230469 C 21.367188 22.59375 20.265625 25.378906 19.929688 28.398438 L 2 28.398438 C 0.921875 28.398438 0.046875 29.265625 0.046875 30.339844 C 0.046875 31.414062 0.921875 32.28125 2 32.28125 L 19.925781 32.28125 C 20.28125 35.484375 21.496094 38.429688 23.34375 40.882812 L 15.636719 47.976562 C 15.011719 48.550781 14.832031 49.460938 15.191406 50.222656 L 24.601562 70.3125 C 24.933594 71.019531 25.636719 71.433594 26.371094 71.433594 C 26.648438 71.433594 26.929688 71.375 27.195312 71.25 C 28.171875 70.800781 28.59375 69.640625 28.140625 68.671875 L 19.328125 49.867188 L 26.015625 43.714844 C 28.644531 45.953125 31.9375 47.441406 35.550781 47.835938 L 35.550781 58.351562 C 35.550781 59.421875 36.425781 60.292969 37.503906 60.292969 C 38.582031 60.292969 39.457031 59.421875 39.457031 58.351562 L 39.457031 47.835938 C 42.972656 47.449219 46.183594 46.035156 48.773438 43.902344 L 55.257812 49.871094 L 46.449219 68.675781 C 45.996094 69.644531 46.417969 70.804688 47.394531 71.253906 C 47.660156 71.378906 47.9375 71.4375 48.214844 71.4375 C 48.949219 71.4375 49.65625 71.023438 49.988281 70.316406 L 59.398438 50.226562 C 59.753906 49.460938 59.574219 48.550781 58.953125 47.980469 L 51.488281 41.113281 C 53.433594 38.617188 54.71875 35.589844 55.085938 32.289062 L 73.011719 32.289062 C 74.089844 32.289062 74.964844 31.421875 74.964844 30.347656 C 74.964844 29.273438 74.089844 28.40625 73.011719 28.40625 Z M 51.152344 28.398438 L 42.671875 28.398438 L 48.917969 22.652344 C 50.070312 24.339844 50.851562 26.289062 51.152344 28.398438 Z M 46.292969 19.777344 L 39.457031 26.066406 L 39.457031 16.761719 C 42.035156 17.125 44.378906 18.199219 46.292969 19.777344 Z M 35.554688 16.761719 L 35.554688 26.449219 L 28.5 19.964844 C 30.453125 18.28125 32.878906 17.140625 35.554688 16.761719 Z M 25.9375 22.894531 L 31.921875 28.402344 L 23.855469 28.402344 C 24.144531 26.394531 24.871094 24.527344 25.933594 22.894531 Z M 23.859375 32.285156 L 32.699219 32.285156 L 26.238281 38.230469 C 25.007812 36.5 24.175781 34.480469 23.863281 32.285156 Z M 28.910156 41.058594 L 35.554688 34.949219 L 35.554688 43.925781 C 33.066406 43.574219 30.789062 42.558594 28.910156 41.0625 Z M 39.457031 43.921875 L 39.457031 35.332031 L 45.878906 41.238281 C 44.042969 42.636719 41.851562 43.585938 39.457031 43.921875 Z M 48.613281 38.464844 L 41.894531 32.285156 L 51.152344 32.285156 C 50.828125 34.574219 49.929688 36.683594 48.613281 38.464844 Z M 48.613281 38.464844 " fill-opacity="1" fill-rule="nonzero"/></g></svg>