<svg xmlns="http://www.w3.org/2000/svg" xmlns:xlink="http://www.w3.org/1999/xlink" width="100" zoomAndPan="magnify" viewBox="0 0 75 74.999997" height="100" preserveAspectRatio="xMidYMid meet" version="1.0"><defs><clipPath id="c9bfe73f3f"><path d="M 4.65625 0 L 70.65625 0 L 70.65625 75 L 4.65625 75 Z M 4.65625 0 " clip-rule="nonzero"/></clipPath></defs><g clip-path="url(#c9bfe73f3f)"><path fill="#000000" d="M 62.019531 16.925781 C 67.347656 9.960938 70.132812 3.09375 70.25 2.808594 C 70.601562 1.933594 70.171875 0.945312 69.292969 0.59375 C 68.417969 0.246094 67.421875 0.667969 67.070312 1.542969 C 66.964844 1.804688 56.238281 27.90625 37.679688 27.90625 C 19.121094 27.90625 8.328125 1.554688 8.222656 1.289062 C 7.871094 0.414062 6.878906 -0.0078125 6 0.335938 C 5.121094 0.6875 4.695312 1.675781 5.042969 2.550781 C 5.160156 2.839844 7.960938 9.769531 13.308594 16.796875 C 17.96875 22.917969 23.128906 27.175781 28.539062 29.433594 L 28.539062 71.578125 L 8.46875 71.578125 C 7.523438 71.578125 6.757812 72.339844 6.757812 73.277344 C 6.757812 74.21875 7.523438 74.980469 8.46875 74.980469 L 68.511719 74.980469 C 69.457031 74.980469 70.222656 74.21875 70.222656 73.277344 C 70.222656 72.339844 69.457031 71.578125 68.511719 71.578125 L 45.941406 71.578125 L 45.941406 29.796875 C 51.671875 27.667969 57.125 23.320312 62.019531 16.925781 Z M 42.519531 71.578125 L 31.960938 71.578125 L 31.960938 30.585938 C 33.847656 31.066406 35.757812 31.316406 37.683594 31.316406 C 39.308594 31.316406 40.921875 31.140625 42.519531 30.796875 Z M 42.519531 71.578125 " fill-opacity="1" fill-rule="nonzero"/></g></svg>