<svg xmlns="http://www.w3.org/2000/svg" xmlns:xlink="http://www.w3.org/1999/xlink" width="100" zoomAndPan="magnify" viewBox="0 0 75 74.999997" height="100" preserveAspectRatio="xMidYMid meet" version="1.0"><defs><clipPath id="e216f0793e"><path d="M 5.765625 0 L 69.515625 0 L 69.515625 75 L 5.765625 75 Z M 5.765625 0 " clip-rule="nonzero"/></clipPath></defs><g clip-path="url(#e216f0793e)"><path fill="#000000" d="M 69.429688 38.28125 C 69.429688 22.703125 58.066406 9.71875 43.160156 7.105469 L 52.855469 2.902344 C 53.585938 2.585938 53.914062 1.746094 53.59375 1.027344 C 53.269531 0.3125 52.417969 -0.0117188 51.6875 0.304688 L 37.097656 6.628906 C 19.8125 6.917969 5.839844 21.003906 5.839844 38.28125 C 5.839844 53.417969 16.570312 66.109375 30.859375 69.210938 L 21.328125 72.214844 C 20.566406 72.457031 20.144531 73.257812 20.390625 74.007812 C 20.589844 74.613281 21.15625 74.996094 21.769531 74.996094 C 21.917969 74.996094 22.0625 74.976562 22.210938 74.929688 L 38.058594 69.929688 C 55.398438 69.703125 69.433594 55.59375 69.433594 38.28125 Z M 66.539062 38.28125 C 66.539062 46.085938 63.398438 53.171875 58.316406 58.359375 L 39.800781 9.585938 C 54.730469 10.691406 66.539062 23.140625 66.539062 38.28125 Z M 38.605469 67.035156 L 19.542969 15.859375 C 24.269531 12.070312 30.210938 9.730469 36.6875 9.523438 L 56.027344 60.457031 C 51.261719 64.382812 45.210938 66.816406 38.605469 67.035156 Z M 8.734375 38.28125 C 8.734375 30.335938 11.984375 23.132812 17.230469 17.921875 L 35.503906 66.976562 C 20.558594 65.882812 8.734375 53.433594 8.734375 38.28125 Z M 8.734375 38.28125 " fill-opacity="1" fill-rule="nonzero"/></g></svg>