<svg xmlns="http://www.w3.org/2000/svg" xmlns:xlink="http://www.w3.org/1999/xlink" width="100" zoomAndPan="magnify" viewBox="0 0 75 74.999997" height="100" preserveAspectRatio="xMidYMid meet" version="1.0"><path fill="#000000" d="M 37.503906 0 C 37.429688 0 37.355469 0 37.285156 0 C 37.269531 0 37.25 0 37.230469 0 C 37.203125 0 37.171875 0 37.140625 0.0078125 C 16.628906 0.199219 0 16.945312 0 37.503906 C 0 58.0625 16.820312 75.003906 37.503906 75.003906 C 58.183594 75.003906 75.003906 58.179688 75.003906 37.503906 C 75.003906 16.824219 58.179688 0 37.503906 0 Z M 68.027344 22.1875 L 38.902344 22.1875 L 38.902344 3.375 C 51.640625 3.894531 62.601562 11.414062 68.027344 22.1875 Z M 35.554688 3.402344 L 35.554688 22.191406 L 6.976562 22.191406 C 12.328125 11.570312 23.054688 4.105469 35.554688 3.402344 Z M 3.34375 37.503906 C 3.34375 33.265625 4.125 29.210938 5.539062 25.460938 C 5.691406 25.507812 5.851562 25.53125 6.019531 25.53125 L 35.554688 25.53125 L 35.554688 38.316406 L 19.167969 38.316406 C 18.246094 38.316406 17.496094 39.0625 17.496094 39.988281 C 17.496094 40.914062 18.246094 41.660156 19.167969 41.660156 L 35.554688 41.660156 L 35.554688 54.15625 L 26.253906 54.15625 C 25.328125 54.15625 24.582031 54.902344 24.582031 55.828125 C 24.582031 56.75 25.328125 57.5 26.253906 57.5 L 35.554688 57.5 L 35.554688 71.597656 C 17.625 70.582031 3.34375 55.679688 3.34375 37.496094 Z M 38.902344 71.628906 L 38.902344 57.503906 L 48.835938 57.503906 C 49.757812 57.503906 50.507812 56.753906 50.507812 55.832031 C 50.507812 54.90625 49.757812 54.15625 48.835938 54.15625 L 38.902344 54.15625 L 38.902344 41.664062 L 55.917969 41.664062 C 56.84375 41.664062 57.589844 40.914062 57.589844 39.992188 C 57.589844 39.066406 56.84375 38.316406 55.917969 38.316406 L 38.902344 38.316406 L 38.902344 25.535156 L 69.070312 25.535156 C 69.210938 25.535156 69.34375 25.515625 69.472656 25.484375 C 70.882812 29.222656 71.65625 33.277344 71.65625 37.503906 C 71.65625 55.867188 57.089844 70.890625 38.902344 71.628906 Z M 38.902344 71.628906 " fill-opacity="1" fill-rule="nonzero"/></svg>