<svg xmlns="http://www.w3.org/2000/svg" xmlns:xlink="http://www.w3.org/1999/xlink" width="100" zoomAndPan="magnify" viewBox="0 0 75 74.999997" height="100" preserveAspectRatio="xMidYMid meet" version="1.0"><path fill="#000000" d="M 37.472656 10.761719 C 37.410156 10.753906 37.34375 10.75 37.277344 10.75 C 37.238281 10.75 37.203125 10.75 37.164062 10.753906 C 37.125 10.753906 37.089844 10.75 37.046875 10.75 C 36.984375 10.75 36.917969 10.753906 36.851562 10.761719 C 32.398438 10.886719 29.949219 12.945312 28.675781 14.683594 C 26.019531 18.3125 26.21875 23.394531 27.003906 25.925781 C 27.152344 26.410156 28.675781 30.886719 35.828125 38.414062 C 36.164062 38.765625 36.617188 38.945312 37.066406 38.945312 C 37.101562 38.945312 37.132812 38.9375 37.167969 38.933594 C 37.199219 38.933594 37.230469 38.945312 37.265625 38.945312 C 37.71875 38.945312 38.167969 38.765625 38.503906 38.414062 C 45.652344 30.886719 47.175781 26.414062 47.328125 25.925781 C 48.113281 23.394531 48.316406 18.3125 45.65625 14.683594 C 44.382812 12.941406 41.929688 10.886719 37.480469 10.761719 Z M 44.058594 24.90625 C 43.210938 27.636719 39.46875 32.214844 37.164062 34.800781 C 34.859375 32.21875 31.113281 27.636719 30.269531 24.90625 C 29.671875 22.980469 29.636719 19.167969 31.429688 16.71875 C 32.644531 15.0625 34.574219 14.210938 37.164062 14.1875 C 39.753906 14.210938 41.683594 15.0625 42.898438 16.71875 C 44.6875 19.167969 44.65625 22.980469 44.058594 24.90625 Z M 59.8125 12.988281 C 55.964844 5.257812 46.640625 0.0664062 36.613281 0.0664062 C 26.585938 0.0664062 18.539062 4.722656 14.957031 11.929688 C 11.875 18.136719 12.828125 25.101562 17.644531 31.535156 C 19.460938 33.964844 23.539062 37.335938 28.261719 41.238281 C 30.398438 43.003906 32.746094 44.941406 35.039062 46.9375 C 28.675781 52.542969 23.503906 58.152344 23.503906 62.664062 C 23.503906 65.371094 24.628906 68.289062 26.511719 70.464844 C 28.273438 72.503906 31.585938 74.929688 37.367188 74.929688 C 48.210938 74.929688 51.074219 67.007812 51.074219 62.8125 C 51.074219 58.070312 46.292969 52.511719 40.261719 46.980469 C 42.277344 45.285156 44.304688 43.632812 46.171875 42.117188 C 51.246094 37.992188 55.628906 34.429688 57.519531 31.898438 C 62.046875 25.828125 62.867188 19.113281 59.816406 12.988281 Z M 47.648438 62.8125 C 47.648438 63.167969 47.53125 71.496094 37.363281 71.496094 C 28.800781 71.496094 26.925781 65.121094 26.925781 62.664062 C 26.925781 59.378906 31.902344 54.25 37.625 49.238281 C 43.070312 54.195312 47.648438 59.261719 47.648438 62.8125 Z M 54.78125 29.835938 C 53.144531 32.027344 48.714844 35.628906 44.019531 39.441406 C 41.925781 41.144531 39.761719 42.898438 37.671875 44.667969 C 35.308594 42.601562 32.832031 40.558594 30.4375 38.582031 C 26.074219 34.976562 21.953125 31.574219 20.378906 29.46875 C 16.382812 24.128906 15.542969 18.445312 18.019531 13.464844 C 21.023438 7.410156 28.324219 3.503906 36.613281 3.503906 C 45.378906 3.503906 53.472656 7.933594 56.75 14.527344 C 59.191406 19.425781 58.492188 24.863281 54.78125 29.835938 Z M 54.78125 29.835938 " fill-opacity="1" fill-rule="nonzero"/></svg>