<svg xmlns="http://www.w3.org/2000/svg" xmlns:xlink="http://www.w3.org/1999/xlink" width="100" zoomAndPan="magnify" viewBox="0 0 75 74.999997" height="100" preserveAspectRatio="xMidYMid meet" version="1.0"><defs><clipPath id="740a73ddba"><path d="M 0 13.859375 L 75 13.859375 L 75 61.109375 L 0 61.109375 Z M 0 13.859375 " clip-rule="nonzero"/></clipPath></defs><g clip-path="url(#740a73ddba)"><path fill="#000000" d="M 74.929688 53.585938 C 74.953125 54.386719 74.320312 55.050781 73.515625 55.074219 C 73.503906 55.074219 73.488281 55.074219 73.480469 55.074219 C 72.695312 55.074219 72.046875 54.449219 72.027344 53.660156 C 72.011719 53.019531 71.996094 52.289062 71.980469 51.484375 C 71.871094 46.113281 71.6875 37.128906 70.46875 29.597656 C 69.144531 21.414062 66.867188 16.90625 64.050781 16.90625 C 56.65625 16.90625 56.316406 31.800781 56.113281 40.699219 C 56.101562 41.210938 56.089844 41.703125 56.078125 42.175781 C 56.078125 42.292969 56.058594 42.40625 56.027344 42.519531 C 56.027344 42.539062 56.027344 42.558594 56.027344 42.578125 C 56.027344 52.796875 47.710938 61.109375 37.488281 61.109375 C 27.265625 61.109375 18.949219 52.796875 18.949219 42.578125 C 18.949219 42.53125 18.949219 42.484375 18.949219 42.433594 C 18.929688 42.347656 18.921875 42.253906 18.917969 42.160156 L 18.902344 41.160156 C 18.773438 32.632812 18.53125 16.761719 10.945312 16.761719 C 8.046875 16.761719 5.726562 21.453125 4.402344 29.96875 C 3.195312 37.75 3.070312 46.753906 2.992188 52.132812 C 2.984375 52.683594 2.976562 53.191406 2.96875 53.648438 C 2.957031 54.441406 2.308594 55.074219 1.519531 55.074219 C 1.511719 55.074219 1.503906 55.074219 1.496094 55.074219 C 0.691406 55.0625 0.0546875 54.402344 0.0664062 53.601562 C 0.0742188 53.144531 0.0820312 52.640625 0.0859375 52.09375 C 0.363281 33.1875 1.863281 13.859375 10.949219 13.859375 C 15.625 13.859375 18.804688 17.382812 20.394531 24.339844 C 21.636719 29.757812 21.738281 36.320312 21.808594 41.113281 L 21.820312 41.8125 C 21.84375 41.929688 21.859375 42.050781 21.855469 42.179688 C 21.851562 42.308594 21.851562 42.445312 21.851562 42.578125 C 21.851562 51.199219 28.867188 58.207031 37.488281 58.207031 C 46.109375 58.207031 53.125 51.195312 53.125 42.578125 C 53.125 42.445312 53.125 42.3125 53.125 42.183594 C 53.117188 42.019531 53.140625 41.859375 53.1875 41.714844 C 53.195312 41.363281 53.203125 41.003906 53.214844 40.632812 C 53.441406 30.671875 53.820312 14.003906 64.050781 14.003906 C 68.652344 14.003906 71.6875 18.953125 73.335938 29.132812 C 74.585938 36.871094 74.773438 45.980469 74.882812 51.425781 C 74.898438 52.230469 74.914062 52.953125 74.929688 53.585938 Z M 29.96875 43.800781 C 29.96875 39.648438 33.347656 36.269531 37.503906 36.269531 C 41.65625 36.269531 45.039062 39.648438 45.039062 43.800781 C 45.039062 47.953125 41.65625 51.332031 37.503906 51.332031 C 33.347656 51.332031 29.96875 47.953125 29.96875 43.800781 Z M 32.871094 43.800781 C 32.871094 46.355469 34.949219 48.429688 37.503906 48.429688 C 40.058594 48.429688 42.136719 46.355469 42.136719 43.800781 C 42.136719 41.246094 40.058594 39.171875 37.503906 39.171875 C 34.949219 39.171875 32.871094 41.246094 32.871094 43.800781 Z M 32.871094 43.800781 " fill-opacity="1" fill-rule="nonzero"/></g></svg>