<svg xmlns="http://www.w3.org/2000/svg" xmlns:xlink="http://www.w3.org/1999/xlink" width="100" zoomAndPan="magnify" viewBox="0 0 75 74.999997" height="100" preserveAspectRatio="xMidYMid meet" version="1.0"><defs><clipPath id="6354767044"><path d="M 0 12.15625 L 75 12.15625 L 75 63.15625 L 0 63.15625 Z M 0 12.15625 " clip-rule="nonzero"/></clipPath></defs><g clip-path="url(#6354767044)"><path fill="#000000" d="M 73.820312 27.25 C 72.429688 26.273438 70.234375 26.375 67.136719 27.5625 C 67.050781 25.617188 66.589844 23.699219 66.339844 22.792969 C 65.101562 18.285156 63.863281 17.976562 63.402344 17.859375 C 62.886719 17.726562 61.722656 17.4375 57.070312 21.425781 C 52.425781 15.777344 45.410156 12.179688 37.578125 12.179688 C 26.582031 12.179688 17.199219 19.273438 13.722656 29.160156 C 11.871094 28.527344 8.355469 27.609375 6.359375 28.886719 C 4.921875 29.808594 4.625 31.960938 5.429688 35.664062 C 5.644531 36.640625 5.898438 37.578125 6.128906 38.34375 C 3.3125 38.292969 1.507812 38.964844 0.652344 40.386719 C 0 41.46875 0.21875 43.015625 1.300781 44.976562 C 4.523438 50.804688 17.511719 62.914062 37.097656 63.125 C 37.101562 63.125 37.105469 63.125 37.113281 63.125 C 37.203125 63.125 37.296875 63.117188 37.386719 63.101562 C 37.449219 63.101562 37.511719 63.101562 37.578125 63.101562 C 40.859375 63.101562 43.996094 62.464844 46.875 61.316406 C 47.003906 61.304688 47.128906 61.277344 47.257812 61.226562 C 56.476562 57.433594 63.078125 50.671875 66.992188 45.671875 C 71.941406 39.347656 74.492188 33.460938 74.828125 30.425781 C 74.996094 28.910156 74.660156 27.839844 73.820312 27.25 Z M 62.609375 20.855469 C 63.351562 22.242188 64.492188 26.210938 64.28125 28.839844 C 63.285156 29.339844 62.414062 29.824219 61.777344 30.195312 C 61.078125 27.886719 60.054688 25.71875 58.769531 23.734375 C 60.285156 22.4375 61.792969 21.308594 62.609375 20.855469 Z M 37.578125 15.042969 C 49.960938 15.042969 60.035156 25.179688 60.035156 37.640625 C 60.035156 50.101562 49.960938 60.238281 37.578125 60.238281 C 25.195312 60.238281 15.121094 50.101562 15.121094 37.640625 C 15.121094 25.179688 25.195312 15.042969 37.578125 15.042969 Z M 7.949219 31.269531 C 8.746094 30.851562 10.976562 31.238281 12.917969 31.910156 C 12.496094 33.753906 12.269531 35.671875 12.269531 37.640625 C 12.269531 38.175781 12.289062 38.703125 12.324219 39.230469 C 11.441406 39.023438 10.351562 38.796875 9.195312 38.621094 C 8.117188 35.425781 7.542969 32.0625 7.949219 31.269531 Z M 5.636719 46.210938 C 3.671875 43.855469 3.113281 42.28125 3.128906 41.8125 C 3.839844 40.929688 7.910156 40.960938 12.691406 42.265625 C 13.777344 48.183594 16.902344 53.394531 21.304688 57.125 C 14.265625 54.3125 8.835938 50.058594 5.636719 46.210938 Z M 66.023438 42.21875 C 64.710938 44.039062 62.761719 46.480469 60.21875 49.003906 C 61.921875 45.582031 62.882812 41.722656 62.882812 37.644531 C 62.882812 36.097656 62.746094 34.582031 62.484375 33.109375 C 66.847656 30.382812 70.84375 29.085938 72.023438 29.519531 C 72.179688 30.707031 70.765625 35.652344 66.023438 42.21875 Z M 66.023438 42.21875 " fill-opacity="1" fill-rule="nonzero"/></g></svg>