<svg xmlns="http://www.w3.org/2000/svg" xmlns:xlink="http://www.w3.org/1999/xlink" width="100" zoomAndPan="magnify" viewBox="0 0 75 74.999997" height="100" preserveAspectRatio="xMidYMid meet" version="1.0"><defs><clipPath id="a6c14bbd6a"><path d="M 0 26.046875 L 75 26.046875 L 75 49.296875 L 0 49.296875 Z M 0 26.046875 " clip-rule="nonzero"/></clipPath></defs><g clip-path="url(#a6c14bbd6a)"><path fill="#000000" d="M 66.167969 38.082031 C 71.371094 33.835938 74.359375 29.996094 74.496094 29.816406 C 75.003906 29.152344 74.890625 28.199219 74.238281 27.679688 C 73.585938 27.160156 72.644531 27.273438 72.132812 27.9375 C 72.066406 28.019531 68.984375 31.941406 63.71875 36.125 C 55.101562 29.566406 45.90625 26.097656 37.117188 26.097656 C 28.324219 26.097656 19.566406 29.296875 11.3125 35.351562 C 6.0625 31.046875 2.9375 27.078125 2.867188 26.992188 C 2.359375 26.332031 1.414062 26.214844 0.761719 26.738281 C 0.113281 27.257812 0 28.210938 0.511719 28.875 C 0.65625 29.058594 3.671875 32.921875 8.84375 37.265625 C 3.636719 41.511719 0.648438 45.351562 0.511719 45.527344 C 0 46.191406 0.113281 47.144531 0.765625 47.664062 C 1.417969 48.183594 2.363281 48.070312 2.871094 47.40625 C 2.9375 47.324219 6.023438 43.402344 11.28125 39.21875 C 19.902344 45.78125 29.101562 49.246094 37.890625 49.246094 C 46.679688 49.246094 55.4375 46.046875 63.691406 39.992188 C 68.941406 44.296875 72.066406 48.265625 72.132812 48.351562 C 72.429688 48.730469 72.871094 48.929688 73.316406 48.929688 C 73.640625 48.929688 73.964844 48.824219 74.238281 48.605469 C 74.890625 48.085938 75.003906 47.132812 74.492188 46.46875 C 74.351562 46.285156 71.335938 42.421875 66.164062 38.078125 Z M 37.710938 45.703125 C 31.289062 45.703125 26.066406 42.015625 26.066406 37.488281 C 26.066406 32.957031 31.289062 29.269531 37.710938 29.269531 C 44.136719 29.269531 49.359375 32.957031 49.359375 37.488281 C 49.359375 42.015625 44.136719 45.703125 37.710938 45.703125 Z M 25.625 31.132812 C 24.011719 32.941406 23.0625 35.128906 23.0625 37.488281 C 23.0625 39.84375 24.023438 42.054688 25.652344 43.871094 C 21.175781 42.1875 17.175781 39.777344 13.824219 37.304688 C 17.15625 34.945312 21.136719 32.675781 25.621094 31.132812 Z M 49.488281 44.179688 C 51.292969 42.308594 52.359375 39.992188 52.359375 37.488281 C 52.359375 35.453125 51.652344 33.542969 50.417969 31.894531 C 54.464844 33.546875 58.097656 35.765625 61.179688 38.039062 C 57.875 40.378906 53.925781 42.632812 49.484375 44.179688 Z M 49.488281 44.179688 " fill-opacity="1" fill-rule="nonzero"/></g></svg>