<svg xmlns="http://www.w3.org/2000/svg" xmlns:xlink="http://www.w3.org/1999/xlink" width="100" zoomAndPan="magnify" viewBox="0 0 75 74.999997" height="100" preserveAspectRatio="xMidYMid meet" version="1.0"><defs><clipPath id="d62bebcdc6"><path d="M 0 0.140625 L 75 0.140625 L 75 75 L 0 75 Z M 0 0.140625 " clip-rule="nonzero"/></clipPath></defs><g clip-path="url(#d62bebcdc6)"><path fill="#000000" d="M 74.980469 37.582031 C 74.980469 37.503906 74.988281 37.421875 74.988281 37.34375 C 74.988281 37.203125 74.96875 37.066406 74.933594 36.9375 C 74.289062 31.601562 67.863281 27.539062 59.765625 27.539062 C 53.804688 27.539062 45.34375 31.886719 40.566406 34.652344 C 43.320312 29.84375 47.625 21.382812 47.625 15.421875 C 47.625 7.296875 43.578125 0.84375 38.257812 0.199219 C 38.128906 0.164062 37.996094 0.140625 37.855469 0.140625 C 37.777344 0.140625 37.699219 0.144531 37.621094 0.148438 C 37.539062 0.148438 37.460938 0.140625 37.382812 0.140625 C 37.242188 0.140625 37.105469 0.164062 36.980469 0.199219 C 31.664062 0.84375 27.613281 7.296875 27.613281 15.421875 C 27.613281 21.46875 32.042969 30.089844 34.792969 34.855469 C 30.085938 32.109375 21.34375 27.535156 15.234375 27.535156 C 7.132812 27.535156 0.703125 31.601562 0.0625 36.9375 C 0.0273438 37.066406 0.00390625 37.199219 0.00390625 37.339844 C 0.00390625 37.421875 0.0117188 37.5 0.0117188 37.578125 C 0.0117188 37.65625 0.00390625 37.734375 0.00390625 37.816406 C 0.00390625 37.957031 0.0273438 38.09375 0.0625 38.21875 C 0.703125 43.554688 7.132812 47.621094 15.230469 47.621094 C 21.386719 47.621094 30.21875 42.976562 34.898438 40.238281 C 32.160156 44.960938 27.613281 53.726562 27.613281 59.855469 C 27.613281 67.984375 31.660156 74.4375 36.976562 75.082031 C 37.105469 75.117188 37.238281 75.136719 37.378906 75.136719 C 37.460938 75.136719 37.539062 75.132812 37.617188 75.128906 C 37.695312 75.128906 37.773438 75.136719 37.851562 75.136719 C 37.992188 75.136719 38.128906 75.117188 38.253906 75.082031 C 43.570312 74.4375 47.621094 67.984375 47.621094 59.855469 C 47.621094 53.824219 43.210938 45.226562 40.460938 40.453125 C 45.222656 43.214844 53.761719 47.621094 59.761719 47.621094 C 67.859375 47.621094 74.289062 43.5625 74.929688 38.222656 C 74.964844 38.09375 74.988281 37.957031 74.988281 37.816406 C 74.988281 37.738281 74.980469 37.660156 74.980469 37.582031 Z M 32.957031 6.394531 C 34.265625 4.382812 35.910156 3.238281 37.617188 3.140625 C 39.324219 3.238281 40.96875 4.382812 42.273438 6.394531 C 43.800781 8.746094 44.640625 11.953125 44.640625 15.421875 C 44.640625 20.917969 40.1875 29.359375 37.613281 33.777344 C 36.832031 32.441406 35.886719 30.738281 34.941406 28.859375 C 32.09375 23.199219 30.589844 18.550781 30.589844 15.421875 C 30.589844 11.953125 31.429688 8.75 32.957031 6.394531 Z M 15.230469 44.632812 C 11.773438 44.632812 8.582031 43.789062 6.238281 42.257812 C 4.230469 40.945312 3.089844 39.292969 2.992188 37.582031 C 3.089844 35.867188 4.230469 34.214844 6.238281 32.90625 C 8.578125 31.375 11.773438 30.53125 15.230469 30.53125 C 20.703125 30.53125 29.113281 35 33.515625 37.582031 C 32.183594 38.367188 30.488281 39.316406 28.617188 40.265625 C 22.976562 43.125 18.347656 44.636719 15.230469 44.636719 Z M 42.277344 68.886719 C 40.972656 70.898438 39.324219 72.042969 37.617188 72.140625 C 35.910156 72.042969 34.265625 70.898438 32.957031 68.886719 C 31.429688 66.535156 30.589844 63.328125 30.589844 59.859375 C 30.589844 54.363281 35.039062 45.921875 37.617188 41.503906 C 38.390625 42.832031 39.332031 44.527344 40.277344 46.394531 C 43.132812 52.070312 44.640625 56.726562 44.640625 59.859375 C 44.640625 63.328125 43.800781 66.53125 42.273438 68.886719 Z M 68.753906 42.261719 C 66.414062 43.792969 63.21875 44.636719 59.761719 44.636719 C 54.289062 44.636719 45.878906 40.167969 41.476562 37.582031 C 42.808594 36.800781 44.503906 35.847656 46.375 34.902344 C 52.015625 32.042969 56.644531 30.53125 59.761719 30.53125 C 63.21875 30.53125 66.410156 31.375 68.753906 32.90625 C 70.761719 34.21875 71.902344 35.871094 72 37.582031 C 71.902344 39.296875 70.761719 40.949219 68.753906 42.257812 Z M 68.753906 42.261719 " fill-opacity="1" fill-rule="nonzero"/></g></svg>