<svg xmlns="http://www.w3.org/2000/svg" xmlns:xlink="http://www.w3.org/1999/xlink" width="100" zoomAndPan="magnify" viewBox="0 0 75 74.999997" height="100" preserveAspectRatio="xMidYMid meet" version="1.0"><defs><clipPath id="13e3ceefc9"><path d="M 3.328125 0 L 71.578125 0 L 71.578125 75 L 3.328125 75 Z M 3.328125 0 " clip-rule="nonzero"/></clipPath></defs><g clip-path="url(#13e3ceefc9)"><path fill="#000000" d="M 70.96875 0.886719 C 70.375 0.128906 69.285156 0 68.53125 0.589844 L 57.828125 9.011719 C 57.261719 9.457031 57.027344 10.214844 57.246094 10.902344 C 57.460938 11.589844 58.085938 12.074219 58.808594 12.117188 L 63.300781 12.363281 L 53.605469 21.960938 C 50.78125 17.925781 46.917969 14.9375 42.503906 13.566406 C 43.667969 12.261719 44.375 10.542969 44.375 8.660156 C 44.375 4.597656 41.074219 1.292969 37.015625 1.292969 C 32.960938 1.292969 29.660156 4.597656 29.660156 8.660156 C 29.660156 10.542969 30.371094 12.261719 31.53125 13.566406 C 27.402344 14.851562 23.753906 17.550781 20.988281 21.199219 L 12.058594 12.367188 L 16.554688 12.121094 C 17.277344 12.082031 17.898438 11.597656 18.117188 10.90625 C 18.335938 10.214844 18.101562 9.460938 17.53125 9.015625 L 6.828125 0.59375 C 6.074219 0 4.980469 0.128906 4.386719 0.886719 C 3.792969 1.640625 3.925781 2.734375 4.679688 3.328125 L 11.757812 8.894531 L 7.953125 9.101562 C 7.265625 9.140625 6.667969 9.582031 6.425781 10.222656 C 6.179688 10.863281 6.339844 11.589844 6.828125 12.074219 L 19.046875 24.167969 C 16.824219 28.152344 15.523438 32.914062 15.523438 38.03125 C 15.523438 42.691406 16.605469 47.058594 18.476562 50.8125 L 6.382812 62.78125 C 5.894531 63.265625 5.734375 63.992188 5.980469 64.636719 C 6.222656 65.28125 6.820312 65.714844 7.507812 65.753906 L 11.3125 65.964844 L 4.234375 71.53125 C 3.480469 72.125 3.351562 73.214844 3.941406 73.972656 C 4.285156 74.410156 4.792969 74.636719 5.308594 74.636719 C 5.683594 74.636719 6.0625 74.515625 6.378906 74.265625 L 17.082031 65.847656 C 17.648438 65.398438 17.882812 64.644531 17.664062 63.957031 C 17.445312 63.265625 16.824219 62.78125 16.101562 62.742188 L 11.609375 62.496094 L 20.292969 53.902344 C 23.160156 58.085938 27.132812 61.179688 31.6875 62.546875 C 30.425781 63.871094 29.652344 65.660156 29.652344 67.625 C 29.652344 71.691406 32.953125 74.992188 37.011719 74.992188 C 41.070312 74.992188 44.367188 71.691406 44.367188 67.625 C 44.367188 65.660156 43.589844 63.871094 42.335938 62.546875 C 46.984375 61.148438 51.023438 57.957031 53.902344 53.640625 L 62.847656 62.496094 L 58.355469 62.742188 C 57.632812 62.78125 57.011719 63.261719 56.792969 63.957031 C 56.574219 64.648438 56.808594 65.402344 57.378906 65.847656 L 68.078125 74.265625 C 68.398438 74.515625 68.777344 74.636719 69.148438 74.636719 C 69.664062 74.636719 70.171875 74.410156 70.515625 73.972656 C 71.109375 73.214844 70.976562 72.121094 70.222656 71.53125 L 63.144531 65.964844 L 66.949219 65.753906 C 67.636719 65.714844 68.234375 65.277344 68.480469 64.636719 C 68.722656 63.992188 68.566406 63.265625 68.074219 62.78125 L 55.683594 50.519531 C 57.46875 46.832031 58.496094 42.570312 58.496094 38.03125 C 58.496094 33.492188 57.371094 28.8125 55.421875 25.003906 C 55.484375 24.957031 55.546875 24.914062 55.601562 24.859375 L 68.519531 12.074219 C 69.007812 11.589844 69.167969 10.863281 68.925781 10.222656 C 68.679688 9.578125 68.082031 9.140625 67.394531 9.101562 L 63.589844 8.894531 L 70.667969 3.328125 C 71.421875 2.730469 71.550781 1.640625 70.960938 0.886719 Z M 37.015625 4.769531 C 39.15625 4.769531 40.898438 6.511719 40.898438 8.65625 C 40.898438 10.800781 39.15625 12.546875 37.015625 12.546875 C 34.875 12.546875 33.128906 10.800781 33.128906 8.65625 C 33.128906 6.511719 34.875 4.769531 37.015625 4.769531 Z M 37.015625 71.519531 C 34.875 71.519531 33.128906 69.773438 33.128906 67.628906 C 33.128906 65.484375 34.875 63.742188 37.015625 63.742188 C 39.15625 63.742188 40.898438 65.484375 40.898438 67.628906 C 40.898438 69.773438 39.15625 71.519531 37.015625 71.519531 Z M 37.015625 59.859375 C 27.082031 59.859375 18.996094 50.070312 18.996094 38.03125 C 18.996094 25.992188 27.082031 16.203125 37.015625 16.203125 C 46.949219 16.203125 55.03125 25.992188 55.03125 38.03125 C 55.03125 50.070312 46.949219 59.859375 37.015625 59.859375 Z M 37.015625 59.859375 " fill-opacity="1" fill-rule="nonzero"/></g></svg>