<svg xmlns="http://www.w3.org/2000/svg" xmlns:xlink="http://www.w3.org/1999/xlink" width="100" zoomAndPan="magnify" viewBox="0 0 75 74.999997" height="100" preserveAspectRatio="xMidYMid meet" version="1.0"><defs><clipPath id="3aca85cbfa"><path d="M 0 1.03125 L 75 1.03125 L 75 73.78125 L 0 73.78125 Z M 0 1.03125 " clip-rule="nonzero"/></clipPath></defs><g clip-path="url(#3aca85cbfa)"><path fill="#000000" d="M 69.464844 38.253906 C 74.292969 29.394531 74.855469 20.664062 74.878906 20.296875 C 74.921875 19.601562 74.453125 18.980469 73.773438 18.824219 C 73.09375 18.671875 72.402344 19.027344 72.136719 19.667969 C 72.113281 19.726562 69.605469 25.675781 64.082031 31.527344 C 60.792969 35.007812 57.191406 37.714844 53.289062 39.648438 L 49.601562 34.238281 C 53.6875 30.78125 56.285156 25.625 56.285156 19.875 C 56.285156 9.484375 47.808594 1.03125 37.394531 1.03125 C 26.980469 1.03125 18.503906 9.484375 18.503906 19.875 C 18.503906 25.628906 21.105469 30.78125 25.195312 34.238281 L 21.648438 39.441406 C 17.832031 37.484375 14.292969 34.765625 11.050781 31.304688 C 5.46875 25.339844 2.90625 19.277344 2.878906 19.214844 C 2.613281 18.574219 1.917969 18.21875 1.242188 18.375 C 0.5625 18.53125 0.09375 19.160156 0.140625 19.851562 C 0.164062 20.226562 0.785156 29.0625 5.667969 38.027344 C 7.710938 41.777344 10.699219 45.84375 15.003906 49.191406 L 13.257812 51.753906 C 12.753906 51.578125 12.21875 51.476562 11.65625 51.476562 C 8.996094 51.476562 6.828125 53.636719 6.828125 56.292969 C 6.828125 58.953125 8.996094 61.113281 11.65625 61.113281 C 14.320312 61.113281 16.488281 58.953125 16.488281 56.292969 C 16.488281 55.234375 16.136719 54.253906 15.550781 53.457031 L 17.332031 50.847656 C 22.058594 53.894531 28.148438 56.0625 35.972656 56.332031 L 35.972656 60.019531 C 32.863281 60.722656 30.53125 63.5 30.53125 66.8125 C 30.53125 70.652344 33.664062 73.777344 37.511719 73.777344 C 41.363281 73.777344 44.496094 70.652344 44.496094 66.8125 C 44.496094 63.417969 42.050781 60.585938 38.824219 59.972656 L 38.824219 56.339844 C 46.722656 56.144531 52.867188 54.0625 57.628906 51.078125 L 59.152344 53.316406 C 58.5 54.132812 58.109375 55.167969 58.109375 56.292969 C 58.109375 58.949219 60.277344 61.113281 62.941406 61.113281 C 65.605469 61.113281 67.769531 58.953125 67.769531 56.292969 C 67.769531 53.636719 65.605469 51.476562 62.941406 51.476562 C 62.4375 51.476562 61.953125 51.554688 61.5 51.699219 L 59.976562 49.460938 C 64.382812 46.117188 67.414062 42.023438 69.46875 38.257812 Z M 11.65625 58.261719 C 10.566406 58.261719 9.679688 57.375 9.679688 56.289062 C 9.679688 55.203125 10.566406 54.316406 11.65625 54.316406 C 12.746094 54.316406 13.632812 55.203125 13.632812 56.289062 C 13.632812 57.375 12.746094 58.261719 11.65625 58.261719 Z M 64.910156 56.289062 C 64.910156 57.375 64.023438 58.261719 62.933594 58.261719 C 61.84375 58.261719 60.957031 57.375 60.957031 56.289062 C 60.957031 55.203125 61.84375 54.316406 62.933594 54.316406 C 64.023438 54.316406 64.910156 55.203125 64.910156 56.289062 Z M 50.636719 40.820312 C 46.9375 42.273438 42.992188 43.070312 38.824219 43.195312 L 38.824219 38.652344 C 41.910156 38.421875 44.792969 37.449219 47.292969 35.910156 L 50.640625 40.820312 Z M 21.359375 19.875 C 21.359375 11.054688 28.550781 3.878906 37.394531 3.878906 C 46.242188 3.878906 53.433594 11.050781 53.433594 19.875 C 53.433594 28.695312 46.242188 35.871094 37.394531 35.871094 C 28.550781 35.871094 21.359375 28.695312 21.359375 19.875 Z M 27.5 35.917969 C 30 37.453125 32.878906 38.425781 35.96875 38.65625 L 35.96875 43.183594 C 31.84375 43.003906 27.941406 42.160156 24.273438 40.652344 Z M 8.21875 36.75 C 6.53125 33.667969 5.375 30.5625 4.59375 27.863281 C 5.765625 29.53125 7.195312 31.351562 8.894531 33.171875 C 12.613281 37.160156 16.796875 40.261719 21.328125 42.421875 C 21.332031 42.421875 21.332031 42.425781 21.335938 42.429688 C 21.46875 42.519531 21.609375 42.582031 21.757812 42.621094 C 26.59375 44.851562 31.820312 46.019531 37.300781 46.0625 C 37.332031 46.0625 37.359375 46.066406 37.390625 46.066406 C 37.410156 46.066406 37.425781 46.066406 37.445312 46.066406 C 37.503906 46.066406 37.5625 46.066406 37.621094 46.066406 C 43.621094 46.066406 48.785156 44.765625 53.152344 42.816406 C 53.304688 42.773438 53.449219 42.710938 53.585938 42.621094 C 53.589844 42.621094 53.59375 42.613281 53.59375 42.613281 C 59.054688 40.089844 63.242188 36.578125 66.230469 33.398438 C 67.914062 31.609375 69.324219 29.828125 70.484375 28.191406 C 69.71875 30.859375 68.585938 33.929688 66.910156 36.976562 C 64.398438 41.554688 61.21875 45.1875 57.390625 47.867188 C 57.335938 47.898438 57.28125 47.921875 57.226562 47.960938 C 57.160156 48.003906 57.105469 48.054688 57.046875 48.105469 C 51.761719 51.699219 45.269531 53.511719 37.621094 53.511719 C 29.96875 53.511719 23.269531 51.617188 17.917969 47.867188 C 17.859375 47.8125 17.800781 47.757812 17.734375 47.714844 C 17.679688 47.679688 17.625 47.652344 17.574219 47.628906 C 13.835938 44.925781 10.707031 41.296875 8.214844 36.75 Z M 41.636719 66.8125 C 41.636719 69.082031 39.785156 70.929688 37.507812 70.929688 C 35.230469 70.929688 33.378906 69.082031 33.378906 66.8125 C 33.378906 64.539062 35.230469 62.691406 37.507812 62.691406 C 39.785156 62.691406 41.636719 64.539062 41.636719 66.8125 Z M 41.636719 66.8125 " fill-opacity="1" fill-rule="nonzero"/></g></svg>