<svg xmlns="http://www.w3.org/2000/svg" xmlns:xlink="http://www.w3.org/1999/xlink" width="100" zoomAndPan="magnify" viewBox="0 0 75 74.999997" height="100" preserveAspectRatio="xMidYMid meet" version="1.0"><defs><clipPath id="7f28beb51f"><path d="M 8 0 L 67.8125 0 L 67.8125 75 L 8 75 Z M 8 0 " clip-rule="nonzero"/></clipPath></defs><g clip-path="url(#7f28beb51f)"><path fill="#000000" d="M 67.1875 66.214844 C 66.894531 66.527344 66.5 66.6875 66.101562 66.6875 C 65.738281 66.6875 65.375 66.554688 65.089844 66.289062 L 37.316406 40.472656 L 28.929688 63.9375 C 28.726562 64.515625 27.09375 69.613281 32.429688 71.570312 C 38.136719 73.65625 41.835938 68.15625 41.988281 67.921875 C 42.4375 67.238281 43.355469 67.046875 44.042969 67.488281 C 44.726562 67.933594 44.925781 68.84375 44.480469 69.527344 C 43.082031 71.6875 39.589844 74.996094 34.96875 74.996094 C 33.839844 74.996094 32.648438 74.796875 31.40625 74.339844 C 27.113281 72.769531 25.90625 69.707031 25.648438 67.410156 C 25.378906 65.035156 26.101562 63.023438 26.132812 62.941406 L 34.949219 38.273438 L 8.5 13.683594 C 7.898438 13.128906 7.867188 12.191406 8.429688 11.59375 C 8.988281 11 9.929688 10.964844 10.527344 11.527344 L 36.03125 35.234375 L 44.164062 12.488281 C 44.222656 12.273438 44.625 10.667969 44.335938 8.863281 C 43.949219 6.460938 42.5 4.765625 40.023438 3.824219 C 38.019531 3.0625 36.304688 3.0625 34.785156 3.828125 C 31.6875 5.386719 30.421875 9.703125 30.40625 9.746094 C 30.1875 10.535156 29.375 10.996094 28.582031 10.777344 C 27.789062 10.5625 27.324219 9.75 27.542969 8.960938 C 27.605469 8.734375 29.136719 3.359375 33.445312 1.191406 C 35.722656 0.0429688 38.292969 0 41.085938 1.0625 C 47.910156 3.660156 47.941406 10.242188 47.003906 13.363281 C 46.996094 13.386719 46.988281 13.410156 46.980469 13.4375 L 38.402344 37.4375 L 67.113281 64.128906 C 67.714844 64.6875 67.746094 65.621094 67.183594 66.21875 Z M 67.1875 66.214844 " fill-opacity="1" fill-rule="nonzero"/></g></svg>