<svg xmlns="http://www.w3.org/2000/svg" xmlns:xlink="http://www.w3.org/1999/xlink" width="100" zoomAndPan="magnify" viewBox="0 0 75 74.999997" height="100" preserveAspectRatio="xMidYMid meet" version="1.0"><defs><clipPath id="0c23b263ad"><path d="M 0 12.0625 L 75 12.0625 L 75 63.0625 L 0 63.0625 Z M 0 12.0625 " clip-rule="nonzero"/></clipPath></defs><g clip-path="url(#0c23b263ad)"><path fill="#000000" d="M 74.90625 46.972656 C 74.824219 51.8125 74.011719 55.441406 72.425781 58.066406 C 70.425781 61.371094 67.230469 63.050781 62.921875 63.050781 C 58.613281 63.050781 55.417969 61.375 53.417969 58.066406 C 51.863281 55.492188 51.058594 51.960938 50.949219 47.269531 C 50.921875 47.15625 50.910156 47.03125 50.914062 46.90625 C 50.914062 46.792969 50.914062 46.679688 50.914062 46.5625 C 50.914062 39.15625 44.902344 33.128906 37.515625 33.128906 C 30.128906 33.128906 24.117188 39.15625 24.117188 46.5625 C 24.117188 46.675781 24.117188 46.792969 24.117188 46.90625 C 24.125 47.0625 24.101562 47.222656 24.058594 47.367188 C 23.902344 51.988281 23.082031 55.46875 21.546875 57.984375 C 19.554688 61.261719 16.371094 62.921875 12.089844 62.921875 C 7.808594 62.921875 4.625 61.261719 2.632812 57.984375 C 1.058594 55.398438 0.234375 51.800781 0.109375 46.984375 C 0.0859375 46.175781 0.722656 45.507812 1.527344 45.488281 C 2.328125 45.457031 3 46.101562 3.019531 46.910156 C 3.316406 58.515625 8.027344 60 12.089844 60 C 19.832031 60 21.003906 53.007812 21.160156 46.910156 C 21.160156 46.800781 21.175781 46.699219 21.203125 46.597656 C 21.203125 46.585938 21.203125 46.574219 21.203125 46.5625 C 21.203125 37.542969 28.519531 30.207031 37.515625 30.207031 C 46.511719 30.207031 53.828125 37.542969 53.828125 46.5625 C 53.828125 46.605469 53.828125 46.648438 53.828125 46.691406 C 53.839844 46.765625 53.855469 46.839844 53.855469 46.921875 C 54.003906 56.050781 56.800781 60.125 62.921875 60.125 C 69.042969 60.125 71.839844 56.050781 71.992188 46.917969 C 72.003906 46.117188 72.652344 45.480469 73.449219 45.480469 C 73.457031 45.480469 73.464844 45.480469 73.472656 45.480469 C 74.277344 45.496094 74.917969 46.160156 74.90625 46.964844 Z M 30.761719 18.828125 C 30.761719 15.097656 33.789062 12.0625 37.507812 12.0625 C 41.230469 12.0625 44.253906 15.097656 44.253906 18.828125 C 44.253906 22.558594 41.230469 25.589844 37.507812 25.589844 C 33.789062 25.589844 30.761719 22.558594 30.761719 18.828125 Z M 33.671875 18.828125 C 33.671875 20.945312 35.390625 22.671875 37.507812 22.671875 C 39.625 22.671875 41.34375 20.949219 41.34375 18.828125 C 41.34375 16.707031 39.625 14.984375 37.507812 14.984375 C 35.390625 14.984375 33.671875 16.707031 33.671875 18.828125 Z M 33.671875 18.828125 " fill-opacity="1" fill-rule="nonzero"/></g></svg>