<svg xmlns="http://www.w3.org/2000/svg" xmlns:xlink="http://www.w3.org/1999/xlink" width="100" zoomAndPan="magnify" viewBox="0 0 75 74.999997" height="100" preserveAspectRatio="xMidYMid meet" version="1.0"><defs><clipPath id="f2a90582b6"><path d="M 23 0 L 52.796875 0 L 52.796875 75 L 23 75 Z M 23 0 " clip-rule="nonzero"/></clipPath></defs><g clip-path="url(#f2a90582b6)"><path fill="#000000" d="M 41.796875 36.691406 L 41.796875 7.671875 C 44.863281 8.636719 47.109375 10.851562 47.109375 13.238281 C 47.109375 16.984375 44.398438 18.164062 44.257812 18.226562 C 43.523438 18.519531 43.15625 19.355469 43.441406 20.097656 C 43.730469 20.84375 44.566406 21.214844 45.308594 20.925781 C 45.433594 20.875 46.578125 20.410156 47.707031 19.242188 C 48.75 18.164062 49.996094 16.242188 49.996094 13.242188 C 49.996094 9.3125 46.5 5.820312 41.796875 4.664062 L 41.796875 1.5625 C 41.796875 0.761719 41.148438 0.109375 40.351562 0.109375 C 39.554688 0.109375 38.910156 0.761719 38.910156 1.5625 L 38.910156 4.269531 C 32.175781 4.058594 24.597656 8.644531 23.199219 22.246094 C 22.039062 33.511719 31.023438 36.328125 38.242188 38.589844 C 38.464844 38.664062 38.6875 38.734375 38.910156 38.800781 L 38.910156 57.792969 C 36.339844 58.855469 33.996094 60.382812 33.679688 63.691406 C 33.253906 68.027344 36.019531 69.839844 37.539062 70.191406 C 37.648438 70.21875 37.753906 70.230469 37.863281 70.230469 C 38.265625 70.230469 38.640625 70.058594 38.910156 69.773438 L 38.910156 73.449219 C 38.910156 74.25 39.554688 74.898438 40.351562 74.898438 C 41.148438 74.898438 41.796875 74.25 41.796875 73.449219 L 41.796875 59.796875 C 41.867188 59.773438 41.933594 59.75 42.003906 59.726562 C 46.089844 58.265625 51.691406 56.269531 52.273438 48.371094 C 52.792969 41.277344 47.425781 38.589844 41.796875 36.6875 Z M 29.402344 31.582031 C 26.710938 29.453125 25.652344 26.582031 26.070312 22.546875 C 26.640625 16.996094 28.324219 12.832031 31.078125 10.171875 C 33.207031 8.113281 35.984375 7.050781 38.910156 7.167969 L 38.910156 35.765625 C 35.4375 34.675781 31.871094 33.535156 29.402344 31.582031 Z M 38.910156 67.785156 C 38.71875 67.585938 38.472656 67.433594 38.183594 67.367188 C 38.105469 67.351562 36.265625 66.890625 36.546875 63.976562 C 36.6875 62.542969 37.496094 61.699219 38.910156 60.976562 L 38.910156 67.789062 Z M 49.394531 48.160156 C 48.980469 53.792969 45.574219 55.351562 41.796875 56.722656 L 41.796875 39.765625 C 46.832031 41.566406 49.734375 43.515625 49.394531 48.160156 Z M 49.394531 48.160156 " fill-opacity="1" fill-rule="nonzero"/></g></svg>