<svg xmlns="http://www.w3.org/2000/svg" xmlns:xlink="http://www.w3.org/1999/xlink" width="100" zoomAndPan="magnify" viewBox="0 0 75 74.999997" height="100" preserveAspectRatio="xMidYMid meet" version="1.0"><defs><clipPath id="bd3dc82c53"><path d="M 1 5.859375 L 74 5.859375 L 74 68.859375 L 1 68.859375 Z M 1 5.859375 " clip-rule="nonzero"/></clipPath></defs><g clip-path="url(#bd3dc82c53)"><path fill="#000000" d="M 72.320312 22.71875 C 75.003906 13.371094 70.742188 6.851562 70.558594 6.578125 C 70.265625 6.144531 69.746094 5.917969 69.222656 6.003906 C 68.703125 6.085938 68.28125 6.464844 68.140625 6.96875 C 68.109375 7.097656 65.210938 17.160156 52.359375 30.816406 C 50.316406 28.230469 44.976562 22.609375 37.105469 22.609375 C 29.238281 22.609375 24.179688 27.964844 22.28125 30.425781 C 9.746094 16.96875 6.902344 7.097656 6.871094 6.972656 C 6.734375 6.464844 6.3125 6.085938 5.789062 6 C 5.269531 5.914062 4.746094 6.140625 4.453125 6.578125 C 4.269531 6.851562 0.0078125 13.371094 2.691406 22.71875 C 5.03125 30.871094 22.796875 47.765625 27.222656 51.882812 L 14.792969 66.570312 C 14.457031 66.96875 14.382812 67.523438 14.605469 67.996094 C 14.824219 68.46875 15.296875 68.769531 15.820312 68.769531 L 59.046875 68.816406 C 59.570312 68.816406 60.046875 68.511719 60.265625 68.035156 C 60.484375 67.558594 60.40625 67 60.0625 66.605469 L 47.5 52.148438 C 51.378906 48.554688 69.925781 31.058594 72.320312 22.71875 Z M 37.109375 25.28125 C 44.078125 25.28125 48.921875 30.75 50.476562 32.773438 C 47.40625 35.882812 43.828125 39.15625 39.664062 42.519531 C 39.554688 42.609375 39.472656 42.710938 39.398438 42.816406 L 38.148438 41.375 C 37.890625 41.078125 37.507812 40.917969 37.121094 40.910156 C 36.726562 40.914062 36.355469 41.089844 36.101562 41.386719 L 35.230469 42.421875 C 30.949219 38.953125 27.289062 35.585938 24.164062 32.394531 C 25.535156 30.550781 30.070312 25.28125 37.109375 25.28125 Z M 18.457031 39.460938 C 8.800781 29.332031 5.957031 24.367188 5.273438 21.984375 C 3.890625 17.164062 4.597656 13.234375 5.429688 10.792969 C 7.90625 16.542969 15.0625 29.527344 33.496094 44.464844 L 28.960938 49.828125 C 27.058594 48.054688 22.824219 44.035156 18.460938 39.460938 Z M 18.707031 66.101562 L 29.945312 52.820312 C 29.992188 52.777344 30.042969 52.742188 30.089844 52.695312 C 30.160156 52.613281 30.21875 52.523438 30.269531 52.433594 L 37.140625 44.3125 L 56.105469 66.140625 L 18.703125 66.101562 Z M 45.746094 50.125 L 41.089844 44.765625 C 41.183594 44.722656 41.277344 44.667969 41.359375 44.601562 C 59.914062 29.605469 67.101562 16.5625 69.582031 10.800781 C 70.417969 13.242188 71.125 17.167969 69.738281 21.992188 C 69.054688 24.375 66.214844 29.339844 56.554688 39.46875 C 51.9375 44.3125 47.460938 48.53125 45.746094 50.125 Z M 45.746094 50.125 " fill-opacity="1" fill-rule="nonzero"/></g></svg>