<svg xmlns="http://www.w3.org/2000/svg" xmlns:xlink="http://www.w3.org/1999/xlink" width="100" zoomAndPan="magnify" viewBox="0 0 75 74.999997" height="100" preserveAspectRatio="xMidYMid meet" version="1.0"><path fill="#000000" d="M 63.503906 42.792969 C 61.234375 30.863281 54.804688 19.757812 51.167969 14.203125 C 47.347656 8.351562 41.925781 1.542969 38.429688 0.269531 C 38.207031 0.132812 37.949219 0.0546875 37.667969 0.0546875 C 37.625 0.0546875 37.582031 0.0585938 37.539062 0.0625 C 37.527344 0.0625 37.519531 0.0585938 37.511719 0.0585938 C 36.523438 -0.00390625 34.832031 0.335938 31.53125 3.949219 C 29.398438 6.28125 27.023438 9.511719 24.65625 13.292969 C 19.171875 22.058594 14.90625 31.8125 12.953125 40.066406 C 8.648438 58.242188 11.335938 71.824219 13.976562 74.011719 C 14.4375 74.390625 14.742188 74.640625 22.277344 74.847656 C 26 74.945312 30.726562 75.003906 35.511719 75.003906 C 36.246094 75.003906 36.980469 75.003906 37.710938 74.996094 C 43.734375 74.976562 49.242188 74.867188 53.21875 74.6875 C 60.972656 74.34375 61.382812 73.855469 61.855469 73.289062 C 62.476562 72.546875 67.804688 65.386719 63.507812 42.792969 Z M 15.792969 40.730469 C 17.65625 32.859375 21.738281 23.503906 26.992188 15.054688 C 31.253906 8.203125 34.511719 4.785156 36.210938 3.535156 L 36.210938 48.808594 C 36.109375 48.867188 36.019531 48.9375 35.933594 49.023438 L 15.144531 70.34375 C 14.628906 68.871094 14.035156 66.296875 13.761719 62.523438 C 13.429688 57.90625 13.511719 50.378906 15.792969 40.730469 Z M 17.804688 71.785156 L 36.210938 52.910156 L 36.210938 72.09375 C 28.738281 72.109375 21.496094 71.996094 17.804688 71.785156 Z M 39.128906 72.082031 L 39.128906 52.910156 L 57.304688 71.550781 C 53.507812 71.871094 46.417969 72.042969 39.128906 72.082031 Z M 60.222656 70.375 L 39.40625 49.023438 C 39.320312 48.9375 39.226562 48.867188 39.128906 48.808594 L 39.128906 4.078125 C 41.222656 5.824219 44.726562 9.652344 48.78125 15.882812 C 54.730469 25.003906 59.050781 35.011719 60.632812 43.332031 C 63.84375 60.214844 61.457031 67.816406 60.222656 70.375 Z M 60.222656 70.375 " fill-opacity="1" fill-rule="nonzero"/></svg>