<svg xmlns="http://www.w3.org/2000/svg" xmlns:xlink="http://www.w3.org/1999/xlink" width="100" zoomAndPan="magnify" viewBox="0 0 75 74.999997" height="100" preserveAspectRatio="xMidYMid meet" version="1.0"><defs><clipPath id="46a84a3753"><path d="M 1 3.46875 L 70 3.46875 L 70 71.71875 L 1 71.71875 Z M 1 3.46875 " clip-rule="nonzero"/></clipPath></defs><g clip-path="url(#46a84a3753)"><path fill="#000000" d="M 62.53125 29.578125 C 62.53125 29.578125 70.246094 17.066406 58.78125 13.390625 C 58.027344 13.148438 57.273438 13.035156 56.523438 13.035156 C 54.105469 13.035156 51.738281 14.210938 49.523438 16.027344 C 50.363281 12.363281 50.105469 8.949219 47.773438 6.535156 C 45.617188 4.300781 43.5 3.46875 41.546875 3.46875 C 35.921875 3.46875 31.644531 10.34375 31.644531 10.34375 C 31.644531 10.34375 27.535156 7.800781 23.339844 7.796875 C 20.226562 7.796875 17.0625 9.203125 15.503906 14.105469 C 14.480469 17.304688 15.757812 20.476562 18.128906 23.386719 C 16.914062 23.109375 15.722656 22.949219 14.589844 22.949219 C 12.320312 22.949219 10.273438 23.582031 8.667969 25.140625 C 0.015625 33.53125 12.464844 41.316406 12.464844 41.316406 C 12.464844 41.316406 4.75 53.828125 16.210938 57.503906 C 16.96875 57.746094 17.722656 57.859375 18.46875 57.859375 C 19.617188 57.859375 20.75 57.59375 21.863281 57.121094 C 20.898438 58.054688 19.902344 58.949219 18.875 59.800781 C 14.015625 63.816406 8.433594 66.894531 2.289062 68.949219 C 1.726562 69.136719 1.320312 69.667969 1.320312 70.296875 C 1.320312 71.082031 1.957031 71.71875 2.734375 71.71875 C 2.894531 71.71875 3.042969 71.695312 3.183594 71.644531 C 9.6875 69.472656 15.589844 66.210938 20.738281 61.945312 C 22.234375 60.699219 23.671875 59.371094 25.042969 57.960938 C 24.953125 60.417969 25.5625 62.640625 27.21875 64.359375 C 29.378906 66.59375 31.492188 67.425781 33.449219 67.425781 C 39.074219 67.425781 43.351562 60.546875 43.351562 60.546875 C 43.351562 60.546875 47.457031 63.097656 51.652344 63.097656 C 54.769531 63.097656 57.929688 61.691406 59.492188 56.792969 C 60.511719 53.589844 59.238281 50.417969 56.867188 47.503906 C 58.082031 47.785156 59.269531 47.945312 60.402344 47.945312 C 62.671875 47.945312 64.722656 47.308594 66.328125 45.753906 C 74.976562 37.363281 62.53125 29.578125 62.53125 29.578125 Z M 18.203125 14.96875 C 18.730469 13.308594 19.492188 12.125 20.460938 11.445312 C 21.234375 10.90625 22.175781 10.640625 23.339844 10.640625 C 26.605469 10.640625 30.035156 12.691406 30.15625 12.765625 L 32.546875 14.265625 L 34.050781 11.851562 C 34.058594 11.835938 34.976562 10.386719 36.457031 8.949219 C 37.699219 7.746094 39.585938 6.3125 41.546875 6.3125 C 42.9375 6.3125 44.308594 7.03125 45.738281 8.511719 C 46.996094 9.820312 47.394531 11.75 46.953125 14.410156 C 46.535156 16.949219 45.363281 19.992188 43.476562 23.453125 C 41.253906 27.519531 38.558594 31.191406 36.976562 33.222656 C 34.679688 32.113281 30.679688 30.042969 26.898438 27.394531 C 23.65625 25.128906 21.246094 22.917969 19.738281 20.824219 C 18.152344 18.621094 17.648438 16.707031 18.203125 14.96875 Z M 17.074219 54.796875 C 14.929688 54.105469 13.621094 53.0625 13.082031 51.605469 C 12.429688 49.847656 12.894531 47.648438 13.398438 46.109375 C 14.007812 44.269531 14.828125 42.890625 14.878906 42.808594 L 16.394531 40.40625 L 13.96875 38.90625 C 13.890625 38.855469 12.542969 37.984375 11.183594 36.601562 C 10.050781 35.449219 8.65625 33.683594 8.464844 31.820312 C 8.308594 30.273438 9.015625 28.757812 10.636719 27.1875 C 11.601562 26.25 12.898438 25.792969 14.589844 25.792969 C 16.941406 25.792969 19.921875 26.660156 23.371094 28.332031 C 26.882812 31.035156 30.824219 33.277344 33.699219 34.761719 C 34.296875 35.207031 34.828125 35.613281 35.277344 35.96875 C 35.03125 36.480469 34.734375 37.082031 34.398438 37.746094 C 32.476562 40.351562 29.9375 44.113281 27.984375 48.097656 C 24.503906 52.585938 21.1875 55.015625 18.46875 55.015625 C 17.996094 55.015625 17.539062 54.945312 17.074219 54.796875 Z M 55.257812 50.070312 C 56.84375 52.269531 57.34375 54.183594 56.789062 55.925781 C 56.261719 57.582031 55.503906 58.769531 54.53125 59.449219 C 53.761719 59.992188 52.820312 60.253906 51.652344 60.253906 C 48.390625 60.253906 44.96875 58.207031 44.839844 58.128906 L 42.445312 56.625 L 40.945312 59.042969 C 40.933594 59.058594 40.019531 60.507812 38.539062 61.941406 C 37.296875 63.144531 35.40625 64.582031 33.449219 64.582031 C 32.058594 64.582031 30.6875 63.859375 29.257812 62.382812 C 28 61.074219 27.597656 59.144531 28.039062 56.480469 C 28.460938 53.941406 29.632812 50.902344 31.519531 47.441406 C 33.742188 43.375 36.433594 39.703125 38.015625 37.671875 C 38.53125 37.917969 39.128906 38.214844 39.792969 38.554688 C 42.390625 40.480469 46.140625 43.03125 50.113281 44.984375 C 52.355469 46.734375 54.078125 48.4375 55.257812 50.070312 Z M 64.355469 43.707031 C 63.390625 44.644531 62.097656 45.101562 60.402344 45.101562 C 56.882812 45.101562 51.957031 43.160156 46.152344 39.484375 C 43.472656 37.785156 41.171875 36.066406 39.71875 34.925781 C 39.964844 34.410156 40.261719 33.808594 40.601562 33.144531 C 42.519531 30.535156 45.058594 26.777344 47.011719 22.796875 C 50.492188 18.308594 53.808594 15.878906 56.523438 15.878906 C 57 15.878906 57.457031 15.949219 57.917969 16.097656 C 60.066406 16.785156 61.375 17.828125 61.914062 19.289062 C 62.566406 21.042969 62.101562 23.246094 61.59375 24.785156 C 60.988281 26.625 60.164062 28.003906 60.117188 28.085938 L 58.617188 30.484375 L 61.03125 31.992188 C 61.042969 32 62.359375 32.835938 63.726562 34.203125 C 64.894531 35.375 66.328125 37.167969 66.527344 39.0625 C 66.691406 40.613281 65.980469 42.132812 64.355469 43.707031 Z M 64.355469 43.707031 " fill-opacity="1" fill-rule="nonzero"/></g></svg>