<svg xmlns="http://www.w3.org/2000/svg" xmlns:xlink="http://www.w3.org/1999/xlink" width="100" zoomAndPan="magnify" viewBox="0 0 75 74.999997" height="100" preserveAspectRatio="xMidYMid meet" version="1.0"><defs><clipPath id="e539dac21a"><path d="M 38 14 L 63.75 14 L 63.75 75 L 38 75 Z M 38 14 " clip-rule="nonzero"/></clipPath></defs><path fill="#040606" d="M 28.945312 15.511719 C 29.53125 15.28125 29.765625 14.578125 29.53125 13.992188 C 29.300781 13.410156 28.589844 13.179688 28.003906 13.410156 C 15.074219 19.011719 11.671875 29.867188 17.898438 45.734375 C 18.132812 46.199219 18.367188 46.785156 18.367188 46.902344 C 18.367188 47.023438 18.484375 47.136719 18.484375 47.253906 C 19.660156 49.355469 18.839844 58.335938 18.132812 63.59375 C 18.011719 64.175781 18.484375 64.871094 19.074219 64.871094 C 19.660156 64.992188 20.367188 64.519531 20.367188 63.9375 C 20.714844 61.605469 22.363281 49.9375 20.601562 46.320312 C 20.480469 45.96875 20.367188 45.617188 20.015625 44.800781 C 18.011719 39.433594 11.550781 23.09375 28.945312 15.511719 " fill-opacity="1" fill-rule="nonzero"/><g clip-path="url(#e539dac21a)"><path fill="#040606" d="M 59.503906 41.996094 C 58.917969 41.535156 58.796875 40.71875 59.152344 39.546875 C 60.09375 36.398438 57.742188 18.777344 50.21875 14.226562 C 49.632812 13.875 48.925781 14.105469 48.570312 14.578125 C 48.21875 15.160156 48.457031 15.863281 48.925781 16.207031 C 55.273438 19.945312 57.621094 36.164062 56.914062 38.847656 C 56.328125 40.832031 56.679688 42.46875 57.742188 43.636719 C 58.675781 45.152344 61.613281 47.949219 61.378906 49.234375 C 61.265625 49.707031 60.09375 50.171875 59.738281 50.285156 C 59.03125 50.171875 58.445312 50.753906 58.445312 51.457031 L 58.445312 54.484375 L 57.742188 55.1875 C 57.390625 55.539062 57.269531 56.121094 57.390625 56.59375 L 58.328125 58.457031 C 58.917969 59.621094 57.503906 61.492188 56.679688 62.539062 C 55.273438 64.175781 52.335938 64.058594 45.511719 62.074219 C 44.339844 61.722656 43.164062 62.308594 42.695312 63.355469 L 38.109375 73.390625 C 37.878906 73.972656 38.109375 74.675781 38.699219 74.90625 C 39.285156 75.144531 39.992188 74.90625 40.226562 74.332031 L 44.8125 64.058594 C 51.75 66.039062 55.972656 66.621094 58.445312 63.824219 C 60.679688 61.253906 61.378906 59.039062 60.445312 57.171875 L 59.972656 56.121094 L 60.445312 55.652344 C 60.679688 55.421875 60.914062 55.074219 60.914062 54.71875 L 60.914062 52.039062 C 62.320312 51.449219 63.503906 50.753906 63.738281 49.355469 C 64.085938 47.023438 59.617188 42.117188 59.503906 41.996094 " fill-opacity="1" fill-rule="nonzero"/></g><path fill="#040606" d="M 48.925781 26.59375 C 48.925781 29.628906 46.6875 32.203125 43.75 32.785156 C 43.871094 29.867188 45.988281 27.296875 48.925781 26.59375 Z M 25.535156 24.964844 C 27.882812 25.082031 30.941406 26.128906 31.648438 29.980469 C 27.769531 30.101562 26.121094 27.296875 25.535156 24.964844 Z M 24.359375 6.410156 C 27.769531 4.421875 30.472656 6.058594 32.238281 7.691406 C 30 8.742188 26.941406 9.328125 24.359375 6.410156 Z M 48.691406 2.792969 C 48.804688 6.644531 45.988281 8.273438 43.636719 8.855469 C 43.75 6.523438 44.8125 3.488281 48.691406 2.792969 Z M 39.050781 53.902344 L 42.464844 45.035156 C 43.402344 42.699219 43.050781 40.136719 41.753906 38.148438 C 42.695312 37.210938 43.285156 35.933594 43.636719 35.117188 C 52.214844 34.0625 51.152344 25.195312 51.273438 25.082031 C 51.152344 24.492188 50.6875 23.917969 49.980469 24.027344 C 49.390625 24.378906 42.578125 23.09375 41.636719 33.832031 C 41.289062 34.765625 40.695312 35.8125 40.226562 36.398438 C 39.992188 36.164062 39.757812 36.046875 39.519531 35.8125 C 34.230469 32.546875 39.640625 25.664062 41.523438 22.398438 C 43.636719 18.660156 41.753906 15.511719 41.523438 14.695312 C 42.578125 13.761719 43.164062 12.242188 43.519531 11.191406 C 52.09375 9.441406 51.039062 1.386719 51.039062 1.273438 C 51.039062 0.921875 50.808594 0.691406 50.574219 0.457031 C 50.21875 0.457031 49.980469 0.339844 49.632812 0.339844 C 49.511719 0.457031 40.933594 0.21875 41.289062 10.140625 C 41.167969 10.84375 40.933594 11.429688 40.695312 12.011719 L 37.878906 2.089844 C 37.644531 1.507812 36.9375 1.15625 36.347656 1.273438 C 35.761719 1.507812 35.40625 2.089844 35.527344 2.792969 L 37.054688 8.042969 C 36.347656 7.921875 35.527344 7.457031 34.820312 7.105469 C 28.945312 -0.0117188 22.128906 5.125 22.011719 5.125 C 21.421875 5.476562 21.300781 6.171875 21.777344 6.753906 C 22.242188 7.226562 26.121094 13.761719 34.117188 9.328125 C 34.941406 9.792969 36.46875 10.492188 37.757812 10.492188 C 39.757812 18.078125 40.8125 18.890625 39.40625 21.34375 C 37.996094 22.628906 34.941406 28 34.820312 31.851562 C 34.585938 31.5 34.351562 31.148438 34.117188 30.796875 C 34 30.683594 34 22.398438 24.125 22.75 C 23.773438 22.75 23.417969 22.863281 23.183594 23.214844 C 22.832031 23.566406 22.953125 23.917969 22.953125 24.261719 C 23.773438 29.515625 27.0625 32.785156 32.355469 32.433594 C 32.945312 33.367188 34.117188 35 35.648438 35.46875 C 37.054688 38.265625 42.230469 39.433594 40.347656 44.449219 L 36.9375 53.320312 C 36.703125 53.910156 37.054688 54.605469 37.644531 54.835938 C 38.109375 54.835938 38.816406 54.484375 39.050781 53.902344 " fill-opacity="1" fill-rule="nonzero"/></svg>