<svg xmlns="http://www.w3.org/2000/svg" xmlns:xlink="http://www.w3.org/1999/xlink" width="100" zoomAndPan="magnify" viewBox="0 0 75 74.999997" height="100" preserveAspectRatio="xMidYMid meet" version="1.0"><path fill="#000000" d="M 72.65625 14.0625 L 58.59375 14.0625 L 58.59375 7.03125 C 58.59375 3.15625 55.4375 0 51.5625 0 L 23.4375 0 C 19.5625 0 16.40625 3.15625 16.40625 7.03125 L 16.40625 14.0625 L 2.34375 14.0625 C 1.050781 14.0625 0 15.109375 0 16.40625 L 0 72.65625 C 0 73.953125 1.050781 75 2.34375 75 L 72.65625 75 C 73.953125 75 75 73.953125 75 72.65625 L 75 16.40625 C 75 15.109375 73.953125 14.0625 72.65625 14.0625 Z M 21.09375 7.03125 C 21.09375 5.738281 22.144531 4.6875 23.4375 4.6875 L 51.5625 4.6875 C 52.855469 4.6875 53.90625 5.738281 53.90625 7.03125 L 53.90625 14.0625 L 21.09375 14.0625 Z M 4.6875 18.75 L 70.3125 18.75 L 70.3125 30.46875 C 70.3125 34.34375 67.15625 37.5 63.28125 37.5 L 44.53125 37.5 L 44.53125 35.15625 C 44.53125 31.28125 41.375 28.125 37.5 28.125 C 33.625 28.125 30.46875 31.28125 30.46875 35.15625 L 30.46875 37.5 L 11.71875 37.5 C 7.84375 37.5 4.6875 34.34375 4.6875 30.46875 Z M 39.84375 37.5 L 35.15625 37.5 L 35.15625 35.15625 C 35.15625 33.863281 36.207031 32.8125 37.5 32.8125 C 38.792969 32.8125 39.84375 33.863281 39.84375 35.15625 Z M 35.15625 42.1875 L 39.84375 42.1875 L 39.84375 44.53125 C 39.84375 45.824219 38.792969 46.875 37.5 46.875 C 36.207031 46.875 35.15625 45.824219 35.15625 44.53125 Z M 4.6875 70.3125 L 4.6875 39.78125 C 6.652344 41.269531 9.070312 42.1875 11.71875 42.1875 L 30.46875 42.1875 L 30.46875 44.53125 C 30.46875 48.40625 33.625 51.5625 37.5 51.5625 C 41.375 51.5625 44.53125 48.40625 44.53125 44.53125 L 44.53125 42.1875 L 63.28125 42.1875 C 65.929688 42.1875 68.347656 41.269531 70.3125 39.78125 L 70.3125 70.3125 Z M 4.6875 70.3125 " fill-opacity="1" fill-rule="nonzero"/></svg>