<svg xmlns="http://www.w3.org/2000/svg" xmlns:xlink="http://www.w3.org/1999/xlink" width="100" zoomAndPan="magnify" viewBox="0 0 75 74.999997" height="100" preserveAspectRatio="xMidYMid meet" version="1.0"><defs><clipPath id="2e1a38b997"><path d="M 0 0 L 75 0 L 75 74.25 L 0 74.25 Z M 0 0 " clip-rule="nonzero"/></clipPath></defs><g clip-path="url(#2e1a38b997)"><path fill="#000000" d="M 74.453125 49.082031 L 69.289062 43.941406 L 69.285156 43.945312 C 69.066406 43.730469 68.773438 43.59375 68.445312 43.585938 L 55.851562 43.277344 C 55.851562 43.277344 55.851562 43.277344 55.847656 43.277344 C 55.246094 42.578125 54.609375 41.886719 53.917969 41.203125 L 47.070312 34.382812 L 72.597656 21.269531 C 72.710938 21.214844 72.816406 21.136719 72.910156 21.042969 C 73.386719 20.558594 73.382812 19.785156 72.894531 19.308594 L 66.09375 12.648438 C 65.84375 12.367188 65.46875 12.203125 65.0625 12.238281 L 59.695312 12.707031 L 55.832031 8.859375 C 55.019531 8.054688 53.949219 7.648438 52.882812 7.648438 C 51.8125 7.648438 50.742188 8.054688 49.933594 8.859375 C 49.121094 9.667969 48.714844 10.734375 48.714844 11.796875 C 48.714844 12.425781 48.875 13.046875 49.160156 13.625 L 45.3125 13.960938 L 41.445312 10.113281 C 40.632812 9.308594 39.5625 8.902344 38.496094 8.902344 C 37.429688 8.902344 36.363281 9.308594 35.550781 10.113281 L 35.472656 10.195312 C 34.710938 10.992188 34.328125 12.023438 34.328125 13.050781 C 34.328125 13.679688 34.492188 14.300781 34.777344 14.878906 L 28.136719 15.457031 C 28.117188 15.460938 28.101562 15.472656 28.078125 15.472656 L 20.972656 8.402344 C 18.207031 5.648438 15.59375 3.4375 12.554688 2.019531 C 9.46875 0.582031 6.023438 -0.00390625 1.660156 0.527344 C 1.078125 0.597656 0.640625 1.0625 0.582031 1.621094 C 0.0507812 5.953125 0.644531 9.378906 2.085938 12.441406 C 3.507812 15.464844 5.730469 18.070312 8.496094 20.820312 L 15.535156 27.828125 C 15.511719 27.90625 15.472656 27.980469 15.464844 28.066406 L 14.882812 34.671875 C 14.304688 34.390625 13.675781 34.230469 13.042969 34.230469 C 11.976562 34.230469 10.90625 34.632812 10.097656 35.441406 L 10.097656 35.449219 C 9.285156 36.257812 8.878906 37.320312 8.878906 38.378906 C 8.878906 39.410156 9.257812 40.4375 10.019531 41.238281 L 10.097656 41.316406 L 13.960938 45.164062 L 13.625 48.992188 C 13.042969 48.710938 12.417969 48.550781 11.785156 48.550781 C 10.71875 48.550781 9.648438 48.957031 8.835938 49.761719 C 8.023438 50.570312 7.617188 51.636719 7.617188 52.699219 C 7.617188 53.761719 8.023438 54.828125 8.835938 55.632812 L 12.699219 59.480469 L 12.230469 64.828125 C 12.195312 65.226562 12.359375 65.605469 12.644531 65.851562 L 19.332031 72.625 C 19.808594 73.105469 20.589844 73.113281 21.074219 72.640625 C 21.167969 72.546875 21.246094 72.441406 21.304688 72.328125 L 34.554688 46.765625 L 41.441406 53.621094 C 42.230469 54.40625 43.03125 55.117188 43.835938 55.785156 L 44.136719 67.777344 C 44.144531 68.105469 44.28125 68.402344 44.496094 68.613281 L 44.492188 68.617188 L 49.65625 73.757812 C 50.140625 74.238281 50.921875 74.238281 51.398438 73.757812 C 51.605469 73.550781 51.722656 73.292969 51.753906 73.027344 L 54.257812 60.636719 C 56 60.871094 57.863281 60.878906 59.886719 60.632812 C 60.46875 60.5625 60.90625 60.097656 60.964844 59.539062 C 61.21875 57.441406 61.195312 55.523438 60.929688 53.730469 L 73.710938 51.167969 C 73.980469 51.136719 74.242188 51.019531 74.445312 50.816406 C 74.933594 50.335938 74.933594 49.558594 74.453125 49.082031 Z M 52.050781 13.371094 L 51.675781 12.996094 C 51.347656 12.667969 51.179688 12.230469 51.179688 11.792969 C 51.179688 11.359375 51.347656 10.921875 51.675781 10.59375 C 52.003906 10.265625 52.445312 10.101562 52.882812 10.101562 C 53.320312 10.101562 53.753906 10.265625 54.085938 10.59375 L 56.488281 12.984375 L 52.335938 13.347656 Z M 37.664062 14.625 L 37.289062 14.25 C 36.960938 13.925781 36.792969 13.488281 36.792969 13.046875 C 36.792969 12.632812 36.945312 12.214844 37.242188 11.894531 L 37.289062 11.847656 C 37.617188 11.519531 38.054688 11.355469 38.496094 11.355469 C 38.933594 11.355469 39.371094 11.519531 39.699219 11.847656 L 42.101562 14.238281 L 38.027344 14.59375 Z M 37.308594 17.121094 L 44.949219 16.457031 C 44.949219 16.457031 44.949219 16.457031 44.953125 16.457031 L 51.695312 15.867188 L 59.335938 15.203125 L 64.714844 14.734375 L 69.964844 19.871094 L 45.246094 32.566406 L 30.34375 17.730469 Z M 11.792969 39.53125 C 11.496094 39.210938 11.347656 38.796875 11.347656 38.378906 C 11.347656 37.945312 11.511719 37.507812 11.839844 37.179688 C 12.171875 36.851562 12.609375 36.6875 13.046875 36.6875 C 13.484375 36.6875 13.921875 36.851562 14.253906 37.179688 L 14.632812 37.554688 L 14.480469 39.261719 L 14.242188 41.96875 Z M 10.582031 53.898438 C 10.253906 53.570312 10.089844 53.136719 10.089844 52.699219 C 10.089844 52.265625 10.253906 51.828125 10.582031 51.5 C 10.914062 51.171875 11.351562 51.007812 11.789062 51.007812 C 12.226562 51.007812 12.664062 51.171875 12.996094 51.5 L 13.375 51.875 L 13.175781 54.125 L 12.988281 56.289062 Z M 19.898438 69.703125 L 14.738281 64.480469 L 15.210938 59.125 L 15.457031 56.320312 L 16.46875 44.804688 L 16.492188 44.519531 L 17.765625 30.050781 L 32.730469 44.945312 Z M 49.78125 70.40625 L 46.585938 67.226562 L 46.34375 57.625 C 47.410156 58.3125 48.496094 58.929688 49.644531 59.40625 C 50.363281 59.703125 51.097656 59.949219 51.855469 60.15625 Z M 58.617188 58.292969 C 55.566406 58.539062 52.957031 58.117188 50.589844 57.140625 C 47.945312 56.050781 45.5625 54.246094 43.1875 51.882812 L 10.242188 19.085938 C 7.644531 16.503906 5.582031 14.097656 4.3125 11.402344 C 3.171875 8.980469 2.652344 6.257812 2.933594 2.863281 C 6.34375 2.582031 9.078125 3.101562 11.511719 4.234375 C 14.21875 5.496094 16.632812 7.554688 19.226562 10.136719 L 52.175781 42.933594 C 54.550781 45.296875 56.363281 47.671875 57.460938 50.304688 C 58.441406 52.660156 58.863281 55.257812 58.617188 58.292969 Z M 60.417969 51.335938 C 60.226562 50.664062 60 50.007812 59.734375 49.367188 C 59.210938 48.109375 58.523438 46.925781 57.742188 45.769531 L 67.886719 46.019531 L 71.085938 49.199219 Z M 60.417969 51.335938 " fill-opacity="1" fill-rule="nonzero"/></g></svg>