<?xml version="1.0" encoding="UTF-8"?>
<svg xmlns="http://www.w3.org/2000/svg" xmlns:xlink="http://www.w3.org/1999/xlink" width="187.5pt" height="187.499995pt" viewBox="0 0 187.5 187.499995" version="1.2">
<defs>
<clipPath id="clip1">
  <path d="M 15.703125 0 L 171.703125 0 L 171.703125 187 L 15.703125 187 Z M 15.703125 0 "/>
</clipPath>
</defs>
<g id="surface1">
<g clip-path="url(#clip1)" clip-rule="nonzero">
<path style=" stroke:none;fill-rule:evenodd;fill:rgb(39.99939%,22.749329%,50.979614%);fill-opacity:1;" d="M 142.816406 112.371094 L 142.816406 116.167969 C 142.816406 122.660156 141.640625 128.890625 139.496094 134.660156 C 141.769531 136.542969 144.6875 137.675781 147.871094 137.675781 C 155.132812 137.675781 161.019531 131.785156 161.019531 124.519531 C 161.019531 117.253906 155.132812 111.363281 147.871094 111.363281 C 146.078125 111.363281 144.371094 111.722656 142.816406 112.371094 Z M 41.902344 98.054688 C 41.902344 98.054688 39.121094 121.472656 46.199219 135.675781 C 53.28125 149.875 63.140625 156.851562 70.726562 160.089844 C 78.3125 163.328125 78.3125 163.328125 78.3125 163.328125 C 54.027344 145.683594 56.8125 124.621094 58.335938 98.054688 C 58.335938 98.054688 41.652344 98.054688 41.902344 98.054688 Z M 171.660156 177.878906 C 169.128906 183.53125 163.445312 187.492188 156.882812 187.492188 L 30.464844 187.492188 C 23.902344 187.492188 18.21875 183.53125 15.6875 177.878906 Z M 87.199219 -0.00390625 C 99.261719 7.414062 99.859375 17.574219 97.75 23.816406 C 95.175781 31.414062 87.472656 37.148438 86.285156 43.382812 C 85.324219 48.445312 91.136719 55.496094 93.773438 59.703125 L 93.769531 59.703125 C 84.117188 54.96875 76.238281 46.804688 83.816406 35.136719 C 89.636719 26.183594 101.039062 19.15625 87.199219 -0.00390625 Z M 114.757812 14.671875 C 126.820312 22.085938 127.421875 32.246094 125.304688 38.492188 C 122.578125 46.558594 114.054688 52.527344 113.703125 59.226562 C 113.480469 63.507812 119.054688 70.742188 121.332031 74.375 L 121.328125 74.378906 C 111.671875 69.640625 103.792969 61.476562 111.375 49.8125 C 117.195312 40.855469 128.597656 33.828125 114.757812 14.671875 Z M 59.636719 14.671875 C 71.703125 22.085938 72.300781 32.246094 70.1875 38.492188 C 67.972656 45.035156 61.945312 50.199219 59.5625 55.496094 C 56.492188 62.3125 62.589844 68.59375 66.214844 74.375 L 66.210938 74.378906 C 56.554688 69.640625 48.675781 61.476562 56.257812 49.8125 C 62.078125 40.855469 73.476562 33.828125 59.636719 14.671875 Z M 36.117188 91.125 L 142.816406 91.125 L 142.816406 103.355469 C 144.4375 102.964844 146.132812 102.761719 147.871094 102.761719 C 159.878906 102.761719 169.617188 112.503906 169.617188 124.519531 C 169.617188 136.535156 159.878906 146.277344 147.871094 146.277344 C 143.390625 146.277344 139.230469 144.921875 135.769531 142.597656 C 126.546875 158.664062 109.214844 169.546875 89.46875 169.546875 C 60.125 169.546875 36.117188 145.527344 36.117188 116.167969 L 36.117188 91.125 "/>
</g>
</g>
</svg>
