<?xml version="1.0" encoding="UTF-8"?>
<svg xmlns="http://www.w3.org/2000/svg" xmlns:xlink="http://www.w3.org/1999/xlink" width="187.5pt" height="187.499995pt" viewBox="0 0 187.5 187.499995" version="1.2">
<defs>
<clipPath id="clip1">
  <path d="M 86 73 L 98 73 L 98 78.679688 L 86 78.679688 Z M 86 73 "/>
</clipPath>
<clipPath id="clip2">
  <path d="M 86.484375 73.09375 L 97.710938 73.09375 L 97.710938 78.675781 L 86.484375 78.675781 Z M 86.484375 73.09375 "/>
</clipPath>
<clipPath id="clip3">
  <path d="M 97.871094 0.410156 L 186.441406 0.410156 L 186.441406 64.609375 L 97.871094 64.609375 Z M 97.871094 0.410156 "/>
</clipPath>
<clipPath id="clip4">
  <path d="M 0 65 L 187 65 L 187 187 L 0 187 Z M 0 65 "/>
</clipPath>
</defs>
<g id="surface1">
<path style=" stroke:none;fill-rule:nonzero;fill:rgb(57.649231%,23.919678%,10.198975%);fill-opacity:1;" d="M 91.949219 67.117188 C 91.949219 67.117188 91.160156 67.402344 90.96875 68.074219 C 90.917969 68.25 90.984375 70.359375 90.503906 71.789062 C 90.417969 72.046875 91.113281 71.5625 91.417969 70.960938 C 91.683594 70.433594 91.742188 69.808594 91.816406 69.558594 C 91.9375 69.164062 91.765625 68.660156 91.867188 68.261719 C 91.976562 67.828125 91.949219 67.117188 91.949219 67.117188 "/>
<path style=" stroke:none;fill-rule:nonzero;fill:rgb(73.329163%,40.388489%,0%);fill-opacity:1;" d="M 91.757812 67.425781 C 91.542969 67.554688 91.25 67.785156 91.152344 68.125 C 91.148438 68.160156 91.140625 68.339844 91.136719 68.511719 C 91.113281 69.152344 91.070312 70.398438 90.804688 71.449219 C 90.957031 71.304688 91.128906 71.101562 91.246094 70.875 C 91.421875 70.519531 91.503906 70.109375 91.5625 69.8125 C 91.589844 69.691406 91.609375 69.582031 91.632812 69.503906 C 91.683594 69.335938 91.667969 69.125 91.652344 68.90625 C 91.636719 68.675781 91.621094 68.4375 91.679688 68.210938 C 91.738281 67.980469 91.753906 67.660156 91.757812 67.425781 Z M 90.355469 71.976562 C 90.304688 71.921875 90.285156 71.835938 90.320312 71.726562 C 90.671875 70.671875 90.722656 69.203125 90.75 68.5 C 90.757812 68.183594 90.761719 68.082031 90.78125 68.019531 C 91 67.261719 91.847656 66.949219 91.882812 66.933594 C 91.941406 66.914062 92.003906 66.921875 92.054688 66.957031 C 92.105469 66.992188 92.140625 67.046875 92.140625 67.109375 C 92.144531 67.140625 92.171875 67.851562 92.054688 68.308594 C 92.011719 68.472656 92.027344 68.671875 92.042969 68.878906 C 92.058594 69.125 92.074219 69.378906 92.003906 69.613281 C 91.984375 69.675781 91.964844 69.773438 91.945312 69.886719 C 91.878906 70.207031 91.792969 70.648438 91.589844 71.046875 C 91.355469 71.515625 90.730469 72.15625 90.4375 72.035156 C 90.40625 72.023438 90.378906 72.003906 90.355469 71.976562 "/>
<g clip-path="url(#clip1)" clip-rule="nonzero">
<path style=" stroke:none;fill-rule:nonzero;fill:rgb(57.649231%,23.919678%,10.198975%);fill-opacity:1;" d="M 97.433594 73.367188 C 97.515625 73.867188 97.617188 74.671875 96.410156 75.238281 C 95.207031 75.800781 92.84375 76.910156 92.1875 77.179688 C 91.398438 77.503906 89.871094 78.582031 89.023438 78.476562 C 88.632812 78.425781 86.820312 77.042969 86.707031 76.675781 C 86.589844 76.28125 86.925781 74.953125 87.050781 75.34375 C 87.175781 75.730469 97.355469 72.863281 97.433594 73.367188 "/>
</g>
<g clip-path="url(#clip2)" clip-rule="nonzero">
<path style=" stroke:none;fill-rule:nonzero;fill:rgb(73.329163%,40.388489%,0%);fill-opacity:1;" d="M 87.035156 75.558594 C 86.9375 75.832031 86.835938 76.417969 86.894531 76.617188 C 87 76.917969 88.707031 78.242188 89.046875 78.285156 C 89.578125 78.351562 90.488281 77.855469 91.21875 77.457031 C 91.550781 77.273438 91.867188 77.101562 92.113281 77 C 92.773438 76.730469 95.265625 75.5625 96.328125 75.0625 C 97.347656 74.582031 97.324219 73.953125 97.257812 73.496094 C 96.699219 73.464844 93.921875 74.117188 91.871094 74.601562 C 90.640625 74.894531 89.480469 75.167969 88.59375 75.351562 C 88.113281 75.453125 87.757812 75.515625 87.507812 75.550781 C 87.320312 75.574219 87.152344 75.589844 87.035156 75.558594 Z M 86.714844 77.019531 C 86.613281 76.90625 86.546875 76.804688 86.523438 76.730469 C 86.425781 76.398438 86.597656 75.195312 86.929688 75.089844 C 86.996094 75.070312 87.113281 75.074219 87.191406 75.191406 C 87.648438 75.203125 89.933594 74.664062 91.78125 74.226562 C 95.902344 73.253906 97.230469 72.984375 97.523438 73.175781 C 97.578125 73.214844 97.617188 73.269531 97.625 73.335938 C 97.699219 73.804688 97.855469 74.773438 96.492188 75.414062 C 95.335938 75.953125 92.929688 77.085938 92.261719 77.359375 C 92.035156 77.453125 91.730469 77.621094 91.40625 77.796875 C 90.582031 78.242188 89.652344 78.75 89 78.667969 C 88.628906 78.621094 87.234375 77.621094 86.714844 77.019531 "/>
</g>
<path style=" stroke:none;fill-rule:nonzero;fill:rgb(73.329163%,40.388489%,0%);fill-opacity:1;" d="M 93.472656 76.027344 Z M 93.476562 76.164062 C 93.421875 76.101562 93.398438 76.015625 93.417969 75.929688 C 93.414062 75.925781 93.410156 75.917969 93.40625 75.910156 C 93.339844 75.777344 93.390625 75.613281 93.523438 75.546875 C 93.65625 75.480469 93.820312 75.53125 93.890625 75.667969 C 93.90625 75.695312 93.917969 75.714844 93.925781 75.726562 C 93.996094 75.835938 94.003906 75.933594 93.945312 76.058594 C 93.941406 76.066406 93.9375 76.074219 93.933594 76.089844 C 93.875 76.226562 93.71875 76.292969 93.578125 76.234375 C 93.539062 76.21875 93.503906 76.195312 93.476562 76.164062 "/>
<path style=" stroke:none;fill-rule:nonzero;fill:rgb(73.329163%,40.388489%,0%);fill-opacity:1;" d="M 92.242188 76.328125 Z M 92.3125 76.492188 C 92.285156 76.460938 92.265625 76.425781 92.257812 76.382812 L 92.238281 76.3125 C 92.230469 76.296875 92.222656 76.277344 92.207031 76.246094 C 92.152344 76.105469 92.214844 75.949219 92.355469 75.890625 C 92.492188 75.832031 92.652344 75.898438 92.710938 76.039062 C 92.722656 76.066406 92.730469 76.085938 92.734375 76.097656 C 92.753906 76.140625 92.757812 76.15625 92.773438 76.207031 L 92.78125 76.246094 C 92.820312 76.390625 92.730469 76.539062 92.585938 76.578125 C 92.484375 76.601562 92.378906 76.566406 92.3125 76.492188 "/>
<path style=" stroke:none;fill-rule:nonzero;fill:rgb(73.329163%,40.388489%,0%);fill-opacity:1;" d="M 90.804688 77.257812 C 90.742188 77.183594 90.71875 77.074219 90.761719 76.976562 L 90.820312 76.835938 C 90.875 76.695312 91.035156 76.632812 91.171875 76.6875 C 91.3125 76.746094 91.378906 76.902344 91.320312 77.042969 L 91.261719 77.183594 C 91.203125 77.320312 91.046875 77.386719 90.90625 77.332031 C 90.867188 77.3125 90.832031 77.289062 90.804688 77.257812 "/>
<path style=" stroke:none;fill-rule:nonzero;fill:rgb(96.469116%,68.629456%,26.269531%);fill-opacity:1;" d="M 97.230469 73.609375 C 96.234375 74.597656 95.394531 74.515625 93.941406 75.128906 C 92.332031 75.808594 90.863281 76.78125 89.242188 77.429688 C 89.152344 77.46875 86.363281 75.898438 87.152344 75.003906 C 87.863281 74.203125 88.570312 73.386719 89.363281 72.664062 C 89.921875 72.152344 90.734375 71.910156 91.183594 71.300781 C 91.996094 70.191406 91.78125 68.375 91.910156 67.210938 C 91.917969 67.144531 91.972656 67.089844 92.027344 67.054688 C 92.273438 66.910156 92.84375 67.042969 92.988281 67.078125 C 94.074219 67.351562 93.71875 67.972656 94.394531 68.992188 C 95.070312 70.007812 96.039062 70.808594 96.675781 71.847656 C 96.9375 72.273438 97.164062 72.71875 97.367188 73.171875 C 97.445312 73.34375 97.335938 73.507812 97.230469 73.609375 "/>
<path style=" stroke:none;fill-rule:nonzero;fill:rgb(73.329163%,40.388489%,0%);fill-opacity:1;" d="M 89.273438 77.246094 Z M 92.097656 67.242188 C 92.066406 67.53125 92.058594 67.863281 92.046875 68.21875 C 92.011719 69.304688 91.976562 70.539062 91.335938 71.410156 C 91.050781 71.796875 90.644531 72.042969 90.25 72.277344 C 89.972656 72.445312 89.710938 72.601562 89.488281 72.804688 C 88.777344 73.453125 88.125 74.195312 87.492188 74.910156 L 87.296875 75.132812 C 87.203125 75.234375 87.179688 75.351562 87.222656 75.496094 C 87.421875 76.1875 88.910156 77.089844 89.234375 77.230469 C 90.050781 76.898438 90.84375 76.476562 91.613281 76.066406 C 92.339844 75.679688 93.09375 75.28125 93.867188 74.953125 C 94.359375 74.746094 94.785156 74.617188 95.160156 74.503906 C 95.917969 74.269531 96.464844 74.101562 97.097656 73.476562 C 97.140625 73.433594 97.230469 73.332031 97.195312 73.25 C 96.96875 72.753906 96.746094 72.324219 96.515625 71.945312 C 96.1875 71.410156 95.757812 70.925781 95.335938 70.457031 C 94.957031 70.03125 94.5625 69.585938 94.234375 69.097656 C 93.976562 68.703125 93.859375 68.367188 93.765625 68.09375 C 93.609375 67.636719 93.53125 67.410156 92.941406 67.261719 C 92.574219 67.167969 92.238281 67.152344 92.125 67.21875 C 92.113281 67.226562 92.101562 67.234375 92.097656 67.242188 Z M 87.226562 76.21875 C 87.167969 76.152344 87.117188 76.085938 87.070312 76.019531 C 86.675781 75.464844 86.820312 75.09375 87.011719 74.878906 L 87.207031 74.65625 C 87.847656 73.933594 88.507812 73.1875 89.234375 72.523438 C 89.480469 72.296875 89.773438 72.121094 90.054688 71.953125 C 90.433594 71.726562 90.789062 71.511719 91.03125 71.1875 C 91.601562 70.410156 91.636719 69.238281 91.664062 68.207031 C 91.675781 67.839844 91.6875 67.496094 91.722656 67.191406 C 91.734375 67.074219 91.8125 66.960938 91.929688 66.890625 C 92.214844 66.722656 92.746094 66.820312 93.035156 66.894531 C 93.824219 67.09375 93.964844 67.5 94.125 67.972656 C 94.214844 68.234375 94.320312 68.535156 94.554688 68.886719 C 94.863281 69.355469 95.246094 69.789062 95.621094 70.207031 C 96.050781 70.6875 96.492188 71.183594 96.839844 71.75 C 97.078125 72.140625 97.308594 72.582031 97.539062 73.09375 C 97.636719 73.304688 97.570312 73.539062 97.367188 73.742188 C 96.667969 74.4375 96.050781 74.625 95.269531 74.863281 C 94.902344 74.976562 94.488281 75.105469 94.015625 75.304688 C 93.257812 75.625 92.511719 76.019531 91.792969 76.402344 C 90.996094 76.824219 90.171875 77.261719 89.3125 77.605469 C 89.265625 77.625 89.132812 77.679688 88.308594 77.125 C 87.972656 76.902344 87.539062 76.578125 87.226562 76.21875 "/>
<path style=" stroke:none;fill-rule:nonzero;fill:rgb(57.649231%,23.919678%,10.198975%);fill-opacity:1;" d="M 94.007812 58.15625 C 94.007812 58.15625 93.398438 58.320312 93.523438 58.800781 C 93.691406 59.460938 94.40625 60.476562 95.101562 60.757812 C 96.089844 61.15625 96.589844 61.515625 97.566406 60.929688 C 97.859375 60.753906 98.527344 60.175781 98.390625 60.121094 C 98.039062 59.976562 94.675781 58.691406 94.007812 58.15625 "/>
<path style=" stroke:none;fill-rule:nonzero;fill:rgb(73.329163%,40.388489%,0%);fill-opacity:1;" d="M 93.742188 58.433594 C 93.660156 58.511719 93.601562 58.625 93.640625 58.773438 C 93.808594 59.425781 94.503906 60.386719 95.148438 60.644531 C 95.277344 60.695312 95.394531 60.746094 95.511719 60.796875 C 96.257812 61.113281 96.707031 61.304688 97.503906 60.828125 C 97.746094 60.683594 98.121094 60.351562 98.25 60.195312 C 98.222656 60.183594 98.1875 60.171875 98.152344 60.15625 C 97.285156 59.816406 94.691406 58.796875 93.984375 58.289062 C 93.921875 58.3125 93.820312 58.359375 93.742188 58.433594 Z M 98.253906 60.539062 C 98.019531 60.761719 97.707031 60.984375 97.628906 61.03125 C 96.726562 61.574219 96.175781 61.34375 95.417969 61.019531 C 95.304688 60.96875 95.183594 60.917969 95.054688 60.867188 C 94.339844 60.578125 93.59375 59.554688 93.40625 58.832031 C 93.28125 58.359375 93.726562 58.105469 93.976562 58.039062 C 94.011719 58.027344 94.050781 58.035156 94.082031 58.0625 C 94.472656 58.371094 95.871094 59 98.242188 59.929688 C 98.332031 59.96875 98.398438 59.992188 98.433594 60.007812 C 98.488281 60.03125 98.523438 60.078125 98.527344 60.132812 C 98.535156 60.234375 98.414062 60.386719 98.253906 60.539062 "/>
<path style=" stroke:none;fill-rule:nonzero;fill:rgb(96.469116%,68.629456%,26.269531%);fill-opacity:1;" d="M 93.9375 58.160156 C 93.671875 58.339844 94.128906 58.765625 94.257812 59.058594 C 94.734375 60.125 96.050781 60.777344 97.210938 60.628906 C 97.636719 60.570312 98.242188 60.488281 98.488281 60.09375 C 98.800781 59.597656 99.191406 57.6875 98.492188 57.429688 C 98.085938 57.277344 97.679688 57.609375 97.335938 57.742188 C 96.875 57.917969 96.519531 57.730469 96.054688 57.628906 C 95.25 57.457031 94.492188 57.78125 93.9375 58.160156 "/>
<path style=" stroke:none;fill-rule:nonzero;fill:rgb(73.329163%,40.388489%,0%);fill-opacity:1;" d="M 93.996094 58.265625 C 93.933594 58.324219 94.042969 58.5 94.183594 58.707031 C 94.257812 58.8125 94.324219 58.914062 94.367188 59.007812 C 94.808594 60 96.050781 60.65625 97.195312 60.507812 C 97.582031 60.457031 98.164062 60.382812 98.386719 60.027344 C 98.617188 59.660156 98.898438 58.441406 98.691406 57.835938 C 98.636719 57.679688 98.558594 57.582031 98.449219 57.542969 C 98.199219 57.449219 97.929688 57.585938 97.667969 57.71875 C 97.570312 57.769531 97.472656 57.816406 97.378906 57.855469 C 96.988281 58.003906 96.667969 57.917969 96.328125 57.824219 C 96.230469 57.796875 96.132812 57.769531 96.027344 57.746094 C 95.226562 57.574219 94.484375 57.929688 94.003906 58.257812 Z M 98.457031 60.320312 C 98.136719 60.628906 97.601562 60.699219 97.230469 60.746094 C 95.984375 60.910156 94.628906 60.191406 94.148438 59.109375 C 94.113281 59.03125 94.050781 58.9375 93.984375 58.839844 C 93.816406 58.59375 93.582031 58.253906 93.867188 58.058594 C 94.386719 57.703125 95.195312 57.320312 96.078125 57.511719 C 96.191406 57.535156 96.292969 57.566406 96.390625 57.589844 C 96.71875 57.679688 96.972656 57.75 97.292969 57.628906 C 97.375 57.597656 97.464844 57.550781 97.558594 57.503906 C 97.851562 57.355469 98.183594 57.1875 98.535156 57.316406 C 98.710938 57.382812 98.839844 57.53125 98.917969 57.757812 C 99.160156 58.457031 98.847656 59.75 98.589844 60.15625 C 98.554688 60.21875 98.507812 60.273438 98.457031 60.320312 "/>
<path style=" stroke:none;fill-rule:nonzero;fill:rgb(57.649231%,23.919678%,10.198975%);fill-opacity:1;" d="M 75.765625 64.75 C 75.765625 64.75 74.878906 64.265625 74.484375 64.964844 C 73.953125 65.917969 73.644531 67.886719 74.140625 68.984375 C 74.847656 70.546875 75.023438 71.519531 76.808594 71.921875 C 77.34375 72.042969 78.761719 72.109375 78.664062 71.894531 C 78.414062 71.339844 75.949219 66.113281 75.765625 64.75 "/>
<path style=" stroke:none;fill-rule:nonzero;fill:rgb(73.329163%,40.388489%,0%);fill-opacity:1;" d="M 75.148438 64.78125 C 74.964844 64.78125 74.777344 64.84375 74.65625 65.058594 C 74.125 66.003906 73.859375 67.890625 74.320312 68.90625 C 74.410156 69.109375 74.492188 69.300781 74.574219 69.484375 C 75.085938 70.679688 75.394531 71.402344 76.851562 71.730469 C 77.292969 71.832031 78.097656 71.863281 78.421875 71.824219 C 78.398438 71.777344 78.375 71.730469 78.351562 71.671875 C 77.722656 70.316406 75.847656 66.253906 75.59375 64.882812 C 75.496094 64.839844 75.324219 64.78125 75.148438 64.78125 Z M 78.042969 72.226562 C 77.519531 72.226562 76.910156 72.140625 76.765625 72.109375 C 75.117188 71.738281 74.738281 70.855469 74.214844 69.636719 C 74.136719 69.453125 74.054688 69.265625 73.964844 69.0625 C 73.453125 67.929688 73.730469 65.917969 74.316406 64.871094 C 74.703125 64.1875 75.496094 64.382812 75.859375 64.582031 C 75.914062 64.609375 75.953125 64.664062 75.960938 64.726562 C 76.066406 65.519531 76.988281 67.804688 78.703125 71.511719 C 78.769531 71.65625 78.816406 71.757812 78.84375 71.816406 C 78.882812 71.898438 78.867188 71.992188 78.808594 72.066406 C 78.710938 72.1875 78.394531 72.226562 78.042969 72.226562 "/>
<path style=" stroke:none;fill-rule:nonzero;fill:rgb(96.469116%,68.629456%,26.269531%);fill-opacity:1;" d="M 75.683594 64.679688 C 75.175781 64.59375 75.226562 65.597656 75.054688 66.078125 C 74.417969 67.84375 75.214844 70.0625 76.734375 71.175781 C 77.289062 71.582031 78.085938 72.15625 78.8125 71.972656 C 79.71875 71.742188 82.304688 69.960938 81.78125 68.886719 C 81.472656 68.261719 80.636719 68.195312 80.089844 67.964844 C 79.359375 67.660156 79.15625 67.046875 78.726562 66.414062 C 77.988281 65.320312 76.746094 64.855469 75.683594 64.679688 "/>
<path style=" stroke:none;fill-rule:nonzero;fill:rgb(73.329163%,40.388489%,0%);fill-opacity:1;" d="M 75.632812 64.867188 C 75.492188 64.867188 75.425781 65.191406 75.359375 65.585938 C 75.324219 65.789062 75.292969 65.984375 75.234375 66.140625 C 74.644531 67.78125 75.355469 69.925781 76.847656 71.019531 C 77.351562 71.390625 78.113281 71.949219 78.765625 71.785156 C 79.441406 71.613281 81.125 70.507812 81.558594 69.574219 C 81.667969 69.335938 81.6875 69.132812 81.605469 68.972656 C 81.417969 68.582031 80.953125 68.445312 80.503906 68.308594 C 80.328125 68.257812 80.164062 68.207031 80.011719 68.144531 C 79.394531 67.882812 79.121094 67.425781 78.828125 66.945312 C 78.746094 66.804688 78.664062 66.664062 78.566406 66.523438 C 77.832031 65.433594 76.574219 65.023438 75.648438 64.867188 C 75.644531 64.867188 75.640625 64.867188 75.632812 64.867188 Z M 78.519531 72.203125 C 77.804688 72.203125 77.105469 71.6875 76.621094 71.332031 C 74.992188 70.140625 74.226562 67.804688 74.871094 66.011719 C 74.914062 65.886719 74.945312 65.707031 74.976562 65.523438 C 75.058594 65.046875 75.167969 64.394531 75.714844 64.488281 C 76.710938 64.652344 78.074219 65.101562 78.886719 66.304688 C 78.988281 66.457031 79.078125 66.601562 79.164062 66.746094 C 79.441406 67.210938 79.660156 67.574219 80.164062 67.785156 C 80.296875 67.84375 80.453125 67.890625 80.617188 67.9375 C 81.117188 68.089844 81.691406 68.261719 81.953125 68.800781 C 82.089844 69.074219 82.074219 69.390625 81.910156 69.738281 C 81.40625 70.820312 79.605469 71.972656 78.859375 72.160156 C 78.746094 72.1875 78.632812 72.203125 78.519531 72.203125 "/>
<path style=" stroke:none;fill-rule:nonzero;fill:rgb(57.649231%,23.919678%,10.198975%);fill-opacity:1;" d="M 84.183594 29.109375 L 71.984375 30.691406 C 71.984375 30.691406 64.046875 12.976562 62.667969 9.832031 C 61.285156 6.683594 60.613281 4.210938 62.96875 3.628906 C 65.320312 3.042969 66.136719 1.8125 68.675781 5.265625 C 71.210938 8.71875 75.925781 16.445312 76.914062 18.039062 C 77.902344 19.636719 84.183594 29.109375 84.183594 29.109375 "/>
<path style=" stroke:none;fill-rule:nonzero;fill:rgb(73.329163%,40.388489%,0%);fill-opacity:1;" d="M 83.414062 28.757812 L 72.257812 30.203125 C 71.203125 27.847656 64.34375 12.53125 63.078125 9.652344 C 62.273438 7.820312 61.519531 5.8125 62.023438 4.792969 C 62.199219 4.433594 62.542969 4.191406 63.074219 4.0625 C 63.519531 3.949219 63.914062 3.816406 64.261719 3.703125 C 65.75 3.199219 66.429688 2.96875 68.316406 5.53125 C 70.585938 8.625 74.613281 15.160156 76.132812 17.621094 L 76.535156 18.277344 C 77.382812 19.644531 82.011719 26.636719 83.414062 28.757812 M 71.910156 31.128906 C 71.953125 31.136719 71.996094 31.140625 72.042969 31.132812 L 84.242188 29.554688 C 84.394531 29.535156 84.527344 29.4375 84.59375 29.296875 C 84.65625 29.15625 84.644531 28.992188 84.558594 28.863281 C 84.496094 28.769531 78.269531 19.378906 77.296875 17.804688 L 76.894531 17.152344 C 75.371094 14.683594 71.332031 8.125 69.035156 5.003906 C 66.871094 2.054688 65.757812 2.253906 63.972656 2.855469 C 63.625 2.972656 63.269531 3.09375 62.859375 3.191406 C 62.066406 3.390625 61.515625 3.792969 61.21875 4.398438 C 60.59375 5.667969 61.179688 7.558594 62.257812 10.011719 C 63.621094 13.121094 71.496094 30.695312 71.578125 30.871094 C 71.636719 31.011719 71.765625 31.105469 71.910156 31.128906 "/>
<path style=" stroke:none;fill-rule:nonzero;fill:rgb(96.469116%,68.629456%,26.269531%);fill-opacity:1;" d="M 69.398438 21.222656 C 66.539062 13.988281 62.847656 6.976562 63.972656 5.382812 C 65.097656 3.792969 67.875 4.191406 73.894531 14.855469 C 77.644531 21.496094 84.363281 28.648438 84.363281 28.648438 L 85.660156 27.851562 C 85.660156 27.851562 82.726562 23.246094 78.269531 17.519531 C 73.808594 11.789062 70.339844 3.980469 67.085938 2.125 C 64.949219 0.910156 64.066406 0.332031 56.742188 3.910156 C 49.417969 7.488281 40.152344 11.863281 28.609375 21.695312 C 17.0625 31.527344 12.910156 34.058594 6.695312 39.664062 C 0.480469 45.269531 0.121094 46.730469 4.15625 49.476562 C 8.195312 52.222656 23.035156 66.722656 60.066406 64.171875 C 66.210938 63.746094 81.433594 60.492188 81.433594 60.492188 C 81.433594 60.492188 84.808594 59.839844 86.394531 55.128906 C 87.980469 50.417969 88.101562 46.007812 88.402344 42.121094 C 88.703125 38.234375 89.132812 28.695312 89.132812 28.695312 L 87.402344 29.027344 C 87.402344 29.027344 87.199219 36.78125 86.058594 42.722656 C 84.867188 48.914062 83.691406 55.695312 82.136719 55.066406 C 79.085938 53.835938 78.550781 49.972656 77.277344 46.816406 C 76.597656 45.125 70.417969 23.808594 69.398438 21.222656 "/>
<path style=" stroke:none;fill-rule:nonzero;fill:rgb(73.329163%,40.388489%,0%);fill-opacity:1;" d="M 88.660156 29.242188 C 88.5625 31.351562 88.210938 38.796875 87.953125 42.085938 C 87.914062 42.597656 87.878906 43.121094 87.839844 43.652344 C 87.601562 47.070312 87.328125 50.949219 85.96875 54.984375 C 84.492188 59.367188 81.472656 60.027344 81.347656 60.054688 C 81.1875 60.089844 66.074219 63.308594 60.035156 63.726562 C 26.652344 66.023438 11.546875 54.515625 5.863281 50.183594 C 5.269531 49.730469 4.800781 49.371094 4.410156 49.105469 C 2.722656 47.960938 2.011719 47.15625 1.957031 46.335938 C 1.859375 44.921875 3.730469 42.941406 6.996094 39.996094 C 10.054688 37.238281 12.59375 35.238281 15.8125 32.707031 C 19.039062 30.171875 23.050781 27.015625 28.898438 22.035156 C 40.015625 12.566406 48.988281 8.191406 56.195312 4.671875 L 56.9375 4.3125 C 63.980469 0.871094 64.808594 1.339844 66.804688 2.480469 L 66.863281 2.511719 C 68.730469 3.578125 70.808594 6.925781 73.011719 10.472656 C 74.546875 12.945312 76.136719 15.507812 77.914062 17.792969 C 81.582031 22.503906 84.238281 26.496094 85.035156 27.710938 L 84.445312 28.074219 C 83.199219 26.714844 77.558594 20.433594 74.285156 14.632812 C 70.453125 7.847656 67.4375 4.351562 65.316406 4.246094 C 64.628906 4.210938 64.039062 4.515625 63.605469 5.128906 C 62.6875 6.425781 64.066406 9.800781 66.582031 15.648438 C 67.378906 17.503906 68.203125 19.425781 68.980469 21.386719 C 69.527344 22.773438 71.628906 29.792969 73.484375 35.984375 C 75.125 41.460938 76.542969 46.1875 76.863281 46.980469 C 77.140625 47.671875 77.390625 48.414062 77.628906 49.132812 C 78.503906 51.746094 79.40625 54.445312 81.96875 55.480469 C 82.25 55.59375 82.542969 55.574219 82.816406 55.425781 C 84.140625 54.707031 85.003906 50.636719 86.265625 44.023438 L 86.5 42.804688 C 87.496094 37.621094 87.78125 31.003906 87.839844 29.402344 L 88.660156 29.242188 M 34.949219 63.570312 C 42.621094 64.890625 51.03125 65.242188 60.097656 64.617188 C 66.199219 64.195312 81.375 60.960938 81.527344 60.929688 C 81.667969 60.902344 85.167969 60.171875 86.816406 55.269531 C 88.214844 51.125 88.492188 47.1875 88.734375 43.714844 C 88.773438 43.183594 88.808594 42.664062 88.847656 42.15625 C 89.148438 38.308594 89.574219 28.8125 89.578125 28.714844 C 89.585938 28.582031 89.53125 28.449219 89.425781 28.359375 C 89.320312 28.269531 89.183594 28.230469 89.046875 28.257812 L 87.320312 28.589844 C 87.113281 28.628906 86.960938 28.808594 86.957031 29.015625 C 86.953125 29.09375 86.742188 36.800781 85.621094 42.636719 L 85.386719 43.855469 C 84.519531 48.40625 83.4375 54.070312 82.390625 54.640625 C 82.34375 54.667969 82.328125 54.660156 82.304688 54.652344 C 80.125 53.769531 79.324219 51.378906 78.480469 48.847656 C 78.234375 48.117188 77.980469 47.363281 77.695312 46.648438 C 77.390625 45.894531 75.910156 40.957031 74.34375 35.726562 C 72.390625 29.214844 70.375 22.480469 69.8125 21.058594 C 69.03125 19.085938 68.203125 17.15625 67.402344 15.296875 C 65.566406 11.019531 63.664062 6.597656 64.339844 5.640625 C 64.589844 5.285156 64.894531 5.121094 65.269531 5.140625 C 66.28125 5.191406 68.691406 6.550781 73.503906 15.074219 C 77.238281 21.683594 83.96875 28.882812 84.039062 28.957031 C 84.183594 29.109375 84.417969 29.140625 84.601562 29.03125 L 85.894531 28.230469 C 85.996094 28.167969 86.070312 28.066406 86.09375 27.949219 C 86.121094 27.832031 86.101562 27.710938 86.035156 27.609375 C 86.007812 27.5625 83.042969 22.921875 78.621094 17.242188 C 76.871094 14.996094 75.296875 12.457031 73.773438 10 C 71.414062 6.199219 69.375 2.914062 67.308594 1.738281 L 67.25 1.703125 C 64.84375 0.332031 63.652344 0.0351562 56.542969 3.507812 L 55.800781 3.871094 C 48.546875 7.410156 39.519531 11.8125 28.316406 21.355469 C 22.480469 26.324219 18.476562 29.472656 15.257812 32.003906 C 12.027344 34.546875 9.476562 36.554688 6.394531 39.332031 C 2.761719 42.609375 0.941406 44.601562 1.0625 46.398438 C 1.152344 47.714844 2.265625 48.730469 3.90625 49.847656 C 4.273438 50.097656 4.734375 50.449219 5.320312 50.894531 C 8.144531 53.046875 13.398438 57.050781 22.1875 60.238281 C 26.171875 61.683594 30.433594 62.796875 34.949219 63.570312 "/>
<path style=" stroke:none;fill-rule:nonzero;fill:rgb(57.649231%,23.919678%,10.198975%);fill-opacity:1;" d="M 72.339844 30.554688 C 73.328125 33.585938 74.738281 39.492188 75.527344 41.839844 C 78.066406 49.390625 79.648438 55.515625 82.628906 55.335938 C 83.941406 55.261719 85.703125 48.585938 86.691406 41.085938 C 87.503906 34.894531 87.179688 32.929688 87.742188 29.019531 C 86.523438 28.753906 76.265625 29.410156 72.339844 30.554688 "/>
<path style=" stroke:none;fill-rule:nonzero;fill:rgb(73.329163%,40.388489%,0%);fill-opacity:1;" d="M 87.234375 29.414062 C 87.023438 31.011719 86.960938 32.292969 86.882812 33.757812 C 86.789062 35.605469 86.683594 37.703125 86.246094 41.027344 C 85.765625 44.664062 85.105469 48.113281 84.386719 50.734375 C 83.304688 54.683594 82.605469 54.890625 82.597656 54.890625 C 80.335938 55.027344 78.800781 50.351562 76.859375 44.433594 C 76.566406 43.550781 76.265625 42.636719 75.953125 41.695312 C 75.570312 40.566406 75.042969 38.59375 74.484375 36.5 C 73.945312 34.484375 73.386719 32.402344 72.90625 30.863281 C 76.691406 29.90625 85.078125 29.316406 87.234375 29.414062 M 82.070312 55.753906 C 82.257812 55.785156 82.453125 55.796875 82.65625 55.785156 C 83.25 55.75 84.078125 55.1875 85.210938 51.113281 C 85.957031 48.4375 86.640625 44.894531 87.132812 41.144531 C 87.574219 37.78125 87.683594 35.667969 87.777344 33.804688 C 87.859375 32.222656 87.929688 30.859375 88.183594 29.082031 C 88.21875 28.851562 88.066406 28.632812 87.835938 28.582031 C 87.820312 28.578125 87.800781 28.574219 87.78125 28.570312 C 86.203125 28.300781 75.980469 29.027344 72.210938 30.125 C 72.097656 30.160156 72 30.238281 71.941406 30.347656 C 71.886719 30.453125 71.875 30.578125 71.914062 30.695312 C 72.414062 32.234375 73.027344 34.523438 73.617188 36.730469 C 74.179688 38.835938 74.714844 40.824219 75.101562 41.980469 C 75.417969 42.917969 75.71875 43.832031 76.007812 44.714844 C 78.003906 50.796875 79.484375 55.308594 82.070312 55.753906 "/>
<path style=" stroke:none;fill-rule:nonzero;fill:rgb(73.329163%,40.388489%,0%);fill-opacity:1;" d="M 80.375 60.945312 C 80.722656 61.003906 81.085938 61.007812 81.464844 60.941406 C 81.710938 60.902344 81.875 60.671875 81.832031 60.425781 C 81.789062 60.183594 81.558594 60.019531 81.3125 60.0625 C 78.859375 60.484375 77.015625 56.765625 76.339844 55.148438 C 75.570312 53.320312 74.894531 51.300781 74.207031 48.804688 C 73.179688 45.082031 72.175781 40.972656 71.035156 35.863281 C 70.769531 34.671875 70.535156 33.441406 70.308594 32.253906 C 69.75 29.335938 69.175781 26.320312 68.074219 23.5 C 66.941406 20.597656 65.683594 17.695312 64.464844 14.886719 C 63.269531 12.125 62.035156 9.269531 60.917969 6.421875 C 60.660156 5.757812 60.6875 4.460938 61.183594 3.429688 C 61.421875 2.933594 61.875 2.289062 62.675781 2.042969 C 62.910156 1.972656 63.042969 1.71875 62.96875 1.484375 C 62.898438 1.25 62.644531 1.117188 62.410156 1.191406 C 61.535156 1.460938 60.832031 2.101562 60.375 3.042969 C 59.742188 4.351562 59.75 5.898438 60.082031 6.746094 C 61.207031 9.609375 62.445312 12.472656 63.644531 15.242188 C 64.855469 18.042969 66.109375 20.9375 67.238281 23.824219 C 68.3125 26.570312 68.878906 29.542969 69.425781 32.421875 C 69.65625 33.617188 69.890625 34.851562 70.160156 36.058594 C 71.300781 41.179688 72.3125 45.304688 73.339844 49.039062 C 74.039062 51.578125 74.730469 53.628906 75.511719 55.496094 C 76.335938 57.460938 77.992188 60.535156 80.375 60.945312 "/>
<path style=" stroke:none;fill-rule:nonzero;fill:rgb(73.329163%,40.388489%,0%);fill-opacity:1;" d="M 13.246094 39.652344 C 13.457031 39.6875 13.683594 39.613281 13.832031 39.4375 C 13.933594 39.316406 14.035156 39.195312 14.136719 39.074219 C 14.578125 38.539062 14.996094 38.035156 15.503906 37.660156 C 15.785156 37.453125 15.84375 37.0625 15.636719 36.785156 C 15.429688 36.507812 15.039062 36.449219 14.761719 36.652344 C 14.128906 37.117188 13.640625 37.707031 13.167969 38.277344 C 13.070312 38.394531 12.972656 38.511719 12.875 38.628906 C 12.648438 38.894531 12.683594 39.289062 12.945312 39.511719 C 13.035156 39.585938 13.140625 39.632812 13.246094 39.652344 "/>
<path style=" stroke:none;fill-rule:nonzero;fill:rgb(73.329163%,40.388489%,0%);fill-opacity:1;" d="M 9.996094 42.15625 C 10.199219 42.191406 10.414062 42.128906 10.5625 41.96875 L 10.71875 41.804688 C 11.066406 41.433594 11.425781 41.054688 11.730469 40.609375 C 11.925781 40.324219 11.851562 39.933594 11.566406 39.738281 C 11.28125 39.546875 10.890625 39.617188 10.695312 39.902344 C 10.449219 40.265625 10.136719 40.59375 9.808594 40.941406 L 9.648438 41.109375 C 9.410156 41.363281 9.421875 41.757812 9.675781 41.996094 C 9.769531 42.082031 9.882812 42.136719 9.996094 42.15625 "/>
<path style=" stroke:none;fill-rule:nonzero;fill:rgb(73.329163%,40.388489%,0%);fill-opacity:1;" d="M 10.902344 44.351562 C 11.035156 44.375 11.179688 44.355469 11.308594 44.285156 C 11.617188 44.117188 11.945312 43.945312 12.269531 43.835938 C 12.597656 43.726562 12.773438 43.371094 12.664062 43.042969 C 12.554688 42.714844 12.199219 42.539062 11.871094 42.648438 C 11.449219 42.789062 11.066406 42.988281 10.707031 43.183594 C 10.402344 43.351562 10.292969 43.730469 10.457031 44.035156 C 10.550781 44.207031 10.71875 44.320312 10.902344 44.351562 "/>
<path style=" stroke:none;fill-rule:nonzero;fill:rgb(73.329163%,40.388489%,0%);fill-opacity:1;" d="M 7.132812 44.921875 C 7.285156 44.949219 7.445312 44.917969 7.585938 44.828125 L 7.914062 44.609375 C 8.203125 44.417969 8.285156 44.03125 8.09375 43.742188 C 7.902344 43.453125 7.511719 43.375 7.222656 43.566406 L 6.894531 43.78125 C 6.605469 43.972656 6.523438 44.363281 6.714844 44.648438 C 6.816406 44.800781 6.96875 44.894531 7.132812 44.921875 "/>
<path style=" stroke:none;fill-rule:nonzero;fill:rgb(73.329163%,40.388489%,0%);fill-opacity:1;" d="M 62.722656 3.941406 C 62.746094 3.945312 62.769531 3.949219 62.792969 3.949219 C 63.148438 3.96875 63.492188 3.949219 63.820312 3.925781 C 64.167969 3.902344 64.433594 3.605469 64.410156 3.261719 C 64.386719 2.914062 64.089844 2.652344 63.746094 2.675781 L 63.742188 2.675781 C 63.433594 2.695312 63.144531 2.714844 62.867188 2.699219 C 62.519531 2.679688 62.226562 2.941406 62.203125 3.289062 C 62.1875 3.609375 62.414062 3.886719 62.722656 3.941406 "/>
<path style=" stroke:none;fill-rule:nonzero;fill:rgb(73.329163%,40.388489%,0%);fill-opacity:1;" d="M 61.019531 5.902344 C 61.105469 5.917969 61.195312 5.914062 61.289062 5.890625 L 61.773438 5.761719 C 62.105469 5.671875 62.304688 5.328125 62.214844 4.992188 C 62.125 4.660156 61.78125 4.460938 61.445312 4.550781 L 60.960938 4.679688 C 60.628906 4.769531 60.429688 5.113281 60.519531 5.449219 C 60.585938 5.691406 60.785156 5.863281 61.019531 5.902344 "/>
<path style=" stroke:none;fill-rule:nonzero;fill:rgb(73.329163%,40.388489%,0%);fill-opacity:1;" d="M 61.894531 9.921875 C 62.179688 9.96875 62.46875 9.816406 62.582031 9.535156 C 62.859375 8.847656 63.015625 8.117188 63.0625 7.304688 C 63.085938 6.957031 62.820312 6.664062 62.476562 6.640625 C 62.128906 6.621094 61.832031 6.886719 61.8125 7.230469 C 61.773438 7.90625 61.640625 8.507812 61.417969 9.070312 C 61.289062 9.390625 61.445312 9.757812 61.765625 9.882812 C 61.808594 9.902344 61.851562 9.914062 61.894531 9.921875 "/>
<path style=" stroke:none;fill-rule:nonzero;fill:rgb(73.329163%,40.388489%,0%);fill-opacity:1;" d="M 64.226562 14.816406 C 64.367188 14.84375 64.515625 14.820312 64.648438 14.742188 C 64.703125 14.707031 64.742188 14.691406 64.769531 14.675781 C 65.074219 14.527344 65.210938 14.308594 65.214844 13.96875 C 65.214844 13.941406 65.214844 13.90625 65.21875 13.855469 C 65.238281 13.511719 64.972656 13.214844 64.628906 13.195312 C 64.316406 13.175781 64.046875 13.386719 63.980469 13.683594 C 63.707031 13.863281 63.621094 14.230469 63.789062 14.515625 C 63.886719 14.683594 64.050781 14.789062 64.226562 14.816406 "/>
<path style=" stroke:none;fill-rule:nonzero;fill:rgb(73.329163%,40.388489%,0%);fill-opacity:1;" d="M 73.125 38.980469 C 73.265625 39.007812 73.414062 38.984375 73.546875 38.90625 C 73.847656 38.730469 73.945312 38.347656 73.773438 38.050781 C 73.574219 37.714844 73.359375 37.359375 73.109375 36.960938 C 72.925781 36.667969 72.539062 36.582031 72.246094 36.765625 C 71.953125 36.949219 71.863281 37.335938 72.046875 37.628906 C 72.289062 38.011719 72.5 38.355469 72.6875 38.679688 C 72.785156 38.847656 72.949219 38.953125 73.125 38.980469 "/>
<path style=" stroke:none;fill-rule:nonzero;fill:rgb(73.329163%,40.388489%,0%);fill-opacity:1;" d="M 74.84375 43.527344 C 74.929688 43.539062 75.019531 43.539062 75.113281 43.511719 C 75.445312 43.421875 75.644531 43.078125 75.554688 42.746094 L 75.488281 42.503906 C 75.398438 42.171875 75.054688 41.972656 74.71875 42.0625 C 74.386719 42.152344 74.1875 42.496094 74.277344 42.828125 L 74.34375 43.070312 C 74.410156 43.316406 74.609375 43.484375 74.84375 43.527344 "/>
<path style=" stroke:none;fill-rule:nonzero;fill:rgb(73.329163%,40.388489%,0%);fill-opacity:1;" d="M 55.3125 8.34375 C 55.457031 8.367188 55.613281 8.339844 55.75 8.253906 C 56.171875 7.992188 56.597656 7.6875 57.132812 7.265625 C 57.40625 7.050781 57.453125 6.65625 57.238281 6.386719 C 57.023438 6.113281 56.628906 6.066406 56.359375 6.28125 C 55.855469 6.675781 55.464844 6.957031 55.085938 7.195312 C 54.789062 7.378906 54.703125 7.765625 54.886719 8.058594 C 54.984375 8.214844 55.140625 8.3125 55.3125 8.34375 "/>
<path style=" stroke:none;fill-rule:nonzero;fill:rgb(73.329163%,40.388489%,0%);fill-opacity:1;" d="M 55.269531 10.402344 C 55.355469 10.417969 55.445312 10.414062 55.539062 10.390625 C 55.769531 10.328125 55.972656 10.242188 56.171875 10.160156 C 56.46875 10.039062 56.722656 9.9375 56.953125 9.949219 C 57.300781 9.96875 57.597656 9.707031 57.617188 9.363281 C 57.636719 9.015625 57.375 8.71875 57.027344 8.699219 C 56.507812 8.671875 56.078125 8.847656 55.695312 9.003906 C 55.527344 9.074219 55.363281 9.140625 55.210938 9.179688 C 54.878906 9.269531 54.679688 9.613281 54.769531 9.949219 C 54.835938 10.191406 55.035156 10.363281 55.269531 10.402344 "/>
<path style=" stroke:none;fill-rule:nonzero;fill:rgb(73.329163%,40.388489%,0%);fill-opacity:1;" d="M 49.75 11.027344 C 49.863281 11.046875 49.984375 11.035156 50.101562 10.988281 L 50.347656 10.878906 C 50.777344 10.695312 51.179688 10.519531 51.597656 10.382812 C 51.929688 10.273438 52.105469 9.917969 51.996094 9.589844 C 51.886719 9.261719 51.53125 9.085938 51.203125 9.195312 C 50.734375 9.351562 50.285156 9.542969 49.851562 9.730469 L 49.609375 9.835938 C 49.289062 9.972656 49.140625 10.339844 49.277344 10.65625 C 49.363281 10.859375 49.546875 10.992188 49.75 11.027344 "/>
<path style=" stroke:none;fill-rule:nonzero;fill:rgb(73.329163%,40.388489%,0%);fill-opacity:1;" d="M 84.671875 56.003906 C 84.945312 56.050781 85.226562 55.910156 85.347656 55.648438 L 85.421875 55.488281 C 85.605469 55.078125 85.792969 54.671875 85.984375 54.265625 C 86.132812 53.949219 85.996094 53.578125 85.683594 53.429688 C 85.367188 53.285156 84.996094 53.417969 84.847656 53.730469 C 84.65625 54.144531 84.464844 54.558594 84.277344 54.972656 L 84.207031 55.128906 C 84.0625 55.445312 84.203125 55.816406 84.519531 55.957031 C 84.566406 55.980469 84.621094 55.996094 84.671875 56.003906 "/>
<path style=" stroke:none;fill-rule:nonzero;fill:rgb(73.329163%,40.388489%,0%);fill-opacity:1;" d="M 82.699219 58.425781 L 82.707031 58.429688 C 83.050781 58.484375 83.371094 58.25 83.425781 57.910156 C 83.515625 57.359375 83.570312 56.875 83.597656 56.429688 C 83.617188 56.082031 83.351562 55.789062 83.007812 55.765625 C 82.660156 55.746094 82.363281 56.007812 82.34375 56.355469 C 82.320312 56.757812 82.269531 57.203125 82.1875 57.710938 C 82.132812 58.050781 82.363281 58.367188 82.699219 58.425781 "/>
<path style=" stroke:none;fill-rule:nonzero;fill:rgb(44.709778%,16.859436%,7.058716%);fill-opacity:1;" d="M 68.257812 16.605469 C 66.4375 12.957031 66.132812 11.695312 65.320312 9.777344 C 64.660156 8.210938 64.144531 6.050781 64.988281 6.050781 C 65.027344 6.050781 65.070312 6.058594 65.117188 6.066406 C 66.144531 6.292969 66.507812 7.722656 66.507812 7.722656 C 66.507812 7.722656 68.921875 11.796875 71.527344 16.179688 C 70.441406 16.316406 69.347656 16.457031 68.257812 16.605469 "/>
<path style=" stroke:none;fill-rule:nonzero;fill:rgb(44.709778%,16.859436%,7.058716%);fill-opacity:1;" d="M 81.972656 54.050781 C 80.992188 54.050781 79.425781 50.371094 78.265625 46.917969 C 77.855469 45.695312 77.136719 43.378906 76.335938 40.777344 C 79.21875 40.40625 82.285156 40.191406 85.394531 40.109375 C 85.578125 42.539062 85.222656 44.796875 84.683594 47.394531 C 83.789062 51.695312 82.984375 53.964844 82.007812 54.050781 C 81.996094 54.050781 81.984375 54.050781 81.972656 54.050781 "/>
<path style=" stroke:none;fill-rule:nonzero;fill:rgb(95.289612%,59.21936%,18.429565%);fill-opacity:1;" d="M 50.757812 62.996094 C 47.570312 62.996094 44.585938 62.796875 42.160156 62.296875 C 36.761719 61.1875 29.332031 59.207031 23.519531 57.65625 C 27.710938 55.265625 31.539062 53.300781 35.121094 51.660156 C 37.480469 51.851562 39.847656 51.960938 42.214844 51.960938 C 46.910156 51.960938 51.59375 51.539062 56.148438 50.554688 C 60.664062 49.578125 66.875 46.527344 71.1875 44.878906 C 71.796875 50.859375 73.304688 55.285156 77.054688 59.976562 C 75.800781 60.519531 61.996094 62.996094 50.757812 62.996094 M 21.886719 57.222656 C 21.695312 57.171875 21.507812 57.125 21.324219 57.074219 C 15.550781 55.546875 10.167969 52.691406 5.34375 49.222656 C 4.5 48.613281 2.089844 45.867188 4.121094 45.144531 C 4.425781 45.035156 4.761719 44.976562 5.09375 44.976562 C 5.316406 44.976562 5.539062 45 5.75 45.054688 C 11.828125 46.652344 17.730469 48.964844 23.910156 50.121094 C 24 50.140625 24.09375 50.15625 24.1875 50.171875 C 23.347656 52.730469 22.550781 55.164062 21.886719 57.222656 "/>
<path style=" stroke:none;fill-rule:nonzero;fill:rgb(100%,99.21875%,99.21875%);fill-opacity:1;" d="M 63.277344 17.488281 C 63.347656 17.503906 63.425781 17.496094 63.496094 17.472656 C 63.730469 17.390625 63.855469 17.136719 63.777344 16.90625 C 63.292969 15.484375 62.578125 14.140625 61.890625 12.839844 C 61.21875 11.566406 60.519531 10.25 60.054688 8.886719 C 59.972656 8.652344 59.71875 8.527344 59.484375 8.609375 C 59.25 8.6875 59.125 8.941406 59.207031 9.175781 C 59.695312 10.605469 60.410156 11.953125 61.101562 13.257812 C 61.769531 14.527344 62.464844 15.839844 62.929688 17.195312 C 62.984375 17.355469 63.121094 17.460938 63.277344 17.488281 "/>
<path style=" stroke:none;fill-rule:nonzero;fill:rgb(100%,99.21875%,99.21875%);fill-opacity:1;" d="M 65.347656 22.648438 C 65.421875 22.660156 65.496094 22.65625 65.570312 22.632812 C 65.804688 22.550781 65.929688 22.296875 65.847656 22.0625 C 65.710938 21.664062 65.546875 21.277344 65.390625 20.90625 C 65.230469 20.527344 65.078125 20.171875 64.953125 19.804688 C 64.871094 19.570312 64.617188 19.445312 64.382812 19.523438 C 64.148438 19.605469 64.023438 19.859375 64.105469 20.09375 C 64.242188 20.492188 64.40625 20.878906 64.566406 21.253906 C 64.722656 21.628906 64.875 21.984375 65 22.351562 C 65.054688 22.511719 65.191406 22.621094 65.347656 22.648438 "/>
<path style=" stroke:none;fill-rule:nonzero;fill:rgb(100%,99.21875%,99.21875%);fill-opacity:1;" d="M 31.003906 23.050781 C 31.125 23.070312 31.25 23.042969 31.351562 22.964844 C 32.566406 22.039062 33.742188 21.027344 34.878906 20.050781 C 35.980469 19.109375 37.117188 18.136719 38.273438 17.242188 C 38.632812 16.964844 39.058594 16.707031 39.464844 16.460938 C 39.742188 16.292969 40.023438 16.121094 40.292969 15.941406 C 40.5 15.804688 40.554688 15.527344 40.414062 15.320312 C 40.277344 15.117188 40 15.0625 39.792969 15.199219 C 39.542969 15.367188 39.265625 15.535156 39 15.695312 C 38.570312 15.957031 38.128906 16.226562 37.726562 16.535156 C 36.550781 17.441406 35.40625 18.425781 34.296875 19.375 C 33.167969 20.34375 32 21.34375 30.808594 22.257812 C 30.613281 22.40625 30.574219 22.6875 30.726562 22.882812 C 30.796875 22.976562 30.898438 23.03125 31.003906 23.050781 "/>
<path style=" stroke:none;fill-rule:nonzero;fill:rgb(100%,99.21875%,99.21875%);fill-opacity:1;" d="M 24.882812 28.082031 C 25.019531 28.105469 25.164062 28.0625 25.269531 27.960938 C 26.480469 26.792969 27.613281 25.824219 28.742188 25 C 28.941406 24.855469 28.984375 24.574219 28.839844 24.375 C 28.691406 24.175781 28.410156 24.132812 28.210938 24.277344 C 27.050781 25.128906 25.886719 26.125 24.648438 27.316406 C 24.46875 27.488281 24.464844 27.773438 24.636719 27.949219 C 24.707031 28.019531 24.792969 28.066406 24.882812 28.082031 "/>
<path style=" stroke:none;fill-rule:nonzero;fill:rgb(100%,99.21875%,99.21875%);fill-opacity:1;" d="M 70.085938 46.761719 C 70.140625 46.773438 70.199219 46.769531 70.261719 46.757812 C 70.503906 46.703125 70.652344 46.460938 70.597656 46.222656 C 70.335938 45.078125 70.035156 43.785156 69.789062 42.519531 C 69.742188 42.277344 69.503906 42.117188 69.261719 42.167969 C 69.019531 42.214844 68.863281 42.449219 68.910156 42.691406 C 69.160156 43.972656 69.460938 45.273438 69.722656 46.421875 C 69.765625 46.601562 69.914062 46.730469 70.085938 46.761719 "/>
<path style=" stroke:none;fill-rule:nonzero;fill:rgb(57.649231%,23.919678%,10.198975%);fill-opacity:1;" d="M 103.3125 28.777344 L 115.515625 30.359375 C 115.515625 30.359375 123.453125 12.644531 124.832031 9.496094 C 126.214844 6.351562 126.886719 3.878906 124.53125 3.292969 C 122.179688 2.710938 121.359375 1.480469 118.824219 4.933594 C 116.285156 8.386719 111.574219 16.113281 110.582031 17.707031 C 109.59375 19.304688 103.3125 28.777344 103.3125 28.777344 "/>
<path style=" stroke:none;fill-rule:nonzero;fill:rgb(73.329163%,40.388489%,0%);fill-opacity:1;" d="M 104.085938 28.425781 L 115.242188 29.871094 C 116.296875 27.511719 123.15625 12.199219 124.421875 9.316406 C 125.226562 7.488281 125.980469 5.480469 125.476562 4.460938 C 125.300781 4.097656 124.953125 3.859375 124.421875 3.730469 C 123.980469 3.617188 123.585938 3.484375 123.238281 3.367188 C 121.746094 2.867188 121.066406 2.636719 119.183594 5.199219 C 116.914062 8.292969 112.882812 14.828125 111.367188 17.289062 L 110.964844 17.941406 C 110.117188 19.3125 105.488281 26.304688 104.085938 28.425781 M 115.589844 30.796875 C 115.546875 30.804688 115.5 30.808594 115.457031 30.800781 L 103.257812 29.222656 C 103.101562 29.203125 102.972656 29.105469 102.90625 28.964844 C 102.84375 28.824219 102.855469 28.660156 102.941406 28.53125 C 103.003906 28.4375 109.230469 19.046875 110.203125 17.472656 L 110.605469 16.820312 C 112.125 14.351562 116.167969 7.792969 118.460938 4.667969 C 120.628906 1.722656 121.742188 1.917969 123.527344 2.523438 C 123.871094 2.636719 124.230469 2.757812 124.640625 2.859375 C 125.429688 3.058594 125.984375 3.460938 126.28125 4.066406 C 126.90625 5.335938 126.320312 7.226562 125.242188 9.675781 C 123.875 12.789062 116 30.363281 115.921875 30.539062 C 115.859375 30.679688 115.734375 30.773438 115.589844 30.796875 "/>
<path style=" stroke:none;fill-rule:nonzero;fill:rgb(96.469116%,68.629456%,26.269531%);fill-opacity:1;" d="M 118.101562 20.890625 C 120.960938 13.65625 124.652344 6.644531 123.527344 5.050781 C 122.402344 3.460938 119.621094 3.859375 113.605469 14.519531 C 109.855469 21.164062 103.132812 28.316406 103.132812 28.316406 L 101.839844 27.515625 C 101.839844 27.515625 104.773438 22.914062 109.230469 17.183594 C 113.6875 11.457031 117.160156 3.648438 120.414062 1.792969 C 122.550781 0.574219 123.433594 -0.00390625 130.757812 3.578125 C 138.082031 7.15625 147.34375 11.527344 158.890625 21.363281 C 170.4375 31.195312 174.589844 33.726562 180.804688 39.332031 C 187.019531 44.9375 187.378906 46.398438 183.339844 49.144531 C 179.304688 51.890625 164.464844 66.390625 127.429688 63.839844 C 121.289062 63.414062 106.066406 60.160156 106.066406 60.160156 C 106.066406 60.160156 102.691406 59.503906 101.105469 54.796875 C 99.519531 50.085938 99.398438 45.671875 99.097656 41.789062 C 98.796875 37.902344 98.367188 28.363281 98.367188 28.363281 L 100.09375 28.695312 C 100.09375 28.695312 100.296875 36.445312 101.441406 42.386719 C 102.628906 48.582031 103.804688 55.363281 105.363281 54.734375 C 108.414062 53.5 108.949219 49.636719 110.21875 46.480469 C 110.902344 44.789062 117.082031 23.476562 118.101562 20.890625 "/>
<g clip-path="url(#clip3)" clip-rule="nonzero">
<path style=" stroke:none;fill-rule:nonzero;fill:rgb(73.329163%,40.388489%,0%);fill-opacity:1;" d="M 98.839844 28.910156 C 98.9375 31.019531 99.289062 38.464844 99.542969 41.753906 C 99.582031 42.265625 99.621094 42.789062 99.65625 43.316406 C 99.898438 46.738281 100.171875 50.617188 101.53125 54.652344 C 103.003906 59.035156 106.023438 59.695312 106.152344 59.722656 C 106.3125 59.757812 121.421875 62.976562 127.460938 63.390625 C 160.847656 65.691406 175.949219 54.183594 181.636719 49.851562 C 182.230469 49.398438 182.699219 49.039062 183.089844 48.773438 C 184.773438 47.628906 185.484375 46.824219 185.542969 46.003906 C 185.640625 44.589844 183.769531 42.609375 180.503906 39.664062 C 177.445312 36.90625 174.902344 34.90625 171.6875 32.375 C 168.460938 29.839844 164.449219 26.683594 158.601562 21.703125 C 147.484375 12.234375 138.511719 7.859375 131.304688 4.339844 L 130.5625 3.976562 C 123.519531 0.539062 122.691406 1.007812 120.695312 2.144531 L 120.636719 2.179688 C 118.765625 3.246094 116.6875 6.59375 114.488281 10.140625 C 112.953125 12.613281 111.363281 15.171875 109.582031 17.460938 C 105.917969 22.171875 103.257812 26.160156 102.464844 27.378906 L 103.054688 27.742188 C 104.300781 26.382812 109.941406 20.101562 113.214844 14.300781 C 117.042969 7.515625 120.0625 4.019531 122.183594 3.914062 C 122.871094 3.878906 123.460938 4.183594 123.890625 4.792969 C 124.808594 6.09375 123.433594 9.464844 120.917969 15.316406 C 120.121094 17.171875 119.292969 19.09375 118.519531 21.054688 C 117.972656 22.441406 115.867188 29.460938 114.011719 35.652344 C 112.371094 41.125 110.953125 45.855469 110.636719 46.648438 C 110.355469 47.339844 110.109375 48.082031 109.871094 48.800781 C 108.996094 51.410156 108.09375 54.113281 105.53125 55.148438 C 105.25 55.261719 104.953125 55.242188 104.679688 55.09375 C 103.355469 54.375 102.496094 50.304688 101.234375 43.6875 L 101 42.472656 C 100.003906 37.289062 99.714844 30.667969 99.660156 29.066406 L 98.839844 28.910156 M 152.546875 63.238281 C 144.878906 64.558594 136.46875 64.910156 127.402344 64.285156 C 121.296875 63.863281 106.125 60.628906 105.972656 60.597656 C 105.832031 60.570312 102.332031 59.839844 100.679688 54.9375 C 99.285156 50.792969 99.007812 46.855469 98.765625 43.378906 C 98.726562 42.851562 98.691406 42.332031 98.652344 41.824219 C 98.351562 37.976562 97.921875 28.480469 97.917969 28.382812 C 97.914062 28.246094 97.96875 28.117188 98.074219 28.027344 C 98.175781 27.9375 98.316406 27.898438 98.449219 27.925781 L 100.179688 28.257812 C 100.386719 28.296875 100.539062 28.476562 100.542969 28.683594 C 100.546875 28.761719 100.757812 36.46875 101.878906 42.304688 L 102.113281 43.523438 C 102.980469 48.074219 104.0625 53.738281 105.109375 54.308594 C 105.15625 54.335938 105.171875 54.328125 105.195312 54.320312 C 107.375 53.4375 108.171875 51.046875 109.019531 48.515625 C 109.261719 47.785156 109.515625 47.03125 109.804688 46.316406 C 110.109375 45.5625 111.589844 40.621094 113.15625 35.394531 C 115.105469 28.882812 117.125 22.148438 117.6875 20.726562 C 118.464844 18.753906 119.292969 16.824219 120.09375 14.960938 C 121.933594 10.6875 123.832031 6.265625 123.160156 5.308594 C 122.90625 4.953125 122.601562 4.789062 122.226562 4.808594 C 121.21875 4.859375 118.804688 6.214844 113.996094 14.742188 C 110.261719 21.351562 103.527344 28.550781 103.460938 28.625 C 103.316406 28.777344 103.078125 28.808594 102.898438 28.699219 L 101.605469 27.898438 C 101.503906 27.835938 101.429688 27.734375 101.402344 27.617188 C 101.375 27.5 101.398438 27.378906 101.460938 27.277344 C 101.492188 27.230469 104.457031 22.589844 108.875 16.910156 C 110.625 14.664062 112.203125 12.125 113.726562 9.667969 C 116.085938 5.867188 118.125 2.582031 120.191406 1.402344 L 120.25 1.371094 C 122.65625 0 123.847656 -0.296875 130.953125 3.175781 L 131.695312 3.535156 C 138.949219 7.078125 147.980469 11.480469 159.183594 21.023438 C 165.015625 25.992188 169.023438 29.140625 172.238281 31.671875 C 175.472656 34.214844 178.023438 36.222656 181.105469 39 C 184.738281 42.277344 186.558594 44.269531 186.4375 46.066406 C 186.347656 47.382812 185.234375 48.398438 183.59375 49.511719 C 183.222656 49.765625 182.761719 50.117188 182.179688 50.558594 C 179.355469 52.710938 174.101562 56.71875 165.308594 59.90625 C 161.328125 61.351562 157.066406 62.460938 152.546875 63.238281 "/>
</g>
<path style=" stroke:none;fill-rule:nonzero;fill:rgb(57.649231%,23.919678%,10.198975%);fill-opacity:1;" d="M 115.160156 30.222656 C 114.171875 33.253906 112.761719 39.160156 111.972656 41.507812 C 109.433594 49.058594 107.851562 55.179688 104.871094 55.003906 C 103.558594 54.929688 101.796875 48.253906 100.808594 40.753906 C 99.996094 34.5625 100.320312 32.597656 99.757812 28.6875 C 100.976562 28.421875 111.234375 29.078125 115.160156 30.222656 "/>
<path style=" stroke:none;fill-rule:nonzero;fill:rgb(73.329163%,40.388489%,0%);fill-opacity:1;" d="M 100.265625 29.082031 C 100.472656 30.679688 100.539062 31.960938 100.613281 33.425781 C 100.707031 35.273438 100.816406 37.367188 101.253906 40.695312 C 101.730469 44.332031 102.390625 47.78125 103.109375 50.402344 C 104.191406 54.351562 104.894531 54.558594 104.902344 54.558594 C 107.164062 54.691406 108.699219 50.019531 110.640625 44.101562 C 110.929688 43.21875 111.230469 42.300781 111.546875 41.363281 C 111.925781 40.234375 112.457031 38.257812 113.015625 36.167969 C 113.554688 34.148438 114.113281 32.070312 114.59375 30.53125 C 110.808594 29.574219 102.421875 28.984375 100.265625 29.082031 M 105.425781 55.421875 C 105.238281 55.453125 105.046875 55.464844 104.84375 55.453125 C 104.25 55.417969 103.417969 54.855469 102.285156 50.78125 C 101.542969 48.105469 100.859375 44.5625 100.367188 40.8125 C 99.921875 37.449219 99.816406 35.335938 99.71875 33.46875 C 99.640625 31.890625 99.570312 30.527344 99.3125 28.75 C 99.28125 28.515625 99.433594 28.296875 99.664062 28.25 C 99.679688 28.246094 99.695312 28.242188 99.71875 28.238281 C 101.292969 27.96875 111.519531 28.695312 115.285156 29.792969 C 115.402344 29.828125 115.5 29.90625 115.558594 30.011719 C 115.613281 30.121094 115.625 30.246094 115.585938 30.359375 C 115.082031 31.902344 114.472656 34.1875 113.878906 36.398438 C 113.316406 38.503906 112.785156 40.492188 112.398438 41.648438 C 112.082031 42.585938 111.78125 43.5 111.492188 44.378906 C 109.496094 50.464844 108.011719 54.976562 105.425781 55.421875 "/>
<path style=" stroke:none;fill-rule:nonzero;fill:rgb(73.329163%,40.388489%,0%);fill-opacity:1;" d="M 107.125 60.613281 C 106.773438 60.671875 106.410156 60.675781 106.03125 60.609375 C 105.789062 60.570312 105.625 60.335938 105.667969 60.09375 C 105.710938 59.851562 105.941406 59.6875 106.183594 59.730469 C 108.640625 60.152344 110.480469 56.433594 111.160156 54.816406 C 111.929688 52.984375 112.605469 50.96875 113.292969 48.472656 C 114.316406 44.75 115.324219 40.640625 116.464844 35.53125 C 116.730469 34.339844 116.964844 33.109375 117.191406 31.921875 C 117.746094 29.003906 118.324219 25.988281 119.425781 23.167969 C 120.558594 20.265625 121.816406 17.363281 123.03125 14.554688 C 124.226562 11.792969 125.464844 8.933594 126.582031 6.089844 C 126.839844 5.425781 126.8125 4.125 126.316406 3.097656 C 126.078125 2.601562 125.625 1.957031 124.824219 1.710938 C 124.589844 1.636719 124.457031 1.386719 124.527344 1.152344 C 124.601562 0.914062 124.851562 0.785156 125.089844 0.855469 C 125.964844 1.128906 126.667969 1.769531 127.125 2.710938 C 127.753906 4.019531 127.75 5.566406 127.414062 6.414062 C 126.292969 9.273438 125.054688 12.140625 123.855469 14.90625 C 122.640625 17.710938 121.386719 20.605469 120.261719 23.492188 C 119.1875 26.238281 118.621094 29.210938 118.070312 32.089844 C 117.84375 33.285156 117.609375 34.519531 117.339844 35.726562 C 116.195312 40.847656 115.1875 44.972656 114.15625 48.707031 C 113.460938 51.246094 112.769531 53.296875 111.988281 55.164062 C 111.160156 57.128906 109.507812 60.203125 107.125 60.613281 "/>
<path style=" stroke:none;fill-rule:nonzero;fill:rgb(73.329163%,40.388489%,0%);fill-opacity:1;" d="M 174.253906 39.320312 C 174.042969 39.355469 173.816406 39.28125 173.667969 39.105469 C 173.566406 38.984375 173.464844 38.863281 173.363281 38.742188 C 172.921875 38.207031 172.503906 37.699219 171.996094 37.328125 C 171.714844 37.121094 171.65625 36.730469 171.863281 36.453125 C 172.066406 36.171875 172.460938 36.113281 172.738281 36.320312 C 173.371094 36.785156 173.859375 37.375 174.332031 37.941406 C 174.429688 38.0625 174.527344 38.179688 174.625 38.296875 C 174.851562 38.5625 174.816406 38.957031 174.550781 39.179688 C 174.464844 39.253906 174.359375 39.300781 174.253906 39.320312 "/>
<path style=" stroke:none;fill-rule:nonzero;fill:rgb(73.329163%,40.388489%,0%);fill-opacity:1;" d="M 177.503906 41.824219 C 177.300781 41.859375 177.085938 41.792969 176.9375 41.636719 L 176.78125 41.46875 C 176.433594 41.101562 176.070312 40.722656 175.769531 40.277344 C 175.570312 39.992188 175.644531 39.601562 175.929688 39.40625 C 176.21875 39.210938 176.609375 39.285156 176.800781 39.570312 C 177.050781 39.933594 177.363281 40.261719 177.691406 40.609375 L 177.851562 40.777344 C 178.089844 41.03125 178.074219 41.425781 177.824219 41.664062 C 177.730469 41.75 177.617188 41.804688 177.503906 41.824219 "/>
<path style=" stroke:none;fill-rule:nonzero;fill:rgb(73.329163%,40.388489%,0%);fill-opacity:1;" d="M 176.597656 44.019531 C 176.464844 44.042969 176.320312 44.023438 176.191406 43.953125 C 175.882812 43.785156 175.554688 43.609375 175.230469 43.503906 C 174.902344 43.394531 174.726562 43.039062 174.835938 42.710938 C 174.945312 42.382812 175.300781 42.207031 175.628906 42.316406 C 176.050781 42.457031 176.433594 42.65625 176.792969 42.851562 C 177.09375 43.019531 177.207031 43.398438 177.042969 43.703125 C 176.945312 43.875 176.78125 43.988281 176.597656 44.019531 "/>
<path style=" stroke:none;fill-rule:nonzero;fill:rgb(73.329163%,40.388489%,0%);fill-opacity:1;" d="M 180.367188 44.589844 C 180.214844 44.617188 180.054688 44.585938 179.914062 44.496094 L 179.582031 44.277344 C 179.292969 44.085938 179.214844 43.695312 179.40625 43.410156 C 179.597656 43.121094 179.988281 43.042969 180.273438 43.230469 L 180.605469 43.449219 C 180.894531 43.640625 180.976562 44.027344 180.785156 44.316406 C 180.683594 44.46875 180.53125 44.5625 180.367188 44.589844 "/>
<path style=" stroke:none;fill-rule:nonzero;fill:rgb(73.329163%,40.388489%,0%);fill-opacity:1;" d="M 124.777344 3.609375 C 124.753906 3.613281 124.730469 3.613281 124.707031 3.617188 C 124.351562 3.636719 124.007812 3.613281 123.675781 3.59375 C 123.332031 3.570312 123.066406 3.273438 123.089844 2.929688 C 123.113281 2.582031 123.410156 2.320312 123.753906 2.34375 L 123.757812 2.34375 C 124.066406 2.363281 124.355469 2.382812 124.632812 2.367188 C 124.976562 2.347656 125.273438 2.609375 125.292969 2.953125 C 125.3125 3.277344 125.085938 3.554688 124.777344 3.609375 "/>
<path style=" stroke:none;fill-rule:nonzero;fill:rgb(73.329163%,40.388489%,0%);fill-opacity:1;" d="M 126.480469 5.570312 C 126.394531 5.585938 126.300781 5.582031 126.210938 5.558594 L 125.726562 5.425781 C 125.390625 5.335938 125.195312 4.992188 125.285156 4.660156 C 125.375 4.328125 125.71875 4.128906 126.054688 4.21875 L 126.539062 4.347656 C 126.871094 4.4375 127.070312 4.78125 126.980469 5.117188 C 126.914062 5.359375 126.714844 5.53125 126.480469 5.570312 "/>
<path style=" stroke:none;fill-rule:nonzero;fill:rgb(73.329163%,40.388489%,0%);fill-opacity:1;" d="M 125.605469 9.589844 C 125.320312 9.636719 125.03125 9.484375 124.917969 9.203125 C 124.640625 8.515625 124.484375 7.785156 124.433594 6.972656 C 124.414062 6.625 124.679688 6.332031 125.023438 6.308594 C 125.371094 6.289062 125.667969 6.554688 125.6875 6.898438 C 125.726562 7.574219 125.855469 8.175781 126.082031 8.738281 C 126.210938 9.058594 126.054688 9.421875 125.734375 9.550781 C 125.691406 9.570312 125.648438 9.582031 125.605469 9.589844 "/>
<path style=" stroke:none;fill-rule:nonzero;fill:rgb(73.329163%,40.388489%,0%);fill-opacity:1;" d="M 123.273438 14.484375 C 123.132812 14.507812 122.984375 14.484375 122.851562 14.410156 C 122.796875 14.375 122.757812 14.355469 122.730469 14.34375 C 122.425781 14.195312 122.289062 13.976562 122.285156 13.636719 C 122.285156 13.609375 122.285156 13.574219 122.28125 13.523438 C 122.261719 13.179688 122.527344 12.882812 122.871094 12.863281 C 123.179688 12.84375 123.453125 13.054688 123.519531 13.347656 C 123.792969 13.53125 123.878906 13.898438 123.710938 14.183594 C 123.613281 14.351562 123.449219 14.453125 123.273438 14.484375 "/>
<path style=" stroke:none;fill-rule:nonzero;fill:rgb(73.329163%,40.388489%,0%);fill-opacity:1;" d="M 114.375 38.648438 C 114.234375 38.671875 114.085938 38.648438 113.953125 38.574219 C 113.652344 38.398438 113.554688 38.015625 113.726562 37.714844 C 113.925781 37.382812 114.140625 37.027344 114.390625 36.628906 C 114.574219 36.335938 114.960938 36.25 115.253906 36.433594 C 115.546875 36.617188 115.636719 37.003906 115.453125 37.296875 C 115.210938 37.679688 115 38.023438 114.808594 38.347656 C 114.714844 38.515625 114.550781 38.617188 114.375 38.648438 "/>
<path style=" stroke:none;fill-rule:nonzero;fill:rgb(73.329163%,40.388489%,0%);fill-opacity:1;" d="M 112.65625 43.191406 C 112.570312 43.207031 112.480469 43.203125 112.386719 43.179688 C 112.054688 43.089844 111.855469 42.746094 111.945312 42.414062 L 112.011719 42.171875 C 112.101562 41.835938 112.445312 41.640625 112.78125 41.730469 C 113.113281 41.820312 113.3125 42.164062 113.222656 42.496094 L 113.15625 42.738281 C 113.089844 42.980469 112.890625 43.152344 112.65625 43.191406 "/>
<path style=" stroke:none;fill-rule:nonzero;fill:rgb(73.329163%,40.388489%,0%);fill-opacity:1;" d="M 132.1875 8.007812 C 132.042969 8.035156 131.886719 8.007812 131.75 7.921875 C 131.328125 7.660156 130.902344 7.351562 130.367188 6.929688 C 130.09375 6.71875 130.046875 6.324219 130.261719 6.050781 C 130.476562 5.78125 130.871094 5.734375 131.140625 5.949219 C 131.640625 6.34375 132.035156 6.625 132.414062 6.863281 C 132.710938 7.046875 132.796875 7.433594 132.613281 7.726562 C 132.515625 7.882812 132.359375 7.980469 132.1875 8.007812 "/>
<path style=" stroke:none;fill-rule:nonzero;fill:rgb(73.329163%,40.388489%,0%);fill-opacity:1;" d="M 132.230469 10.070312 C 132.144531 10.085938 132.050781 10.082031 131.960938 10.058594 C 131.730469 9.996094 131.523438 9.910156 131.328125 9.828125 C 131.03125 9.707031 130.777344 9.605469 130.542969 9.617188 C 130.199219 9.636719 129.902344 9.375 129.882812 9.03125 C 129.863281 8.683594 130.125 8.386719 130.46875 8.367188 C 130.988281 8.335938 131.421875 8.515625 131.800781 8.671875 C 131.972656 8.742188 132.132812 8.808594 132.289062 8.847656 C 132.621094 8.9375 132.820312 9.28125 132.730469 9.613281 C 132.664062 9.859375 132.464844 10.03125 132.230469 10.070312 "/>
<path style=" stroke:none;fill-rule:nonzero;fill:rgb(73.329163%,40.388489%,0%);fill-opacity:1;" d="M 137.75 10.695312 C 137.636719 10.714844 137.515625 10.703125 137.398438 10.652344 L 137.152344 10.546875 C 136.722656 10.363281 136.320312 10.1875 135.898438 10.050781 C 135.570312 9.941406 135.394531 9.585938 135.503906 9.257812 C 135.613281 8.929688 135.96875 8.753906 136.296875 8.863281 C 136.765625 9.019531 137.214844 9.210938 137.648438 9.398438 L 137.890625 9.503906 C 138.210938 9.640625 138.359375 10.007812 138.222656 10.324219 C 138.132812 10.527344 137.953125 10.660156 137.75 10.695312 "/>
<path style=" stroke:none;fill-rule:nonzero;fill:rgb(73.329163%,40.388489%,0%);fill-opacity:1;" d="M 102.828125 55.671875 C 102.554688 55.71875 102.273438 55.578125 102.152344 55.3125 L 102.078125 55.15625 C 101.894531 54.746094 101.707031 54.335938 101.515625 53.929688 C 101.367188 53.617188 101.503906 53.246094 101.816406 53.097656 C 102.132812 52.953125 102.503906 53.085938 102.652344 53.398438 C 102.84375 53.808594 103.03125 54.222656 103.222656 54.636719 L 103.292969 54.796875 C 103.4375 55.113281 103.296875 55.484375 102.980469 55.625 C 102.933594 55.648438 102.878906 55.664062 102.828125 55.671875 "/>
<path style=" stroke:none;fill-rule:nonzero;fill:rgb(73.329163%,40.388489%,0%);fill-opacity:1;" d="M 104.800781 58.09375 L 104.792969 58.09375 C 104.449219 58.148438 104.128906 57.917969 104.074219 57.578125 C 103.984375 57.027344 103.929688 56.542969 103.902344 56.09375 C 103.882812 55.75 104.148438 55.457031 104.492188 55.433594 C 104.839844 55.414062 105.136719 55.675781 105.15625 56.023438 C 105.179688 56.425781 105.230469 56.871094 105.3125 57.378906 C 105.367188 57.71875 105.136719 58.035156 104.800781 58.09375 "/>
<path style=" stroke:none;fill-rule:nonzero;fill:rgb(44.709778%,16.859436%,7.058716%);fill-opacity:1;" d="M 118.480469 17.886719 C 118.527344 17.714844 118.574219 17.542969 118.625 17.367188 C 118.652344 17.261719 118.632812 17.152344 118.570312 17.0625 C 118.507812 16.976562 118.40625 16.921875 118.296875 16.914062 C 117.359375 16.863281 116.40625 16.800781 115.445312 16.730469 C 118.246094 12.027344 120.992188 7.390625 120.992188 7.390625 C 120.992188 7.390625 121.355469 5.960938 122.378906 5.734375 C 122.429688 5.722656 122.472656 5.71875 122.511719 5.71875 C 123.355469 5.71875 122.839844 7.878906 122.175781 9.445312 C 121.347656 11.402344 121.050781 12.675781 119.125 16.5 C 118.902344 16.945312 118.6875 17.40625 118.480469 17.886719 "/>
<path style=" stroke:none;fill-rule:nonzero;fill:rgb(44.709778%,16.859436%,7.058716%);fill-opacity:1;" d="M 105.523438 53.71875 C 105.511719 53.71875 105.503906 53.71875 105.492188 53.71875 C 104.511719 53.632812 103.710938 51.363281 102.816406 47.0625 C 102.359375 44.867188 102.035156 42.910156 102.058594 40.894531 C 105.335938 41.300781 108.25 41.84375 110.535156 42.484375 C 109.996094 44.222656 109.535156 45.695312 109.234375 46.585938 C 108.074219 50.039062 106.503906 53.71875 105.523438 53.71875 "/>
<path style=" stroke:none;fill-rule:nonzero;fill:rgb(95.289612%,59.21936%,18.429565%);fill-opacity:1;" d="M 136.742188 62.664062 C 125.503906 62.664062 111.695312 60.1875 110.441406 59.644531 C 114.191406 54.949219 115.703125 50.527344 116.3125 44.546875 C 120.625 46.195312 126.835938 49.246094 131.351562 50.222656 C 135.90625 51.207031 140.589844 51.628906 145.285156 51.628906 C 151.445312 51.628906 157.628906 50.90625 163.589844 49.789062 C 169.769531 48.632812 175.671875 46.316406 181.75 44.722656 C 181.960938 44.667969 182.179688 44.640625 182.402344 44.640625 C 182.738281 44.640625 183.070312 44.703125 183.378906 44.8125 C 185.410156 45.535156 183 48.28125 182.15625 48.890625 C 177.328125 52.359375 171.945312 55.214844 166.175781 56.742188 C 160.148438 58.335938 151.445312 60.710938 145.339844 61.964844 C 142.910156 62.464844 139.929688 62.664062 136.742188 62.664062 "/>
<path style=" stroke:none;fill-rule:nonzero;fill:rgb(100%,99.21875%,99.21875%);fill-opacity:1;" d="M 124.222656 17.15625 C 124.148438 17.167969 124.074219 17.164062 124 17.140625 C 123.765625 17.058594 123.640625 16.804688 123.722656 16.570312 C 124.207031 15.152344 124.917969 13.808594 125.605469 12.507812 C 126.28125 11.234375 126.976562 9.917969 127.445312 8.554688 C 127.523438 8.320312 127.777344 8.195312 128.011719 8.277344 C 128.246094 8.355469 128.371094 8.609375 128.292969 8.84375 C 127.800781 10.273438 127.089844 11.621094 126.398438 12.925781 C 125.726562 14.195312 125.03125 15.507812 124.570312 16.863281 C 124.515625 17.019531 124.378906 17.128906 124.222656 17.15625 "/>
<path style=" stroke:none;fill-rule:nonzero;fill:rgb(100%,99.21875%,99.21875%);fill-opacity:1;" d="M 122.148438 22.316406 C 122.078125 22.328125 122.003906 22.324219 121.929688 22.300781 C 121.695312 22.21875 121.570312 21.964844 121.652344 21.730469 C 121.789062 21.332031 121.953125 20.945312 122.109375 20.570312 C 122.269531 20.195312 122.421875 19.839844 122.546875 19.46875 C 122.625 19.238281 122.882812 19.113281 123.117188 19.191406 C 123.347656 19.273438 123.472656 19.527344 123.394531 19.757812 C 123.257812 20.160156 123.09375 20.546875 122.933594 20.921875 C 122.773438 21.296875 122.625 21.652344 122.5 22.019531 C 122.445312 22.179688 122.308594 22.289062 122.148438 22.316406 "/>
<path style=" stroke:none;fill-rule:nonzero;fill:rgb(100%,99.21875%,99.21875%);fill-opacity:1;" d="M 156.496094 22.71875 C 156.375 22.738281 156.25 22.710938 156.144531 22.632812 C 154.933594 21.707031 153.757812 20.695312 152.617188 19.71875 C 151.519531 18.777344 150.382812 17.800781 149.222656 16.910156 C 148.863281 16.632812 148.441406 16.375 148.03125 16.128906 C 147.757812 15.960938 147.476562 15.789062 147.207031 15.609375 C 147 15.472656 146.945312 15.195312 147.082031 14.988281 C 147.222656 14.785156 147.5 14.730469 147.707031 14.867188 C 147.957031 15.035156 148.230469 15.203125 148.496094 15.363281 C 148.929688 15.625 149.371094 15.894531 149.773438 16.203125 C 150.949219 17.109375 152.09375 18.089844 153.203125 19.042969 C 154.332031 20.007812 155.5 21.011719 156.691406 21.921875 C 156.886719 22.074219 156.925781 22.355469 156.773438 22.550781 C 156.703125 22.644531 156.601562 22.699219 156.496094 22.71875 "/>
<path style=" stroke:none;fill-rule:nonzero;fill:rgb(100%,99.21875%,99.21875%);fill-opacity:1;" d="M 162.617188 27.746094 C 162.480469 27.769531 162.335938 27.730469 162.230469 27.628906 C 161.019531 26.460938 159.886719 25.492188 158.757812 24.667969 C 158.558594 24.519531 158.515625 24.242188 158.660156 24.042969 C 158.808594 23.84375 159.085938 23.800781 159.289062 23.945312 C 160.449219 24.796875 161.613281 25.789062 162.851562 26.984375 C 163.03125 27.15625 163.035156 27.441406 162.863281 27.617188 C 162.792969 27.6875 162.707031 27.730469 162.617188 27.746094 "/>
<path style=" stroke:none;fill-rule:nonzero;fill:rgb(100%,99.21875%,99.21875%);fill-opacity:1;" d="M 117.414062 46.429688 C 117.359375 46.4375 117.296875 46.4375 117.238281 46.425781 C 116.996094 46.367188 116.847656 46.128906 116.902344 45.886719 C 117.164062 44.746094 117.460938 43.453125 117.710938 42.1875 C 117.757812 41.945312 117.992188 41.785156 118.238281 41.832031 C 118.480469 41.882812 118.636719 42.117188 118.589844 42.359375 C 118.339844 43.640625 118.039062 44.941406 117.777344 46.089844 C 117.734375 46.269531 117.585938 46.398438 117.414062 46.429688 "/>
<path style=" stroke:none;fill-rule:nonzero;fill:rgb(89.408875%,93.728638%,94.898987%);fill-opacity:1;" d="M 118.277344 17.273438 C 115.066406 28.816406 113.984375 30.636719 110.773438 42.179688 C 102.683594 39.871094 85.507812 38.660156 73.105469 40.914062 C 55.375 44.140625 43.292969 45.742188 21.96875 58.136719 C 25.074219 48.476562 31.519531 29.21875 31.519531 29.21875 C 44.683594 19.550781 61.550781 17.730469 77.773438 15.785156 C 90.808594 14.222656 105.171875 16.527344 118.277344 17.273438 "/>
<path style=" stroke:none;fill-rule:nonzero;fill:rgb(45.489502%,73.728943%,83.918762%);fill-opacity:1;" d="M 31.820312 29.4375 C 31.3125 30.957031 25.628906 47.957031 22.59375 57.363281 C 42.152344 46.117188 53.773438 44.03125 69.777344 41.152344 C 70.84375 40.960938 71.929688 40.765625 73.039062 40.5625 C 85.070312 38.375 101.980469 39.402344 110.523438 41.742188 C 112.078125 36.167969 113.148438 32.839844 114.183594 29.617188 C 115.210938 26.417969 116.273438 23.109375 117.8125 17.601562 C 114.285156 17.394531 110.605469 17.070312 107.039062 16.757812 C 97.273438 15.902344 87.175781 15.015625 77.816406 16.140625 L 76.664062 16.277344 C 60.890625 18.164062 44.585938 20.117188 31.820312 29.4375 M 21.875 58.484375 C 21.828125 58.46875 21.785156 58.449219 21.746094 58.417969 C 21.628906 58.324219 21.582031 58.167969 21.628906 58.027344 C 24.695312 48.472656 31.113281 29.296875 31.179688 29.105469 C 31.203125 29.035156 31.246094 28.972656 31.304688 28.929688 C 44.234375 19.4375 60.675781 17.46875 76.578125 15.566406 L 77.730469 15.429688 C 87.164062 14.296875 97.300781 15.1875 107.101562 16.046875 C 110.8125 16.371094 114.648438 16.707031 118.300781 16.914062 C 118.40625 16.921875 118.507812 16.976562 118.570312 17.0625 C 118.632812 17.152344 118.652344 17.261719 118.625 17.367188 C 117.015625 23.148438 115.921875 26.546875 114.867188 29.835938 C 113.8125 33.117188 112.722656 36.511719 111.117188 42.277344 C 111.089844 42.367188 111.03125 42.445312 110.945312 42.492188 C 110.863281 42.539062 110.765625 42.550781 110.671875 42.527344 C 102.328125 40.140625 85.265625 39.066406 73.167969 41.269531 C 72.058594 41.46875 70.972656 41.664062 69.902344 41.855469 C 53.753906 44.761719 42.085938 46.855469 22.148438 58.445312 C 22.0625 58.496094 21.964844 58.507812 21.875 58.484375 "/>
<path style=" stroke:none;fill-rule:nonzero;fill:rgb(83.918762%,90.589905%,92.158508%);fill-opacity:1;" d="M 64.332031 41.128906 C 60.539062 41.128906 61.457031 36.976562 67.832031 35.828125 C 69.761719 35.480469 71.625 35.414062 73.414062 35.414062 C 73.984375 35.414062 74.550781 35.421875 75.105469 35.429688 C 75.660156 35.433594 76.210938 35.441406 76.75 35.441406 C 80.148438 35.441406 83.207031 35.167969 85.84375 32.875 C 90.617188 28.726562 89.402344 28.242188 89.945312 25.054688 C 90.488281 21.867188 116.496094 19.042969 116.496094 19.042969 L 110.144531 40.542969 C 110.144531 40.542969 96.203125 38.648438 90.960938 38.648438 C 90.929688 38.648438 90.898438 38.648438 90.871094 38.648438 C 85.699219 38.667969 71.011719 39.90625 65.710938 40.976562 C 65.199219 41.082031 64.738281 41.128906 64.332031 41.128906 "/>
<path style=" stroke:none;fill-rule:nonzero;fill:rgb(100%,99.21875%,99.21875%);fill-opacity:1;" d="M 43.5625 25.660156 C 43.378906 25.609375 43.21875 25.476562 43.144531 25.285156 C 43.015625 24.964844 43.171875 24.601562 43.496094 24.472656 C 47.058594 23.054688 50.746094 21.789062 54.769531 20.597656 C 55.101562 20.5 55.449219 20.6875 55.546875 21.019531 C 55.648438 21.351562 55.457031 21.699219 55.125 21.796875 C 51.136719 22.976562 47.484375 24.234375 43.957031 25.636719 C 43.828125 25.6875 43.6875 25.695312 43.5625 25.660156 "/>
<path style=" stroke:none;fill-rule:nonzero;fill:rgb(100%,99.21875%,99.21875%);fill-opacity:1;" d="M 58.140625 21.292969 C 57.894531 21.226562 57.707031 21.011719 57.683594 20.742188 C 57.652344 20.398438 57.90625 20.097656 58.253906 20.066406 C 58.714844 20.023438 59.183594 19.90625 59.679688 19.777344 C 60.488281 19.566406 61.324219 19.351562 62.222656 19.472656 C 62.566406 19.515625 62.808594 19.832031 62.761719 20.171875 C 62.714844 20.515625 62.402344 20.757812 62.058594 20.710938 C 61.402344 20.625 60.71875 20.800781 59.996094 20.988281 C 59.472656 21.125 58.929688 21.265625 58.359375 21.3125 C 58.285156 21.320312 58.210938 21.3125 58.140625 21.292969 "/>
<path style=" stroke:none;fill-rule:nonzero;fill:rgb(100%,99.21875%,99.21875%);fill-opacity:1;" d="M 109.285156 19.617188 C 109.027344 19.546875 108.832031 19.3125 108.824219 19.03125 C 108.816406 18.683594 109.09375 18.398438 109.4375 18.390625 C 111.160156 18.351562 112.992188 18.328125 114.824219 18.511719 C 115.167969 18.546875 115.417969 18.851562 115.382812 19.199219 C 115.347656 19.542969 115.042969 19.792969 114.695312 19.757812 C 112.9375 19.578125 111.148438 19.601562 109.46875 19.640625 C 109.402344 19.640625 109.34375 19.636719 109.285156 19.617188 "/>
<g clip-path="url(#clip4)" clip-rule="nonzero">
<path style=" stroke:none;fill-rule:nonzero;fill:rgb(95.689392%,65.098572%,23.529053%);fill-opacity:1;" d="M 183.296875 65.625 L 4.34375 65.625 C 1.941406 65.625 0 67.566406 0 69.964844 L 0 183.160156 C 0 185.558594 1.941406 187.5 4.34375 187.5 L 183.296875 187.5 C 185.699219 187.5 187.640625 185.558594 187.640625 183.160156 L 187.640625 69.964844 C 187.640625 67.566406 185.699219 65.625 183.296875 65.625 Z M 186.617188 91.152344 L 186.617188 183.160156 C 186.617188 184.996094 185.136719 186.476562 183.296875 186.476562 L 4.34375 186.476562 C 2.503906 186.476562 1.023438 184.996094 1.023438 183.160156 L 1.023438 69.964844 C 1.023438 68.128906 2.503906 66.648438 4.34375 66.648438 L 183.296875 66.648438 C 185.136719 66.648438 186.617188 68.128906 186.617188 69.964844 Z M 186.617188 91.152344 "/>
</g>
</g>
</svg>
