<svg xmlns="http://www.w3.org/2000/svg" xmlns:xlink="http://www.w3.org/1999/xlink" width="100" zoomAndPan="magnify" viewBox="0 0 75 74.999997" height="100" preserveAspectRatio="xMidYMid meet" version="1.0"><path fill="#fdc817" d="M 37.28125 11.082031 C 51.886719 11.082031 63.730469 22.914062 63.730469 37.507812 C 63.730469 52.101562 51.886719 63.9375 37.28125 63.9375 C 22.675781 63.9375 10.8125 52.121094 10.8125 37.527344 C 10.8125 22.933594 22.660156 11.082031 37.28125 11.082031 Z M 37.28125 11.082031 " fill-opacity="1" fill-rule="nonzero"/><path fill="#f2a11e" d="M 37.753906 65.457031 C 38.539062 66.992188 39.222656 72.824219 37.160156 73.695312 C 35.097656 74.570312 36.320312 62.683594 37.753906 65.457031 Z M 3.617188 42.816406 C 4.402344 44.804688 8.492188 43.707031 9.503906 42.800781 C 11.339844 41.175781 2.832031 40.828125 3.617188 42.816406 Z M 9.207031 38.101562 C 11.933594 36.566406 0 35.765625 0.945312 37.804688 C 1.886719 39.847656 7.703125 38.941406 9.207031 38.101562 Z M 9.695312 29.847656 C 12.769531 29.304688 1.800781 24.574219 2.007812 26.808594 C 2.21875 29.042969 8 30.144531 9.695312 29.847656 Z M 3.425781 32.640625 C 3.40625 34.785156 7.617188 35.273438 8.890625 34.820312 C 11.199219 34 3.425781 30.492188 3.425781 32.640625 Z M 31.5 10.226562 C 33.386719 11.8125 32.496094 3.328125 30.644531 4.410156 C 28.792969 5.496094 30.449219 9.351562 31.5 10.226562 Z M 22.449219 13.226562 C 24.527344 14.535156 22.5 6.261719 20.808594 7.570312 C 19.113281 8.882812 21.296875 12.496094 22.449219 13.226562 Z M 36.460938 1.253906 C 34.398438 2.144531 35.148438 7.972656 35.972656 9.492188 C 37.4375 12.25 38.523438 0.363281 36.460938 1.253906 Z M 27.953125 10.976562 C 30.328125 13 26.972656 1.550781 25.382812 3.121094 C 23.792969 4.691406 26.640625 9.859375 27.953125 10.976562 Z M 48.359375 3.261719 C 46.140625 3.554688 45.25 9.371094 45.613281 11.046875 C 46.261719 14.117188 50.578125 2.980469 48.359375 3.261719 Z M 43.03125 3.523438 C 40.878906 3.539062 40.445312 7.746094 40.933594 9.019531 C 41.789062 11.324219 45.179688 3.503906 43.03125 3.523438 Z M 52.621094 7.1875 C 50.507812 6.785156 49.230469 10.820312 49.457031 12.164062 C 49.824219 14.589844 54.71875 7.605469 52.621094 7.1875 Z M 59.101562 7.625 C 56.902344 7.203125 54.226562 12.441406 54.035156 14.152344 C 53.703125 17.277344 61.304688 8.058594 59.101562 7.625 Z M 56.726562 16.5625 C 56.113281 18.953125 63.363281 14.484375 61.601562 13.261719 C 59.835938 12.039062 57.074219 15.253906 56.726562 16.5625 Z M 60.0625 19.894531 C 58.578125 22.652344 69.09375 16.964844 67.207031 15.742188 C 65.320312 14.519531 60.882812 18.378906 60.0625 19.894531 Z M 62.160156 23.5625 C 61.09375 25.777344 69.078125 22.792969 67.574219 21.257812 C 66.074219 19.722656 62.753906 22.355469 62.160156 23.5625 Z M 63.957031 27.226562 C 61.828125 29.515625 73.425781 26.652344 71.925781 24.992188 C 70.421875 23.335938 65.128906 25.972656 63.957031 27.226562 Z M 70.945312 31.382812 C 70.109375 29.410156 66.054688 30.613281 65.058594 31.523438 C 63.242188 33.214844 71.769531 33.355469 70.945312 31.382812 Z M 74.265625 36.828125 C 73.53125 34.714844 67.644531 35.03125 66.074219 35.730469 C 63.207031 37.003906 75 38.941406 74.265625 36.828125 Z M 71.347656 41.648438 C 71.15625 39.515625 66.929688 39.429688 65.6875 40.003906 C 63.46875 41.070312 71.539062 43.792969 71.347656 41.648438 Z M 64.65625 44.613281 C 61.617188 45.332031 72.832031 49.433594 72.5 47.214844 C 72.167969 45 66.335938 44.210938 64.65625 44.613281 Z M 60.761719 53.082031 C 57.652344 52.695312 66.773438 60.429688 67.226562 58.230469 C 67.679688 56.03125 62.472656 53.308594 60.761719 53.082031 Z M 57.914062 56.484375 C 55.503906 55.996094 60.359375 62.996094 61.476562 61.164062 C 62.597656 59.332031 59.242188 56.746094 57.914062 56.484375 Z M 55.082031 59.765625 C 52.375 58.195312 57.703125 68.878906 58.996094 67.046875 C 60.289062 65.214844 56.585938 60.640625 55.082031 59.765625 Z M 51.398438 61.964844 C 49.230469 60.777344 51.765625 68.914062 53.390625 67.5 C 55.015625 66.085938 52.601562 62.628906 51.398438 61.964844 Z M 47.066406 63.835938 C 44.707031 61.773438 47.9375 73.277344 49.546875 71.707031 C 51.152344 70.136719 48.375 64.953125 47.066406 63.835938 Z M 62.996094 48.558594 C 60.535156 48.683594 66.945312 54.285156 67.59375 52.242188 C 68.238281 50.199219 64.359375 48.507812 62.996094 48.558594 Z M 31.480469 70.605469 C 33.628906 70.503906 33.875 66.277344 33.332031 65.019531 C 32.371094 62.769531 29.351562 70.730469 31.480469 70.605469 Z M 25.226562 71.882812 C 27.464844 71.898438 29.15625 66.277344 29.035156 64.550781 C 28.824219 61.441406 22.992188 71.863281 25.226562 71.882812 Z M 25.140625 62.75 C 24.894531 60.308594 19.601562 66.976562 21.679688 67.515625 C 23.757812 68.058594 25.261719 64.113281 25.140625 62.75 Z M 16.054688 66.730469 C 18.257812 67.167969 20.964844 61.949219 21.15625 60.238281 C 21.523438 57.128906 13.855469 66.296875 16.054688 66.730469 Z M 42.3125 70.605469 C 44.375 69.980469 43.589844 65.824219 42.765625 64.742188 C 41.265625 62.785156 40.25 71.234375 42.3125 70.605469 Z M 14.746094 54.582031 C 16.140625 51.789062 5.800781 57.777344 7.722656 58.945312 C 9.644531 60.117188 13.976562 56.136719 14.746094 54.582031 Z M 12.492188 50.777344 C 13.75 48.664062 5.519531 50.898438 6.882812 52.558594 C 8.246094 54.214844 11.792969 51.929688 12.492188 50.777344 Z M 2.167969 48.246094 C 3.460938 50.078125 9.015625 48.105469 10.34375 47.007812 C 12.734375 45 0.875 46.429688 2.167969 48.246094 Z M 18.257812 58.195312 C 18.972656 55.839844 11.53125 59.992188 13.242188 61.285156 C 14.953125 62.578125 17.871094 59.503906 18.257812 58.195312 Z M 11.425781 25.761719 C 13.871094 25.515625 7.179688 20.246094 6.65625 22.324219 C 6.132812 24.398438 10.0625 25.902344 11.425781 25.761719 Z M 13.171875 21.796875 C 16.210938 22.515625 8 13.839844 7.300781 15.984375 C 6.605469 18.132812 11.476562 21.398438 13.171875 21.796875 Z M 16.039062 18.621094 C 18.449219 19.128906 13.660156 12.074219 12.527344 13.910156 C 11.390625 15.742188 14.710938 18.34375 16.039062 18.621094 Z M 19.636719 15.585938 C 22.484375 16.859375 16.039062 6.804688 14.953125 8.777344 C 13.871094 10.75 18.0625 14.867188 19.636719 15.585938 Z M 19.636719 15.585938 " fill-opacity="1" fill-rule="nonzero"/><path fill="#ffffff" d="M 58.070312 30.824219 C 58.402344 34.785156 55.015625 25.097656 50.523438 21.34375 C 47.292969 18.640625 35.882812 12.757812 47.484375 17.488281 C 55.941406 20.910156 58.070312 30.824219 58.070312 30.824219 Z M 59.417969 32.9375 C 57.390625 30.386719 59.15625 38.015625 59.921875 37.144531 C 60.691406 36.269531 59.417969 32.9375 59.417969 32.9375 Z M 59.417969 32.9375 " fill-opacity="1" fill-rule="nonzero"/></svg>