<svg xmlns="http://www.w3.org/2000/svg" xmlns:xlink="http://www.w3.org/1999/xlink" width="100" zoomAndPan="magnify" viewBox="0 0 75 74.999997" height="100" preserveAspectRatio="xMidYMid meet" version="1.0"><defs><clipPath id="a16b906382"><path d="M 5.4375 0 L 69.9375 0 L 69.9375 62 L 5.4375 62 Z M 5.4375 0 " clip-rule="nonzero"/></clipPath></defs><g clip-path="url(#a16b906382)"><path fill="#f86d46" d="M 59.886719 18.863281 C 58.359375 19.53125 56.621094 20.058594 55.058594 20.550781 C 53.140625 21.113281 51.789062 21.746094 50.617188 23.261719 C 49.578125 24.601562 48.796875 26.453125 47.355469 27.433594 C 44.953125 29.074219 44.660156 27.007812 45.542969 24.988281 C 46.539062 22.589844 47.714844 20.15625 47.222656 17.683594 C 46.976562 16.449219 46.800781 14.648438 45.558594 14.894531 C 44.65625 15.070312 43.917969 16.570312 42.929688 16.082031 C 42.089844 15.664062 42.355469 13.875 42.253906 13.136719 C 41.632812 8.78125 38.769531 5.765625 35.285156 3.296875 C 34.324219 2.617188 31.699219 0.015625 30.457031 0.261719 C 29.570312 0.4375 28.714844 1.707031 28.289062 2.339844 C 25.480469 5.832031 23.058594 10.34375 24.71875 14.96875 C 25.175781 15.933594 28.003906 19.675781 26.492188 20.429688 C 25.566406 20.890625 24.242188 18.601562 23.222656 19.484375 C 22.121094 20.4375 23.324219 24.601562 24.28125 26.617188 C 25.0625 28.105469 29.21875 33.394531 24.421875 31.25 C 23.175781 30.691406 22.085938 29.804688 20.90625 29.128906 C 19.238281 28.171875 17.746094 28.101562 15.757812 28.308594 C 14.125 28.449219 12.316406 28.621094 10.648438 28.585938 C 9.15625 28.511719 6.816406 26.957031 5.429688 27.414062 C 5.855469 28.613281 6.8125 29.707031 7.234375 30.910156 C 7.660156 32.109375 8.511719 33.59375 9.433594 34.511719 C 10.566406 35.570312 12.730469 36.246094 13.191406 37.621094 C 13.898438 39.316406 11.804688 38.996094 10.773438 39.382812 C 10.300781 39.5625 13.042969 42.480469 13.378906 42.710938 C 14.546875 43.503906 15.917969 43.882812 17.304688 44.09375 C 19.457031 44.421875 28.191406 48.695312 22.898438 49.710938 C 17.355469 50.773438 13.351562 56.421875 14.199219 57.464844 C 15.585938 59.175781 19.058594 57.996094 20.828125 57.753906 C 21.972656 57.59375 23.464844 57.242188 24.589844 57.664062 C 25.695312 58.078125 25.671875 60.648438 24.28125 61.726562 C 26.894531 62.4375 30.84375 61.191406 32.917969 59.503906 C 35.359375 57.515625 34.769531 53.855469 37.625 52.117188 C 39.628906 50.898438 43.785156 49.425781 46.117188 50.5 C 48.5625 51.625 50.390625 53.800781 53.132812 54.675781 C 55.578125 55.460938 60.785156 55.011719 62.839844 53.671875 C 58.941406 48.785156 69.933594 47.324219 69.367188 45.417969 C 68.804688 43.511719 63.582031 46.011719 57.734375 42.835938 C 54.234375 40.929688 56.746094 38.097656 58.765625 36.320312 C 59.789062 35.417969 61 34.699219 61.960938 33.734375 C 62.3125 33.378906 64.726562 28.867188 63.921875 28.894531 C 62.820312 28.925781 61.007812 30.019531 61.011719 28.183594 C 60.90625 26.734375 62.648438 25.292969 63.289062 23.882812 C 63.789062 22.679688 64.003906 20.988281 63.933594 19.71875 C 63.863281 18.445312 64.328125 17.070312 64.257812 15.800781 C 62.804688 15.902344 61.238281 18.230469 59.886719 18.863281 Z M 59.886719 18.863281 " fill-opacity="1" fill-rule="nonzero"/></g><path fill="#feab41" d="M 14.835938 33.855469 C 15.617188 35.652344 17.316406 36.921875 18.917969 37.960938 C 20.914062 39.257812 23.023438 39.867188 25.390625 40.054688 C 28 40.257812 30.683594 39.824219 33.203125 40.695312 C 34.449219 41.125 35.714844 41.742188 36.84375 42.417969 C 37.824219 43.007812 38.9375 43.480469 39.578125 44.472656 C 39.753906 44.746094 40.15625 44.628906 40.171875 44.316406 C 40.28125 42.46875 42.253906 41.015625 43.582031 39.953125 C 45.472656 38.4375 47.414062 36.984375 49.289062 35.445312 C 50.980469 34.054688 53.046875 33.140625 54.328125 31.324219 C 54.960938 30.425781 55.480469 29.460938 56.035156 28.515625 C 56.539062 27.65625 57.480469 27.164062 57.625 26.132812 C 57.660156 25.890625 57.296875 25.671875 57.179688 25.949219 C 56.8125 26.808594 55.964844 27.382812 55.464844 28.183594 C 54.828125 29.195312 54.28125 30.242188 53.589844 31.222656 C 52.816406 32.320312 51.65625 32.867188 50.574219 33.601562 C 49.539062 34.300781 48.609375 35.15625 47.636719 35.9375 C 45.871094 37.355469 44.035156 38.6875 42.308594 40.148438 C 41.058594 41.203125 39.613281 42.578125 39.535156 44.316406 C 39.734375 44.261719 39.933594 44.207031 40.128906 44.15625 C 39.121094 42.621094 36.976562 41.6875 35.351562 40.957031 C 34.285156 40.476562 33.21875 39.992188 32.0625 39.765625 C 30.917969 39.535156 29.722656 39.558594 28.5625 39.574219 C 25.75 39.609375 22.972656 39.582031 20.402344 38.296875 C 18.335938 37.261719 16.28125 35.699219 15.121094 33.691406 C 15.011719 33.503906 14.753906 33.667969 14.835938 33.855469 Z M 14.835938 33.855469 " fill-opacity="1" fill-rule="nonzero"/><path fill="#feab41" d="M 29.09375 21.609375 C 29.121094 22.003906 29.226562 22.253906 29.574219 22.480469 C 30.316406 22.964844 30.878906 23.621094 31.472656 24.261719 C 32.058594 24.886719 32.804688 25.371094 33.441406 25.945312 C 33.765625 26.242188 33.9375 26.757812 34.417969 26.761719 C 34.515625 26.761719 34.617188 26.707031 34.664062 26.621094 C 35.527344 25.121094 36.65625 23.90625 37.855469 22.671875 C 38.816406 21.683594 39.78125 20.203125 39.648438 18.773438 C 39.628906 18.542969 39.328125 18.496094 39.25 18.71875 C 38.738281 20.171875 38.289062 21.335938 37.191406 22.476562 C 36.269531 23.425781 35.394531 24.371094 34.667969 25.480469 C 34.652344 25.503906 34.207031 26.191406 34.347656 26.191406 C 34.265625 26.191406 34.09375 25.914062 34.011719 25.835938 C 33.464844 25.296875 32.84375 24.835938 32.242188 24.359375 C 31.757812 23.976562 31.363281 23.496094 30.933594 23.058594 C 30.542969 22.660156 29.519531 22.128906 29.402344 21.570312 C 29.367188 21.394531 29.082031 21.433594 29.09375 21.609375 Z M 29.09375 21.609375 " fill-opacity="1" fill-rule="nonzero"/><path fill="#feab41" d="M 22.988281 35.164062 C 23.449219 37.222656 24.824219 38.953125 26.648438 39.988281 C 26.699219 39.792969 26.753906 39.601562 26.804688 39.410156 C 25.816406 39.410156 25.050781 39.832031 24.21875 40.320312 C 22.984375 41.046875 21.796875 41.039062 20.417969 41.128906 C 19.96875 41.160156 19.964844 41.796875 20.417969 41.824219 C 21.382812 41.882812 22.355469 41.808594 23.28125 41.535156 C 24.546875 41.164062 25.449219 40.179688 26.804688 40.027344 C 27.082031 40 27.269531 39.601562 26.960938 39.453125 C 25.164062 38.574219 23.804688 37.027344 23.28125 35.085938 C 23.230469 34.894531 22.945312 34.976562 22.988281 35.164062 Z M 22.988281 35.164062 " fill-opacity="1" fill-rule="nonzero"/><path fill="#feab41" d="M 49.066406 28.144531 C 49.394531 29.476562 49.234375 30.863281 49.222656 32.21875 C 49.214844 32.828125 49.210938 33.472656 49.003906 34.054688 C 48.832031 34.542969 48.695312 35.015625 48.652344 35.53125 C 48.636719 35.75 48.863281 35.851562 49.042969 35.828125 C 50.910156 35.5625 52.667969 35.316406 54.554688 35.304688 C 55.453125 35.300781 57.246094 35.386719 57.746094 34.441406 C 57.867188 34.214844 57.628906 33.972656 57.398438 34.09375 C 56.285156 34.6875 55.023438 34.722656 53.777344 34.652344 C 52.140625 34.558594 50.488281 34.984375 48.878906 35.234375 C 49.011719 35.332031 49.140625 35.429688 49.269531 35.53125 C 49.316406 34.871094 49.605469 34.292969 49.710938 33.648438 C 49.804688 33.066406 49.792969 32.46875 49.789062 31.882812 C 49.78125 30.566406 49.832031 29.3125 49.402344 28.050781 C 49.332031 27.839844 49.011719 27.925781 49.066406 28.144531 Z M 49.066406 28.144531 " fill-opacity="1" fill-rule="nonzero"/><path fill="#944e3a" d="M 32.621094 10.71875 C 32.207031 11.847656 32.203125 13.011719 32.234375 14.203125 C 32.265625 15.5 32.242188 16.800781 32.320312 18.097656 C 32.488281 20.800781 33.34375 23.417969 33.9375 26.046875 C 34.550781 28.753906 35.1875 31.445312 35.96875 34.109375 C 36.695312 36.59375 37.292969 39.0625 38.347656 41.4375 C 38.882812 42.644531 39.460938 43.824219 39.859375 45.085938 C 40.273438 46.390625 40.488281 47.792969 40.808594 49.128906 C 41.453125 51.804688 41.679688 54.550781 42.300781 57.226562 C 42.964844 60.078125 43.375 62.871094 43.488281 65.800781 C 43.59375 68.59375 43.511719 71.390625 43.570312 74.179688 C 43.585938 74.996094 44.859375 74.996094 44.839844 74.179688 C 44.707031 68.777344 44.996094 63.328125 43.761719 58.019531 C 42.558594 52.839844 42.273438 47.289062 40.089844 42.382812 C 37.878906 37.417969 36.519531 32.136719 35.292969 26.855469 C 34.652344 24.085938 33.738281 21.296875 33.453125 18.46875 C 33.320312 17.160156 33.339844 15.851562 33.269531 14.542969 C 33.203125 13.289062 33.085938 12.050781 33.234375 10.800781 C 33.277344 10.429688 32.734375 10.414062 32.621094 10.71875 Z M 32.621094 10.71875 " fill-opacity="1" fill-rule="nonzero"/><path fill="#d23b50" d="M 23.042969 54.875 C 24.28125 54.65625 25.34375 53.996094 26.429688 53.398438 C 27.707031 52.699219 28.996094 51.972656 30.054688 50.964844 C 31.003906 50.058594 31.914062 49.109375 32.960938 48.308594 C 34.148438 47.398438 35.363281 47.019531 36.824219 46.816406 C 37.242188 46.757812 37.097656 46.15625 36.726562 46.125 C 34.28125 45.921875 32.148438 47.871094 30.53125 49.4375 C 29.421875 50.507812 28.332031 51.429688 27 52.226562 C 25.71875 52.992188 24.382812 54.097656 22.957031 54.566406 C 22.753906 54.628906 22.835938 54.914062 23.042969 54.875 Z M 23.042969 54.875 " fill-opacity="1" fill-rule="nonzero"/><path fill="#d23b50" d="M 22.183594 52.515625 C 24.914062 52.671875 28.109375 52.015625 30.375 50.417969 C 30.203125 50.320312 30.035156 50.222656 29.863281 50.125 C 29.78125 51.128906 29.207031 52.386719 29.753906 53.335938 C 29.832031 53.46875 30.03125 53.46875 30.109375 53.335938 C 30.339844 52.933594 30.300781 52.589844 30.292969 52.128906 C 30.285156 51.449219 30.5 50.800781 30.542969 50.125 C 30.558594 49.878906 30.238281 49.691406 30.03125 49.835938 C 27.835938 51.355469 24.792969 51.863281 22.183594 52.058594 C 21.890625 52.082031 21.886719 52.5 22.183594 52.515625 Z M 22.183594 52.515625 " fill-opacity="1" fill-rule="nonzero"/><path fill="#d23b50" d="M 44.542969 45.367188 C 47.269531 44.878906 50.046875 45.367188 52.371094 46.902344 C 53.992188 47.96875 56.476562 49.660156 58.53125 48.964844 C 58.726562 48.902344 58.71875 48.652344 58.53125 48.582031 C 58.027344 48.394531 57.507812 48.347656 56.984375 48.253906 C 56.242188 48.121094 55.539062 47.820312 54.867188 47.496094 C 53.738281 46.957031 52.773438 46.179688 51.667969 45.601562 C 49.503906 44.472656 46.722656 44.035156 44.410156 44.882812 C 44.101562 44.996094 44.222656 45.425781 44.542969 45.367188 Z M 44.542969 45.367188 " fill-opacity="1" fill-rule="nonzero"/><path fill="#d23b50" d="M 27.914062 11.070312 C 27.871094 11.980469 28.03125 12.828125 28.46875 13.636719 C 28.78125 14.207031 29.457031 15.320312 30.203125 15.238281 C 30.34375 15.226562 30.453125 15.136719 30.457031 14.988281 C 30.46875 14.34375 29.695312 13.875 29.328125 13.390625 C 28.820312 12.714844 28.496094 11.910156 28.414062 11.070312 C 28.382812 10.757812 27.933594 10.746094 27.914062 11.070312 Z M 27.914062 11.070312 " fill-opacity="1" fill-rule="nonzero"/><path fill="#d23b50" d="M 40.941406 28.699219 C 40.835938 29.179688 40.523438 29.457031 40.214844 29.8125 C 39.945312 30.117188 39.792969 30.503906 39.628906 30.871094 C 39.289062 31.644531 39.074219 32.472656 39.394531 33.285156 C 39.449219 33.421875 39.675781 33.503906 39.753906 33.332031 C 40.125 32.503906 40.269531 31.601562 40.632812 30.765625 C 40.945312 30.039062 41.511719 29.628906 41.496094 28.773438 C 41.492188 28.464844 41.011719 28.382812 40.941406 28.699219 Z M 40.941406 28.699219 " fill-opacity="1" fill-rule="nonzero"/><path fill="#d23b50" d="M 56.101562 24.242188 C 56.488281 23.566406 56.824219 23.230469 57.613281 23.039062 C 58.222656 22.890625 58.890625 22.917969 59.480469 22.746094 C 59.609375 22.707031 59.6875 22.515625 59.566406 22.417969 C 58.367188 21.457031 55.261719 22.246094 55.363281 24.042969 C 55.382812 24.421875 55.898438 24.597656 56.101562 24.242188 Z M 56.101562 24.242188 " fill-opacity="1" fill-rule="nonzero"/><path fill="#d23b50" d="M 16.378906 30.21875 C 16.742188 30.539062 17.167969 30.777344 17.5625 31.054688 C 17.757812 31.191406 17.941406 31.3125 18.105469 31.484375 C 18.285156 31.667969 18.3125 31.90625 18.429688 32.121094 C 18.597656 32.421875 19.085938 32.359375 19.171875 32.023438 C 19.324219 31.402344 18.792969 30.882812 18.339844 30.546875 C 17.859375 30.191406 17.269531 30.035156 16.773438 29.710938 C 16.464844 29.507812 16.105469 29.972656 16.378906 30.21875 Z M 16.378906 30.21875 " fill-opacity="1" fill-rule="nonzero"/></svg>