<svg xmlns="http://www.w3.org/2000/svg" xmlns:xlink="http://www.w3.org/1999/xlink" width="100" zoomAndPan="magnify" viewBox="0 0 75 74.999997" height="100" preserveAspectRatio="xMidYMid meet" version="1.0"><defs><clipPath id="86011f38d3"><path d="M 9.09375 2 L 47 2 L 47 29 L 9.09375 29 Z M 9.09375 2 " clip-rule="nonzero"/></clipPath><clipPath id="42e5f08342"><path d="M 9.09375 2 L 45 2 L 45 27 L 9.09375 27 Z M 9.09375 2 " clip-rule="nonzero"/></clipPath></defs><g clip-path="url(#86011f38d3)"><path fill="#77b5fe" d="M 23.738281 28.777344 L 17.472656 28.777344 C 12.882812 28.777344 9.109375 25.015625 9.109375 20.394531 C 9.109375 15.179688 13.871094 11.246094 18.976562 12.144531 C 20.605469 7.695312 25.667969 5.558594 30.042969 7.355469 C 31.332031 4.191406 34.375 2.09375 37.851562 2.09375 C 45.316406 2.09375 46.988281 10.261719 46.046875 11.417969 C 44.757812 13.042969 44.886719 15.179688 43.558594 14.453125 C 39.910156 12.316406 34.933594 14.195312 33.777344 18.515625 C 33.476562 19.667969 32.316406 18.898438 30.902344 18.898438 C 26.3125 18.898438 23.136719 23.433594 24.550781 27.621094 C 24.765625 28.179688 24.335938 28.777344 23.738281 28.777344 Z M 23.738281 28.777344 " fill-opacity="1" fill-rule="evenodd"/></g><path fill="#6eabf2" d="M 54.539062 33.910156 L 30.902344 33.910156 C 26.269531 33.910156 22.492188 30.144531 22.492188 25.527344 C 22.492188 20.3125 27.296875 16.375 32.359375 17.316406 C 34.03125 12.871094 39.09375 10.691406 43.472656 12.484375 C 44.714844 9.363281 47.804688 7.226562 51.277344 7.226562 C 57.199219 7.226562 61.1875 13.167969 59.128906 18.515625 C 66.078125 23.046875 62.863281 33.910156 54.539062 33.910156 Z M 54.539062 33.910156 " fill-opacity="1" fill-rule="evenodd"/><path fill="#77b5fe" d="M 56.382812 46.820312 C 53.511719 46.820312 51.449219 43.957031 52.652344 41.304688 C 53.382812 39.636719 54.839844 37.542969 55.613281 36.046875 C 55.957031 35.449219 56.855469 35.449219 57.15625 36.046875 C 58.785156 39.210938 61.746094 42.074219 59.859375 44.941406 C 59.085938 46.09375 57.800781 46.820312 56.382812 46.820312 Z M 56.382812 46.820312 " fill-opacity="1" fill-rule="evenodd"/><path fill="#77b5fe" d="M 42.828125 46.820312 C 39.910156 46.820312 37.851562 43.957031 39.050781 41.304688 C 39.824219 39.636719 41.28125 37.542969 42.054688 36.046875 C 42.355469 35.40625 43.257812 35.449219 43.601562 36.046875 C 45.230469 39.210938 48.148438 42.074219 46.300781 44.941406 C 45.53125 46.09375 44.242188 46.820312 42.828125 46.820312 Z M 42.828125 46.820312 " fill-opacity="1" fill-rule="evenodd"/><path fill="#77b5fe" d="M 29.226562 46.820312 C 26.355469 46.820312 24.292969 43.957031 25.496094 41.304688 C 26.226562 39.636719 27.683594 37.542969 28.457031 36.046875 C 28.800781 35.449219 29.65625 35.449219 30 36.046875 C 31.585938 39.167969 34.589844 42.03125 32.703125 44.941406 C 31.929688 46.09375 30.644531 46.820312 29.226562 46.820312 Z M 29.226562 46.820312 " fill-opacity="1" fill-rule="evenodd"/><path fill="#77b5fe" d="M 15.628906 46.820312 C 12.753906 46.820312 10.695312 43.957031 11.894531 41.304688 C 12.667969 39.636719 14.128906 37.542969 14.898438 36.046875 C 15.199219 35.40625 16.101562 35.449219 16.402344 36.046875 C 18.03125 39.210938 20.992188 42.074219 19.105469 44.941406 C 18.375 46.09375 17.042969 46.820312 15.628906 46.820312 Z M 15.628906 46.820312 " fill-opacity="1" fill-rule="evenodd"/><path fill="#77b5fe" d="M 49.605469 61.402344 C 46.730469 61.402344 44.671875 58.582031 45.875 55.886719 C 46.601562 54.21875 48.0625 52.125 48.832031 50.667969 C 49.175781 50.027344 50.035156 50.027344 50.378906 50.667969 C 51.921875 53.75 54.96875 56.65625 53.082031 59.5625 C 52.308594 60.71875 51.023438 61.402344 49.605469 61.402344 Z M 49.605469 61.402344 " fill-opacity="1" fill-rule="evenodd"/><path fill="#77b5fe" d="M 36.007812 61.402344 C 33.132812 61.402344 31.074219 58.582031 32.273438 55.886719 C 33.003906 54.21875 34.503906 52.125 35.234375 50.667969 C 35.578125 50.027344 36.476562 50.027344 36.777344 50.667969 C 38.367188 53.75 41.367188 56.65625 39.480469 59.5625 C 38.753906 60.71875 37.421875 61.402344 36.007812 61.402344 Z M 36.007812 61.402344 " fill-opacity="1" fill-rule="evenodd"/><path fill="#77b5fe" d="M 22.449219 61.402344 C 19.53125 61.402344 17.472656 58.582031 18.675781 55.886719 C 19.445312 54.21875 20.90625 52.125 21.675781 50.667969 C 21.976562 50.027344 22.878906 50.027344 23.179688 50.667969 C 24.765625 53.75 27.8125 56.65625 25.925781 59.5625 C 25.152344 60.71875 23.867188 61.402344 22.449219 61.402344 Z M 22.449219 61.402344 " fill-opacity="1" fill-rule="evenodd"/><path fill="#77b5fe" d="M 36.007812 75 C 33.132812 75 31.074219 72.179688 32.273438 69.484375 C 33.003906 67.816406 34.503906 65.722656 35.234375 64.265625 C 35.578125 63.625 36.476562 63.625 36.777344 64.265625 C 38.367188 67.347656 41.367188 70.253906 39.480469 73.160156 C 38.753906 74.316406 37.421875 75 36.007812 75 Z M 36.007812 75 " fill-opacity="1" fill-rule="evenodd"/><path fill="#6aa7ed" d="M 43.472656 12.484375 C 39.09375 10.691406 34.03125 12.871094 32.359375 17.316406 C 27.296875 16.375 22.492188 20.3125 22.492188 25.527344 C 22.492188 27.964844 23.566406 30.273438 25.367188 31.855469 C 21.421875 25.785156 26.652344 17.703125 33.90625 19.027344 C 35.578125 14.539062 40.640625 12.441406 44.972656 14.238281 C 47.117188 8.851562 53.980469 7.226562 58.273438 10.988281 C 54.496094 5.257812 45.917969 6.285156 43.472656 12.484375 Z M 43.472656 12.484375 " fill-opacity="1" fill-rule="evenodd"/><g clip-path="url(#42e5f08342)"><path fill="#72b0f8" d="M 30.042969 7.355469 C 25.667969 5.558594 20.605469 7.695312 18.976562 12.144531 C 13.871094 11.246094 9.109375 15.179688 9.109375 20.394531 C 9.109375 22.832031 10.179688 25.058594 11.851562 26.597656 C 11.125 25.355469 10.652344 23.859375 10.652344 22.277344 C 10.652344 17.0625 15.457031 13.128906 20.519531 14.066406 C 22.191406 9.621094 27.253906 7.441406 31.628906 9.234375 C 33.820312 3.71875 40.898438 2.351562 44.929688 5.984375 C 41.242188 0 32.53125 1.195312 30.042969 7.355469 Z M 30.042969 7.355469 " fill-opacity="1" fill-rule="evenodd"/></g></svg>