<svg xmlns="http://www.w3.org/2000/svg" xmlns:xlink="http://www.w3.org/1999/xlink" width="100" zoomAndPan="magnify" viewBox="0 0 75 74.999997" height="100" preserveAspectRatio="xMidYMid meet" version="1.0"><path fill="#f5f5f5" d="M 75 37.5 C 75 32.875 74.121094 28.464844 72.59375 24.375 L 2.40625 24.375 C 0.878906 28.464844 0 32.875 0 37.5 C 0 42.125 0.878906 46.535156 2.40625 50.625 L 72.589844 50.625 C 74.121094 46.535156 75 42.125 75 37.5 Z M 75 37.5 " fill-opacity="1" fill-rule="nonzero"/><path fill="#000088" d="M 37.5 28.125 C 32.320312 28.125 28.125 32.320312 28.125 37.5 C 28.125 42.679688 32.320312 46.875 37.5 46.875 C 42.679688 46.875 46.875 42.679688 46.875 37.5 C 46.875 32.320312 42.679688 28.125 37.5 28.125 Z M 37.5 45.703125 C 32.964844 45.703125 29.296875 42.035156 29.296875 37.5 C 29.296875 32.964844 32.964844 29.296875 37.5 29.296875 C 42.035156 29.296875 45.703125 32.964844 45.703125 37.5 C 45.703125 42.035156 42.035156 45.703125 37.5 45.703125 Z M 37.5 45.703125 " fill-opacity="1" fill-rule="nonzero"/><path fill="#000088" d="M 39.140625 37.5 C 39.140625 38.410156 38.40625 39.140625 37.5 39.140625 C 36.59375 39.140625 35.859375 38.40625 35.859375 37.5 C 35.859375 36.59375 36.59375 35.859375 37.5 35.859375 C 38.40625 35.859375 39.140625 36.589844 39.140625 37.5 Z M 39.140625 37.5 " fill-opacity="1" fill-rule="nonzero"/><path fill="#000088" d="M 45.695312 38.164062 C 45.46875 38.136719 45.265625 38.289062 45.234375 38.511719 C 45.207031 38.738281 45.359375 38.945312 45.582031 38.972656 C 45.808594 39.007812 46.015625 38.851562 46.042969 38.625 C 46.078125 38.398438 45.921875 38.195312 45.695312 38.164062 Z M 45.695312 38.164062 " fill-opacity="1" fill-rule="nonzero"/><path fill="#000088" d="M 37.5 45.703125 L 37.78125 40.78125 L 37.5 38.4375 L 37.21875 40.78125 Z M 37.5 45.703125 " fill-opacity="1" fill-rule="nonzero"/><path fill="#000088" d="M 45.246094 40.265625 C 45.03125 40.179688 44.796875 40.273438 44.703125 40.488281 C 44.617188 40.695312 44.71875 40.9375 44.925781 41.023438 C 45.132812 41.109375 45.375 41.015625 45.460938 40.796875 C 45.554688 40.589844 45.453125 40.347656 45.246094 40.265625 Z M 45.246094 40.265625 " fill-opacity="1" fill-rule="nonzero"/><path fill="#000088" d="M 35.375 45.421875 L 36.917969 40.738281 L 37.257812 38.40625 L 36.375 40.597656 Z M 35.375 45.421875 " fill-opacity="1" fill-rule="nonzero"/><path fill="#000088" d="M 44.261719 42.175781 C 44.082031 42.035156 43.828125 42.0625 43.6875 42.25 C 43.546875 42.425781 43.585938 42.679688 43.765625 42.820312 C 43.941406 42.960938 44.203125 42.925781 44.335938 42.746094 C 44.476562 42.566406 44.4375 42.304688 44.261719 42.175781 Z M 44.261719 42.175781 " fill-opacity="1" fill-rule="nonzero"/><path fill="#000088" d="M 33.398438 44.609375 L 36.105469 40.476562 L 37.03125 38.3125 L 35.621094 40.207031 Z M 33.398438 44.609375 " fill-opacity="1" fill-rule="nonzero"/><path fill="#000088" d="M 42.828125 43.757812 C 42.6875 43.578125 42.425781 43.550781 42.246094 43.683594 C 42.070312 43.824219 42.03125 44.085938 42.171875 44.261719 C 42.3125 44.441406 42.566406 44.480469 42.746094 44.339844 C 42.933594 44.195312 42.960938 43.945312 42.828125 43.757812 Z M 42.828125 43.757812 " fill-opacity="1" fill-rule="nonzero"/><path fill="#000088" d="M 31.691406 43.308594 L 35.375 40.019531 L 36.835938 38.164062 L 34.980469 39.625 Z M 31.691406 43.308594 " fill-opacity="1" fill-rule="nonzero"/><path fill="#000088" d="M 41.019531 44.917969 C 40.9375 44.710938 40.691406 44.617188 40.488281 44.703125 C 40.28125 44.785156 40.175781 45.03125 40.261719 45.234375 C 40.355469 45.441406 40.589844 45.546875 40.796875 45.460938 C 41.011719 45.367188 41.105469 45.132812 41.019531 44.917969 Z M 41.019531 44.917969 " fill-opacity="1" fill-rule="nonzero"/><path fill="#000088" d="M 30.390625 41.601562 L 34.792969 39.382812 L 36.6875 37.96875 L 34.523438 38.898438 Z M 30.390625 41.601562 " fill-opacity="1" fill-rule="nonzero"/><path fill="#000088" d="M 38.980469 45.582031 C 38.953125 45.359375 38.746094 45.199219 38.519531 45.226562 C 38.296875 45.265625 38.136719 45.46875 38.164062 45.695312 C 38.203125 45.921875 38.40625 46.070312 38.632812 46.042969 C 38.859375 46.011719 39.007812 45.808594 38.980469 45.582031 Z M 38.980469 45.582031 " fill-opacity="1" fill-rule="nonzero"/><path fill="#000088" d="M 29.578125 39.625 L 34.398438 38.625 L 36.589844 37.742188 L 34.257812 38.082031 Z M 29.578125 39.625 " fill-opacity="1" fill-rule="nonzero"/><path fill="#000088" d="M 36.480469 45.234375 C 36.253906 45.199219 36.046875 45.359375 36.019531 45.582031 C 35.992188 45.808594 36.152344 46.015625 36.375 46.042969 C 36.601562 46.078125 36.808594 45.921875 36.835938 45.695312 C 36.863281 45.46875 36.703125 45.265625 36.480469 45.234375 Z M 36.480469 45.234375 " fill-opacity="1" fill-rule="nonzero"/><path fill="#000088" d="M 29.296875 37.5 L 34.21875 37.78125 L 36.5625 37.5 L 34.21875 37.21875 Z M 29.296875 37.5 " fill-opacity="1" fill-rule="nonzero"/><path fill="#000088" d="M 34.523438 44.703125 C 34.316406 44.617188 34.074219 44.71875 33.988281 44.925781 C 33.894531 45.132812 33.996094 45.375 34.203125 45.460938 C 34.417969 45.546875 34.652344 45.453125 34.746094 45.246094 C 34.828125 45.03125 34.726562 44.796875 34.523438 44.703125 Z M 34.523438 44.703125 " fill-opacity="1" fill-rule="nonzero"/><path fill="#000088" d="M 29.578125 35.375 L 34.261719 36.917969 L 36.59375 37.257812 L 34.402344 36.375 Z M 29.578125 35.375 " fill-opacity="1" fill-rule="nonzero"/><path fill="#000088" d="M 32.761719 43.683594 C 32.582031 43.550781 32.320312 43.578125 32.191406 43.757812 C 32.050781 43.945312 32.078125 44.199219 32.265625 44.339844 C 32.441406 44.46875 32.695312 44.441406 32.835938 44.261719 C 32.976562 44.074219 32.9375 43.824219 32.761719 43.683594 Z M 32.761719 43.683594 " fill-opacity="1" fill-rule="nonzero"/><path fill="#000088" d="M 30.390625 33.398438 L 34.523438 36.105469 L 36.6875 37.03125 L 34.792969 35.621094 Z M 30.390625 33.398438 " fill-opacity="1" fill-rule="nonzero"/><path fill="#000088" d="M 31.316406 42.246094 C 31.175781 42.070312 30.925781 42.03125 30.746094 42.171875 C 30.566406 42.304688 30.53125 42.566406 30.671875 42.746094 C 30.800781 42.921875 31.066406 42.960938 31.242188 42.820312 C 31.421875 42.679688 31.457031 42.425781 31.316406 42.246094 Z M 31.316406 42.246094 " fill-opacity="1" fill-rule="nonzero"/><path fill="#000088" d="M 31.691406 31.691406 L 34.980469 35.375 L 36.835938 36.835938 L 35.375 34.980469 Z M 31.691406 31.691406 " fill-opacity="1" fill-rule="nonzero"/><path fill="#000088" d="M 30.296875 40.476562 C 30.214844 40.269531 29.96875 40.167969 29.765625 40.261719 C 29.558594 40.347656 29.453125 40.589844 29.539062 40.796875 C 29.632812 41.003906 29.867188 41.105469 30.082031 41.019531 C 30.289062 40.925781 30.390625 40.691406 30.296875 40.476562 Z M 30.296875 40.476562 " fill-opacity="1" fill-rule="nonzero"/><path fill="#000088" d="M 33.398438 30.390625 L 35.617188 34.792969 L 37.03125 36.6875 L 36.101562 34.523438 Z M 33.398438 30.390625 " fill-opacity="1" fill-rule="nonzero"/><path fill="#000088" d="M 29.773438 38.511719 C 29.734375 38.285156 29.53125 38.136719 29.3125 38.164062 C 29.089844 38.191406 28.929688 38.398438 28.957031 38.625 C 28.984375 38.847656 29.191406 39.007812 29.417969 38.96875 C 29.640625 38.941406 29.800781 38.734375 29.773438 38.511719 Z M 29.773438 38.511719 " fill-opacity="1" fill-rule="nonzero"/><path fill="#000088" d="M 35.375 29.578125 L 36.375 34.398438 L 37.257812 36.589844 L 36.917969 34.257812 Z M 35.375 29.578125 " fill-opacity="1" fill-rule="nonzero"/><path fill="#000088" d="M 29.417969 36.019531 C 29.191406 35.992188 28.984375 36.152344 28.957031 36.375 C 28.929688 36.601562 29.089844 36.808594 29.3125 36.835938 C 29.539062 36.863281 29.746094 36.703125 29.773438 36.480469 C 29.800781 36.253906 29.640625 36.046875 29.417969 36.019531 Z M 29.417969 36.019531 " fill-opacity="1" fill-rule="nonzero"/><path fill="#000088" d="M 37.5 29.296875 L 37.21875 34.21875 L 37.5 36.5625 L 37.78125 34.21875 Z M 37.5 29.296875 " fill-opacity="1" fill-rule="nonzero"/><path fill="#000088" d="M 30.074219 33.980469 C 29.867188 33.894531 29.625 33.996094 29.539062 34.203125 C 29.453125 34.410156 29.546875 34.652344 29.765625 34.738281 C 29.96875 34.824219 30.214844 34.730469 30.296875 34.511719 C 30.382812 34.308594 30.28125 34.0625 30.074219 33.980469 Z M 30.074219 33.980469 " fill-opacity="1" fill-rule="nonzero"/><path fill="#000088" d="M 39.625 29.578125 L 38.082031 34.261719 L 37.742188 36.59375 L 38.625 34.402344 Z M 39.625 29.578125 " fill-opacity="1" fill-rule="nonzero"/><path fill="#000088" d="M 31.242188 32.179688 C 31.054688 32.039062 30.800781 32.066406 30.660156 32.253906 C 30.53125 32.433594 30.558594 32.6875 30.738281 32.828125 C 30.925781 32.96875 31.175781 32.929688 31.316406 32.753906 C 31.449219 32.574219 31.421875 32.3125 31.242188 32.179688 Z M 31.242188 32.179688 " fill-opacity="1" fill-rule="nonzero"/><path fill="#000088" d="M 41.601562 30.390625 L 38.894531 34.523438 L 37.96875 36.6875 L 39.378906 34.792969 Z M 41.601562 30.390625 " fill-opacity="1" fill-rule="nonzero"/><path fill="#000088" d="M 32.835938 30.738281 C 32.695312 30.5625 32.441406 30.523438 32.261719 30.664062 C 32.074219 30.804688 32.046875 31.058594 32.179688 31.246094 C 32.320312 31.421875 32.582031 31.453125 32.761719 31.320312 C 32.9375 31.175781 32.976562 30.917969 32.835938 30.738281 Z M 32.835938 30.738281 " fill-opacity="1" fill-rule="nonzero"/><path fill="#000088" d="M 43.308594 31.691406 L 39.625 34.980469 L 38.164062 36.835938 L 40.019531 35.375 Z M 43.308594 31.691406 " fill-opacity="1" fill-rule="nonzero"/><path fill="#000088" d="M 34.734375 29.765625 C 34.652344 29.558594 34.40625 29.453125 34.203125 29.546875 C 33.996094 29.632812 33.890625 29.867188 33.976562 30.082031 C 34.0625 30.289062 34.304688 30.390625 34.511719 30.296875 C 34.726562 30.214844 34.820312 29.980469 34.734375 29.765625 Z M 34.734375 29.765625 " fill-opacity="1" fill-rule="nonzero"/><path fill="#000088" d="M 44.609375 33.398438 L 40.207031 35.617188 L 38.3125 37.03125 L 40.476562 36.101562 Z M 44.609375 33.398438 " fill-opacity="1" fill-rule="nonzero"/><path fill="#000088" d="M 36.835938 29.304688 C 36.804688 29.078125 36.601562 28.929688 36.375 28.957031 C 36.148438 28.984375 35.992188 29.191406 36.019531 29.417969 C 36.046875 29.640625 36.253906 29.800781 36.476562 29.765625 C 36.703125 29.734375 36.863281 29.53125 36.835938 29.304688 Z M 36.835938 29.304688 " fill-opacity="1" fill-rule="nonzero"/><path fill="#000088" d="M 45.421875 35.375 L 40.601562 36.375 L 38.410156 37.257812 L 40.742188 36.917969 Z M 45.421875 35.375 " fill-opacity="1" fill-rule="nonzero"/><path fill="#000088" d="M 38.625 28.960938 C 38.398438 28.929688 38.191406 29.089844 38.164062 29.316406 C 38.136719 29.539062 38.296875 29.746094 38.519531 29.773438 C 38.746094 29.804688 38.953125 29.644531 38.980469 29.417969 C 39.007812 29.191406 38.847656 28.988281 38.625 28.960938 Z M 38.625 28.960938 " fill-opacity="1" fill-rule="nonzero"/><path fill="#000088" d="M 45.703125 37.5 L 40.78125 37.21875 L 38.4375 37.5 L 40.78125 37.78125 Z M 45.703125 37.5 " fill-opacity="1" fill-rule="nonzero"/><path fill="#000088" d="M 40.796875 29.539062 C 40.589844 29.445312 40.347656 29.546875 40.261719 29.753906 C 40.175781 29.96875 40.269531 30.203125 40.476562 30.289062 C 40.691406 30.382812 40.925781 30.28125 41.019531 30.074219 C 41.105469 29.859375 41.003906 29.625 40.796875 29.539062 Z M 40.796875 29.539062 " fill-opacity="1" fill-rule="nonzero"/><path fill="#000088" d="M 45.421875 39.625 L 40.738281 38.082031 L 38.40625 37.742188 L 40.597656 38.625 Z M 45.421875 39.625 " fill-opacity="1" fill-rule="nonzero"/><path fill="#000088" d="M 42.746094 30.664062 C 42.566406 30.53125 42.3125 30.5625 42.171875 30.738281 C 42.03125 30.925781 42.070312 31.179688 42.246094 31.320312 C 42.425781 31.453125 42.6875 31.421875 42.828125 31.246094 C 42.960938 31.054688 42.933594 30.804688 42.746094 30.664062 Z M 42.746094 30.664062 " fill-opacity="1" fill-rule="nonzero"/><path fill="#000088" d="M 44.609375 41.601562 L 40.476562 38.894531 L 38.3125 37.96875 L 40.207031 39.378906 Z M 44.609375 41.601562 " fill-opacity="1" fill-rule="nonzero"/><path fill="#000088" d="M 44.335938 32.253906 C 44.195312 32.078125 43.933594 32.039062 43.753906 32.179688 C 43.578125 32.320312 43.539062 32.574219 43.679688 32.753906 C 43.820312 32.929688 44.074219 32.96875 44.261719 32.828125 C 44.4375 32.695312 44.46875 32.433594 44.335938 32.253906 Z M 44.335938 32.253906 " fill-opacity="1" fill-rule="nonzero"/><path fill="#000088" d="M 43.308594 43.308594 L 40.019531 39.625 L 38.164062 38.164062 L 39.625 40.019531 Z M 43.308594 43.308594 " fill-opacity="1" fill-rule="nonzero"/><path fill="#000088" d="M 45.460938 34.203125 C 45.367188 33.996094 45.132812 33.894531 44.925781 33.980469 C 44.710938 34.074219 44.617188 34.308594 44.703125 34.511719 C 44.785156 34.730469 45.03125 34.824219 45.234375 34.738281 C 45.441406 34.652344 45.546875 34.410156 45.460938 34.203125 Z M 45.460938 34.203125 " fill-opacity="1" fill-rule="nonzero"/><path fill="#000088" d="M 41.601562 44.609375 L 39.382812 40.207031 L 37.96875 38.3125 L 38.898438 40.476562 Z M 41.601562 44.609375 " fill-opacity="1" fill-rule="nonzero"/><path fill="#000088" d="M 46.039062 36.375 C 46.011719 36.152344 45.804688 35.992188 45.582031 36.019531 C 45.355469 36.058594 45.195312 36.253906 45.234375 36.480469 C 45.261719 36.703125 45.46875 36.863281 45.695312 36.835938 C 45.921875 36.804688 46.078125 36.601562 46.039062 36.375 Z M 46.039062 36.375 " fill-opacity="1" fill-rule="nonzero"/><path fill="#000088" d="M 39.625 45.421875 L 38.625 40.601562 L 37.742188 38.410156 L 38.082031 40.742188 Z M 39.625 45.421875 " fill-opacity="1" fill-rule="nonzero"/><path fill="#388e3c" d="M 72.59375 50.625 L 2.40625 50.625 C 7.734375 64.851562 21.414062 75 37.5 75 C 53.585938 75 67.265625 64.851562 72.59375 50.625 Z M 72.59375 50.625 " fill-opacity="1" fill-rule="nonzero"/><path fill="#ff9800" d="M 37.5 0 C 21.414062 0 7.734375 10.148438 2.40625 24.375 L 72.589844 24.375 C 67.265625 10.148438 53.585938 0 37.5 0 Z M 37.5 0 " fill-opacity="1" fill-rule="nonzero"/></svg>