<svg xmlns="http://www.w3.org/2000/svg" xmlns:xlink="http://www.w3.org/1999/xlink" width="100" zoomAndPan="magnify" viewBox="0 0 75 74.999997" height="100" preserveAspectRatio="xMidYMid meet" version="1.0"><path fill="#226699" d="M 75 66.667969 C 75 71.269531 71.269531 75 66.667969 75 L 8.332031 75 C 3.730469 75 0 71.269531 0 66.667969 L 0 8.332031 C 0 3.730469 3.730469 0 8.332031 0 L 66.667969 0 C 71.269531 0 75 3.730469 75 8.332031 Z M 75 66.667969 " fill-opacity="1" fill-rule="nonzero"/><path fill="#ffffff" d="M 22.917969 19.785156 C 22.917969 16.648438 24.785156 14.582031 28.117188 14.582031 L 39.917969 14.582031 C 49.714844 14.582031 56.984375 20.714844 56.984375 30.25 C 56.984375 39.980469 49.449219 45.832031 40.316406 45.832031 L 33.332031 45.832031 L 33.332031 57.246094 C 33.332031 60.582031 31.199219 62.449219 28.332031 62.449219 C 25.464844 62.449219 22.917969 60.578125 22.917969 57.246094 Z M 33.332031 37.5 L 39.710938 37.5 C 43.917969 37.5 46.582031 34.449219 46.582031 30.449219 C 46.582031 26.449219 43.917969 23.382812 39.710938 23.382812 L 33.332031 23.382812 Z M 33.332031 37.5 " fill-opacity="1" fill-rule="nonzero"/></svg>