<svg xmlns="http://www.w3.org/2000/svg" xmlns:xlink="http://www.w3.org/1999/xlink" width="100" zoomAndPan="magnify" viewBox="0 0 75 74.999997" height="100" preserveAspectRatio="xMidYMid meet" version="1.0"><path fill="#0496cf" d="M 75.003906 37.496094 C 75.003906 37.585938 75.003906 37.683594 75 37.773438 C 74.988281 39.621094 74.84375 41.4375 74.566406 43.214844 C 73.257812 51.792969 69.046875 59.410156 62.964844 65.03125 L 62.960938 65.03125 C 56.269531 71.21875 47.320312 75.003906 37.496094 75.003906 C 32.691406 75.003906 28.09375 74.101562 23.875 72.445312 C 23.351562 72.25 22.835938 72.03125 22.320312 71.804688 C 15.1875 68.644531 9.230469 63.328125 5.265625 56.671875 C 3.273438 53.328125 1.78125 49.644531 0.902344 45.734375 C 0.308594 43.082031 -0.00390625 40.324219 -0.00390625 37.496094 C -0.00390625 36.503906 0.03125 35.523438 0.117188 34.554688 C 0.75 26.328125 4.039062 18.851562 9.128906 12.972656 C 11.089844 10.710938 13.316406 8.683594 15.761719 6.945312 L 15.765625 6.9375 C 16.425781 6.46875 17.105469 6.011719 17.804688 5.585938 C 22.066406 2.949219 26.890625 1.136719 32.058594 0.386719 C 33.832031 0.125 35.648438 -0.00390625 37.496094 -0.00390625 C 41.902344 -0.00390625 46.136719 0.757812 50.058594 2.15625 C 56.402344 4.40625 61.949219 8.316406 66.195312 13.355469 C 71.695312 19.882812 75.003906 28.304688 75.003906 37.496094 " fill-opacity="1" fill-rule="nonzero"/><path fill="#70c573" d="M 42.507812 66.847656 C 42.507812 66.847656 40.464844 64 40.691406 59.117188 C 40.917969 54.234375 40.464844 53.421875 37.289062 52.402344 C 34.117188 51.386719 30.941406 49.554688 30.488281 47.113281 C 30.03125 44.667969 32.753906 38.972656 32.753906 38.972656 C 32.753906 38.972656 36.382812 36.53125 39.558594 36.9375 C 42.734375 37.34375 48.179688 37.34375 50.671875 39.585938 C 53.167969 41.820312 54.753906 46.910156 55.886719 47.113281 C 57.023438 47.316406 54.300781 56.066406 53.847656 57.488281 C 53.394531 58.914062 52.035156 64.613281 50.898438 66.847656 C 49.765625 69.085938 48.632812 71.121094 47.722656 71.121094 C 46.816406 71.121094 42.734375 71.53125 42.507812 66.847656 " fill-opacity="1" fill-rule="nonzero"/><path fill="#70c573" d="M 24.886719 66.382812 C 24.6875 67.34375 24.332031 69.902344 23.875 72.445312 C 23.351562 72.25 22.835938 72.03125 22.320312 71.804688 C 15.1875 68.644531 9.230469 63.328125 5.265625 56.671875 C 3.273438 53.328125 1.78125 49.644531 0.902344 45.734375 C 2.285156 45 4.019531 44.335938 5.722656 44.367188 C 9.453125 44.441406 9.921875 45.359375 13.097656 47.636719 C 16.269531 49.917969 18.753906 55.609375 20.097656 55.707031 C 21.4375 55.796875 25.230469 64.675781 24.886719 66.382812 " fill-opacity="1" fill-rule="nonzero"/><path fill="#70c573" d="M 75.003906 37.496094 C 75.003906 37.585938 75.003906 37.683594 75 37.773438 C 74.988281 39.621094 74.84375 41.4375 74.566406 43.214844 C 72.882812 40.742188 71.0625 37.027344 70.136719 36.378906 C 68.710938 35.371094 63.484375 34.773438 65.382812 37.382812 C 67.285156 40 68.089844 40 68.089844 40 C 68.089844 40 64.433594 47.363281 61.824219 46.648438 C 59.207031 45.941406 53.976562 36.378906 53.976562 36.378906 C 50.890625 33.949219 56.828125 32.15625 56.828125 32.15625 C 56.828125 32.15625 58.730469 30.492188 55.878906 28.59375 C 53.027344 26.691406 50.890625 30.730469 48.988281 30.253906 C 47.089844 29.777344 46.613281 31.679688 46.015625 33.578125 C 45.421875 35.480469 43.6875 36.617188 43.285156 33.578125 C 42.875 30.542969 38.53125 32.394531 37.105469 32.394531 C 35.679688 32.394531 32.828125 37.382812 30.210938 37.382812 C 27.597656 37.382812 27.597656 33.820312 28.074219 32.15625 C 28.550781 30.492188 32.585938 28.828125 36.390625 28.59375 C 40.191406 28.351562 36.628906 25.023438 37.816406 24.378906 C 39.007812 23.730469 42.570312 24.789062 46.015625 26.214844 C 49.457031 27.640625 53.027344 24.3125 56.117188 24.378906 C 59.207031 24.445312 49.464844 21.9375 52.550781 19.5625 C 55.644531 17.183594 48.988281 15.042969 49.222656 12.429688 C 49.464844 9.816406 47.320312 6.726562 47.320312 3.875 C 47.320312 2.96875 48.332031 2.375 50.058594 2.15625 C 56.402344 4.40625 61.949219 8.316406 66.195312 13.355469 C 71.695312 19.882812 75.003906 28.304688 75.003906 37.496094 " fill-opacity="1" fill-rule="nonzero"/><path fill="#70c573" d="M 21.910156 24.820312 C 21.910156 24.820312 23.289062 26.445312 24.351562 24.820312 C 25.414062 23.191406 25.566406 21.890625 24.898438 21.777344 C 24.234375 21.65625 20.277344 24.140625 21.910156 24.820312 " fill-opacity="1" fill-rule="nonzero"/><path fill="#70c573" d="M 13.886719 24.820312 C 13.886719 24.820312 16.71875 24.09375 17.347656 22.679688 C 17.976562 21.261719 21.597656 21.890625 22.539062 20.476562 C 23.484375 19.058594 25.929688 18.554688 26.519531 17.230469 C 27.105469 15.910156 27.746094 13.867188 25.300781 13.707031 C 22.855469 13.550781 20.445312 12.449219 20.472656 13.707031 C 20.496094 14.96875 19.867188 14.652344 17.664062 15.4375 C 15.460938 16.226562 13.097656 15.089844 13.097656 17.230469 C 13.097656 19.375 13.730469 21.769531 13.730469 21.769531 C 13.730469 21.769531 12.46875 23.496094 13.886719 24.820312 " fill-opacity="1" fill-rule="nonzero"/><path fill="#70c573" d="M 32.058594 0.386719 C 32.058594 0.386719 27.839844 6.019531 27.058594 6.167969 C 26.269531 6.316406 23.859375 7.972656 23.410156 9.628906 C 22.960938 11.285156 19.800781 12.335938 17.394531 11.285156 C 14.988281 10.230469 14.433594 9.070312 15.761719 6.945312 L 15.765625 6.9375 C 16.425781 6.46875 17.105469 6.011719 17.804688 5.585938 C 22.066406 2.949219 26.890625 1.136719 32.058594 0.386719 " fill-opacity="1" fill-rule="nonzero"/><path fill="#70c573" d="M 8.417969 22.515625 C 8.019531 23.71875 8.117188 25.121094 6.820312 25.542969 C 5.511719 25.964844 6.011719 27.527344 5.109375 29.53125 C 4.296875 31.335938 0.816406 34.03125 0.117188 34.554688 C 0.75 26.328125 4.039062 18.851562 9.128906 12.972656 C 9.660156 14.578125 9.453125 17.230469 9.921875 18.097656 C 10.625 19.402344 8.820312 21.3125 8.417969 22.515625 " fill-opacity="1" fill-rule="nonzero"/></svg>