<svg xmlns="http://www.w3.org/2000/svg" xmlns:xlink="http://www.w3.org/1999/xlink" width="100" zoomAndPan="magnify" viewBox="0 0 75 74.999997" height="100" preserveAspectRatio="xMidYMid meet" version="1.0"><defs><clipPath id="853c05a5c1"><path d="M 0 42 L 75 42 L 75 61.226562 L 0 61.226562 Z M 0 42 " clip-rule="nonzero"/></clipPath></defs><g clip-path="url(#853c05a5c1)"><path fill="#1a1a1a" d="M 36.371094 45.960938 C 25.035156 45.960938 13.683594 45.960938 2.332031 45.960938 C 2.136719 45.960938 1.941406 45.976562 1.746094 45.945312 C 1.210938 45.898438 0.792969 45.628906 0.539062 45.164062 C 0 44.160156 0.386719 42.492188 2.03125 42.507812 C 5.75 42.539062 9.457031 42.523438 13.175781 42.523438 C 32.355469 42.523438 51.535156 42.523438 70.699219 42.523438 C 71.90625 42.523438 72.519531 43.125 72.519531 44.265625 C 72.519531 45.359375 71.878906 45.945312 70.699219 45.945312 C 69.367188 45.945312 68.070312 45.945312 66.738281 45.945312 C 66.558594 45.945312 66.394531 45.960938 66.171875 45.976562 C 66.171875 46.621094 66.171875 47.234375 66.171875 47.851562 C 66.171875 50.117188 64.5 51.78125 62.230469 51.78125 C 61.929688 51.78125 61.632812 51.78125 61.347656 51.78125 C 61.347656 52.351562 61.347656 52.832031 61.347656 53.371094 C 62.109375 53.371094 62.824219 53.355469 63.542969 53.371094 C 64.574219 53.386719 65.335938 53.925781 65.648438 54.902344 C 65.738281 55.21875 65.886719 55.261719 66.15625 55.261719 C 67.066406 55.246094 67.964844 55.246094 68.859375 55.261719 C 71.683594 55.308594 74.089844 57.199219 74.789062 59.929688 C 74.878906 60.332031 74.925781 60.769531 75 61.203125 C 59.347656 61.203125 43.8125 61.203125 28.261719 61.203125 C 28.214844 58.339844 30.742188 55.59375 33.683594 55.335938 C 34.804688 55.246094 35.9375 55.292969 37.058594 55.261719 C 37.222656 55.261719 37.476562 55.140625 37.523438 55.007812 C 38 53.835938 38.628906 53.386719 39.867188 53.386719 C 40.539062 53.386719 41.210938 53.386719 41.882812 53.386719 C 41.882812 52.832031 41.882812 52.335938 41.882812 51.796875 C 41.554688 51.796875 41.273438 51.796875 40.988281 51.796875 C 38.71875 51.78125 37.058594 50.117188 37.042969 47.851562 C 37.042969 47.234375 37.042969 46.636719 37.042969 45.945312 C 36.777344 45.960938 36.566406 45.960938 36.371094 45.960938 Z M 36.371094 45.960938 " fill-opacity="1" fill-rule="nonzero"/></g><path fill="#1a1a1a" d="M 40.882812 42.6875 C 40.867188 36.925781 40.867188 31.164062 40.882812 25.402344 C 40.882812 24.863281 40.929688 24.308594 41.003906 23.769531 C 41.929688 18.023438 47.128906 14 52.894531 14.496094 C 58.390625 14.960938 62.839844 19.808594 62.839844 25.464844 C 62.855469 31.195312 62.839844 36.925781 62.839844 42.660156 C 62.839844 42.839844 62.839844 43.003906 62.839844 43.183594 C 55.492188 43.183594 48.203125 43.183594 40.867188 43.183594 C 40.882812 42.972656 40.851562 42.824219 40.882812 42.6875 Z M 40.882812 42.6875 " fill-opacity="1" fill-rule="nonzero"/><path fill="#ffff00" d="M 45.394531 27.550781 C 45.394531 26.605469 46.171875 25.824219 47.113281 25.824219 L 55.867188 25.824219 C 56.804688 25.824219 57.582031 26.605469 57.582031 27.550781 C 57.582031 28.496094 56.804688 29.273438 55.867188 29.273438 L 47.113281 29.273438 C 46.171875 29.273438 45.394531 28.496094 45.394531 27.550781 Z M 47.113281 26.140625 C 46.335938 26.140625 45.707031 26.769531 45.707031 27.550781 C 45.707031 28.328125 46.335938 28.960938 47.113281 28.960938 L 55.867188 28.960938 C 56.640625 28.960938 57.269531 28.328125 57.269531 27.550781 C 57.269531 26.769531 56.640625 26.140625 55.867188 26.140625 Z M 45.394531 30.683594 C 45.394531 29.738281 46.171875 28.960938 47.113281 28.960938 L 55.867188 28.960938 C 56.804688 28.960938 57.582031 29.738281 57.582031 30.683594 C 57.582031 31.628906 56.804688 32.410156 55.867188 32.410156 L 47.113281 32.410156 C 46.171875 32.394531 45.394531 31.628906 45.394531 30.683594 Z M 47.113281 29.273438 C 46.335938 29.273438 45.707031 29.90625 45.707031 30.683594 C 45.707031 31.464844 46.335938 32.097656 47.113281 32.097656 L 55.867188 32.097656 C 56.640625 32.097656 57.269531 31.464844 57.269531 30.683594 C 57.269531 29.90625 56.640625 29.273438 55.867188 29.273438 Z M 47.113281 29.273438 " fill-opacity="1" fill-rule="nonzero"/><path fill="#ff0000" d="M 53.011719 29.109375 C 53.011719 29.332031 52.96875 29.546875 52.886719 29.753906 C 52.800781 29.957031 52.679688 30.140625 52.523438 30.296875 C 52.367188 30.457031 52.183594 30.578125 51.980469 30.664062 C 51.773438 30.746094 51.5625 30.789062 51.339844 30.789062 C 51.117188 30.789062 50.902344 30.746094 50.699219 30.664062 C 50.496094 30.578125 50.3125 30.457031 50.15625 30.296875 C 50 30.140625 49.878906 29.957031 49.792969 29.753906 C 49.707031 29.546875 49.667969 29.332031 49.667969 29.109375 C 49.667969 28.886719 49.707031 28.671875 49.792969 28.464844 C 49.878906 28.261719 50 28.078125 50.15625 27.921875 C 50.3125 27.765625 50.496094 27.644531 50.699219 27.558594 C 50.902344 27.472656 51.117188 27.429688 51.339844 27.429688 C 51.5625 27.429688 51.773438 27.472656 51.980469 27.558594 C 52.183594 27.644531 52.367188 27.765625 52.523438 27.921875 C 52.679688 28.078125 52.800781 28.261719 52.886719 28.464844 C 52.96875 28.671875 53.011719 28.886719 53.011719 29.109375 Z M 53.011719 29.109375 " fill-opacity="1" fill-rule="nonzero"/></svg>