<svg xmlns="http://www.w3.org/2000/svg" xmlns:xlink="http://www.w3.org/1999/xlink" width="100" zoomAndPan="magnify" viewBox="0 0 75 74.999997" height="100" preserveAspectRatio="xMidYMid meet" version="1.0"><defs><clipPath id="ef12ca2e81"><path d="M 14.15625 2 L 60.65625 2 L 60.65625 75 L 14.15625 75 Z M 14.15625 2 " clip-rule="nonzero"/></clipPath></defs><g clip-path="url(#ef12ca2e81)"><path fill="#000000" d="M 60.636719 47.382812 C 60.636719 47.570312 60.601562 47.75 60.53125 47.925781 C 60.457031 48.097656 60.355469 48.25 60.226562 48.382812 C 60.09375 48.515625 59.941406 48.617188 59.769531 48.691406 C 59.59375 48.761719 59.417969 48.796875 59.230469 48.796875 L 52.285156 48.796875 L 52.285156 73.632812 C 52.285156 73.820312 52.25 74 52.179688 74.175781 C 52.105469 74.347656 52.003906 74.5 51.871094 74.632812 C 51.742188 74.765625 51.589844 74.867188 51.417969 74.941406 C 51.242188 75.011719 51.0625 75.046875 50.878906 75.046875 C 50.691406 75.046875 50.511719 75.011719 50.339844 74.941406 C 50.167969 74.867188 50.015625 74.765625 49.882812 74.632812 C 49.75 74.5 49.648438 74.347656 49.578125 74.175781 C 49.503906 74 49.46875 73.820312 49.46875 73.632812 L 49.46875 48.796875 L 19.835938 48.796875 C 19.714844 48.796875 19.59375 48.78125 19.476562 48.75 C 19.359375 48.71875 19.25 48.671875 19.144531 48.613281 C 19.039062 48.554688 18.945312 48.480469 18.855469 48.398438 C 18.769531 48.3125 18.695312 48.21875 18.632812 48.113281 C 18.570312 48.011719 18.523438 47.898438 18.488281 47.785156 C 18.453125 47.667969 18.433594 47.546875 18.429688 47.425781 C 18.425781 47.304688 18.4375 47.1875 18.464844 47.066406 C 18.492188 46.949219 18.535156 46.835938 18.589844 46.730469 C 18.636719 46.632812 23.386719 37.542969 27.382812 28.015625 C 34.890625 10.144531 32.664062 7.636719 32.382812 7.410156 C 30.035156 5.527344 25.980469 6.9375 22.996094 8.507812 C 20.722656 9.71875 18.578125 11.132812 16.570312 12.75 C 16.425781 12.878906 16.265625 12.976562 16.082031 13.039062 C 15.902344 13.101562 15.714844 13.128906 15.523438 13.113281 C 15.332031 13.101562 15.148438 13.050781 14.976562 12.960938 C 14.804688 12.875 14.660156 12.757812 14.535156 12.609375 C 14.414062 12.460938 14.324219 12.292969 14.269531 12.105469 C 14.214844 11.921875 14.199219 11.734375 14.222656 11.542969 C 14.242188 11.351562 14.300781 11.167969 14.398438 11.003906 C 14.492188 10.835938 14.617188 10.691406 14.769531 10.578125 C 16.070312 9.472656 27.765625 0.0195312 34.160156 5.214844 C 38.019531 8.367188 33.953125 19.648438 29.972656 29.128906 C 27.074219 36.035156 23.789062 42.710938 22.132812 45.96875 L 49.464844 45.96875 L 49.464844 4.382812 C 49.464844 4.195312 49.5 4.011719 49.570312 3.839844 C 49.644531 3.667969 49.746094 3.515625 49.878906 3.382812 C 50.007812 3.25 50.160156 3.148438 50.335938 3.074219 C 50.507812 3.003906 50.6875 2.96875 50.871094 2.96875 C 51.058594 2.96875 51.238281 3.003906 51.410156 3.074219 C 51.582031 3.148438 51.734375 3.25 51.867188 3.382812 C 52 3.515625 52.101562 3.667969 52.171875 3.839844 C 52.246094 4.011719 52.28125 4.195312 52.28125 4.382812 L 52.28125 45.96875 L 59.226562 45.96875 C 59.410156 45.96875 59.589844 46.003906 59.765625 46.078125 C 59.9375 46.148438 60.089844 46.25 60.222656 46.382812 C 60.355469 46.515625 60.457031 46.667969 60.53125 46.84375 C 60.601562 47.015625 60.636719 47.195312 60.636719 47.382812 Z M 60.636719 47.382812 " fill-opacity="1" fill-rule="nonzero"/></g></svg>