<svg xmlns="http://www.w3.org/2000/svg" xmlns:xlink="http://www.w3.org/1999/xlink" width="100" zoomAndPan="magnify" viewBox="0 0 75 74.999997" height="100" preserveAspectRatio="xMidYMid meet" version="1.0"><defs><clipPath id="736981d565"><path d="M 1 1 L 74.765625 1 L 74.765625 75 L 1 75 Z M 1 1 " clip-rule="nonzero"/></clipPath></defs><g clip-path="url(#736981d565)"><path fill="#000000" d="M 74.792969 13.070312 C 74.792969 12.617188 74.765625 12.164062 74.714844 11.714844 C 74.664062 11.265625 74.585938 10.820312 74.484375 10.378906 C 74.382812 9.933594 74.253906 9.5 74.101562 9.074219 C 73.949219 8.644531 73.773438 8.230469 73.574219 7.820312 C 73.371094 7.414062 73.148438 7.019531 72.90625 6.636719 C 72.660156 6.257812 72.394531 5.890625 72.105469 5.539062 C 71.816406 5.1875 71.511719 4.851562 71.1875 4.535156 C 70.859375 4.21875 70.519531 3.921875 70.15625 3.644531 C 69.796875 3.367188 69.421875 3.109375 69.035156 2.875 C 68.644531 2.640625 68.242188 2.425781 67.832031 2.238281 C 67.417969 2.046875 66.996094 1.882812 66.5625 1.742188 C 66.128906 1.601562 65.691406 1.484375 65.246094 1.390625 C 64.796875 1.300781 64.347656 1.234375 63.894531 1.195312 C 63.441406 1.152344 62.988281 1.140625 62.535156 1.152344 C 62.078125 1.160156 61.625 1.199219 61.175781 1.261719 C 60.722656 1.324219 60.277344 1.414062 59.835938 1.527344 C 59.398438 1.640625 58.964844 1.777344 58.539062 1.941406 C 58.113281 2.101562 57.699219 2.289062 57.296875 2.5 C 56.894531 2.710938 56.503906 2.941406 56.125 3.195312 C 55.75 3.449219 55.386719 3.726562 55.042969 4.019531 C 54.699219 4.316406 54.371094 4.628906 54.0625 4.960938 C 53.75 5.292969 53.460938 5.644531 53.191406 6.007812 C 52.921875 6.375 52.675781 6.753906 52.449219 7.148438 C 52.222656 7.539062 52.019531 7.945312 51.84375 8.363281 C 51.664062 8.78125 51.507812 9.203125 51.375 9.640625 C 51.246094 10.074219 51.140625 10.515625 51.058594 10.960938 C 50.980469 11.40625 50.925781 11.855469 50.898438 12.308594 C 50.867188 12.761719 50.863281 13.214844 50.886719 13.667969 C 50.910156 14.121094 50.960938 14.570312 51.035156 15.015625 C 51.109375 15.464844 51.210938 15.90625 51.335938 16.339844 C 51.460938 16.777344 51.609375 17.203125 51.785156 17.625 C 51.957031 18.042969 52.15625 18.449219 52.378906 18.847656 C 52.5 19.078125 52.640625 19.304688 52.785156 19.523438 L 52.953125 19.773438 C 59.769531 30.042969 69.113281 49.828125 62.78125 61.703125 C 59.210938 68.375 50.929688 71.789062 38.25 71.789062 C 25.210938 71.789062 16.859375 67.976562 13.433594 60.445312 C 7.300781 46.996094 18.394531 25.289062 23.652344 19.308594 C 23.882812 19.039062 24.011719 18.726562 24.027344 18.375 C 24.871094 16.707031 25.289062 14.9375 25.285156 13.070312 C 25.285156 12.246094 25.199219 11.425781 25.03125 10.617188 C 24.859375 9.808594 24.605469 9.027344 24.273438 8.269531 C 23.9375 7.511719 23.53125 6.796875 23.046875 6.125 C 22.5625 5.453125 22.015625 4.839844 21.40625 4.28125 C 20.792969 3.722656 20.128906 3.230469 19.414062 2.808594 C 18.703125 2.386719 17.953125 2.046875 17.164062 1.777344 C 16.378906 1.511719 15.574219 1.332031 14.75 1.230469 C 13.925781 1.132812 13.101562 1.121094 12.277344 1.191406 C 11.449219 1.265625 10.636719 1.421875 9.84375 1.660156 C 9.050781 1.902344 8.289062 2.21875 7.5625 2.617188 C 6.835938 3.015625 6.15625 3.484375 5.527344 4.023438 C 4.898438 4.5625 4.328125 5.15625 3.824219 5.8125 C 3.320312 6.46875 2.886719 7.171875 2.53125 7.917969 C 2.171875 8.664062 1.894531 9.4375 1.695312 10.238281 C 1.5 11.042969 1.386719 11.859375 1.363281 12.683594 C 1.335938 13.511719 1.394531 14.332031 1.539062 15.144531 C 1.683594 15.957031 1.910156 16.75 2.21875 17.515625 C 2.53125 18.28125 2.917969 19.007812 3.378906 19.695312 C 3.839844 20.382812 4.367188 21.015625 4.960938 21.59375 C 5.554688 22.171875 6.203125 22.679688 6.902344 23.125 C 7.601562 23.570312 8.339844 23.933594 9.117188 24.226562 C 9.894531 24.515625 10.695312 24.722656 11.515625 24.847656 C 12.335938 24.972656 13.160156 25.011719 13.988281 24.964844 C 14.816406 24.921875 15.632812 24.789062 16.433594 24.574219 C 10.949219 34.480469 5.457031 50.398438 10.613281 61.71875 C 14.59375 70.445312 23.886719 74.871094 38.25 74.871094 C 52.1875 74.871094 61.359375 70.925781 65.511719 63.148438 C 68.746094 57.078125 68.796875 48.941406 65.664062 38.972656 C 64.039062 33.941406 61.945312 29.109375 59.386719 24.480469 C 59.828125 24.617188 60.28125 24.722656 60.738281 24.804688 C 61.195312 24.882812 61.65625 24.9375 62.121094 24.964844 C 62.585938 24.992188 63.050781 24.992188 63.511719 24.964844 C 63.976562 24.941406 64.4375 24.886719 64.894531 24.808594 C 65.351562 24.726562 65.804688 24.621094 66.25 24.488281 C 66.695312 24.355469 67.132812 24.199219 67.558594 24.015625 C 67.984375 23.832031 68.398438 23.625 68.800781 23.394531 C 69.203125 23.164062 69.59375 22.910156 69.964844 22.632812 C 70.339844 22.355469 70.695312 22.058594 71.03125 21.742188 C 71.371094 21.425781 71.6875 21.089844 71.988281 20.734375 C 72.285156 20.378906 72.5625 20.007812 72.820312 19.621094 C 73.074219 19.234375 73.308594 18.835938 73.515625 18.421875 C 73.726562 18.007812 73.910156 17.582031 74.066406 17.148438 C 74.226562 16.714844 74.359375 16.269531 74.46875 15.820312 C 74.574219 15.371094 74.65625 14.914062 74.710938 14.457031 C 74.765625 13.996094 74.792969 13.535156 74.792969 13.070312 Z M 13.324219 21.90625 C 12.742188 21.90625 12.167969 21.847656 11.59375 21.734375 C 11.023438 21.621094 10.46875 21.453125 9.929688 21.234375 C 9.394531 21.011719 8.882812 20.738281 8.398438 20.417969 C 7.914062 20.09375 7.464844 19.726562 7.054688 19.316406 C 6.644531 18.90625 6.277344 18.460938 5.953125 17.980469 C 5.628906 17.496094 5.355469 16.988281 5.132812 16.453125 C 4.910156 15.917969 4.742188 15.363281 4.628906 14.792969 C 4.515625 14.226562 4.457031 13.652344 4.457031 13.070312 C 4.457031 12.492188 4.515625 11.917969 4.628906 11.347656 C 4.742188 10.777344 4.910156 10.226562 5.132812 9.691406 C 5.355469 9.15625 5.628906 8.644531 5.953125 8.164062 C 6.277344 7.679688 6.644531 7.234375 7.054688 6.824219 C 7.464844 6.414062 7.914062 6.046875 8.398438 5.726562 C 8.882812 5.402344 9.394531 5.132812 9.929688 4.910156 C 10.46875 4.6875 11.023438 4.519531 11.59375 4.40625 C 12.167969 4.292969 12.742188 4.238281 13.324219 4.238281 C 13.90625 4.238281 14.484375 4.292969 15.054688 4.40625 C 15.625 4.519531 16.179688 4.6875 16.71875 4.910156 C 17.257812 5.132812 17.769531 5.402344 18.25 5.726562 C 18.734375 6.046875 19.183594 6.414062 19.59375 6.824219 C 20.007812 7.234375 20.375 7.679688 20.699219 8.164062 C 21.023438 8.644531 21.296875 9.15625 21.519531 9.691406 C 21.742188 10.226562 21.910156 10.777344 22.023438 11.347656 C 22.136719 11.917969 22.191406 12.492188 22.191406 13.070312 C 22.191406 13.652344 22.136719 14.226562 22.019531 14.792969 C 21.90625 15.363281 21.738281 15.914062 21.515625 16.449219 C 21.292969 16.984375 21.019531 17.496094 20.695312 17.976562 C 20.371094 18.457031 20.003906 18.90625 19.59375 19.316406 C 19.179688 19.726562 18.734375 20.089844 18.25 20.414062 C 17.765625 20.734375 17.253906 21.007812 16.71875 21.230469 C 16.179688 21.453125 15.625 21.621094 15.054688 21.734375 C 14.484375 21.847656 13.90625 21.90625 13.324219 21.90625 Z M 55.578125 18.132812 L 55.546875 18.082031 C 55.472656 17.980469 55.40625 17.882812 55.351562 17.785156 C 55.335938 17.773438 55.328125 17.757812 55.320312 17.742188 C 55.117188 17.417969 54.9375 17.082031 54.777344 16.734375 C 54.621094 16.386719 54.484375 16.03125 54.375 15.664062 C 54.261719 15.300781 54.175781 14.929688 54.113281 14.554688 C 54.046875 14.175781 54.011719 13.796875 53.996094 13.417969 C 53.980469 13.035156 53.992188 12.65625 54.027344 12.273438 C 54.066406 11.894531 54.125 11.519531 54.210938 11.148438 C 54.296875 10.773438 54.402344 10.410156 54.535156 10.050781 C 54.667969 9.691406 54.824219 9.34375 55 9.007812 C 55.179688 8.667969 55.378906 8.34375 55.597656 8.03125 C 55.820312 7.71875 56.058594 7.421875 56.316406 7.140625 C 56.578125 6.859375 56.851562 6.597656 57.148438 6.351562 C 57.441406 6.105469 57.75 5.882812 58.070312 5.675781 C 58.394531 5.46875 58.730469 5.285156 59.074219 5.125 C 59.421875 4.960938 59.777344 4.824219 60.144531 4.707031 C 60.507812 4.589844 60.878906 4.5 61.253906 4.429688 C 61.632812 4.363281 62.011719 4.320312 62.394531 4.300781 C 62.777344 4.28125 63.160156 4.289062 63.542969 4.316406 C 63.921875 4.347656 64.300781 4.402344 64.675781 4.484375 C 65.050781 4.5625 65.417969 4.667969 65.78125 4.792969 C 66.140625 4.921875 66.492188 5.070312 66.835938 5.242188 C 67.175781 5.417969 67.503906 5.609375 67.820312 5.824219 C 68.136719 6.039062 68.4375 6.277344 68.722656 6.53125 C 69.011719 6.785156 69.277344 7.054688 69.527344 7.34375 C 69.777344 7.632812 70.007812 7.9375 70.21875 8.257812 C 70.429688 8.574219 70.617188 8.90625 70.785156 9.25 C 70.953125 9.59375 71.097656 9.945312 71.21875 10.308594 C 71.339844 10.667969 71.4375 11.039062 71.511719 11.414062 C 71.585938 11.789062 71.632812 12.164062 71.65625 12.546875 C 71.679688 12.925781 71.679688 13.308594 71.65625 13.6875 C 71.628906 14.070312 71.578125 14.445312 71.503906 14.820312 C 71.429688 15.195312 71.328125 15.5625 71.207031 15.925781 C 71.082031 16.285156 70.9375 16.636719 70.769531 16.980469 C 70.601562 17.324219 70.410156 17.652344 70.199219 17.972656 C 69.984375 18.289062 69.753906 18.59375 69.503906 18.878906 C 69.25 19.167969 68.980469 19.4375 68.695312 19.691406 C 68.410156 19.945312 68.105469 20.179688 67.789062 20.390625 C 67.472656 20.605469 67.144531 20.796875 66.800781 20.96875 C 66.457031 21.140625 66.105469 21.289062 65.746094 21.414062 C 65.382812 21.539062 65.015625 21.644531 64.640625 21.71875 C 64.265625 21.796875 63.886719 21.851562 63.503906 21.882812 C 63.121094 21.910156 62.738281 21.914062 62.355469 21.894531 C 61.972656 21.875 61.59375 21.828125 61.21875 21.757812 C 60.839844 21.6875 60.472656 21.59375 60.105469 21.476562 C 59.742188 21.359375 59.386719 21.21875 59.039062 21.054688 C 58.695312 20.890625 58.359375 20.707031 58.039062 20.5 C 57.71875 20.292969 57.410156 20.066406 57.117188 19.820312 C 56.824219 19.574219 56.550781 19.308594 56.292969 19.027344 C 56.035156 18.742188 55.796875 18.445312 55.578125 18.132812 Z M 55.578125 18.132812 " fill-opacity="1" fill-rule="nonzero"/></g><path fill="#000000" d="M 52.765625 19.523438 L 52.515625 19.152344 C 52.449219 19.058594 52.394531 18.957031 52.355469 18.847656 C 52.5 19.078125 52.640625 19.304688 52.765625 19.523438 Z M 52.765625 19.523438 " fill-opacity="1" fill-rule="nonzero"/></svg>