<svg xmlns="http://www.w3.org/2000/svg" xmlns:xlink="http://www.w3.org/1999/xlink" width="100" zoomAndPan="magnify" viewBox="0 0 75 74.999997" height="100" preserveAspectRatio="xMidYMid meet" version="1.0"><path fill="#000000" d="M 49.597656 27.621094 C 49.292969 27.921875 48.929688 28.070312 48.503906 28.074219 C 48.1875 28.074219 47.898438 27.988281 47.632812 27.8125 C 47.367188 27.636719 47.175781 27.402344 47.050781 27.113281 C 46.929688 26.820312 46.898438 26.519531 46.957031 26.207031 C 47.015625 25.894531 47.15625 25.628906 47.378906 25.402344 C 48.164062 26.097656 48.902344 26.835938 49.597656 27.621094 Z M 49.597656 27.621094 " fill-opacity="1" fill-rule="nonzero"/><path fill="#000000" d="M 73.429688 0.0117188 L 52.6875 0.0117188 C 52.480469 0.0117188 52.28125 0.0507812 52.085938 0.128906 C 51.894531 0.210938 51.726562 0.324219 51.578125 0.46875 C 51.429688 0.617188 51.316406 0.789062 51.238281 0.980469 C 51.15625 1.171875 51.117188 1.375 51.117188 1.582031 C 51.117188 1.789062 51.15625 1.992188 51.238281 2.183594 C 51.316406 2.375 51.429688 2.546875 51.578125 2.691406 C 51.726562 2.839844 51.894531 2.953125 52.085938 3.035156 C 52.28125 3.113281 52.480469 3.152344 52.6875 3.152344 L 69.632812 3.152344 L 47.378906 25.402344 C 46.949219 25.019531 46.503906 24.652344 46.050781 24.296875 C 45.597656 23.941406 45.132812 23.601562 44.65625 23.277344 C 44.183594 22.953125 43.695312 22.644531 43.203125 22.351562 C 42.707031 22.058594 42.203125 21.78125 41.6875 21.523438 C 41.175781 21.261719 40.65625 21.019531 40.125 20.789062 C 39.597656 20.5625 39.0625 20.351562 38.519531 20.160156 C 37.976562 19.96875 37.429688 19.792969 36.875 19.636719 C 36.320312 19.476562 35.765625 19.335938 35.203125 19.214844 C 34.636719 19.09375 34.074219 18.992188 33.503906 18.90625 C 32.933594 18.820312 32.363281 18.753906 31.789062 18.703125 C 31.214844 18.65625 30.640625 18.625 30.066406 18.613281 C 29.492188 18.601562 28.914062 18.609375 28.339844 18.632812 C 27.765625 18.660156 27.191406 18.703125 26.621094 18.765625 C 26.046875 18.828125 25.476562 18.90625 24.910156 19.007812 C 24.34375 19.105469 23.78125 19.222656 23.222656 19.355469 C 22.660156 19.492188 22.105469 19.644531 21.558594 19.816406 C 21.007812 19.984375 20.464844 20.171875 19.925781 20.378906 C 19.386719 20.585938 18.859375 20.808594 18.335938 21.046875 C 17.8125 21.285156 17.296875 21.542969 16.789062 21.816406 C 16.28125 22.085938 15.785156 22.375 15.296875 22.679688 C 14.808594 22.984375 14.328125 23.304688 13.863281 23.640625 C 13.394531 23.976562 12.9375 24.324219 12.492188 24.691406 C 12.046875 25.054688 11.613281 25.433594 11.191406 25.824219 C 10.773438 26.21875 10.363281 26.625 9.96875 27.042969 C 9.574219 27.460938 9.191406 27.890625 8.824219 28.335938 C 8.457031 28.777344 8.105469 29.234375 7.769531 29.699219 C 7.429688 30.164062 7.105469 30.640625 6.800781 31.128906 C 6.492188 31.613281 6.199219 32.109375 5.925781 32.617188 C 5.648438 33.121094 5.390625 33.636719 5.148438 34.15625 C 4.90625 34.679688 4.679688 35.207031 4.472656 35.746094 C 4.261719 36.28125 4.070312 36.824219 3.898438 37.371094 C 3.722656 37.921875 3.566406 38.476562 3.429688 39.035156 C 3.292969 39.59375 3.171875 40.15625 3.070312 40.722656 C 2.96875 41.289062 2.882812 41.855469 2.820312 42.429688 C 2.753906 43 2.707031 43.574219 2.679688 44.148438 C 2.648438 44.722656 2.640625 45.300781 2.648438 45.875 C 2.65625 46.449219 2.683594 47.023438 2.730469 47.597656 C 2.773438 48.171875 2.835938 48.742188 2.917969 49.3125 C 3 49.882812 3.101562 50.449219 3.21875 51.011719 C 3.339844 51.574219 3.476562 52.136719 3.628906 52.691406 C 3.785156 53.242188 3.957031 53.792969 4.144531 54.335938 C 4.335938 54.878906 4.542969 55.417969 4.765625 55.945312 C 4.992188 56.476562 5.230469 57 5.488281 57.515625 C 5.746094 58.027344 6.019531 58.535156 6.3125 59.03125 C 6.601562 59.527344 6.90625 60.015625 7.230469 60.492188 C 7.550781 60.96875 7.886719 61.4375 8.238281 61.894531 C 8.589844 62.347656 8.957031 62.792969 9.335938 63.226562 C 9.714844 63.65625 10.109375 64.078125 10.515625 64.484375 C 10.921875 64.890625 11.34375 65.285156 11.773438 65.664062 C 12.207031 66.042969 12.652344 66.410156 13.105469 66.761719 C 13.5625 67.113281 14.03125 67.449219 14.507812 67.769531 C 14.984375 68.09375 15.472656 68.398438 15.96875 68.6875 C 16.464844 68.980469 16.972656 69.253906 17.484375 69.511719 C 18 69.769531 18.523438 70.007812 19.054688 70.234375 C 19.582031 70.457031 20.121094 70.664062 20.664062 70.855469 C 21.207031 71.042969 21.757812 71.214844 22.308594 71.371094 C 22.863281 71.523438 23.421875 71.660156 23.988281 71.78125 C 24.550781 71.898438 25.117188 72 25.6875 72.082031 C 26.257812 72.164062 26.828125 72.226562 27.402344 72.269531 C 27.976562 72.316406 28.550781 72.34375 29.125 72.351562 C 29.699219 72.359375 30.277344 72.351562 30.851562 72.320312 C 31.425781 72.292969 32 72.246094 32.570312 72.179688 C 33.144531 72.117188 33.710938 72.03125 34.277344 71.929688 C 34.84375 71.828125 35.40625 71.707031 35.964844 71.570312 C 36.523438 71.433594 37.078125 71.277344 37.628906 71.101562 C 38.175781 70.929688 38.71875 70.738281 39.253906 70.527344 C 39.792969 70.320312 40.320312 70.09375 40.84375 69.851562 C 41.363281 69.609375 41.878906 69.351562 42.382812 69.074219 C 42.890625 68.800781 43.386719 68.507812 43.871094 68.199219 C 44.359375 67.894531 44.835938 67.570312 45.300781 67.230469 C 45.765625 66.894531 46.222656 66.542969 46.664062 66.175781 C 47.105469 65.808594 47.539062 65.425781 47.957031 65.03125 C 48.375 64.636719 48.78125 64.226562 49.171875 63.808594 C 49.566406 63.386719 49.945312 62.953125 50.308594 62.507812 C 50.675781 62.0625 51.023438 61.605469 51.359375 61.136719 C 51.695312 60.671875 52.015625 60.191406 52.320312 59.703125 C 52.625 59.214844 52.914062 58.71875 53.183594 58.210938 C 53.457031 57.703125 53.714844 57.1875 53.953125 56.664062 C 54.191406 56.140625 54.414062 55.613281 54.621094 55.074219 C 54.828125 54.535156 55.015625 53.992188 55.183594 53.441406 C 55.355469 52.894531 55.507812 52.339844 55.644531 51.777344 C 55.777344 51.21875 55.894531 50.65625 55.992188 50.089844 C 56.09375 49.523438 56.171875 48.953125 56.234375 48.378906 C 56.296875 47.808594 56.339844 47.234375 56.367188 46.660156 C 56.390625 46.085938 56.398438 45.507812 56.386719 44.933594 C 56.375 44.359375 56.34375 43.785156 56.296875 43.210938 C 56.246094 42.636719 56.179688 42.066406 56.09375 41.496094 C 56.007812 40.925781 55.90625 40.363281 55.785156 39.796875 C 55.660156 39.234375 55.523438 38.679688 55.363281 38.125 C 55.207031 37.570312 55.03125 37.023438 54.839844 36.480469 C 54.648438 35.9375 54.4375 35.402344 54.210938 34.875 C 53.980469 34.34375 53.738281 33.824219 53.476562 33.3125 C 53.21875 32.796875 52.941406 32.292969 52.648438 31.796875 C 52.355469 31.304688 52.046875 30.816406 51.722656 30.34375 C 51.398438 29.867188 51.058594 29.402344 50.703125 28.949219 C 50.347656 28.496094 49.980469 28.050781 49.597656 27.621094 L 71.859375 5.382812 L 71.859375 22.320312 C 71.859375 22.53125 71.898438 22.730469 71.976562 22.921875 C 72.058594 23.117188 72.171875 23.285156 72.316406 23.433594 C 72.464844 23.582031 72.636719 23.695312 72.828125 23.773438 C 73.019531 23.851562 73.21875 23.894531 73.429688 23.894531 C 73.636719 23.894531 73.835938 23.851562 74.03125 23.773438 C 74.222656 23.695312 74.390625 23.582031 74.539062 23.433594 C 74.6875 23.285156 74.800781 23.117188 74.878906 22.921875 C 74.960938 22.730469 75 22.53125 75 22.320312 L 75 1.582031 C 75 1.375 74.960938 1.171875 74.878906 0.980469 C 74.800781 0.789062 74.6875 0.617188 74.539062 0.46875 C 74.390625 0.324219 74.222656 0.210938 74.03125 0.128906 C 73.835938 0.0507812 73.636719 0.0117188 73.429688 0.0117188 Z M 53.234375 45.441406 C 53.234375 46.214844 53.195312 46.988281 53.117188 47.761719 C 53.039062 48.53125 52.925781 49.296875 52.773438 50.058594 C 52.621094 50.820312 52.433594 51.570312 52.207031 52.3125 C 51.980469 53.054688 51.71875 53.785156 51.421875 54.5 C 51.125 55.214844 50.792969 55.917969 50.429688 56.601562 C 50.0625 57.285156 49.664062 57.949219 49.230469 58.59375 C 48.800781 59.238281 48.339844 59.859375 47.847656 60.457031 C 47.351562 61.058594 46.832031 61.628906 46.285156 62.179688 C 45.734375 62.726562 45.160156 63.246094 44.5625 63.738281 C 43.960938 64.230469 43.339844 64.691406 42.695312 65.121094 C 42.046875 65.550781 41.382812 65.949219 40.699219 66.3125 C 40.015625 66.679688 39.316406 67.007812 38.597656 67.304688 C 37.882812 67.601562 37.152344 67.863281 36.410156 68.085938 C 35.667969 68.3125 34.917969 68.5 34.15625 68.652344 C 33.394531 68.800781 32.628906 68.914062 31.855469 68.988281 C 31.085938 69.066406 30.3125 69.101562 29.535156 69.101562 C 28.761719 69.101562 27.988281 69.0625 27.214844 68.988281 C 26.441406 68.910156 25.675781 68.796875 24.917969 68.644531 C 24.15625 68.492188 23.40625 68.304688 22.664062 68.078125 C 21.921875 67.855469 21.191406 67.59375 20.476562 67.296875 C 19.757812 66.996094 19.058594 66.667969 18.375 66.300781 C 17.691406 65.933594 17.027344 65.535156 16.382812 65.105469 C 15.738281 64.671875 15.117188 64.210938 14.515625 63.71875 C 13.917969 63.226562 13.34375 62.707031 12.796875 62.160156 C 12.246094 61.609375 11.726562 61.035156 11.234375 60.4375 C 10.742188 59.835938 10.28125 59.214844 9.851562 58.570312 C 9.421875 57.925781 9.023438 57.257812 8.65625 56.574219 C 8.292969 55.890625 7.960938 55.191406 7.664062 54.472656 C 7.367188 53.757812 7.109375 53.027344 6.882812 52.285156 C 6.660156 51.542969 6.46875 50.792969 6.320312 50.03125 C 6.167969 49.269531 6.054688 48.503906 5.980469 47.734375 C 5.902344 46.960938 5.867188 46.1875 5.867188 45.410156 C 5.867188 44.636719 5.90625 43.863281 5.980469 43.089844 C 6.058594 42.320312 6.171875 41.554688 6.320312 40.792969 C 6.472656 40.03125 6.660156 39.28125 6.886719 38.539062 C 7.113281 37.796875 7.375 37.066406 7.671875 36.351562 C 7.96875 35.632812 8.300781 34.933594 8.664062 34.25 C 9.03125 33.566406 9.429688 32.902344 9.859375 32.257812 C 10.289062 31.613281 10.753906 30.992188 11.246094 30.390625 C 11.738281 29.792969 12.257812 29.21875 12.804688 28.667969 C 13.355469 28.121094 13.925781 27.601562 14.527344 27.109375 C 15.125 26.617188 15.75 26.15625 16.394531 25.726562 C 17.039062 25.292969 17.703125 24.894531 18.386719 24.53125 C 19.070312 24.164062 19.769531 23.835938 20.488281 23.539062 C 21.203125 23.242188 21.933594 22.980469 22.675781 22.753906 C 23.417969 22.53125 24.167969 22.339844 24.929688 22.191406 C 25.691406 22.039062 26.457031 21.925781 27.230469 21.847656 C 28 21.773438 28.773438 21.734375 29.550781 21.734375 C 30.324219 21.738281 31.097656 21.773438 31.871094 21.851562 C 32.644531 21.929688 33.410156 22.042969 34.171875 22.195312 C 34.929688 22.347656 35.683594 22.539062 36.425781 22.761719 C 37.167969 22.988281 37.894531 23.25 38.613281 23.546875 C 39.328125 23.847656 40.03125 24.179688 40.714844 24.542969 C 41.398438 24.910156 42.0625 25.308594 42.707031 25.742188 C 43.351562 26.171875 43.972656 26.632812 44.574219 27.125 C 45.171875 27.621094 45.746094 28.140625 46.292969 28.6875 C 46.84375 29.238281 47.363281 29.8125 47.855469 30.410156 C 48.347656 31.011719 48.808594 31.632812 49.238281 32.28125 C 49.671875 32.925781 50.070312 33.589844 50.433594 34.273438 C 50.800781 34.957031 51.132812 35.660156 51.429688 36.375 C 51.726562 37.09375 51.984375 37.820312 52.210938 38.5625 C 52.4375 39.304688 52.625 40.058594 52.777344 40.820312 C 52.929688 41.578125 53.042969 42.347656 53.117188 43.117188 C 53.195312 43.890625 53.234375 44.664062 53.234375 45.441406 Z M 53.234375 45.441406 " fill-opacity="1" fill-rule="nonzero"/></svg>