<svg xmlns="http://www.w3.org/2000/svg" xmlns:xlink="http://www.w3.org/1999/xlink" width="100" zoomAndPan="magnify" viewBox="0 0 75 74.999997" height="100" preserveAspectRatio="xMidYMid meet" version="1.0"><path fill="#000000" d="M 63.835938 0.601562 C 63.691406 0.457031 63.527344 0.347656 63.339844 0.269531 C 63.152344 0.191406 62.957031 0.152344 62.753906 0.152344 C 62.550781 0.152344 62.355469 0.191406 62.167969 0.269531 C 61.980469 0.347656 61.816406 0.457031 61.675781 0.601562 L 53.886719 8.402344 C 52.738281 7.449219 51.519531 6.605469 50.226562 5.863281 C 48.933594 5.125 47.585938 4.503906 46.1875 3.996094 C 44.785156 3.492188 43.351562 3.109375 41.886719 2.855469 C 40.417969 2.597656 38.941406 2.46875 37.453125 2.46875 C 35.964844 2.46875 34.488281 2.597656 33.019531 2.855469 C 31.554688 3.109375 30.121094 3.492188 28.71875 3.996094 C 27.320312 4.503906 25.972656 5.125 24.679688 5.863281 C 23.386719 6.605469 22.167969 7.449219 21.019531 8.402344 L 13.230469 0.601562 C 13.089844 0.457031 12.925781 0.347656 12.738281 0.269531 C 12.550781 0.191406 12.355469 0.152344 12.152344 0.152344 C 11.953125 0.152344 11.757812 0.191406 11.570312 0.269531 C 11.382812 0.34375 11.21875 0.457031 11.074219 0.597656 C 10.933594 0.742188 10.820312 0.90625 10.742188 1.09375 C 10.664062 1.28125 10.628906 1.476562 10.625 1.679688 C 10.625 1.882812 10.664062 2.074219 10.742188 2.261719 C 10.820312 2.449219 10.929688 2.617188 11.070312 2.757812 L 18.789062 10.484375 C 17.941406 11.371094 17.160156 12.3125 16.449219 13.308594 C 15.738281 14.308594 15.097656 15.351562 14.535156 16.441406 C 13.96875 17.53125 13.484375 18.652344 13.082031 19.8125 C 12.675781 20.96875 12.355469 22.148438 12.121094 23.355469 C 11.882812 24.558594 11.734375 25.773438 11.671875 26.996094 C 11.609375 28.222656 11.632812 29.445312 11.742188 30.667969 C 11.851562 31.890625 12.046875 33.097656 12.332031 34.292969 C 12.613281 35.484375 12.976562 36.652344 13.425781 37.792969 C 13.875 38.9375 14.402344 40.039062 15.007812 41.105469 C 15.613281 42.171875 16.289062 43.191406 17.039062 44.160156 C 17.792969 45.128906 18.605469 46.042969 19.484375 46.894531 C 20.367188 47.75 21.300781 48.535156 22.292969 49.253906 C 23.285156 49.976562 24.324219 50.621094 25.40625 51.191406 C 26.492188 51.765625 27.609375 52.253906 28.761719 52.667969 C 29.917969 53.078125 31.09375 53.40625 32.292969 53.652344 C 33.492188 53.894531 34.707031 54.054688 35.929688 54.125 L 35.929688 64.433594 L 25.605469 64.433594 C 25.402344 64.433594 25.207031 64.472656 25.019531 64.550781 C 24.835938 64.628906 24.667969 64.738281 24.527344 64.882812 C 24.382812 65.027344 24.273438 65.191406 24.195312 65.378906 C 24.117188 65.566406 24.078125 65.757812 24.078125 65.960938 C 24.078125 66.164062 24.117188 66.359375 24.195312 66.546875 C 24.273438 66.734375 24.382812 66.898438 24.527344 67.042969 C 24.667969 67.1875 24.835938 67.296875 25.019531 67.375 C 25.207031 67.449219 25.402344 67.488281 25.605469 67.488281 L 35.929688 67.488281 L 35.929688 73.472656 C 35.929688 73.675781 35.96875 73.871094 36.042969 74.058594 C 36.121094 74.246094 36.230469 74.410156 36.375 74.550781 C 36.519531 74.695312 36.683594 74.804688 36.871094 74.882812 C 37.054688 74.960938 37.25 75 37.453125 75 C 37.65625 75 37.851562 74.960938 38.035156 74.882812 C 38.222656 74.804688 38.386719 74.695312 38.53125 74.550781 C 38.675781 74.410156 38.785156 74.246094 38.863281 74.058594 C 38.9375 73.871094 38.976562 73.675781 38.976562 73.472656 L 38.976562 67.472656 L 49.300781 67.472656 C 49.503906 67.472656 49.699219 67.4375 49.886719 67.359375 C 50.070312 67.28125 50.238281 67.171875 50.378906 67.027344 C 50.523438 66.882812 50.632812 66.71875 50.710938 66.53125 C 50.789062 66.34375 50.828125 66.148438 50.828125 65.945312 C 50.828125 65.746094 50.789062 65.550781 50.710938 65.363281 C 50.632812 65.175781 50.523438 65.011719 50.378906 64.867188 C 50.238281 64.722656 50.070312 64.613281 49.886719 64.535156 C 49.699219 64.457031 49.503906 64.417969 49.300781 64.417969 L 38.976562 64.417969 L 38.976562 54.125 C 40.199219 54.050781 41.410156 53.894531 42.609375 53.648438 C 43.808594 53.40625 44.984375 53.078125 46.136719 52.664062 C 47.292969 52.253906 48.410156 51.761719 49.492188 51.1875 C 50.574219 50.617188 51.613281 49.972656 52.601562 49.253906 C 53.59375 48.53125 54.53125 47.746094 55.410156 46.894531 C 56.289062 46.039062 57.101562 45.128906 57.851562 44.160156 C 58.601562 43.191406 59.28125 42.171875 59.882812 41.109375 C 60.488281 40.042969 61.015625 38.9375 61.464844 37.796875 C 61.914062 36.65625 62.277344 35.488281 62.5625 34.296875 C 62.84375 33.105469 63.039062 31.898438 63.152344 30.675781 C 63.261719 29.453125 63.285156 28.230469 63.222656 27.007812 C 63.160156 25.78125 63.007812 24.570312 62.773438 23.367188 C 62.539062 22.164062 62.21875 20.980469 61.816406 19.824219 C 61.410156 18.667969 60.929688 17.542969 60.367188 16.457031 C 59.800781 15.367188 59.164062 14.324219 58.453125 13.324219 C 57.742188 12.328125 56.964844 11.386719 56.117188 10.5 L 63.835938 2.757812 C 63.976562 2.617188 64.085938 2.453125 64.164062 2.265625 C 64.242188 2.078125 64.28125 1.882812 64.28125 1.679688 C 64.28125 1.476562 64.242188 1.28125 64.164062 1.097656 C 64.085938 0.910156 63.976562 0.742188 63.835938 0.601562 Z M 60.203125 28.316406 C 60.203125 29.0625 60.167969 29.804688 60.09375 30.546875 C 60.023438 31.292969 59.914062 32.027344 59.769531 32.761719 C 59.621094 33.492188 59.441406 34.214844 59.226562 34.929688 C 59.007812 35.644531 58.757812 36.347656 58.472656 37.035156 C 58.1875 37.726562 57.871094 38.398438 57.519531 39.058594 C 57.167969 39.714844 56.785156 40.355469 56.371094 40.976562 C 55.957031 41.597656 55.511719 42.195312 55.039062 42.773438 C 54.566406 43.347656 54.066406 43.902344 53.542969 44.429688 C 53.015625 44.957031 52.460938 45.457031 51.886719 45.933594 C 51.3125 46.40625 50.714844 46.847656 50.09375 47.265625 C 49.472656 47.679688 48.835938 48.0625 48.179688 48.414062 C 47.519531 48.765625 46.847656 49.085938 46.160156 49.371094 C 45.472656 49.65625 44.769531 49.90625 44.058594 50.125 C 43.34375 50.339844 42.621094 50.519531 41.890625 50.667969 C 41.160156 50.8125 40.425781 50.921875 39.683594 50.996094 C 38.941406 51.066406 38.199219 51.105469 37.453125 51.105469 C 36.707031 51.105469 35.964844 51.066406 35.222656 50.996094 C 34.480469 50.921875 33.746094 50.8125 33.015625 50.667969 C 32.285156 50.519531 31.5625 50.339844 30.847656 50.125 C 30.136719 49.90625 29.433594 49.65625 28.746094 49.371094 C 28.058594 49.085938 27.386719 48.765625 26.726562 48.414062 C 26.070312 48.0625 25.433594 47.679688 24.8125 47.265625 C 24.191406 46.847656 23.59375 46.40625 23.019531 45.933594 C 22.445312 45.457031 21.890625 44.957031 21.363281 44.429688 C 20.839844 43.902344 20.339844 43.347656 19.867188 42.773438 C 19.394531 42.195312 18.949219 41.597656 18.535156 40.976562 C 18.121094 40.355469 17.738281 39.714844 17.386719 39.058594 C 17.035156 38.398438 16.71875 37.726562 16.433594 37.035156 C 16.148438 36.347656 15.898438 35.644531 15.679688 34.929688 C 15.464844 34.214844 15.285156 33.492188 15.136719 32.761719 C 14.992188 32.027344 14.882812 31.292969 14.8125 30.546875 C 14.738281 29.804688 14.703125 29.0625 14.703125 28.316406 C 14.703125 27.566406 14.738281 26.824219 14.8125 26.082031 C 14.882812 25.339844 14.992188 24.601562 15.136719 23.867188 C 15.285156 23.136719 15.464844 22.414062 15.679688 21.699219 C 15.898438 20.984375 16.148438 20.28125 16.433594 19.59375 C 16.71875 18.902344 17.035156 18.230469 17.386719 17.570312 C 17.738281 16.914062 18.121094 16.273438 18.535156 15.652344 C 18.949219 15.03125 19.394531 14.433594 19.867188 13.855469 C 20.339844 13.28125 20.839844 12.726562 21.363281 12.199219 C 21.890625 11.671875 22.445312 11.171875 23.019531 10.699219 C 23.59375 10.222656 24.191406 9.78125 24.8125 9.367188 C 25.433594 8.949219 26.070312 8.566406 26.726562 8.214844 C 27.386719 7.863281 28.058594 7.542969 28.746094 7.257812 C 29.433594 6.972656 30.136719 6.722656 30.847656 6.503906 C 31.5625 6.289062 32.285156 6.109375 33.015625 5.960938 C 33.746094 5.816406 34.480469 5.707031 35.222656 5.632812 C 35.964844 5.5625 36.707031 5.523438 37.453125 5.523438 C 38.199219 5.523438 38.941406 5.5625 39.683594 5.636719 C 40.425781 5.710938 41.160156 5.820312 41.890625 5.964844 C 42.621094 6.113281 43.34375 6.292969 44.054688 6.511719 C 44.769531 6.726562 45.46875 6.980469 46.15625 7.265625 C 46.84375 7.550781 47.515625 7.871094 48.175781 8.222656 C 48.832031 8.574219 49.46875 8.957031 50.089844 9.371094 C 50.707031 9.785156 51.304688 10.230469 51.882812 10.703125 C 52.457031 11.175781 53.007812 11.679688 53.535156 12.207031 C 54.0625 12.734375 54.5625 13.285156 55.035156 13.863281 C 55.507812 14.4375 55.949219 15.039062 56.363281 15.65625 C 56.777344 16.277344 57.160156 16.917969 57.511719 17.574219 C 57.863281 18.234375 58.183594 18.90625 58.46875 19.597656 C 58.753906 20.285156 59.003906 20.988281 59.21875 21.703125 C 59.4375 22.414062 59.617188 23.136719 59.765625 23.871094 C 59.910156 24.601562 60.019531 25.339844 60.09375 26.082031 C 60.167969 26.824219 60.203125 27.570312 60.203125 28.316406 Z M 60.203125 28.316406 " fill-opacity="1" fill-rule="nonzero"/></svg>