<svg xmlns="http://www.w3.org/2000/svg" xmlns:xlink="http://www.w3.org/1999/xlink" width="100" zoomAndPan="magnify" viewBox="0 0 75 74.999997" height="100" preserveAspectRatio="xMidYMid meet" version="1.0"><defs><clipPath id="9b23769a84"><path d="M 14 2 L 63.75 2 L 63.75 75 L 14 75 Z M 14 2 " clip-rule="nonzero"/></clipPath></defs><g clip-path="url(#9b23769a84)"><path fill="#000000" d="M 50.191406 75 C 48.875 75 47.5625 74.925781 46.253906 74.78125 C 44.945312 74.636719 43.648438 74.421875 42.363281 74.136719 C 41.078125 73.847656 39.8125 73.492188 38.566406 73.070312 C 37.320312 72.644531 36.101562 72.152344 34.910156 71.597656 C 33.71875 71.039062 32.558594 70.417969 31.4375 69.734375 C 30.3125 69.046875 29.226562 68.304688 28.183594 67.5 C 27.140625 66.699219 26.144531 65.839844 25.195312 64.929688 C 24.246094 64.015625 23.351562 63.054688 22.507812 62.046875 C 21.664062 61.035156 20.875 59.984375 20.144531 58.886719 C 19.417969 57.792969 18.75 56.660156 18.144531 55.492188 C 17.539062 54.324219 17 53.125 16.523438 51.894531 C 16.050781 50.667969 15.644531 49.417969 15.308594 48.144531 C 14.96875 46.875 14.703125 45.585938 14.503906 44.285156 C 14.308594 42.984375 14.183594 41.675781 14.128906 40.359375 C 14.074219 39.046875 14.09375 37.730469 14.183594 36.417969 C 14.273438 35.105469 14.433594 33.800781 14.664062 32.503906 C 14.898438 31.210938 15.199219 29.929688 15.574219 28.667969 C 15.945312 27.40625 16.382812 26.167969 16.890625 24.953125 C 17.398438 23.738281 17.972656 22.554688 18.609375 21.402344 C 19.246094 20.25 19.945312 19.136719 20.703125 18.0625 C 21.460938 16.984375 22.277344 15.953125 23.148438 14.96875 C 24.019531 13.980469 24.941406 13.046875 25.914062 12.160156 C 26.886719 11.273438 27.90625 10.445312 28.972656 9.671875 C 30.035156 8.894531 31.140625 8.183594 32.28125 7.527344 C 33.425781 6.875 34.601562 6.285156 35.808594 5.761719 C 37.015625 5.234375 38.246094 4.777344 39.503906 4.386719 C 40.757812 3.996094 42.035156 3.675781 43.328125 3.425781 C 44.617188 3.171875 45.921875 2.992188 47.230469 2.882812 C 48.542969 2.777344 49.859375 2.738281 51.171875 2.773438 C 52.488281 2.808594 53.800781 2.914062 55.101562 3.09375 C 56.40625 3.269531 57.699219 3.519531 58.976562 3.839844 C 60.25 4.15625 61.507812 4.546875 62.742188 5 C 63.011719 5.101562 63.230469 5.269531 63.398438 5.507812 C 63.5625 5.746094 63.644531 6.007812 63.644531 6.296875 C 63.644531 6.585938 63.5625 6.847656 63.398438 7.085938 C 63.230469 7.324219 63.011719 7.492188 62.742188 7.59375 C 61.152344 8.179688 59.621094 8.886719 58.140625 9.707031 C 56.660156 10.53125 55.25 11.460938 53.910156 12.496094 C 52.570312 13.535156 51.316406 14.667969 50.148438 15.894531 C 48.984375 17.121094 47.917969 18.429688 46.949219 19.820312 C 45.980469 21.210938 45.125 22.667969 44.378906 24.1875 C 43.632812 25.707031 43.007812 27.277344 42.5 28.894531 C 41.992188 30.507812 41.613281 32.152344 41.355469 33.828125 C 41.097656 35.503906 40.96875 37.1875 40.96875 38.878906 C 40.96875 40.574219 41.097656 42.257812 41.355469 43.933594 C 41.613281 45.605469 41.992188 47.25 42.5 48.867188 C 43.007812 50.484375 43.632812 52.050781 44.378906 53.574219 C 45.125 55.09375 45.980469 56.550781 46.949219 57.9375 C 47.917969 59.328125 48.984375 60.636719 50.148438 61.867188 C 51.316406 63.09375 52.570312 64.226562 53.910156 65.261719 C 55.25 66.300781 56.660156 67.230469 58.140625 68.050781 C 59.621094 68.875 61.152344 69.582031 62.742188 70.167969 C 63.011719 70.269531 63.230469 70.4375 63.398438 70.675781 C 63.5625 70.910156 63.644531 71.175781 63.644531 71.464844 C 63.644531 71.753906 63.5625 72.015625 63.398438 72.253906 C 63.230469 72.492188 63.011719 72.660156 62.742188 72.757812 C 58.691406 74.257812 54.507812 75.007812 50.191406 75 Z M 50.191406 5.519531 C 49.011719 5.523438 47.839844 5.585938 46.667969 5.710938 C 45.5 5.835938 44.335938 6.023438 43.1875 6.273438 C 42.035156 6.523438 40.902344 6.832031 39.785156 7.199219 C 38.667969 7.566406 37.570312 7.996094 36.496094 8.480469 C 35.425781 8.964844 34.378906 9.503906 33.363281 10.097656 C 32.347656 10.695312 31.367188 11.339844 30.421875 12.039062 C 29.472656 12.738281 28.566406 13.484375 27.699219 14.28125 C 26.828125 15.074219 26.007812 15.914062 25.226562 16.796875 C 24.449219 17.679688 23.71875 18.601562 23.035156 19.558594 C 22.351562 20.519531 21.722656 21.511719 21.148438 22.539062 C 20.570312 23.566406 20.050781 24.617188 19.585938 25.699219 C 19.121094 26.78125 18.710938 27.882812 18.363281 29.007812 C 18.015625 30.132812 17.726562 31.273438 17.5 32.429688 C 17.273438 33.582031 17.105469 34.746094 17.003906 35.917969 C 16.898438 37.09375 16.855469 38.265625 16.875 39.445312 C 16.894531 40.621094 16.976562 41.792969 17.121094 42.960938 C 17.265625 44.128906 17.46875 45.289062 17.738281 46.433594 C 18.003906 47.582031 18.328125 48.710938 18.714844 49.820312 C 19.101562 50.933594 19.546875 52.023438 20.046875 53.089844 C 20.546875 54.152344 21.105469 55.1875 21.714844 56.195312 C 22.328125 57.199219 22.988281 58.171875 23.703125 59.109375 C 24.417969 60.042969 25.179688 60.941406 25.988281 61.796875 C 26.796875 62.652344 27.648438 63.460938 28.542969 64.226562 C 29.4375 64.992188 30.367188 65.707031 31.339844 66.375 C 32.308594 67.042969 33.3125 67.65625 34.347656 68.214844 C 35.382812 68.777344 36.445312 69.28125 37.53125 69.726562 C 38.621094 70.175781 39.730469 70.566406 40.859375 70.894531 C 41.988281 71.226562 43.132812 71.496094 44.292969 71.707031 C 45.449219 71.917969 46.617188 72.0625 47.789062 72.148438 C 48.964844 72.234375 50.140625 72.261719 51.316406 72.222656 C 52.492188 72.183594 53.664062 72.082031 54.832031 71.921875 C 55.996094 71.757812 57.152344 71.535156 58.292969 71.25 C 56.792969 70.507812 55.351562 69.664062 53.96875 68.71875 C 52.585938 67.773438 51.273438 66.738281 50.035156 65.613281 C 48.796875 64.484375 47.640625 63.277344 46.570312 61.992188 C 45.5 60.703125 44.523438 59.351562 43.640625 57.925781 C 42.757812 56.503906 41.976562 55.027344 41.300781 53.496094 C 40.621094 51.964844 40.054688 50.394531 39.59375 48.78125 C 39.136719 47.171875 38.789062 45.539062 38.558594 43.878906 C 38.328125 42.222656 38.210938 40.554688 38.210938 38.878906 C 38.210938 37.207031 38.328125 35.539062 38.558594 33.882812 C 38.789062 32.222656 39.136719 30.589844 39.59375 28.976562 C 40.054688 27.367188 40.621094 25.796875 41.300781 24.265625 C 41.976562 22.734375 42.757812 21.257812 43.640625 19.832031 C 44.523438 18.410156 45.5 17.054688 46.570312 15.769531 C 47.640625 14.480469 48.796875 13.273438 50.035156 12.148438 C 51.273438 11.023438 52.585938 9.988281 53.96875 9.042969 C 55.351562 8.097656 56.792969 7.253906 58.292969 6.511719 C 55.632812 5.847656 52.933594 5.519531 50.191406 5.519531 Z M 50.191406 5.519531 " fill-opacity="1" fill-rule="nonzero"/></g></svg>