<svg xmlns="http://www.w3.org/2000/svg" xmlns:xlink="http://www.w3.org/1999/xlink" width="100" zoomAndPan="magnify" viewBox="0 0 75 74.999997" height="100" preserveAspectRatio="xMidYMid meet" version="1.0"><defs><clipPath id="3dae5ebb7d"><path d="M 1 0 L 74.484375 0 L 74.484375 74 L 1 74 Z M 1 0 " clip-rule="nonzero"/></clipPath></defs><g clip-path="url(#3dae5ebb7d)"><path fill="#000000" d="M 62.582031 50.046875 C 61.539062 50.050781 60.515625 50.1875 59.511719 50.460938 C 64.957031 40.546875 70.410156 24.617188 65.289062 13.292969 C 61.324219 4.558594 52.070312 0.132812 37.832031 0.132812 C 23.988281 0.132812 14.878906 4.078125 10.753906 11.859375 C 7.550781 17.933594 7.492188 26.078125 10.621094 36.050781 C 12.238281 41.085938 14.316406 45.917969 16.859375 50.550781 C 16.421875 50.417969 15.980469 50.3125 15.53125 50.230469 C 15.082031 50.148438 14.632812 50.09375 14.175781 50.0625 C 13.722656 50.03125 13.265625 50.027344 12.808594 50.050781 C 12.355469 50.074219 11.902344 50.125 11.453125 50.199219 C 11.003906 50.273438 10.558594 50.375 10.121094 50.5 C 9.679688 50.628906 9.25 50.777344 8.832031 50.953125 C 8.410156 51.128906 8 51.328125 7.601562 51.554688 C 7.203125 51.777344 6.820312 52.023438 6.449219 52.289062 C 6.078125 52.558594 5.726562 52.84375 5.386719 53.152344 C 5.050781 53.460938 4.730469 53.789062 4.433594 54.132812 C 4.132812 54.476562 3.851562 54.839844 3.59375 55.21875 C 3.335938 55.59375 3.101562 55.984375 2.886719 56.390625 C 2.671875 56.792969 2.484375 57.210938 2.316406 57.636719 C 2.152344 58.0625 2.011719 58.496094 1.894531 58.941406 C 1.777344 59.382812 1.6875 59.832031 1.621094 60.285156 C 1.558594 60.738281 1.519531 61.191406 1.507812 61.648438 C 1.492188 62.109375 1.507812 62.566406 1.546875 63.019531 C 1.585938 63.476562 1.652344 63.929688 1.742188 64.378906 C 1.832031 64.828125 1.949219 65.269531 2.09375 65.703125 C 2.234375 66.136719 2.402344 66.5625 2.589844 66.980469 C 2.78125 67.394531 2.996094 67.800781 3.234375 68.191406 C 3.46875 68.582031 3.726562 68.957031 4.007812 69.320312 C 4.289062 69.679688 4.589844 70.023438 4.90625 70.351562 C 5.226562 70.679688 5.5625 70.984375 5.917969 71.273438 C 6.273438 71.5625 6.644531 71.828125 7.027344 72.074219 C 7.414062 72.320312 7.8125 72.542969 8.222656 72.742188 C 8.632812 72.941406 9.054688 73.113281 9.484375 73.265625 C 9.914062 73.417969 10.351562 73.542969 10.796875 73.640625 C 11.242188 73.742188 11.691406 73.816406 12.144531 73.867188 C 12.597656 73.914062 13.054688 73.9375 13.511719 73.933594 C 13.964844 73.929688 14.421875 73.898438 14.875 73.839844 C 15.324219 73.785156 15.773438 73.703125 16.21875 73.59375 C 16.660156 73.484375 17.097656 73.351562 17.523438 73.195312 C 17.953125 73.035156 18.367188 72.851562 18.777344 72.644531 C 19.183594 72.441406 19.578125 72.210938 19.957031 71.957031 C 20.339844 71.707031 20.703125 71.433594 21.054688 71.136719 C 21.402344 70.84375 21.734375 70.53125 22.046875 70.199219 C 22.359375 69.867188 22.65625 69.515625 22.929688 69.148438 C 23.203125 68.785156 23.453125 68.402344 23.683594 68.007812 C 23.914062 67.613281 24.121094 67.203125 24.304688 66.785156 C 24.488281 66.367188 24.644531 65.9375 24.78125 65.5 C 24.914062 65.0625 25.023438 64.617188 25.105469 64.167969 C 25.1875 63.71875 25.246094 63.265625 25.277344 62.808594 C 25.308594 62.351562 25.316406 61.894531 25.292969 61.4375 C 25.273438 60.980469 25.226562 60.523438 25.152344 60.074219 C 25.078125 59.621094 24.980469 59.175781 24.855469 58.734375 C 24.734375 58.292969 24.585938 57.863281 24.410156 57.4375 C 24.238281 57.015625 24.039062 56.601562 23.820312 56.203125 C 23.695312 55.972656 23.558594 55.746094 23.414062 55.523438 L 23.246094 55.273438 C 16.457031 44.972656 7.179688 25.1875 13.46875 13.308594 C 17.011719 6.628906 25.210938 3.214844 37.832031 3.214844 C 50.777344 3.214844 59.070312 7.03125 62.472656 14.566406 C 68.5625 28.027344 57.546875 49.746094 52.328125 55.730469 C 52.09375 55.996094 51.96875 56.308594 51.953125 56.664062 C 51.117188 58.332031 50.699219 60.101562 50.703125 61.96875 C 50.703125 62.753906 50.78125 63.527344 50.933594 64.296875 C 51.085938 65.0625 51.3125 65.808594 51.609375 66.53125 C 51.90625 67.257812 52.273438 67.941406 52.707031 68.59375 C 53.140625 69.246094 53.632812 69.847656 54.183594 70.402344 C 54.734375 70.953125 55.335938 71.449219 55.984375 71.882812 C 56.632812 72.316406 57.316406 72.683594 58.035156 72.984375 C 58.757812 73.285156 59.5 73.511719 60.265625 73.664062 C 61.03125 73.816406 61.800781 73.890625 62.582031 73.890625 C 63.363281 73.890625 64.132812 73.816406 64.898438 73.664062 C 65.664062 73.511719 66.40625 73.285156 67.125 72.984375 C 67.847656 72.683594 68.53125 72.316406 69.179688 71.882812 C 69.828125 71.449219 70.429688 70.953125 70.980469 70.402344 C 71.53125 69.847656 72.023438 69.246094 72.457031 68.59375 C 72.890625 67.941406 73.257812 67.257812 73.554688 66.53125 C 73.851562 65.808594 74.078125 65.0625 74.230469 64.296875 C 74.382812 63.527344 74.457031 62.753906 74.457031 61.96875 C 74.457031 61.1875 74.382812 60.414062 74.230469 59.644531 C 74.078125 58.875 73.851562 58.132812 73.554688 57.40625 C 73.257812 56.683594 72.890625 55.996094 72.457031 55.347656 C 72.023438 54.695312 71.53125 54.09375 70.980469 53.539062 C 70.429688 52.988281 69.828125 52.492188 69.179688 52.058594 C 68.53125 51.621094 67.847656 51.253906 67.125 50.957031 C 66.40625 50.65625 65.664062 50.429688 64.898438 50.277344 C 64.132812 50.125 63.363281 50.046875 62.582031 50.046875 Z M 20.621094 56.90625 L 20.652344 56.957031 C 20.722656 57.054688 20.789062 57.152344 20.851562 57.253906 C 20.863281 57.269531 20.871094 57.28125 20.878906 57.296875 C 21.078125 57.621094 21.257812 57.957031 21.414062 58.304688 C 21.570312 58.652344 21.703125 59.007812 21.816406 59.375 C 21.925781 59.738281 22.011719 60.109375 22.074219 60.488281 C 22.140625 60.863281 22.175781 61.242188 22.191406 61.625 C 22.203125 62.007812 22.195312 62.386719 22.160156 62.765625 C 22.121094 63.148438 22.0625 63.523438 21.980469 63.894531 C 21.894531 64.269531 21.785156 64.632812 21.65625 64.992188 C 21.523438 65.351562 21.371094 65.699219 21.191406 66.039062 C 21.015625 66.375 20.816406 66.699219 20.597656 67.011719 C 20.378906 67.324219 20.140625 67.621094 19.886719 67.902344 C 19.628906 68.183594 19.355469 68.449219 19.0625 68.695312 C 18.769531 68.941406 18.464844 69.164062 18.144531 69.371094 C 17.824219 69.578125 17.492188 69.761719 17.148438 69.921875 C 16.800781 70.085938 16.449219 70.222656 16.085938 70.339844 C 15.722656 70.457031 15.355469 70.546875 14.980469 70.617188 C 14.605469 70.683594 14.230469 70.726562 13.851562 70.746094 C 13.46875 70.765625 13.089844 70.761719 12.710938 70.730469 C 12.332031 70.699219 11.957031 70.644531 11.585938 70.5625 C 11.210938 70.484375 10.847656 70.382812 10.488281 70.253906 C 10.128906 70.125 9.78125 69.976562 9.441406 69.804688 C 9.101562 69.628906 8.773438 69.4375 8.460938 69.222656 C 8.148438 69.003906 7.847656 68.769531 7.566406 68.515625 C 7.28125 68.261719 7.015625 67.988281 6.765625 67.699219 C 6.519531 67.410156 6.289062 67.105469 6.078125 66.789062 C 5.871094 66.46875 5.683594 66.136719 5.515625 65.792969 C 5.351562 65.449219 5.207031 65.097656 5.085938 64.734375 C 4.964844 64.375 4.871094 64.003906 4.796875 63.628906 C 4.722656 63.253906 4.675781 62.878906 4.652344 62.496094 C 4.628906 62.113281 4.628906 61.734375 4.65625 61.351562 C 4.679688 60.972656 4.730469 60.59375 4.804688 60.21875 C 4.878906 59.84375 4.976562 59.476562 5.097656 59.117188 C 5.222656 58.753906 5.367188 58.402344 5.535156 58.058594 C 5.703125 57.714844 5.890625 57.386719 6.101562 57.066406 C 6.3125 56.75 6.542969 56.445312 6.792969 56.15625 C 7.042969 55.871094 7.308594 55.597656 7.59375 55.347656 C 7.878906 55.09375 8.179688 54.859375 8.492188 54.644531 C 8.808594 54.429688 9.136719 54.238281 9.476562 54.066406 C 9.816406 53.894531 10.164062 53.746094 10.523438 53.621094 C 10.882812 53.496094 11.25 53.394531 11.621094 53.316406 C 11.992188 53.238281 12.371094 53.183594 12.75 53.15625 C 13.128906 53.125 13.507812 53.121094 13.886719 53.140625 C 14.269531 53.164062 14.644531 53.207031 15.019531 53.277344 C 15.394531 53.347656 15.761719 53.441406 16.121094 53.558594 C 16.484375 53.675781 16.835938 53.816406 17.179688 53.980469 C 17.523438 54.144531 17.855469 54.332031 18.175781 54.539062 C 18.496094 54.746094 18.800781 54.972656 19.089844 55.21875 C 19.382812 55.464844 19.65625 55.730469 19.910156 56.011719 C 20.167969 56.292969 20.402344 56.59375 20.621094 56.90625 Z M 62.582031 70.808594 C 62.003906 70.808594 61.429688 70.753906 60.863281 70.640625 C 60.296875 70.527344 59.746094 70.359375 59.210938 70.136719 C 58.675781 69.914062 58.171875 69.644531 57.6875 69.320312 C 57.207031 69 56.761719 68.632812 56.355469 68.222656 C 55.945312 67.8125 55.582031 67.363281 55.257812 66.882812 C 54.9375 66.398438 54.667969 65.890625 54.445312 65.351562 C 54.222656 64.816406 54.058594 64.265625 53.945312 63.695312 C 53.832031 63.125 53.773438 62.550781 53.773438 61.96875 C 53.773438 61.390625 53.832031 60.816406 53.945312 60.246094 C 54.058594 59.675781 54.222656 59.125 54.445312 58.585938 C 54.667969 58.050781 54.9375 57.542969 55.257812 57.058594 C 55.582031 56.578125 55.945312 56.128906 56.355469 55.71875 C 56.761719 55.308594 57.207031 54.941406 57.6875 54.621094 C 58.171875 54.296875 58.675781 54.027344 59.210938 53.804688 C 59.746094 53.582031 60.296875 53.414062 60.863281 53.300781 C 61.429688 53.1875 62.003906 53.128906 62.582031 53.128906 C 63.160156 53.128906 63.734375 53.1875 64.300781 53.300781 C 64.867188 53.414062 65.417969 53.582031 65.953125 53.804688 C 66.484375 54.027344 66.992188 54.296875 67.472656 54.621094 C 67.957031 54.941406 68.398438 55.308594 68.808594 55.71875 C 69.21875 56.128906 69.582031 56.578125 69.902344 57.058594 C 70.226562 57.542969 70.496094 58.050781 70.71875 58.585938 C 70.9375 59.125 71.105469 59.675781 71.21875 60.246094 C 71.332031 60.816406 71.386719 61.390625 71.386719 61.96875 C 71.386719 62.550781 71.332031 63.125 71.21875 63.695312 C 71.105469 64.261719 70.9375 64.816406 70.714844 65.351562 C 70.492188 65.886719 70.222656 66.398438 69.902344 66.878906 C 69.578125 67.363281 69.214844 67.808594 68.804688 68.21875 C 68.398438 68.628906 67.953125 68.996094 67.472656 69.316406 C 66.992188 69.640625 66.484375 69.914062 65.949219 70.136719 C 65.417969 70.355469 64.867188 70.523438 64.300781 70.640625 C 63.730469 70.753906 63.160156 70.808594 62.582031 70.808594 Z M 62.582031 70.808594 " fill-opacity="1" fill-rule="nonzero"/></g><path fill="#000000" d="M 23.800781 56.191406 C 23.675781 55.960938 23.539062 55.734375 23.394531 55.515625 L 23.640625 55.882812 C 23.707031 55.980469 23.761719 56.082031 23.800781 56.191406 Z M 23.800781 56.191406 " fill-opacity="1" fill-rule="nonzero"/></svg>