<svg xmlns="http://www.w3.org/2000/svg" xmlns:xlink="http://www.w3.org/1999/xlink" width="100" zoomAndPan="magnify" viewBox="0 0 75 74.999997" height="100" preserveAspectRatio="xMidYMid meet" version="1.0"><defs><clipPath id="99b90f4756"><path d="M 12.328125 0 L 62 0 L 62 75 L 12.328125 75 Z M 12.328125 0 " clip-rule="nonzero"/></clipPath></defs><g clip-path="url(#99b90f4756)"><path fill="#000000" d="M 61.109375 66.460938 C 60.164062 68.367188 58.960938 70.089844 57.492188 71.632812 C 55.304688 73.875 52.953125 75.027344 50.558594 75.027344 C 49.332031 75.019531 48.160156 74.75 47.050781 74.222656 C 44.449219 73.027344 42.769531 71.3125 42.046875 69.140625 C 40.453125 64.324219 43.828125 58.121094 47.410156 51.542969 C 52.96875 41.347656 58.714844 30.785156 48.113281 23.796875 C 40.269531 18.617188 30.300781 26.167969 28.035156 28.042969 L 28.035156 61.40625 C 28.035156 61.601562 27.996094 61.785156 27.921875 61.964844 C 27.847656 62.144531 27.746094 62.300781 27.609375 62.4375 C 27.472656 62.574219 27.316406 62.679688 27.136719 62.753906 C 26.957031 62.828125 26.773438 62.863281 26.582031 62.863281 C 26.386719 62.863281 26.203125 62.828125 26.023438 62.753906 C 25.847656 62.679688 25.6875 62.574219 25.550781 62.4375 C 25.417969 62.300781 25.3125 62.144531 25.238281 61.964844 C 25.164062 61.785156 25.125 61.601562 25.125 61.40625 L 25.125 9.953125 L 13.808594 9.953125 C 13.613281 9.953125 13.429688 9.914062 13.25 9.839844 C 13.074219 9.765625 12.917969 9.660156 12.78125 9.523438 C 12.644531 9.386719 12.539062 9.230469 12.464844 9.050781 C 12.390625 8.875 12.355469 8.6875 12.355469 8.496094 C 12.355469 8.300781 12.390625 8.117188 12.464844 7.9375 C 12.539062 7.757812 12.644531 7.601562 12.78125 7.464844 C 12.917969 7.328125 13.074219 7.222656 13.25 7.148438 C 13.429688 7.074219 13.613281 7.039062 13.808594 7.039062 L 25.125 7.039062 L 25.125 1.457031 C 25.125 1.261719 25.164062 1.078125 25.238281 0.898438 C 25.3125 0.71875 25.417969 0.5625 25.550781 0.425781 C 25.6875 0.289062 25.847656 0.183594 26.023438 0.109375 C 26.203125 0.0351562 26.386719 0 26.582031 0 C 26.773438 0 26.957031 0.0351562 27.136719 0.109375 C 27.316406 0.183594 27.472656 0.289062 27.609375 0.425781 C 27.746094 0.5625 27.847656 0.71875 27.921875 0.898438 C 27.996094 1.078125 28.035156 1.261719 28.035156 1.457031 L 28.035156 7.039062 L 39.351562 7.039062 C 39.546875 7.039062 39.730469 7.074219 39.910156 7.148438 C 40.085938 7.222656 40.242188 7.328125 40.378906 7.464844 C 40.515625 7.601562 40.621094 7.757812 40.695312 7.9375 C 40.769531 8.117188 40.804688 8.300781 40.804688 8.496094 C 40.804688 8.6875 40.769531 8.875 40.695312 9.050781 C 40.621094 9.230469 40.515625 9.386719 40.378906 9.523438 C 40.242188 9.660156 40.085938 9.765625 39.910156 9.839844 C 39.730469 9.914062 39.546875 9.953125 39.351562 9.953125 L 28.035156 9.953125 L 28.035156 24.355469 C 29.734375 23.125 31.53125 22.070312 33.429688 21.183594 C 39.59375 18.320312 45.230469 18.378906 49.722656 21.34375 C 62.558594 29.8125 55.578125 42.625 49.972656 52.921875 C 46.703125 58.921875 43.617188 64.574219 44.8125 68.203125 C 45.296875 69.601562 46.40625 70.699219 48.273438 71.558594 C 54.144531 74.253906 58.3125 65.59375 58.488281 65.246094 C 58.566406 65.070312 58.675781 64.914062 58.820312 64.78125 C 58.960938 64.644531 59.125 64.542969 59.308594 64.476562 C 59.492188 64.410156 59.679688 64.378906 59.875 64.386719 C 60.070312 64.394531 60.253906 64.441406 60.433594 64.523438 C 60.609375 64.605469 60.761719 64.722656 60.894531 64.867188 C 61.023438 65.011719 61.121094 65.175781 61.1875 65.359375 C 61.25 65.542969 61.277344 65.734375 61.265625 65.929688 C 61.253906 66.125 61.203125 66.308594 61.117188 66.484375 Z M 61.109375 66.460938 " fill-opacity="1" fill-rule="nonzero"/></g></svg>