<svg xmlns="http://www.w3.org/2000/svg" xmlns:xlink="http://www.w3.org/1999/xlink" width="100" zoomAndPan="magnify" viewBox="0 0 75 74.999997" height="100" preserveAspectRatio="xMidYMid meet" version="1.0"><path fill="#000000" d="M 37.5 75 C 36.273438 75 35.046875 74.941406 33.824219 74.820312 C 32.601562 74.699219 31.390625 74.519531 30.183594 74.28125 C 28.980469 74.039062 27.789062 73.742188 26.613281 73.386719 C 25.4375 73.027344 24.285156 72.617188 23.148438 72.144531 C 22.015625 71.675781 20.90625 71.152344 19.824219 70.570312 C 18.738281 69.992188 17.6875 69.363281 16.667969 68.679688 C 15.644531 67.996094 14.660156 67.265625 13.710938 66.488281 C 12.761719 65.707031 11.851562 64.886719 10.984375 64.015625 C 10.113281 63.148438 9.292969 62.238281 8.511719 61.289062 C 7.734375 60.339844 7.003906 59.355469 6.320312 58.332031 C 5.636719 57.3125 5.007812 56.261719 4.429688 55.175781 C 3.847656 54.09375 3.324219 52.984375 2.855469 51.851562 C 2.382812 50.714844 1.972656 49.5625 1.613281 48.386719 C 1.257812 47.210938 0.960938 46.019531 0.71875 44.816406 C 0.480469 43.609375 0.300781 42.398438 0.179688 41.175781 C 0.0585938 39.953125 0 38.726562 0 37.5 C 0 36.273438 0.0585938 35.046875 0.179688 33.824219 C 0.300781 32.601562 0.480469 31.390625 0.71875 30.183594 C 0.960938 28.980469 1.257812 27.789062 1.613281 26.613281 C 1.972656 25.4375 2.382812 24.285156 2.855469 23.148438 C 3.324219 22.015625 3.847656 20.90625 4.429688 19.824219 C 5.007812 18.738281 5.636719 17.6875 6.320312 16.667969 C 7.003906 15.644531 7.734375 14.660156 8.511719 13.710938 C 9.292969 12.761719 10.113281 11.851562 10.984375 10.984375 C 11.851562 10.113281 12.761719 9.292969 13.710938 8.511719 C 14.660156 7.734375 15.644531 7.003906 16.667969 6.320312 C 17.6875 5.636719 18.738281 5.007812 19.824219 4.429688 C 20.90625 3.847656 22.015625 3.324219 23.148438 2.855469 C 24.285156 2.382812 25.4375 1.972656 26.613281 1.613281 C 27.789062 1.257812 28.980469 0.960938 30.183594 0.71875 C 31.390625 0.480469 32.601562 0.300781 33.824219 0.179688 C 35.046875 0.0585938 36.273438 0 37.5 0 C 38.726562 0 39.953125 0.0585938 41.175781 0.179688 C 42.398438 0.300781 43.609375 0.480469 44.816406 0.71875 C 46.019531 0.960938 47.210938 1.257812 48.386719 1.613281 C 49.5625 1.972656 50.714844 2.382812 51.851562 2.855469 C 52.984375 3.324219 54.09375 3.847656 55.175781 4.429688 C 56.261719 5.007812 57.3125 5.636719 58.332031 6.320312 C 59.355469 7.003906 60.339844 7.734375 61.289062 8.511719 C 62.238281 9.292969 63.148438 10.113281 64.015625 10.984375 C 64.886719 11.851562 65.707031 12.761719 66.488281 13.710938 C 67.265625 14.660156 67.996094 15.644531 68.679688 16.667969 C 69.363281 17.6875 69.992188 18.738281 70.570312 19.824219 C 71.152344 20.90625 71.675781 22.015625 72.144531 23.148438 C 72.617188 24.285156 73.027344 25.4375 73.386719 26.613281 C 73.742188 27.789062 74.039062 28.980469 74.28125 30.183594 C 74.519531 31.390625 74.699219 32.601562 74.820312 33.824219 C 74.941406 35.046875 75 36.273438 75 37.5 C 75 38.726562 74.9375 39.953125 74.816406 41.175781 C 74.695312 42.394531 74.511719 43.609375 74.273438 44.8125 C 74.03125 46.015625 73.734375 47.207031 73.375 48.382812 C 73.019531 49.554688 72.605469 50.710938 72.132812 51.84375 C 71.664062 52.976562 71.140625 54.085938 70.558594 55.167969 C 69.980469 56.25 69.351562 57.304688 68.667969 58.324219 C 67.984375 59.34375 67.253906 60.328125 66.476562 61.277344 C 65.695312 62.226562 64.871094 63.136719 64.003906 64.003906 C 63.136719 64.871094 62.226562 65.695312 61.277344 66.476562 C 60.328125 67.253906 59.34375 67.984375 58.324219 68.667969 C 57.304688 69.351562 56.25 69.980469 55.167969 70.558594 C 54.085938 71.140625 52.976562 71.664062 51.84375 72.132812 C 50.710938 72.605469 49.554688 73.019531 48.382812 73.375 C 47.207031 73.734375 46.015625 74.03125 44.8125 74.273438 C 43.609375 74.511719 42.394531 74.695312 41.175781 74.816406 C 39.953125 74.9375 38.726562 75 37.5 75 Z M 37.5 2.300781 C 36.347656 2.300781 35.195312 2.355469 34.050781 2.46875 C 32.902344 2.582031 31.761719 2.753906 30.632812 2.976562 C 29.503906 3.203125 28.386719 3.480469 27.28125 3.816406 C 26.179688 4.152344 25.09375 4.539062 24.03125 4.980469 C 22.964844 5.421875 21.921875 5.914062 20.90625 6.457031 C 19.890625 7 18.902344 7.59375 17.945312 8.234375 C 16.984375 8.875 16.0625 9.558594 15.167969 10.289062 C 14.277344 11.023438 13.425781 11.796875 12.609375 12.609375 C 11.796875 13.425781 11.023438 14.277344 10.289062 15.167969 C 9.558594 16.0625 8.875 16.984375 8.234375 17.945312 C 7.59375 18.902344 7 19.890625 6.457031 20.90625 C 5.914062 21.921875 5.421875 22.964844 4.980469 24.03125 C 4.539062 25.09375 4.152344 26.179688 3.816406 27.28125 C 3.480469 28.386719 3.203125 29.503906 2.976562 30.632812 C 2.753906 31.761719 2.582031 32.902344 2.46875 34.050781 C 2.355469 35.195312 2.300781 36.347656 2.300781 37.5 C 2.300781 38.652344 2.355469 39.804688 2.46875 40.949219 C 2.582031 42.097656 2.753906 43.238281 2.976562 44.367188 C 3.203125 45.496094 3.480469 46.613281 3.816406 47.71875 C 4.152344 48.820312 4.539062 49.90625 4.980469 50.96875 C 5.421875 52.035156 5.914062 53.074219 6.457031 54.09375 C 7 55.109375 7.59375 56.097656 8.234375 57.054688 C 8.875 58.015625 9.558594 58.9375 10.289062 59.832031 C 11.023438 60.722656 11.796875 61.574219 12.609375 62.390625 C 13.425781 63.203125 14.277344 63.976562 15.167969 64.710938 C 16.0625 65.441406 16.984375 66.125 17.945312 66.765625 C 18.902344 67.40625 19.890625 68 20.90625 68.542969 C 21.921875 69.085938 22.964844 69.578125 24.03125 70.019531 C 25.09375 70.460938 26.179688 70.847656 27.28125 71.183594 C 28.386719 71.519531 29.503906 71.796875 30.632812 72.023438 C 31.761719 72.246094 32.902344 72.417969 34.050781 72.53125 C 35.195312 72.644531 36.347656 72.699219 37.5 72.699219 C 38.652344 72.699219 39.804688 72.644531 40.949219 72.53125 C 42.097656 72.417969 43.238281 72.246094 44.367188 72.023438 C 45.496094 71.796875 46.613281 71.519531 47.71875 71.183594 C 48.820312 70.847656 49.90625 70.460938 50.96875 70.019531 C 52.035156 69.578125 53.078125 69.085938 54.09375 68.542969 C 55.109375 68 56.097656 67.40625 57.054688 66.765625 C 58.015625 66.125 58.9375 65.441406 59.832031 64.710938 C 60.722656 63.976562 61.574219 63.203125 62.390625 62.390625 C 63.203125 61.574219 63.976562 60.722656 64.710938 59.832031 C 65.441406 58.9375 66.125 58.015625 66.765625 57.054688 C 67.40625 56.097656 68 55.109375 68.542969 54.09375 C 69.085938 53.074219 69.578125 52.035156 70.019531 50.96875 C 70.460938 49.90625 70.847656 48.820312 71.183594 47.71875 C 71.519531 46.613281 71.796875 45.496094 72.023438 44.367188 C 72.246094 43.238281 72.417969 42.097656 72.53125 40.949219 C 72.644531 39.804688 72.699219 38.652344 72.699219 37.5 C 72.699219 36.347656 72.640625 35.199219 72.527344 34.050781 C 72.410156 32.90625 72.242188 31.765625 72.015625 30.636719 C 71.789062 29.503906 71.511719 28.390625 71.175781 27.285156 C 70.839844 26.183594 70.449219 25.101562 70.007812 24.035156 C 69.566406 22.972656 69.074219 21.929688 68.53125 20.914062 C 67.988281 19.898438 67.394531 18.910156 66.753906 17.953125 C 66.113281 16.996094 65.429688 16.070312 64.695312 15.179688 C 63.964844 14.289062 63.191406 13.4375 62.378906 12.621094 C 61.5625 11.808594 60.710938 11.035156 59.820312 10.304688 C 58.929688 9.570312 58.003906 8.886719 57.046875 8.246094 C 56.089844 7.605469 55.101562 7.011719 54.085938 6.46875 C 53.070312 5.925781 52.027344 5.433594 50.964844 4.992188 C 49.898438 4.550781 48.816406 4.160156 47.714844 3.824219 C 46.609375 3.488281 45.496094 3.210938 44.363281 2.984375 C 43.234375 2.757812 42.09375 2.589844 40.949219 2.472656 C 39.800781 2.359375 38.652344 2.300781 37.5 2.300781 Z M 37.5 33.128906 C 37.214844 33.128906 36.929688 33.15625 36.648438 33.210938 C 36.367188 33.269531 36.09375 33.351562 35.828125 33.460938 C 35.5625 33.570312 35.308594 33.707031 35.070312 33.867188 C 34.832031 34.023438 34.613281 34.207031 34.410156 34.410156 C 34.207031 34.613281 34.023438 34.832031 33.867188 35.070312 C 33.707031 35.308594 33.570312 35.5625 33.460938 35.828125 C 33.351562 36.09375 33.269531 36.367188 33.210938 36.648438 C 33.15625 36.929688 33.128906 37.214844 33.128906 37.5 C 33.128906 37.785156 33.15625 38.070312 33.210938 38.351562 C 33.269531 38.632812 33.351562 38.90625 33.460938 39.171875 C 33.570312 39.4375 33.707031 39.691406 33.867188 39.929688 C 34.023438 40.167969 34.207031 40.386719 34.410156 40.589844 C 34.613281 40.792969 34.832031 40.976562 35.070312 41.132812 C 35.308594 41.292969 35.5625 41.429688 35.828125 41.539062 C 36.09375 41.648438 36.367188 41.730469 36.648438 41.789062 C 36.929688 41.84375 37.214844 41.871094 37.5 41.871094 C 37.785156 41.871094 38.070312 41.84375 38.351562 41.789062 C 38.632812 41.730469 38.90625 41.648438 39.171875 41.539062 C 39.4375 41.429688 39.691406 41.292969 39.929688 41.132812 C 40.167969 40.976562 40.386719 40.792969 40.589844 40.589844 C 40.792969 40.386719 40.976562 40.167969 41.132812 39.929688 C 41.292969 39.691406 41.429688 39.4375 41.539062 39.171875 C 41.648438 38.90625 41.730469 38.632812 41.789062 38.351562 C 41.84375 38.070312 41.871094 37.785156 41.871094 37.5 C 41.871094 37.214844 41.84375 36.929688 41.789062 36.648438 C 41.730469 36.367188 41.648438 36.09375 41.539062 35.828125 C 41.429688 35.5625 41.292969 35.308594 41.132812 35.070312 C 40.976562 34.832031 40.792969 34.613281 40.589844 34.410156 C 40.386719 34.207031 40.167969 34.023438 39.929688 33.867188 C 39.691406 33.707031 39.4375 33.570312 39.171875 33.460938 C 38.90625 33.351562 38.632812 33.269531 38.351562 33.210938 C 38.070312 33.15625 37.785156 33.128906 37.5 33.128906 Z M 37.5 33.128906 " fill-opacity="1" fill-rule="nonzero"/></svg>