<svg xmlns="http://www.w3.org/2000/svg" xmlns:xlink="http://www.w3.org/1999/xlink" width="100" zoomAndPan="magnify" viewBox="0 0 75 74.999997" height="100" preserveAspectRatio="xMidYMid meet" version="1.0"><defs><clipPath id="ebd990317f"><path d="M 11 0 L 64.5 0 L 64.5 75 L 11 75 Z M 11 0 " clip-rule="nonzero"/></clipPath></defs><g clip-path="url(#ebd990317f)"><path fill="#000000" d="M 64.402344 26.929688 C 64.402344 26.066406 64.359375 25.207031 64.277344 24.351562 C 64.195312 23.492188 64.070312 22.640625 63.902344 21.796875 C 63.734375 20.953125 63.53125 20.117188 63.28125 19.292969 C 63.035156 18.464844 62.746094 17.65625 62.421875 16.859375 C 62.097656 16.058594 61.730469 15.28125 61.332031 14.519531 C 60.929688 13.757812 60.492188 13.015625 60.019531 12.296875 C 59.542969 11.574219 59.035156 10.878906 58.496094 10.210938 C 57.953125 9.539062 57.382812 8.898438 56.78125 8.28125 C 56.175781 7.667969 55.542969 7.082031 54.882812 6.527344 C 54.222656 5.976562 53.539062 5.457031 52.828125 4.96875 C 52.117188 4.480469 51.386719 4.027344 50.632812 3.613281 C 49.878906 3.195312 49.105469 2.816406 48.3125 2.476562 C 47.523438 2.136719 46.714844 1.832031 45.894531 1.570312 C 45.074219 1.308594 44.246094 1.085938 43.402344 0.902344 C 42.5625 0.71875 41.710938 0.578125 40.855469 0.480469 C 40 0.378906 39.140625 0.320312 38.28125 0.304688 C 37.417969 0.285156 36.558594 0.3125 35.699219 0.378906 C 34.839844 0.445312 33.988281 0.554688 33.140625 0.703125 C 32.292969 0.851562 31.453125 1.042969 30.621094 1.273438 C 29.792969 1.503906 28.976562 1.773438 28.171875 2.085938 C 27.367188 2.394531 26.582031 2.742188 25.8125 3.128906 C 25.042969 3.515625 24.292969 3.9375 23.5625 4.398438 C 22.832031 4.855469 22.128906 5.351562 21.449219 5.878906 C 20.765625 6.40625 20.113281 6.964844 19.484375 7.554688 C 18.859375 8.148438 18.261719 8.765625 17.695312 9.414062 C 17.128906 10.066406 16.59375 10.738281 16.09375 11.441406 C 15.59375 12.140625 15.125 12.863281 14.695312 13.609375 C 14.265625 14.355469 13.871094 15.121094 13.515625 15.90625 C 13.15625 16.691406 12.839844 17.488281 12.558594 18.304688 C 12.28125 19.117188 12.042969 19.945312 11.84375 20.785156 C 11.644531 21.621094 11.484375 22.46875 11.367188 23.320312 C 11.25 24.175781 11.175781 25.03125 11.140625 25.894531 C 11.109375 26.753906 11.117188 27.613281 11.164062 28.472656 C 11.214844 29.335938 11.304688 30.191406 11.4375 31.039062 C 11.570312 31.890625 11.746094 32.734375 11.960938 33.570312 C 12.175781 34.402344 12.429688 35.226562 12.722656 36.035156 C 13.015625 36.84375 13.347656 37.640625 13.71875 38.417969 C 14.089844 39.195312 14.5 39.953125 14.945312 40.6875 C 15.386719 41.425781 15.867188 42.140625 16.382812 42.832031 C 16.894531 43.523438 17.441406 44.191406 18.019531 44.828125 C 18.597656 45.464844 19.207031 46.074219 19.84375 46.65625 C 20.480469 47.234375 21.144531 47.78125 21.835938 48.296875 C 22.527344 48.8125 23.242188 49.292969 23.976562 49.738281 C 24.714844 50.183594 25.472656 50.59375 26.25 50.964844 C 27.027344 51.335938 27.820312 51.671875 28.628906 51.964844 C 29.4375 52.261719 30.257812 52.515625 31.09375 52.730469 C 31.929688 52.949219 32.769531 53.121094 33.621094 53.257812 C 34.472656 53.390625 35.328125 53.484375 36.1875 53.535156 L 36.1875 64.160156 L 25.527344 64.160156 C 25.320312 64.160156 25.117188 64.203125 24.925781 64.28125 C 24.734375 64.363281 24.5625 64.476562 24.414062 64.625 C 24.265625 64.769531 24.152344 64.941406 24.074219 65.132812 C 23.992188 65.328125 23.953125 65.527344 23.953125 65.738281 C 23.953125 65.945312 23.992188 66.144531 24.074219 66.339844 C 24.152344 66.53125 24.265625 66.703125 24.414062 66.851562 C 24.5625 66.996094 24.734375 67.109375 24.925781 67.191406 C 25.117188 67.269531 25.320312 67.3125 25.527344 67.3125 L 36.1875 67.3125 L 36.1875 73.476562 C 36.1875 73.6875 36.226562 73.886719 36.308594 74.082031 C 36.386719 74.273438 36.5 74.445312 36.648438 74.589844 C 36.796875 74.738281 36.96875 74.851562 37.160156 74.933594 C 37.351562 75.011719 37.554688 75.050781 37.761719 75.050781 C 37.972656 75.050781 38.171875 75.011719 38.363281 74.933594 C 38.558594 74.851562 38.726562 74.738281 38.875 74.589844 C 39.023438 74.445312 39.136719 74.273438 39.21875 74.082031 C 39.296875 73.886719 39.335938 73.6875 39.335938 73.476562 L 39.335938 67.296875 L 49.996094 67.296875 C 50.207031 67.296875 50.40625 67.253906 50.597656 67.175781 C 50.792969 67.09375 50.960938 66.980469 51.109375 66.835938 C 51.257812 66.6875 51.371094 66.515625 51.449219 66.324219 C 51.53125 66.128906 51.570312 65.929688 51.570312 65.722656 C 51.570312 65.511719 51.53125 65.3125 51.449219 65.117188 C 51.371094 64.925781 51.257812 64.753906 51.109375 64.609375 C 50.960938 64.460938 50.792969 64.347656 50.597656 64.265625 C 50.40625 64.1875 50.207031 64.144531 49.996094 64.144531 L 39.335938 64.144531 L 39.335938 53.535156 C 40.175781 53.484375 41.007812 53.394531 41.839844 53.265625 C 42.667969 53.136719 43.488281 52.964844 44.304688 52.761719 C 45.117188 52.554688 45.917969 52.308594 46.710938 52.027344 C 47.5 51.742188 48.277344 51.421875 49.035156 51.066406 C 49.796875 50.710938 50.539062 50.320312 51.261719 49.894531 C 51.984375 49.46875 52.6875 49.011719 53.367188 48.519531 C 54.046875 48.027344 54.703125 47.503906 55.335938 46.949219 C 55.964844 46.394531 56.566406 45.8125 57.144531 45.199219 C 57.71875 44.589844 58.265625 43.953125 58.78125 43.289062 C 59.296875 42.628906 59.78125 41.941406 60.230469 41.234375 C 60.683594 40.527344 61.097656 39.796875 61.480469 39.050781 C 61.863281 38.300781 62.207031 37.539062 62.519531 36.757812 C 62.828125 35.976562 63.101562 35.183594 63.335938 34.378906 C 63.570312 33.574219 63.769531 32.757812 63.925781 31.933594 C 64.085938 31.109375 64.203125 30.277344 64.28125 29.441406 C 64.363281 28.605469 64.402344 27.769531 64.402344 26.929688 Z M 14.269531 26.929688 C 14.269531 26.160156 14.308594 25.394531 14.382812 24.625 C 14.457031 23.859375 14.570312 23.101562 14.722656 22.347656 C 14.871094 21.589844 15.058594 20.847656 15.28125 20.109375 C 15.503906 19.375 15.761719 18.648438 16.058594 17.9375 C 16.351562 17.226562 16.679688 16.53125 17.042969 15.855469 C 17.40625 15.175781 17.800781 14.515625 18.226562 13.875 C 18.65625 13.238281 19.113281 12.621094 19.601562 12.023438 C 20.089844 11.429688 20.605469 10.859375 21.148438 10.316406 C 21.691406 9.773438 22.261719 9.253906 22.855469 8.769531 C 23.449219 8.28125 24.066406 7.820312 24.707031 7.394531 C 25.347656 6.964844 26.007812 6.570312 26.683594 6.207031 C 27.363281 5.84375 28.058594 5.515625 28.769531 5.222656 C 29.480469 4.925781 30.203125 4.667969 30.9375 4.445312 C 31.675781 4.222656 32.421875 4.035156 33.175781 3.882812 C 33.929688 3.734375 34.691406 3.621094 35.457031 3.546875 C 36.222656 3.46875 36.988281 3.433594 37.757812 3.433594 C 38.527344 3.433594 39.296875 3.46875 40.0625 3.546875 C 40.828125 3.621094 41.585938 3.734375 42.34375 3.882812 C 43.097656 4.035156 43.84375 4.21875 44.578125 4.441406 C 45.316406 4.667969 46.039062 4.925781 46.75 5.21875 C 47.460938 5.515625 48.15625 5.84375 48.832031 6.203125 C 49.511719 6.566406 50.171875 6.960938 50.8125 7.390625 C 51.453125 7.816406 52.070312 8.273438 52.664062 8.761719 C 53.257812 9.25 53.828125 9.765625 54.371094 10.3125 C 54.914062 10.855469 55.433594 11.425781 55.921875 12.019531 C 56.410156 12.613281 56.867188 13.230469 57.292969 13.871094 C 57.722656 14.511719 58.117188 15.167969 58.480469 15.847656 C 58.84375 16.527344 59.171875 17.222656 59.464844 17.933594 C 59.761719 18.644531 60.019531 19.367188 60.242188 20.101562 C 60.464844 20.839844 60.652344 21.585938 60.800781 22.339844 C 60.953125 23.09375 61.066406 23.855469 61.140625 24.621094 C 61.214844 25.386719 61.253906 26.152344 61.253906 26.921875 C 61.253906 27.691406 61.214844 28.460938 61.140625 29.226562 C 61.066406 29.992188 60.953125 30.75 60.804688 31.507812 C 60.652344 32.261719 60.464844 33.007812 60.242188 33.742188 C 60.019531 34.480469 59.761719 35.203125 59.464844 35.914062 C 59.171875 36.625 58.84375 37.320312 58.480469 37.996094 C 58.117188 38.675781 57.722656 39.335938 57.296875 39.976562 C 56.867188 40.613281 56.410156 41.230469 55.921875 41.828125 C 55.433594 42.421875 54.917969 42.992188 54.375 43.535156 C 53.832031 44.078125 53.261719 44.59375 52.667969 45.082031 C 52.070312 45.570312 51.453125 46.03125 50.8125 46.457031 C 50.175781 46.882812 49.515625 47.28125 48.835938 47.640625 C 48.160156 48.003906 47.464844 48.332031 46.753906 48.628906 C 46.042969 48.921875 45.320312 49.179688 44.582031 49.40625 C 43.847656 49.628906 43.101562 49.816406 42.34375 49.964844 C 41.589844 50.113281 40.832031 50.226562 40.066406 50.304688 C 39.300781 50.378906 38.53125 50.417969 37.761719 50.417969 C 36.992188 50.414062 36.226562 50.378906 35.460938 50.300781 C 34.695312 50.226562 33.9375 50.113281 33.183594 49.960938 C 32.425781 49.808594 31.683594 49.621094 30.945312 49.398438 C 30.210938 49.175781 29.488281 48.917969 28.777344 48.621094 C 28.066406 48.328125 27.375 48 26.695312 47.636719 C 26.015625 47.273438 25.359375 46.878906 24.71875 46.449219 C 24.078125 46.023438 23.460938 45.566406 22.867188 45.078125 C 22.273438 44.589844 21.703125 44.074219 21.160156 43.53125 C 20.617188 42.984375 20.101562 42.417969 19.613281 41.824219 C 19.125 41.226562 18.667969 40.613281 18.238281 39.972656 C 17.8125 39.332031 17.417969 38.675781 17.054688 37.996094 C 16.691406 37.320312 16.363281 36.625 16.066406 35.914062 C 15.773438 35.203125 15.511719 34.480469 15.289062 33.746094 C 15.066406 33.007812 14.878906 32.265625 14.726562 31.511719 C 14.578125 30.757812 14.460938 29.996094 14.386719 29.230469 C 14.308594 28.464844 14.273438 27.699219 14.269531 26.929688 Z M 14.269531 26.929688 " fill-opacity="1" fill-rule="nonzero"/></g></svg>