<svg xmlns="http://www.w3.org/2000/svg" xmlns:xlink="http://www.w3.org/1999/xlink" width="100" zoomAndPan="magnify" viewBox="0 0 75 74.999997" height="100" preserveAspectRatio="xMidYMid meet" version="1.0"><path fill="#000000" d="M 37.5 0 C 16.789062 0 0 16.789062 0 37.5 C 0 58.210938 16.789062 75 37.5 75 C 58.210938 75 75 58.210938 75 37.5 C 75 16.789062 58.210938 0 37.5 0 Z M 43.664062 55.574219 L 37.738281 55.574219 L 37.738281 27.726562 L 31.335938 27.726562 L 31.335938 24.101562 C 33.359375 24.101562 34.964844 23.921875 36.148438 23.5625 C 37.335938 23.203125 38.203125 22.675781 38.753906 21.976562 C 39.304688 21.273438 39.617188 20.425781 39.699219 19.425781 L 43.664062 19.425781 Z M 43.664062 55.574219 " fill-opacity="1" fill-rule="nonzero"/></svg>