<svg xmlns="http://www.w3.org/2000/svg" xmlns:xlink="http://www.w3.org/1999/xlink" width="100" zoomAndPan="magnify" viewBox="0 0 75 74.999997" height="100" preserveAspectRatio="xMidYMid meet" version="1.0"><path fill="#000000" d="M 37.5 0 C 16.789062 0 0 16.789062 0 37.5 C 0 58.210938 16.789062 75 37.5 75 C 58.210938 75 75 58.210938 75 37.5 C 75 16.789062 58.210938 0 37.5 0 Z M 50.03125 55.824219 L 25.660156 55.824219 L 25.660156 50.898438 C 25.660156 49.050781 25.988281 47.453125 26.640625 46.113281 C 27.292969 44.769531 28.160156 43.601562 29.246094 42.601562 C 30.328125 41.601562 31.519531 40.710938 32.816406 39.9375 C 34.113281 39.164062 35.40625 38.429688 36.6875 37.738281 C 37.96875 37.046875 39.152344 36.328125 40.234375 35.585938 C 41.320312 34.847656 42.191406 34.015625 42.851562 33.101562 C 43.511719 32.183594 43.84375 31.089844 43.84375 29.824219 C 43.84375 28.207031 43.296875 26.886719 42.207031 25.863281 C 41.117188 24.835938 39.640625 24.324219 37.773438 24.324219 C 35.800781 24.324219 34.171875 24.917969 32.886719 26.101562 C 31.605469 27.285156 30.84375 28.949219 30.605469 31.101562 L 24.96875 31.101562 C 25 28.898438 25.5 26.898438 26.472656 25.101562 C 27.445312 23.300781 28.886719 21.863281 30.796875 20.789062 C 32.710938 19.710938 35.089844 19.175781 37.941406 19.175781 C 40.410156 19.175781 42.542969 19.621094 44.335938 20.511719 C 46.125 21.402344 47.511719 22.644531 48.492188 24.238281 C 49.472656 25.828125 49.960938 27.683594 49.960938 29.800781 C 49.960938 31.648438 49.636719 33.234375 48.992188 34.550781 C 48.347656 35.867188 47.496094 37.003906 46.4375 37.960938 C 45.378906 38.921875 44.214844 39.765625 42.949219 40.5 C 41.683594 41.234375 40.414062 41.921875 39.148438 42.5625 C 37.882812 43.203125 36.71875 43.871094 35.660156 44.5625 C 34.601562 45.253906 33.75 46.042969 33.105469 46.925781 C 32.457031 47.808594 32.136719 48.867188 32.136719 50.101562 L 32.136719 50.625 L 50.03125 50.625 Z M 50.03125 55.824219 " fill-opacity="1" fill-rule="nonzero"/></svg>