<svg xmlns="http://www.w3.org/2000/svg" xmlns:xlink="http://www.w3.org/1999/xlink" width="100" zoomAndPan="magnify" viewBox="0 0 75 74.999997" height="100" preserveAspectRatio="xMidYMid meet" version="1.0"><path fill="#000000" d="M 37.5 0 C 16.789062 0 0 16.789062 0 37.5 C 0 58.210938 16.789062 75 37.5 75 C 58.210938 75 75 58.210938 75 37.5 C 75 16.789062 58.210938 0 37.5 0 Z M 49.757812 50 C 49.046875 51.332031 48.0625 52.453125 46.792969 53.363281 C 45.527344 54.269531 44.050781 54.953125 42.363281 55.414062 C 40.675781 55.871094 38.859375 56.101562 36.914062 56.101562 C 34.316406 56.082031 32.078125 55.617188 30.199219 54.699219 C 28.320312 53.785156 26.859375 52.476562 25.816406 50.773438 C 24.773438 49.074219 24.226562 47.058594 24.179688 44.726562 L 29.84375 44.726562 C 30.175781 46.875 30.992188 48.472656 32.292969 49.511719 C 33.589844 50.554688 35.171875 51.074219 37.035156 51.074219 C 38.578125 51.074219 39.917969 50.828125 41.046875 50.335938 C 42.179688 49.847656 43.050781 49.167969 43.664062 48.300781 C 44.277344 47.433594 44.585938 46.425781 44.585938 45.273438 C 44.585938 44.058594 44.253906 43.015625 43.59375 42.148438 C 42.933594 41.285156 42.027344 40.617188 40.882812 40.148438 C 39.734375 39.683594 38.445312 39.433594 37.011719 39.398438 L 33.808594 39.300781 L 33.808594 34.351562 L 36.769531 34.226562 C 38.140625 34.175781 39.347656 33.898438 40.390625 33.398438 C 41.433594 32.898438 42.25 32.242188 42.839844 31.425781 C 43.429688 30.609375 43.722656 29.691406 43.722656 28.675781 C 43.722656 27.742188 43.449219 26.898438 42.898438 26.148438 C 42.351562 25.398438 41.574219 24.8125 40.570312 24.386719 C 39.566406 23.960938 38.378906 23.75 37.011719 23.75 C 35.847656 23.75 34.753906 23.964844 33.738281 24.398438 C 32.71875 24.832031 31.875 25.53125 31.214844 26.488281 C 30.554688 27.445312 30.191406 28.699219 30.128906 30.25 L 24.488281 30.25 C 24.488281 27.785156 25.054688 25.703125 26.1875 24.011719 C 27.316406 22.320312 28.835938 21.046875 30.738281 20.1875 C 32.640625 19.328125 34.757812 18.898438 37.082031 18.898438 C 39.582031 18.898438 41.800781 19.253906 43.738281 19.960938 C 45.671875 20.671875 47.191406 21.734375 48.300781 23.148438 C 49.40625 24.566406 49.960938 26.324219 49.960938 28.425781 C 49.960938 30.207031 49.441406 31.800781 48.40625 33.199219 C 47.371094 34.601562 45.738281 35.699219 43.507812 36.5 C 44.894531 36.898438 46.136719 37.496094 47.238281 38.289062 C 48.335938 39.078125 49.207031 40.066406 49.851562 41.25 C 50.5 42.433594 50.820312 43.824219 50.820312 45.425781 C 50.820312 47.140625 50.464844 48.667969 49.757812 50 Z M 49.757812 50 " fill-opacity="1" fill-rule="nonzero"/></svg>