<svg xmlns="http://www.w3.org/2000/svg" xmlns:xlink="http://www.w3.org/1999/xlink" width="100" zoomAndPan="magnify" viewBox="0 0 75 74.999997" height="100" preserveAspectRatio="xMidYMid meet" version="1.0"><path fill="#000000" d="M 39.925781 41.824219 L 39.925781 26.976562 L 29.339844 41.824219 Z M 39.925781 41.824219 " fill-opacity="1" fill-rule="nonzero"/><path fill="#000000" d="M 37.5 0 C 16.789062 0 0 16.789062 0 37.5 C 0 58.210938 16.789062 75 37.5 75 C 58.210938 75 75 58.210938 75 37.5 C 75 16.789062 58.210938 0 37.5 0 Z M 51.109375 47 L 45.589844 47 L 45.589844 55.574219 L 39.949219 55.574219 L 39.972656 47 L 23.890625 47 L 23.890625 41.824219 L 39.804688 19.425781 L 45.589844 19.425781 L 45.589844 41.824219 L 51.109375 41.824219 Z M 51.109375 47 " fill-opacity="1" fill-rule="nonzero"/></svg>