<svg xmlns="http://www.w3.org/2000/svg" xmlns:xlink="http://www.w3.org/1999/xlink" width="100" zoomAndPan="magnify" viewBox="0 0 75 74.999997" height="100" preserveAspectRatio="xMidYMid meet" version="1.0"><path fill="#000000" d="M 37.5 0 C 16.789062 0 0 16.789062 0 37.5 C 0 58.210938 16.789062 75 37.5 75 C 58.210938 75 75 58.210938 75 37.5 C 75 16.789062 58.210938 0 37.5 0 Z M 49.445312 50.050781 C 48.371094 51.898438 46.859375 53.328125 44.90625 54.335938 C 42.957031 55.347656 40.648438 55.851562 37.988281 55.851562 C 35.792969 55.851562 33.75 55.472656 31.859375 54.710938 C 29.972656 53.953125 28.347656 52.910156 26.988281 51.574219 C 25.625 50.242188 24.609375 48.714844 23.941406 47 L 28.648438 44.398438 C 29.238281 45.632812 29.941406 46.742188 30.761719 47.726562 C 31.582031 48.707031 32.546875 49.480469 33.652344 50.039062 C 34.761719 50.597656 36.03125 50.875 37.464844 50.875 C 39.710938 50.875 41.515625 50.222656 42.875 48.914062 C 44.238281 47.605469 44.917969 45.859375 44.917969 43.675781 C 44.917969 42.324219 44.605469 41.125 43.976562 40.074219 C 43.347656 39.023438 42.492188 38.203125 41.417969 37.613281 C 40.34375 37.019531 39.121094 36.726562 37.75 36.726562 C 36.9375 36.726562 36.179688 36.800781 35.46875 36.949219 C 34.761719 37.101562 34.046875 37.378906 33.332031 37.789062 C 32.613281 38.195312 31.839844 38.808594 31.011719 39.625 C 30.851562 39.707031 30.738281 39.746094 30.667969 39.738281 C 30.59375 39.730469 30.472656 39.683594 30.296875 39.601562 L 25.828125 37.699219 L 27.40625 19.148438 L 48.886719 19.148438 L 48.671875 24.226562 L 32.136719 24.226562 L 31.347656 34.273438 C 32.574219 33.375 33.808594 32.726562 35.050781 32.324219 C 36.292969 31.925781 37.664062 31.726562 39.160156 31.726562 C 41.359375 31.726562 43.359375 32.175781 45.160156 33.074219 C 46.957031 33.976562 48.390625 35.300781 49.460938 37.050781 C 50.527344 38.800781 51.058594 40.941406 51.058594 43.476562 C 51.058594 46.007812 50.523438 48.199219 49.449219 50.050781 Z M 49.445312 50.050781 " fill-opacity="1" fill-rule="nonzero"/></svg>