<svg xmlns="http://www.w3.org/2000/svg" xmlns:xlink="http://www.w3.org/1999/xlink" width="100" zoomAndPan="magnify" viewBox="0 0 75 74.999997" height="100" preserveAspectRatio="xMidYMid meet" version="1.0"><path fill="#000000" d="M 41.371094 37.976562 C 40.375 37.441406 39.207031 37.175781 37.871094 37.175781 C 36.769531 37.175781 35.707031 37.441406 34.679688 37.976562 C 33.652344 38.507812 32.816406 39.199219 32.171875 40.050781 C 31.527344 40.898438 31.203125 41.808594 31.203125 42.773438 C 31.1875 44.492188 31.457031 45.992188 32.015625 47.273438 C 32.574219 48.558594 33.359375 49.554688 34.371094 50.261719 C 35.382812 50.972656 36.554688 51.324219 37.894531 51.324219 C 39.136719 51.324219 40.253906 51.015625 41.25 50.398438 C 42.246094 49.785156 43.035156 48.925781 43.617188 47.824219 C 44.199219 46.726562 44.488281 45.457031 44.488281 44.023438 C 44.488281 42.558594 44.21875 41.316406 43.675781 40.300781 C 43.136719 39.285156 42.367188 38.507812 41.371094 37.976562 Z M 41.371094 37.976562 " fill-opacity="1" fill-rule="nonzero"/><path fill="#000000" d="M 37.5 0 C 16.789062 0 0 16.789062 0 37.5 C 0 58.210938 16.789062 75 37.5 75 C 58.210938 75 75 58.210938 75 37.5 C 75 16.789062 58.210938 0 37.5 0 Z M 49.101562 50.113281 C 48.050781 51.972656 46.574219 53.433594 44.679688 54.5 C 42.785156 55.566406 40.570312 56.101562 38.039062 56.101562 C 35.21875 56.101562 32.78125 55.367188 30.726562 53.898438 C 28.671875 52.433594 27.089844 50.355469 25.984375 47.664062 C 24.875 44.972656 24.324219 41.785156 24.324219 38.101562 C 24.324219 34.183594 24.871094 30.789062 25.972656 27.914062 C 27.070312 25.039062 28.667969 22.816406 30.761719 21.25 C 32.855469 19.683594 35.394531 18.898438 38.371094 18.898438 C 40.410156 18.898438 42.296875 19.296875 44.035156 20.085938 C 45.769531 20.878906 47.195312 22.015625 48.3125 23.5 C 49.425781 24.984375 50.082031 26.773438 50.273438 28.875 L 44.894531 28.875 C 44.449219 27.257812 43.683594 26.007812 42.601562 25.125 C 41.519531 24.242188 40.148438 23.800781 38.492188 23.800781 C 36.660156 23.800781 35.128906 24.339844 33.902344 25.425781 C 32.675781 26.507812 31.796875 28.0625 31.261719 30.085938 C 30.730469 32.113281 30.558594 34.535156 30.75 37.351562 C 31.242188 36.367188 31.914062 35.511719 32.757812 34.789062 C 33.601562 34.0625 34.566406 33.5 35.648438 33.101562 C 36.730469 32.699219 37.878906 32.5 39.089844 32.5 C 41.398438 32.5 43.421875 32.957031 45.160156 33.875 C 46.894531 34.792969 48.25 36.089844 49.21875 37.773438 C 50.191406 39.457031 50.679688 41.449219 50.679688 43.75 C 50.679688 46.132812 50.152344 48.253906 49.101562 50.113281 Z M 49.101562 50.113281 " fill-opacity="1" fill-rule="nonzero"/></svg>