<svg xmlns="http://www.w3.org/2000/svg" xmlns:xlink="http://www.w3.org/1999/xlink" width="100" zoomAndPan="magnify" viewBox="0 0 75 74.999997" height="100" preserveAspectRatio="xMidYMid meet" version="1.0"><path fill="#000000" d="M 37.5 0 C 16.789062 0 0 16.789062 0 37.5 C 0 58.210938 16.789062 75 37.5 75 C 58.210938 75 75 58.210938 75 37.5 C 75 16.789062 58.210938 0 37.5 0 Z M 50.054688 24.5 C 48.894531 26.082031 47.738281 27.914062 46.589844 29.988281 C 45.445312 32.0625 44.34375 34.253906 43.292969 36.5625 C 42.242188 38.871094 41.304688 41.179688 40.476562 43.488281 C 39.644531 45.796875 38.96875 47.992188 38.445312 50.074219 C 37.917969 52.160156 37.597656 53.992188 37.488281 55.574219 L 31.203125 55.574219 C 31.394531 54.023438 31.78125 52.085938 32.363281 49.761719 C 32.945312 47.4375 33.746094 44.871094 34.765625 42.0625 C 35.785156 39.253906 37.050781 36.351562 38.5625 33.351562 C 40.078125 30.351562 41.84375 27.398438 43.867188 24.5 L 24.945312 24.5 L 24.945312 19.425781 L 50.054688 19.425781 Z M 50.054688 24.5 " fill-opacity="1" fill-rule="nonzero"/></svg>