<svg xmlns="http://www.w3.org/2000/svg" xmlns:xlink="http://www.w3.org/1999/xlink" width="100" zoomAndPan="magnify" viewBox="0 0 75 74.999997" height="100" preserveAspectRatio="xMidYMid meet" version="1.0"><path fill="#000000" d="M 41.40625 40.238281 C 40.308594 39.722656 39 39.460938 37.488281 39.460938 C 35.992188 39.460938 34.6875 39.722656 33.582031 40.238281 C 32.472656 40.753906 31.621094 41.464844 31.023438 42.375 C 30.425781 43.285156 30.128906 44.328125 30.128906 45.511719 C 30.128906 47.296875 30.792969 48.722656 32.125 49.789062 C 33.453125 50.855469 35.242188 51.386719 37.488281 51.386719 C 39.765625 51.386719 41.566406 50.855469 42.886719 49.789062 C 44.210938 48.722656 44.871094 47.296875 44.871094 45.511719 C 44.871094 44.328125 44.570312 43.285156 43.964844 42.375 C 43.359375 41.464844 42.503906 40.753906 41.40625 40.238281 Z M 41.40625 40.238281 " fill-opacity="1" fill-rule="nonzero"/><path fill="#000000" d="M 37.5 0 C 16.789062 0 0 16.789062 0 37.5 C 0 58.210938 16.789062 75 37.5 75 C 58.210938 75 75 58.210938 75 37.5 C 75 16.789062 58.210938 0 37.5 0 Z M 49.398438 51.164062 C 48.277344 52.730469 46.691406 53.941406 44.644531 54.800781 C 42.597656 55.660156 40.210938 56.085938 37.488281 56.085938 C 34.765625 56.085938 32.386719 55.65625 30.355469 54.800781 C 28.324219 53.941406 26.742188 52.730469 25.613281 51.164062 C 24.480469 49.597656 23.917969 47.753906 23.917969 45.636719 C 23.917969 44.253906 24.246094 42.929688 24.90625 41.664062 C 25.570312 40.394531 26.417969 39.324219 27.453125 38.449219 C 28.488281 37.574219 29.554688 37.019531 30.652344 36.789062 C 29.171875 36.085938 27.929688 35.082031 26.925781 33.773438 C 25.921875 32.464844 25.421875 30.855469 25.421875 28.9375 C 25.421875 26.789062 25.945312 24.964844 27 23.476562 C 28.050781 21.984375 29.488281 20.851562 31.3125 20.074219 C 33.136719 19.300781 35.195312 18.914062 37.488281 18.914062 C 39.78125 18.914062 41.835938 19.300781 43.652344 20.074219 C 45.46875 20.851562 46.90625 21.984375 47.964844 23.476562 C 49.023438 24.96875 49.554688 26.789062 49.554688 28.9375 C 49.554688 30.855469 49.0625 32.464844 48.074219 33.773438 C 47.085938 35.082031 45.835938 36.085938 44.320312 36.789062 C 45.421875 37.019531 46.488281 37.574219 47.523438 38.449219 C 48.558594 39.324219 49.410156 40.394531 50.082031 41.664062 C 50.75 42.929688 51.082031 44.253906 51.082031 45.636719 C 51.082031 47.753906 50.523438 49.597656 49.398438 51.164062 Z M 49.398438 51.164062 " fill-opacity="1" fill-rule="nonzero"/><path fill="#000000" d="M 33.03125 32.898438 C 34.203125 33.875 35.6875 34.363281 37.488281 34.363281 C 39.304688 34.363281 40.789062 33.875 41.945312 32.898438 C 43.097656 31.925781 43.675781 30.5625 43.675781 28.8125 C 43.675781 27.078125 43.09375 25.703125 41.933594 24.6875 C 40.769531 23.671875 39.289062 23.164062 37.488281 23.164062 C 35.6875 23.164062 34.203125 23.671875 33.03125 24.6875 C 31.859375 25.703125 31.273438 27.078125 31.273438 28.8125 C 31.273438 30.5625 31.859375 31.925781 33.03125 32.898438 Z M 33.03125 32.898438 " fill-opacity="1" fill-rule="nonzero"/></svg>