<svg xmlns="http://www.w3.org/2000/svg" xmlns:xlink="http://www.w3.org/1999/xlink" width="100" zoomAndPan="magnify" viewBox="0 0 75 74.999997" height="100" preserveAspectRatio="xMidYMid meet" version="1.0"><path fill="#000000" d="M 40.605469 24.6875 C 39.59375 23.980469 38.410156 23.625 37.058594 23.625 C 35.832031 23.625 34.734375 23.933594 33.773438 24.550781 C 32.808594 25.167969 32.054688 26.019531 31.515625 27.113281 C 30.972656 28.203125 30.703125 29.464844 30.703125 30.898438 C 30.703125 33.035156 31.265625 34.707031 32.398438 35.925781 C 33.53125 37.140625 35.089844 37.75 37.082031 37.75 C 38.195312 37.75 39.265625 37.484375 40.285156 36.949219 C 41.304688 36.417969 42.140625 35.726562 42.792969 34.875 C 43.445312 34.023438 43.773438 33.125 43.773438 32.175781 C 43.789062 30.441406 43.515625 28.9375 42.960938 27.664062 C 42.402344 26.386719 41.617188 25.394531 40.605469 24.6875 Z M 40.605469 24.6875 " fill-opacity="1" fill-rule="nonzero"/><path fill="#000000" d="M 37.5 0 C 16.789062 0 0 16.789062 0 37.5 C 0 58.210938 16.789062 75 37.5 75 C 58.210938 75 75 58.210938 75 37.5 C 75 16.789062 58.210938 0 37.5 0 Z M 48.945312 47.414062 C 47.824219 50.269531 46.207031 52.433594 44.09375 53.898438 C 41.984375 55.367188 39.429688 56.101562 36.4375 56.101562 C 34.414062 56.101562 32.519531 55.691406 30.75 54.875 C 28.980469 54.058594 27.523438 52.898438 26.378906 51.398438 C 25.230469 49.898438 24.5625 48.132812 24.371094 46.101562 L 29.9375 46.101562 C 30.273438 47.617188 30.996094 48.847656 32.113281 49.789062 C 33.226562 50.730469 34.597656 51.199219 36.222656 51.199219 C 38.054688 51.199219 39.640625 50.726562 40.988281 49.773438 C 42.335938 48.824219 43.34375 47.332031 44.011719 45.300781 C 44.679688 43.265625 44.925781 40.625 44.753906 37.375 C 44.320312 38.441406 43.695312 39.375 42.875 40.175781 C 42.054688 40.976562 41.085938 41.597656 39.960938 42.039062 C 38.839844 42.480469 37.589844 42.699219 36.222656 42.699219 C 33.910156 42.699219 31.867188 42.238281 30.09375 41.3125 C 28.316406 40.386719 26.925781 39.0625 25.921875 37.335938 C 24.921875 35.613281 24.417969 33.566406 24.417969 31.199219 C 24.417969 28.800781 24.933594 26.675781 25.960938 24.824219 C 26.988281 22.976562 28.4375 21.523438 30.308594 20.476562 C 32.179688 19.425781 34.382812 18.898438 36.914062 18.898438 C 39.734375 18.898438 42.171875 19.625 44.226562 21.074219 C 46.28125 22.523438 47.863281 24.589844 48.96875 27.273438 C 50.078125 29.957031 50.628906 33.140625 50.628906 36.824219 C 50.628906 41.023438 50.070312 44.554688 48.945312 47.414062 Z M 48.945312 47.414062 " fill-opacity="1" fill-rule="nonzero"/></svg>