<svg xmlns="http://www.w3.org/2000/svg" xmlns:xlink="http://www.w3.org/1999/xlink" width="100" zoomAndPan="magnify" viewBox="0 0 75 74.999997" height="100" preserveAspectRatio="xMidYMid meet" version="1.0"><defs><clipPath id="a0555987cf"><path d="M 22.4375 43.820312 L 52.5625 43.820312 L 52.5625 58.757812 L 22.4375 58.757812 Z M 22.4375 43.820312 " clip-rule="nonzero"/></clipPath><clipPath id="73b05033ad"><path d="M 36 16.03125 L 39 16.03125 L 39 43 L 36 43 Z M 36 16.03125 " clip-rule="nonzero"/></clipPath><clipPath id="4381894e02"><path d="M 54 57 L 75 57 L 75 58.78125 L 54 58.78125 Z M 54 57 " clip-rule="nonzero"/></clipPath><clipPath id="0ad76fe052"><path d="M 0 57 L 21 57 L 21 58.78125 L 0 58.78125 Z M 0 57 " clip-rule="nonzero"/></clipPath></defs><g clip-path="url(#a0555987cf)"><path fill="#fabc18" d="M 52.492188 58.757812 C 52.492188 50.515625 45.78125 43.832031 37.5 43.832031 C 29.21875 43.832031 22.507812 50.515625 22.507812 58.757812 L 52.492188 58.757812 " fill-opacity="1" fill-rule="nonzero"/></g><g clip-path="url(#73b05033ad)"><path fill="#fabc18" d="M 37.164062 16.058594 L 36.769531 42.195312 L 38.230469 42.195312 Z M 37.164062 16.058594 " fill-opacity="1" fill-rule="nonzero"/></g><path fill="#fabc18" d="M 42.097656 23.425781 L 39.054688 42.25 L 40.503906 42.449219 L 42.097656 23.425781 " fill-opacity="1" fill-rule="nonzero"/><path fill="#fabc18" d="M 46.1875 28.101562 L 41.3125 42.617188 L 42.015625 42.816406 L 42.722656 43.015625 L 46.1875 28.101562 " fill-opacity="1" fill-rule="nonzero"/><path fill="#fabc18" d="M 49.117188 32.328125 L 43.5 43.292969 L 44.167969 43.582031 L 44.839844 43.875 L 49.117188 32.328125 " fill-opacity="1" fill-rule="nonzero"/><path fill="#fabc18" d="M 56.40625 28.339844 L 45.570312 44.257812 L 46.820312 45.015625 L 56.40625 28.339844 " fill-opacity="1" fill-rule="nonzero"/><path fill="#fabc18" d="M 55.5625 36.855469 L 47.492188 45.492188 L 48.058594 45.957031 L 48.621094 46.417969 L 55.5625 36.855469 " fill-opacity="1" fill-rule="nonzero"/><path fill="#fabc18" d="M 61 37.140625 L 49.222656 46.984375 L 50.214844 48.050781 L 61 37.140625 " fill-opacity="1" fill-rule="nonzero"/><path fill="#fabc18" d="M 66.996094 38.300781 L 50.734375 48.691406 L 51.570312 49.886719 L 66.996094 38.300781 " fill-opacity="1" fill-rule="nonzero"/><path fill="#fabc18" d="M 60.089844 47.308594 L 51.996094 50.59375 L 52.328125 51.242188 L 52.65625 51.890625 L 60.089844 47.308594 " fill-opacity="1" fill-rule="nonzero"/><path fill="#fabc18" d="M 67.730469 48.332031 L 52.980469 52.648438 L 53.460938 54.023438 L 67.730469 48.332031 " fill-opacity="1" fill-rule="nonzero"/><path fill="#fabc18" d="M 65.988281 53.128906 L 53.675781 54.820312 L 53.960938 56.246094 L 65.988281 53.128906 " fill-opacity="1" fill-rule="nonzero"/><g clip-path="url(#4381894e02)"><path fill="#fabc18" d="M 75 57.03125 L 54.066406 57.0625 L 54.152344 58.515625 L 75 57.03125 " fill-opacity="1" fill-rule="nonzero"/></g><path fill="#fabc18" d="M 33.828125 32.339844 L 35.945312 42.25 L 34.496094 42.449219 L 33.828125 32.339844 " fill-opacity="1" fill-rule="nonzero"/><path fill="#fabc18" d="M 27.296875 22.445312 L 33.6875 42.617188 L 32.277344 43.015625 L 27.296875 22.445312 " fill-opacity="1" fill-rule="nonzero"/><path fill="#fabc18" d="M 27.828125 36.75 L 31.5 43.292969 L 30.832031 43.582031 L 30.160156 43.875 L 27.828125 36.75 " fill-opacity="1" fill-rule="nonzero"/><path fill="#fabc18" d="M 20.777344 31.601562 L 29.429688 44.257812 L 28.804688 44.636719 L 28.183594 45.015625 L 20.777344 31.601562 " fill-opacity="1" fill-rule="nonzero"/><path fill="#fabc18" d="M 19.4375 36.855469 L 27.507812 45.492188 L 26.941406 45.957031 L 26.378906 46.417969 L 19.4375 36.855469 " fill-opacity="1" fill-rule="nonzero"/><path fill="#fabc18" d="M 14 37.140625 L 25.777344 46.984375 L 24.785156 48.050781 L 14 37.140625 " fill-opacity="1" fill-rule="nonzero"/><path fill="#fabc18" d="M 6.570312 37.179688 L 24.265625 48.691406 L 23.429688 49.886719 L 6.570312 37.179688 " fill-opacity="1" fill-rule="nonzero"/><path fill="#fabc18" d="M 10.46875 45.054688 L 23.003906 50.59375 L 22.671875 51.242188 L 22.34375 51.890625 L 10.46875 45.054688 " fill-opacity="1" fill-rule="nonzero"/><path fill="#fabc18" d="M 7.269531 48.332031 L 22.019531 52.648438 L 21.777344 53.335938 L 21.539062 54.023438 L 7.269531 48.332031 " fill-opacity="1" fill-rule="nonzero"/><path fill="#fabc18" d="M 9.011719 53.128906 L 21.324219 54.820312 L 21.179688 55.535156 L 21.039062 56.246094 L 9.011719 53.128906 " fill-opacity="1" fill-rule="nonzero"/><g clip-path="url(#0ad76fe052)"><path fill="#fabc18" d="M 0 57.03125 L 20.933594 57.0625 L 20.847656 58.515625 L 0 57.03125 " fill-opacity="1" fill-rule="nonzero"/></g></svg>