<svg xmlns="http://www.w3.org/2000/svg" xmlns:xlink="http://www.w3.org/1999/xlink" width="100" zoomAndPan="magnify" viewBox="0 0 75 74.999997" height="100" preserveAspectRatio="xMidYMid meet" version="1.0"><defs><clipPath id="73ae1cd674"><path d="M 22.4375 16.242188 L 52.5625 16.242188 L 52.5625 31.179688 L 22.4375 31.179688 Z M 22.4375 16.242188 " clip-rule="nonzero"/></clipPath><clipPath id="f5f7fe717a"><path d="M 36 32 L 39 32 L 39 58.78125 L 36 58.78125 Z M 36 32 " clip-rule="nonzero"/></clipPath><clipPath id="e2cfeaac84"><path d="M 54 16.21875 L 75 16.21875 L 75 18 L 54 18 Z M 54 16.21875 " clip-rule="nonzero"/></clipPath><clipPath id="6eed871a6c"><path d="M 0 16.21875 L 21 16.21875 L 21 18 L 0 18 Z M 0 16.21875 " clip-rule="nonzero"/></clipPath></defs><g clip-path="url(#73ae1cd674)"><path fill="#e67a22" d="M 52.492188 16.242188 C 52.492188 24.484375 45.78125 31.167969 37.5 31.167969 C 29.21875 31.167969 22.507812 24.484375 22.507812 16.242188 L 52.492188 16.242188 " fill-opacity="1" fill-rule="nonzero"/></g><g clip-path="url(#f5f7fe717a)"><path fill="#e67a22" d="M 37.164062 58.941406 L 36.769531 32.804688 L 38.230469 32.804688 Z M 37.164062 58.941406 " fill-opacity="1" fill-rule="nonzero"/></g><path fill="#e67a22" d="M 42.097656 51.574219 L 39.054688 32.75 L 40.503906 32.550781 L 42.097656 51.574219 " fill-opacity="1" fill-rule="nonzero"/><path fill="#e67a22" d="M 46.1875 46.898438 L 41.3125 32.382812 L 42.015625 32.183594 L 42.722656 31.984375 L 46.1875 46.898438 " fill-opacity="1" fill-rule="nonzero"/><path fill="#e67a22" d="M 49.117188 42.671875 L 43.5 31.707031 L 44.167969 31.417969 L 44.839844 31.125 L 49.117188 42.671875 " fill-opacity="1" fill-rule="nonzero"/><path fill="#e67a22" d="M 56.40625 46.660156 L 45.570312 30.742188 L 46.820312 29.984375 L 56.40625 46.660156 " fill-opacity="1" fill-rule="nonzero"/><path fill="#e67a22" d="M 55.5625 38.144531 L 47.492188 29.507812 L 48.058594 29.042969 L 48.621094 28.582031 L 55.5625 38.144531 " fill-opacity="1" fill-rule="nonzero"/><path fill="#e67a22" d="M 61 37.859375 L 49.222656 28.015625 L 50.214844 26.949219 L 61 37.859375 " fill-opacity="1" fill-rule="nonzero"/><path fill="#e67a22" d="M 66.996094 36.699219 L 50.734375 26.308594 L 51.570312 25.113281 L 66.996094 36.699219 " fill-opacity="1" fill-rule="nonzero"/><path fill="#e67a22" d="M 60.089844 27.691406 L 51.996094 24.40625 L 52.328125 23.757812 L 52.65625 23.109375 L 60.089844 27.691406 " fill-opacity="1" fill-rule="nonzero"/><path fill="#e67a22" d="M 67.730469 26.667969 L 52.980469 22.351562 L 53.460938 20.976562 L 67.730469 26.667969 " fill-opacity="1" fill-rule="nonzero"/><path fill="#e67a22" d="M 65.988281 21.871094 L 53.675781 20.179688 L 53.960938 18.753906 L 65.988281 21.871094 " fill-opacity="1" fill-rule="nonzero"/><g clip-path="url(#e2cfeaac84)"><path fill="#e67a22" d="M 75 17.96875 L 54.066406 17.9375 L 54.152344 16.484375 L 75 17.96875 " fill-opacity="1" fill-rule="nonzero"/></g><path fill="#e67a22" d="M 33.828125 42.660156 L 35.945312 32.75 L 34.496094 32.550781 L 33.828125 42.660156 " fill-opacity="1" fill-rule="nonzero"/><path fill="#e67a22" d="M 27.296875 52.554688 L 33.6875 32.382812 L 32.277344 31.984375 L 27.296875 52.554688 " fill-opacity="1" fill-rule="nonzero"/><path fill="#e67a22" d="M 27.828125 38.25 L 31.5 31.707031 L 30.832031 31.417969 L 30.160156 31.125 L 27.828125 38.25 " fill-opacity="1" fill-rule="nonzero"/><path fill="#e67a22" d="M 20.777344 43.398438 L 29.429688 30.742188 L 28.804688 30.363281 L 28.183594 29.984375 L 20.777344 43.398438 " fill-opacity="1" fill-rule="nonzero"/><path fill="#e67a22" d="M 19.4375 38.144531 L 27.507812 29.507812 L 26.941406 29.042969 L 26.378906 28.582031 L 19.4375 38.144531 " fill-opacity="1" fill-rule="nonzero"/><path fill="#e67a22" d="M 14 37.859375 L 25.777344 28.015625 L 24.785156 26.949219 L 14 37.859375 " fill-opacity="1" fill-rule="nonzero"/><path fill="#e67a22" d="M 6.570312 37.820312 L 24.265625 26.308594 L 23.429688 25.113281 L 6.570312 37.820312 " fill-opacity="1" fill-rule="nonzero"/><path fill="#e67a22" d="M 10.46875 29.945312 L 23.003906 24.40625 L 22.671875 23.757812 L 22.34375 23.109375 L 10.46875 29.945312 " fill-opacity="1" fill-rule="nonzero"/><path fill="#e67a22" d="M 7.269531 26.667969 L 22.019531 22.351562 L 21.777344 21.664062 L 21.539062 20.976562 L 7.269531 26.667969 " fill-opacity="1" fill-rule="nonzero"/><path fill="#e67a22" d="M 9.011719 21.871094 L 21.324219 20.179688 L 21.179688 19.464844 L 21.039062 18.753906 L 9.011719 21.871094 " fill-opacity="1" fill-rule="nonzero"/><g clip-path="url(#6eed871a6c)"><path fill="#e67a22" d="M 0 17.96875 L 20.933594 17.9375 L 20.847656 16.484375 L 0 17.96875 " fill-opacity="1" fill-rule="nonzero"/></g></svg>