<svg xmlns="http://www.w3.org/2000/svg" xmlns:xlink="http://www.w3.org/1999/xlink" width="100" zoomAndPan="magnify" viewBox="0 0 75 74.999997" height="100" preserveAspectRatio="xMidYMid meet" version="1.0"><path fill="#000000" d="M 73.90625 37.5 C 73.90625 38.691406 73.847656 39.882812 73.734375 41.070312 C 73.617188 42.253906 73.441406 43.433594 73.207031 44.601562 C 72.976562 45.773438 72.6875 46.925781 72.339844 48.070312 C 71.992188 49.210938 71.59375 50.332031 71.136719 51.433594 C 70.679688 52.535156 70.171875 53.609375 69.609375 54.664062 C 69.046875 55.714844 68.433594 56.734375 67.773438 57.726562 C 67.109375 58.71875 66.398438 59.675781 65.644531 60.597656 C 64.886719 61.519531 64.085938 62.402344 63.246094 63.246094 C 62.402344 64.085938 61.519531 64.886719 60.597656 65.644531 C 59.675781 66.398438 58.71875 67.109375 57.726562 67.773438 C 56.734375 68.433594 55.714844 69.046875 54.664062 69.609375 C 53.609375 70.171875 52.535156 70.679688 51.433594 71.136719 C 50.332031 71.59375 49.210938 71.992188 48.070312 72.339844 C 46.925781 72.6875 45.773438 72.976562 44.601562 73.207031 C 43.433594 73.441406 42.253906 73.617188 41.070312 73.734375 C 39.882812 73.847656 38.691406 73.90625 37.5 73.90625 C 36.308594 73.90625 35.117188 73.847656 33.929688 73.734375 C 32.746094 73.617188 31.566406 73.441406 30.398438 73.207031 C 29.226562 72.976562 28.074219 72.6875 26.929688 72.339844 C 25.789062 71.992188 24.667969 71.59375 23.566406 71.136719 C 22.464844 70.679688 21.390625 70.171875 20.335938 69.609375 C 19.285156 69.046875 18.265625 68.433594 17.273438 67.773438 C 16.28125 67.109375 15.324219 66.398438 14.402344 65.644531 C 13.480469 64.886719 12.597656 64.085938 11.753906 63.246094 C 10.914062 62.402344 10.113281 61.519531 9.355469 60.597656 C 8.601562 59.675781 7.890625 58.71875 7.226562 57.726562 C 6.566406 56.734375 5.953125 55.714844 5.390625 54.664062 C 4.828125 53.609375 4.320312 52.535156 3.863281 51.433594 C 3.40625 50.332031 3.007812 49.210938 2.660156 48.070312 C 2.3125 46.925781 2.023438 45.773438 1.792969 44.601562 C 1.558594 43.433594 1.382812 42.253906 1.265625 41.070312 C 1.152344 39.882812 1.09375 38.691406 1.09375 37.5 C 1.09375 36.308594 1.152344 35.117188 1.265625 33.929688 C 1.382812 32.746094 1.558594 31.566406 1.792969 30.398438 C 2.023438 29.226562 2.3125 28.074219 2.660156 26.929688 C 3.007812 25.789062 3.40625 24.667969 3.863281 23.566406 C 4.320312 22.464844 4.828125 21.390625 5.390625 20.335938 C 5.953125 19.285156 6.566406 18.265625 7.226562 17.273438 C 7.890625 16.28125 8.601562 15.324219 9.355469 14.402344 C 10.113281 13.480469 10.914062 12.597656 11.753906 11.753906 C 12.597656 10.914062 13.480469 10.113281 14.402344 9.355469 C 15.324219 8.601562 16.28125 7.890625 17.273438 7.226562 C 18.265625 6.566406 19.285156 5.953125 20.335938 5.390625 C 21.390625 4.828125 22.464844 4.320312 23.566406 3.863281 C 24.667969 3.40625 25.789062 3.007812 26.929688 2.660156 C 28.074219 2.3125 29.226562 2.023438 30.398438 1.792969 C 31.566406 1.558594 32.746094 1.382812 33.929688 1.265625 C 35.117188 1.152344 36.308594 1.09375 37.5 1.09375 C 38.691406 1.09375 39.882812 1.152344 41.070312 1.265625 C 42.253906 1.382812 43.433594 1.558594 44.601562 1.792969 C 45.773438 2.023438 46.925781 2.3125 48.070312 2.660156 C 49.210938 3.007812 50.332031 3.40625 51.433594 3.863281 C 52.535156 4.320312 53.609375 4.828125 54.664062 5.390625 C 55.714844 5.953125 56.734375 6.566406 57.726562 7.226562 C 58.71875 7.890625 59.675781 8.601562 60.597656 9.355469 C 61.519531 10.113281 62.402344 10.914062 63.246094 11.753906 C 64.085938 12.597656 64.886719 13.480469 65.644531 14.402344 C 66.398438 15.324219 67.109375 16.28125 67.773438 17.273438 C 68.433594 18.265625 69.046875 19.285156 69.609375 20.335938 C 70.171875 21.390625 70.679688 22.464844 71.136719 23.566406 C 71.59375 24.667969 71.992188 25.789062 72.339844 26.929688 C 72.6875 28.074219 72.976562 29.226562 73.207031 30.398438 C 73.441406 31.566406 73.617188 32.746094 73.734375 33.929688 C 73.847656 35.117188 73.90625 36.308594 73.90625 37.5 Z M 73.90625 37.5 " fill-opacity="1" fill-rule="nonzero"/><path fill="#000000" d="M 37.5 75 C 16.820312 75 0 58.179688 0 37.5 C 0 16.820312 16.820312 0 37.5 0 C 58.179688 0 75 16.820312 75 37.5 C 75 58.179688 58.179688 75 37.5 75 Z M 37.5 2.183594 C 18.058594 2.183594 2.183594 18.058594 2.183594 37.5 C 2.183594 56.941406 18.058594 72.816406 37.5 72.816406 C 56.941406 72.816406 72.816406 56.941406 72.816406 37.5 C 72.816406 18.058594 56.941406 2.183594 37.5 2.183594 Z M 37.5 2.183594 " fill-opacity="1" fill-rule="nonzero"/></svg>