<svg xmlns="http://www.w3.org/2000/svg" xmlns:xlink="http://www.w3.org/1999/xlink" width="100" zoomAndPan="magnify" viewBox="0 0 75 74.999997" height="100" preserveAspectRatio="xMidYMid meet" version="1.0"><path fill="#000000" d="M 38.519531 1.09375 C 23.15625 6.042969 12.015625 20.460938 12.015625 37.5 C 12.015625 54.539062 23.15625 68.957031 38.519531 73.90625 C 58.179688 73.398438 73.90625 57.304688 73.90625 37.5 C 73.90625 17.695312 58.179688 1.675781 38.519531 1.09375 Z M 38.519531 1.09375 " fill-opacity="1" fill-rule="nonzero"/><path fill="#000000" d="M 37.5 75 C 16.820312 75 0 58.179688 0 37.5 C 0 16.820312 16.820312 0 37.5 0 C 58.179688 0 75 16.820312 75 37.5 C 75 58.179688 58.179688 75 37.5 75 Z M 37.5 2.183594 C 18.058594 2.183594 2.183594 18.058594 2.183594 37.5 C 2.183594 56.941406 18.058594 72.816406 37.5 72.816406 C 56.941406 72.816406 72.816406 56.941406 72.816406 37.5 C 72.816406 18.058594 56.941406 2.183594 37.5 2.183594 Z M 37.5 2.183594 " fill-opacity="1" fill-rule="nonzero"/></svg>