<?xml version="1.0" encoding="UTF-8"?>
<svg xmlns="http://www.w3.org/2000/svg" xmlns:xlink="http://www.w3.org/1999/xlink" width="75pt" height="74.999997pt" viewBox="0 0 75 74.999997" version="1.2">
<defs>
<clipPath id="clip1">
  <path d="M 0 18 L 75 18 L 75 61 L 0 61 Z M 0 18 "/>
</clipPath>
<clipPath id="clip2">
  <path d="M 20.519531 -4.132812 L 81.402344 50.421875 L 51.875 83.378906 L -9.011719 28.824219 Z M 20.519531 -4.132812 "/>
</clipPath>
<clipPath id="clip3">
  <path d="M 20.519531 -4.132812 L 81.402344 50.421875 L 51.875 83.378906 L -9.011719 28.824219 Z M 20.519531 -4.132812 "/>
</clipPath>
</defs>
<g id="surface1">
<rect x="0" y="0" width="75" height="74.999997" style="fill:rgb(100%,100%,100%);fill-opacity:1;stroke:none;"/>
<rect x="0" y="0" width="75" height="74.999997" style="fill:rgb(100%,100%,100%);fill-opacity:1;stroke:none;"/>
<rect x="0" y="0" width="75" height="74.999997" style="fill:rgb(100%,100%,100%);fill-opacity:1;stroke:none;"/>
<g clip-path="url(#clip1)" clip-rule="nonzero">
<g clip-path="url(#clip2)" clip-rule="nonzero">
<g clip-path="url(#clip3)" clip-rule="nonzero">
<path style=" stroke:none;fill-rule:nonzero;fill:rgb(83.918762%,32.159424%,74.119568%);fill-opacity:1;" d="M 55.507812 50.390625 C 55.507812 50.386719 42.28125 44.644531 35.96875 41.425781 C 29.597656 38.171875 22.792969 34.265625 17.433594 31.015625 C 7.078125 24.722656 3.476562 21.394531 2.859375 20.179688 C 2.816406 20.101562 2.863281 20.003906 2.953125 19.992188 C 4.21875 19.8125 8.980469 20.523438 20.851562 25.503906 C 19.847656 26.664062 18.953125 27.945312 18.203125 29.351562 C 18.226562 29.363281 30.136719 36.28125 36.835938 39.699219 C 43.203125 42.949219 50.46875 46.515625 56.386719 48.730469 C 57.050781 47.3125 57.535156 45.855469 57.867188 44.382812 C 68.878906 51.070312 72.265625 54.515625 72.871094 55.652344 C 72.917969 55.730469 72.867188 55.824219 72.773438 55.839844 C 71.4375 56.054688 66.6875 55.042969 55.507812 50.390625 Z M 74.746094 56.71875 C 75.207031 55.800781 76.425781 53.363281 58.574219 42.554688 C 58.511719 42.515625 58.378906 42.433594 58.207031 42.332031 C 58.890625 36.703125 57.285156 31.003906 53.792969 26.535156 C 51.90625 24.132812 49.476562 22.082031 46.574219 20.601562 C 38.28125 16.375 28.597656 18.027344 22.273438 24.019531 C 22.082031 23.929688 21.945312 23.867188 21.886719 23.84375 C 2.675781 15.75 1.453125 18.183594 0.992188 19.101562 C 0.714844 19.652344 0.15625 20.761719 3.710938 23.949219 C 5.960938 25.960938 10.023438 28.9375 16.667969 32.992188 C 16.667969 32.992188 16.667969 32.992188 16.671875 32.996094 C 15.96875 35.222656 15.652344 37.511719 15.703125 39.769531 C 15.867188 47.417969 20.171875 54.773438 27.503906 58.511719 C 37.011719 63.363281 48.355469 60.484375 54.355469 52.195312 C 54.355469 52.195312 54.359375 52.199219 54.359375 52.199219 C 72.894531 59.921875 74.292969 57.617188 74.746094 56.71875 "/>
</g>
</g>
</g>
</g>
</svg>
