<svg xmlns="http://www.w3.org/2000/svg" xmlns:xlink="http://www.w3.org/1999/xlink" width="100" zoomAndPan="magnify" viewBox="0 0 75 74.999997" height="100" preserveAspectRatio="xMidYMid meet" version="1.0"><path fill="#000000" d="M 36.480469 1.09375 C 51.84375 6.042969 62.984375 20.460938 62.984375 37.5 C 62.984375 54.539062 51.84375 68.957031 36.480469 73.90625 C 16.820312 73.398438 1.09375 57.304688 1.09375 37.5 C 1.09375 17.695312 16.820312 1.675781 36.480469 1.09375 Z M 36.480469 1.09375 " fill-opacity="1" fill-rule="nonzero"/><path fill="#000000" d="M 37.5 75 C 58.179688 75 75 58.179688 75 37.5 C 75 16.820312 58.179688 0 37.5 0 C 16.820312 0 0 16.820312 0 37.5 C 0 58.179688 16.820312 75 37.5 75 Z M 37.5 2.183594 C 56.941406 2.183594 72.816406 18.058594 72.816406 37.5 C 72.816406 56.941406 56.941406 72.816406 37.5 72.816406 C 18.058594 72.816406 2.183594 56.941406 2.183594 37.5 C 2.183594 18.058594 18.058594 2.183594 37.5 2.183594 Z M 37.5 2.183594 " fill-opacity="1" fill-rule="nonzero"/></svg>