<svg xmlns="http://www.w3.org/2000/svg" xmlns:xlink="http://www.w3.org/1999/xlink" width="100" zoomAndPan="magnify" viewBox="0 0 75 74.999997" height="100" preserveAspectRatio="xMidYMid meet" version="1.0"><defs><clipPath id="c53ba36dd0"><path d="M 0 16.078125 L 75 16.078125 L 75 58.828125 L 0 58.828125 Z M 0 16.078125 " clip-rule="nonzero"/></clipPath></defs><g clip-path="url(#c53ba36dd0)"><path fill="#000000" d="M 17.058594 16.316406 C 14.699219 16.316406 13.742188 17.449219 12.351562 18.546875 C 10.964844 19.640625 9.503906 21.003906 8.0625 22.328125 C 6.621094 23.65625 5.203125 24.949219 4.074219 25.84375 C 2.941406 26.734375 1.746094 26.929688 2.660156 26.929688 C 2.304688 26.925781 1.960938 26.988281 1.628906 27.121094 C 1.300781 27.253906 1.007812 27.445312 0.753906 27.695312 C 0.5 27.945312 0.304688 28.234375 0.167969 28.5625 C 0.03125 28.886719 -0.0390625 29.230469 -0.0390625 29.585938 C -0.0390625 29.941406 0.03125 30.28125 0.167969 30.609375 C 0.304688 30.9375 0.5 31.226562 0.753906 31.476562 C 1.007812 31.722656 1.300781 31.914062 1.628906 32.046875 C 1.960938 32.179688 2.304688 32.242188 2.660156 32.238281 C 5.015625 32.238281 5.988281 31.105469 7.375 30.011719 C 8.765625 28.914062 10.226562 27.554688 11.667969 26.226562 C 13.105469 24.898438 14.523438 23.605469 15.65625 22.710938 C 16.121094 22.34375 16.539062 22.152344 16.871094 21.988281 C 16.953125 22.066406 16.972656 22.050781 17.070312 22.183594 C 17.625 22.953125 18.324219 24.214844 19.042969 25.542969 C 19.761719 26.871094 20.503906 28.257812 21.390625 29.480469 C 22.277344 30.703125 23.347656 32.238281 25.703125 32.238281 C 28.058594 32.238281 29.027344 31.105469 30.417969 30.011719 C 31.808594 28.914062 33.28125 27.554688 34.71875 26.226562 C 36.160156 24.898438 37.566406 23.605469 38.699219 22.710938 C 39.167969 22.339844 39.585938 22.140625 39.925781 21.976562 C 40.007812 22.058594 40.023438 22.046875 40.121094 22.183594 C 40.679688 22.953125 41.375 24.214844 42.097656 25.542969 C 42.816406 26.871094 43.550781 28.257812 44.433594 29.480469 C 45.316406 30.703125 46.398438 32.238281 48.753906 32.238281 C 51.113281 32.238281 52.082031 31.105469 53.472656 30.011719 C 54.863281 28.914062 56.320312 27.554688 57.761719 26.226562 C 59.203125 24.898438 60.621094 23.605469 61.753906 22.710938 C 62.21875 22.34375 62.632812 22.152344 62.96875 21.988281 C 63.046875 22.066406 63.066406 22.050781 63.164062 22.183594 C 63.722656 22.953125 64.417969 24.214844 65.140625 25.542969 C 65.859375 26.871094 66.601562 28.257812 67.488281 29.480469 C 68.371094 30.703125 69.441406 32.238281 71.796875 32.238281 C 72.152344 32.253906 72.492188 32.199219 72.824219 32.078125 C 73.15625 31.957031 73.449219 31.777344 73.710938 31.539062 C 73.96875 31.300781 74.171875 31.019531 74.320312 30.699219 C 74.46875 30.382812 74.550781 30.046875 74.566406 29.695312 C 74.578125 29.34375 74.527344 29 74.40625 28.671875 C 74.285156 28.339844 74.101562 28.046875 73.863281 27.785156 C 73.625 27.527344 73.34375 27.324219 73.023438 27.175781 C 72.707031 27.027344 72.367188 26.945312 72.015625 26.929688 C 72.378906 26.960938 72.246094 26.988281 71.796875 26.371094 C 71.242188 25.601562 70.535156 24.339844 69.8125 23.011719 C 69.09375 21.6875 68.359375 20.296875 67.476562 19.074219 C 66.59375 17.851562 65.511719 16.316406 63.15625 16.316406 C 60.796875 16.316406 59.835938 17.449219 58.449219 18.546875 C 57.058594 19.640625 55.597656 21.003906 54.15625 22.328125 C 52.71875 23.65625 51.300781 24.949219 50.167969 25.84375 C 49.699219 26.214844 49.277344 26.414062 48.941406 26.578125 C 48.859375 26.496094 48.84375 26.507812 48.746094 26.371094 C 48.1875 25.605469 47.492188 24.339844 46.769531 23.011719 C 46.050781 21.6875 45.316406 20.296875 44.433594 19.074219 C 43.550781 17.851562 42.46875 16.316406 40.113281 16.316406 C 37.753906 16.316406 36.792969 17.449219 35.40625 18.546875 C 34.015625 19.640625 32.546875 21.003906 31.105469 22.328125 C 29.664062 23.65625 28.246094 24.949219 27.113281 25.84375 C 26.648438 26.210938 26.234375 26.402344 25.898438 26.570312 C 25.820312 26.488281 25.800781 26.507812 25.703125 26.371094 C 25.144531 25.601562 24.4375 24.339844 23.71875 23.011719 C 22.996094 21.6875 22.265625 20.296875 21.378906 19.074219 C 20.496094 17.851562 19.417969 16.316406 17.058594 16.316406 Z M 17.058594 42.761719 C 14.699219 42.761719 13.742188 43.890625 12.351562 44.988281 C 10.964844 46.085938 9.503906 47.445312 8.0625 48.773438 C 6.621094 50.101562 5.203125 51.394531 4.074219 52.289062 C 2.941406 53.179688 1.746094 53.375 2.660156 53.375 C 2.304688 53.371094 1.960938 53.433594 1.628906 53.566406 C 1.300781 53.699219 1.007812 53.890625 0.753906 54.140625 C 0.5 54.390625 0.304688 54.675781 0.167969 55.003906 C 0.03125 55.332031 -0.0390625 55.675781 -0.0390625 56.03125 C -0.0390625 56.382812 0.03125 56.726562 0.167969 57.054688 C 0.304688 57.382812 0.5 57.667969 0.753906 57.917969 C 1.007812 58.167969 1.300781 58.359375 1.628906 58.492188 C 1.960938 58.625 2.304688 58.6875 2.660156 58.683594 C 5.015625 58.683594 5.988281 57.550781 7.375 56.453125 C 8.765625 55.359375 10.226562 53.996094 11.667969 52.671875 C 13.105469 51.34375 14.523438 50.050781 15.65625 49.15625 C 16.121094 48.789062 16.539062 48.597656 16.871094 48.429688 C 16.953125 48.511719 16.972656 48.492188 17.070312 48.628906 C 17.625 49.394531 18.324219 50.660156 19.042969 51.988281 C 19.761719 53.3125 20.503906 54.703125 21.390625 55.925781 C 22.277344 57.148438 23.347656 58.683594 25.703125 58.683594 C 28.058594 58.683594 29.027344 57.550781 30.417969 56.453125 C 31.808594 55.359375 33.28125 53.996094 34.71875 52.671875 C 36.160156 51.34375 37.566406 50.050781 38.699219 49.15625 C 39.167969 48.785156 39.585938 48.585938 39.925781 48.421875 C 40.007812 48.503906 40.023438 48.492188 40.121094 48.628906 C 40.679688 49.394531 41.375 50.660156 42.097656 51.988281 C 42.816406 53.3125 43.550781 54.703125 44.433594 55.925781 C 45.316406 57.148438 46.398438 58.683594 48.753906 58.683594 C 51.113281 58.683594 52.082031 57.550781 53.472656 56.453125 C 54.863281 55.359375 56.320312 53.996094 57.761719 52.671875 C 59.203125 51.34375 60.621094 50.050781 61.753906 49.15625 C 62.21875 48.789062 62.632812 48.597656 62.96875 48.429688 C 63.046875 48.511719 63.066406 48.492188 63.164062 48.628906 C 63.722656 49.394531 64.417969 50.660156 65.140625 51.988281 C 65.859375 53.3125 66.601562 54.703125 67.488281 55.925781 C 68.371094 57.148438 69.441406 58.683594 71.796875 58.683594 C 72.152344 58.699219 72.492188 58.644531 72.824219 58.523438 C 73.15625 58.402344 73.449219 58.222656 73.710938 57.980469 C 73.96875 57.742188 74.171875 57.464844 74.320312 57.144531 C 74.46875 56.824219 74.550781 56.488281 74.566406 56.136719 C 74.578125 55.785156 74.527344 55.445312 74.40625 55.113281 C 74.285156 54.785156 74.101562 54.488281 73.863281 54.230469 C 73.625 53.972656 73.34375 53.769531 73.023438 53.621094 C 72.707031 53.472656 72.367188 53.390625 72.015625 53.375 C 72.378906 53.40625 72.246094 53.433594 71.796875 52.816406 C 71.242188 52.046875 70.535156 50.785156 69.8125 49.457031 C 69.09375 48.128906 68.359375 46.738281 67.476562 45.519531 C 66.59375 44.296875 65.511719 42.761719 63.15625 42.761719 C 60.796875 42.761719 59.835938 43.890625 58.449219 44.988281 C 57.058594 46.085938 55.597656 47.445312 54.15625 48.773438 C 52.71875 50.101562 51.300781 51.394531 50.167969 52.289062 C 49.699219 52.660156 49.277344 52.855469 48.941406 53.023438 C 48.859375 52.941406 48.84375 52.953125 48.746094 52.816406 C 48.1875 52.046875 47.492188 50.785156 46.769531 49.457031 C 46.050781 48.128906 45.316406 46.742188 44.433594 45.519531 C 43.550781 44.296875 42.46875 42.761719 40.113281 42.761719 C 37.753906 42.761719 36.792969 43.890625 35.40625 44.988281 C 34.015625 46.085938 32.546875 47.445312 31.105469 48.773438 C 29.664062 50.101562 28.246094 51.394531 27.113281 52.289062 C 26.648438 52.65625 26.234375 52.847656 25.898438 53.011719 C 25.820312 52.933594 25.800781 52.949219 25.703125 52.816406 C 25.144531 52.046875 24.4375 50.785156 23.71875 49.457031 C 22.996094 48.128906 22.265625 46.738281 21.378906 45.519531 C 20.496094 44.296875 19.417969 42.761719 17.058594 42.761719 Z M 17.058594 42.761719 " fill-opacity="1" fill-rule="nonzero"/></g></svg>