<svg xmlns="http://www.w3.org/2000/svg" xmlns:xlink="http://www.w3.org/1999/xlink" width="100" zoomAndPan="magnify" viewBox="0 0 75 74.999997" height="100" preserveAspectRatio="xMidYMid meet" version="1.0"><path fill="#000000" d="M 17.136719 0 C 7.808594 0 0.167969 7.636719 0.167969 16.96875 C 0.164062 17.421875 0.246094 17.859375 0.414062 18.28125 C 0.582031 18.703125 0.828125 19.074219 1.148438 19.398438 C 1.464844 19.722656 1.835938 19.972656 2.253906 20.148438 C 2.671875 20.324219 3.109375 20.410156 3.5625 20.410156 C 4.019531 20.410156 4.453125 20.324219 4.875 20.148438 C 5.292969 19.972656 5.660156 19.722656 5.980469 19.398438 C 6.300781 19.074219 6.542969 18.703125 6.710938 18.28125 C 6.882812 17.859375 6.964844 17.421875 6.957031 16.96875 C 6.957031 11.304688 11.476562 6.789062 17.136719 6.789062 C 19.863281 6.789062 23.59375 7.699219 27.234375 13.648438 C 30.875 19.597656 34.105469 30.898438 34.105469 50.90625 L 34.105469 71.265625 C 34.101562 71.722656 34.179688 72.160156 34.351562 72.582031 C 34.519531 73 34.765625 73.375 35.082031 73.699219 C 35.402344 74.019531 35.769531 74.269531 36.191406 74.445312 C 36.609375 74.621094 37.046875 74.710938 37.5 74.710938 C 37.953125 74.710938 38.390625 74.621094 38.808594 74.445312 C 39.230469 74.269531 39.597656 74.019531 39.917969 73.699219 C 40.234375 73.375 40.480469 73 40.648438 72.582031 C 40.820312 72.160156 40.898438 71.722656 40.894531 71.265625 L 40.894531 50.90625 C 40.894531 30.898438 44.125 19.597656 47.765625 13.648438 C 51.40625 7.699219 55.136719 6.789062 57.863281 6.789062 C 63.523438 6.789062 68.042969 11.304688 68.042969 16.96875 C 68.035156 17.421875 68.117188 17.859375 68.289062 18.28125 C 68.457031 18.703125 68.699219 19.074219 69.019531 19.398438 C 69.339844 19.722656 69.707031 19.972656 70.125 20.148438 C 70.546875 20.324219 70.980469 20.410156 71.4375 20.410156 C 71.890625 20.410156 72.328125 20.324219 72.746094 20.148438 C 73.164062 19.972656 73.535156 19.722656 73.851562 19.398438 C 74.171875 19.074219 74.417969 18.703125 74.585938 18.28125 C 74.753906 17.859375 74.835938 17.421875 74.832031 16.96875 C 74.832031 7.636719 67.191406 0 57.863281 0 C 53.089844 0 46.640625 2.484375 41.972656 10.109375 C 40.136719 13.113281 38.777344 17.597656 37.5 22.3125 C 36.222656 17.597656 34.863281 13.113281 33.027344 10.109375 C 28.359375 2.484375 21.910156 0 17.136719 0 Z M 17.136719 0 " fill-opacity="1" fill-rule="nonzero"/></svg>