<svg xmlns="http://www.w3.org/2000/svg" xmlns:xlink="http://www.w3.org/1999/xlink" width="100" zoomAndPan="magnify" viewBox="0 0 75 74.999997" height="100" preserveAspectRatio="xMidYMid meet" version="1.0"><defs><clipPath id="bf70b0bdd7"><path d="M 0 9.609375 L 75 9.609375 L 75 65 L 0 65 Z M 0 9.609375 " clip-rule="nonzero"/></clipPath></defs><g clip-path="url(#bf70b0bdd7)"><path fill="#000000" d="M 14.3125 45.023438 C 15.246094 45.023438 16.171875 44.929688 17.089844 44.75 C 18.007812 44.566406 18.898438 44.296875 19.761719 43.9375 C 20.625 43.582031 21.445312 43.144531 22.222656 42.625 C 23 42.109375 23.722656 41.519531 24.382812 40.859375 C 25.042969 40.203125 25.632812 39.488281 26.152344 38.710938 C 26.671875 37.9375 27.109375 37.121094 27.46875 36.261719 C 27.828125 35.402344 28.097656 34.515625 28.28125 33.601562 C 28.460938 32.691406 28.554688 31.769531 28.554688 30.835938 C 28.558594 29.648438 28.414062 28.476562 28.117188 27.324219 C 27.824219 26.171875 27.390625 25.074219 26.8125 24.03125 C 26.238281 22.988281 25.542969 22.03125 24.722656 21.164062 C 23.90625 20.296875 22.988281 19.546875 21.980469 18.910156 C 21.753906 18.769531 21.585938 18.578125 21.476562 18.339844 C 21.363281 18.101562 21.328125 17.851562 21.367188 17.589844 C 21.402344 17.328125 21.507812 17.097656 21.683594 16.898438 C 21.855469 16.699219 22.070312 16.5625 22.324219 16.488281 C 29.667969 14.433594 37.140625 13.695312 44.746094 14.269531 C 54.152344 15.035156 63.046875 17.589844 71.417969 21.921875 C 71.816406 22.144531 72.238281 22.234375 72.691406 22.203125 C 73.144531 22.167969 73.550781 22.011719 73.90625 21.734375 C 74.265625 21.457031 74.515625 21.105469 74.660156 20.675781 C 74.804688 20.25 74.816406 19.816406 74.699219 19.378906 C 74.542969 18.777344 74.1875 18.324219 73.632812 18.03125 C 69.222656 15.667969 64.613281 13.789062 59.800781 12.398438 C 54.992188 11.007812 50.085938 10.136719 45.089844 9.785156 C 43.503906 9.707031 41.949219 9.667969 40.421875 9.667969 C 26.75 9.667969 15.355469 12.792969 6.5 18.984375 C 5.597656 19.582031 4.773438 20.269531 4.027344 21.050781 C 3.28125 21.832031 2.632812 22.683594 2.078125 23.609375 C 1.523438 24.535156 1.082031 25.511719 0.746094 26.535156 C 0.414062 27.5625 0.195312 28.609375 0.0976562 29.683594 C 0.0664062 30.070312 0.0507812 30.453125 0.0507812 30.835938 C 0.0546875 31.769531 0.144531 32.691406 0.328125 33.605469 C 0.511719 34.515625 0.78125 35.402344 1.140625 36.265625 C 1.5 37.125 1.941406 37.941406 2.460938 38.714844 C 2.980469 39.488281 3.570312 40.207031 4.234375 40.863281 C 4.894531 41.523438 5.613281 42.113281 6.394531 42.628906 C 7.171875 43.148438 7.992188 43.585938 8.855469 43.941406 C 9.722656 44.296875 10.613281 44.566406 11.53125 44.75 C 12.449219 44.933594 13.375 45.023438 14.3125 45.023438 Z M 8.851562 22.8125 C 10.496094 21.691406 12.316406 21.132812 14.3125 21.144531 C 14.699219 21.144531 15.082031 21.167969 15.46875 21.210938 C 15.851562 21.257812 16.230469 21.324219 16.605469 21.414062 C 16.984375 21.503906 17.351562 21.617188 17.714844 21.75 C 18.078125 21.882812 18.429688 22.039062 18.773438 22.210938 C 19.117188 22.386719 19.449219 22.582031 19.769531 22.796875 C 20.09375 23.011719 20.398438 23.242188 20.691406 23.496094 C 20.984375 23.746094 21.261719 24.011719 21.523438 24.296875 C 21.785156 24.578125 22.027344 24.875 22.253906 25.1875 C 22.480469 25.5 22.683594 25.824219 22.871094 26.160156 C 23.058594 26.5 23.226562 26.84375 23.371094 27.199219 C 23.515625 27.558594 23.640625 27.921875 23.742188 28.292969 C 23.847656 28.664062 23.925781 29.039062 23.984375 29.417969 C 24.039062 29.796875 24.074219 30.179688 24.085938 30.566406 C 24.097656 30.949219 24.089844 31.332031 24.054688 31.714844 C 24.019531 32.097656 23.964844 32.480469 23.886719 32.855469 C 23.804688 33.230469 23.703125 33.601562 23.582031 33.964844 C 23.457031 34.332031 23.3125 34.6875 23.148438 35.035156 C 22.980469 35.382812 22.796875 35.71875 22.589844 36.042969 C 22.382812 36.367188 22.160156 36.679688 21.917969 36.980469 C 21.675781 37.277344 21.414062 37.5625 21.136719 37.832031 C 20.859375 38.097656 20.566406 38.351562 20.261719 38.582031 C 19.953125 38.816406 19.632812 39.03125 19.300781 39.226562 C 18.96875 39.425781 18.625 39.601562 18.273438 39.753906 C 17.917969 39.910156 17.558594 40.042969 17.1875 40.15625 C 16.820312 40.269531 16.445312 40.359375 16.0625 40.429688 C 15.683594 40.5 15.300781 40.542969 14.914062 40.566406 C 14.53125 40.589844 14.144531 40.589844 13.757812 40.570312 C 13.371094 40.546875 12.988281 40.503906 12.609375 40.433594 C 12.226562 40.367188 11.851562 40.277344 11.484375 40.164062 C 11.113281 40.054688 10.75 39.921875 10.398438 39.765625 C 10.042969 39.613281 9.699219 39.4375 9.367188 39.242188 C 9.035156 39.046875 8.714844 38.832031 8.40625 38.601562 C 8.097656 38.367188 7.804688 38.117188 7.527344 37.847656 C 7.25 37.582031 6.988281 37.300781 6.746094 37 C 6.5 36.703125 6.277344 36.390625 6.070312 36.066406 C 5.863281 35.742188 5.675781 35.40625 5.507812 35.058594 C 5.34375 34.710938 5.195312 34.355469 5.074219 33.992188 C 4.949219 33.628906 4.847656 33.257812 4.765625 32.882812 C 4.683594 32.503906 4.628906 32.125 4.59375 31.742188 C 4.558594 31.359375 4.546875 30.976562 4.558594 30.59375 C 4.566406 30.207031 4.601562 29.824219 4.65625 29.445312 C 4.714844 29.066406 4.792969 28.6875 4.894531 28.316406 C 4.996094 27.945312 5.117188 27.582031 5.261719 27.226562 C 5.40625 26.871094 5.574219 26.523438 5.757812 26.1875 C 5.945312 25.847656 6.152344 25.523438 6.375 25.210938 C 6.601562 24.898438 6.84375 24.601562 7.105469 24.316406 C 7.363281 24.03125 7.640625 23.765625 7.933594 23.511719 C 8.226562 23.261719 8.53125 23.027344 8.851562 22.8125 Z M 60.515625 29.175781 C 59.578125 29.175781 58.652344 29.269531 57.734375 29.453125 C 56.816406 29.632812 55.925781 29.90625 55.0625 30.261719 C 54.199219 30.617188 53.378906 31.054688 52.601562 31.574219 C 51.824219 32.09375 51.105469 32.679688 50.445312 33.339844 C 49.78125 33.996094 49.191406 34.714844 48.671875 35.488281 C 48.152344 36.261719 47.714844 37.078125 47.355469 37.9375 C 47 38.796875 46.730469 39.683594 46.546875 40.597656 C 46.363281 41.511719 46.273438 42.433594 46.273438 43.363281 C 46.265625 44.550781 46.414062 45.722656 46.707031 46.875 C 47.003906 48.03125 47.4375 49.128906 48.011719 50.171875 C 48.585938 51.214844 49.285156 52.167969 50.101562 53.035156 C 50.921875 53.902344 51.835938 54.652344 52.847656 55.289062 C 53.070312 55.429688 53.238281 55.621094 53.351562 55.859375 C 53.460938 56.097656 53.496094 56.351562 53.460938 56.613281 C 53.421875 56.871094 53.316406 57.101562 53.144531 57.300781 C 52.96875 57.503906 52.757812 57.636719 52.5 57.710938 C 45.160156 59.765625 37.683594 60.503906 30.082031 59.929688 C 20.671875 59.164062 11.78125 56.613281 3.40625 52.277344 C 3.058594 52.09375 2.6875 52 2.292969 52 C 1.910156 51.996094 1.550781 52.089844 1.210938 52.273438 C 0.875 52.457031 0.605469 52.710938 0.402344 53.03125 C 0.0507812 53.589844 -0.0390625 54.183594 0.128906 54.820312 C 0.285156 55.425781 0.636719 55.875 1.191406 56.167969 C 5.601562 58.535156 10.210938 60.410156 15.023438 61.800781 C 19.835938 63.191406 24.738281 64.0625 29.738281 64.414062 C 45.496094 65.183594 58.484375 62.097656 68.328125 55.214844 C 69.226562 54.617188 70.050781 53.929688 70.796875 53.148438 C 71.542969 52.367188 72.195312 51.515625 72.746094 50.589844 C 73.300781 49.664062 73.746094 48.6875 74.078125 47.664062 C 74.414062 46.640625 74.628906 45.589844 74.726562 44.515625 C 74.757812 44.132812 74.773438 43.746094 74.773438 43.363281 C 74.773438 42.433594 74.679688 41.507812 74.496094 40.597656 C 74.3125 39.683594 74.042969 38.796875 73.683594 37.9375 C 73.324219 37.074219 72.886719 36.257812 72.367188 35.484375 C 71.847656 34.710938 71.253906 33.992188 70.59375 33.335938 C 69.929688 32.675781 69.210938 32.089844 68.433594 31.570312 C 67.65625 31.054688 66.832031 30.617188 65.96875 30.257812 C 65.105469 29.902344 64.214844 29.632812 63.296875 29.449219 C 62.378906 29.269531 61.449219 29.175781 60.515625 29.175781 Z M 65.976562 51.386719 C 64.328125 52.507812 62.507812 53.066406 60.515625 53.054688 C 60.128906 53.054688 59.742188 53.035156 59.359375 52.988281 C 58.976562 52.941406 58.59375 52.875 58.21875 52.785156 C 57.84375 52.695312 57.476562 52.585938 57.113281 52.449219 C 56.75 52.316406 56.398438 52.164062 56.050781 51.988281 C 55.707031 51.8125 55.375 51.617188 55.054688 51.402344 C 54.734375 51.1875 54.425781 50.957031 54.132812 50.707031 C 53.839844 50.453125 53.5625 50.1875 53.304688 49.90625 C 53.042969 49.621094 52.796875 49.324219 52.574219 49.011719 C 52.347656 48.699219 52.140625 48.375 51.953125 48.039062 C 51.765625 47.703125 51.601562 47.355469 51.453125 47 C 51.308594 46.644531 51.183594 46.28125 51.082031 45.910156 C 50.980469 45.539062 50.902344 45.164062 50.84375 44.78125 C 50.785156 44.402344 50.75 44.019531 50.738281 43.636719 C 50.726562 43.25 50.738281 42.867188 50.773438 42.484375 C 50.804688 42.101562 50.863281 41.722656 50.941406 41.34375 C 51.019531 40.96875 51.121094 40.597656 51.246094 40.234375 C 51.367188 39.871094 51.511719 39.511719 51.679688 39.167969 C 51.84375 38.820312 52.03125 38.480469 52.234375 38.15625 C 52.441406 37.832031 52.667969 37.519531 52.910156 37.21875 C 53.152344 36.921875 53.414062 36.636719 53.691406 36.371094 C 53.964844 36.101562 54.257812 35.851562 54.566406 35.617188 C 54.871094 35.382812 55.191406 35.167969 55.523438 34.972656 C 55.855469 34.777344 56.199219 34.601562 56.554688 34.445312 C 56.90625 34.289062 57.269531 34.15625 57.636719 34.042969 C 58.007812 33.929688 58.382812 33.839844 58.761719 33.769531 C 59.140625 33.703125 59.527344 33.65625 59.910156 33.632812 C 60.296875 33.609375 60.683594 33.609375 61.070312 33.632812 C 61.453125 33.652344 61.835938 33.699219 62.21875 33.765625 C 62.597656 33.832031 62.972656 33.921875 63.34375 34.035156 C 63.714844 34.144531 64.074219 34.28125 64.429688 34.433594 C 64.78125 34.589844 65.125 34.761719 65.460938 34.957031 C 65.792969 35.152344 66.113281 35.367188 66.421875 35.601562 C 66.726562 35.832031 67.019531 36.082031 67.296875 36.351562 C 67.574219 36.617188 67.835938 36.902344 68.082031 37.199219 C 68.324219 37.496094 68.550781 37.808594 68.757812 38.132812 C 68.964844 38.457031 69.148438 38.792969 69.316406 39.140625 C 69.484375 39.488281 69.628906 39.84375 69.753906 40.207031 C 69.878906 40.570312 69.980469 40.941406 70.058594 41.316406 C 70.140625 41.695312 70.199219 42.074219 70.234375 42.457031 C 70.269531 42.839844 70.28125 43.222656 70.269531 43.609375 C 70.257812 43.992188 70.226562 44.375 70.167969 44.753906 C 70.113281 45.136719 70.03125 45.511719 69.933594 45.882812 C 69.832031 46.253906 69.707031 46.617188 69.5625 46.972656 C 69.417969 47.332031 69.253906 47.675781 69.066406 48.015625 C 68.878906 48.351562 68.675781 48.675781 68.449219 48.988281 C 68.226562 49.300781 67.984375 49.601562 67.722656 49.882812 C 67.460938 50.167969 67.1875 50.4375 66.894531 50.6875 C 66.601562 50.9375 66.296875 51.171875 65.976562 51.386719 Z M 65.976562 51.386719 " fill-opacity="1" fill-rule="nonzero"/></g></svg>