<svg xmlns="http://www.w3.org/2000/svg" xmlns:xlink="http://www.w3.org/1999/xlink" width="100" zoomAndPan="magnify" viewBox="0 0 75 74.999997" height="100" preserveAspectRatio="xMidYMid meet" version="1.0"><defs><clipPath id="86516e0ad1"><path d="M 12 1 L 71.390625 1 L 71.390625 75 L 12 75 Z M 12 1 " clip-rule="nonzero"/></clipPath></defs><g clip-path="url(#86516e0ad1)"><path fill="#000000" d="M 60.289062 44.796875 C 54.425781 44.796875 49.476562 49.578125 49.476562 55.246094 L 49.476562 56.023438 C 47.570312 54.191406 46.34375 51.800781 46.34375 49.355469 L 46.34375 12.535156 C 46.34375 5.847656 39.816406 1.359375 33.71875 1.359375 C 30.054688 1.359375 26.789062 2.820312 24.511719 5.097656 C 22.375 2.914062 19.285156 1.558594 15.699219 1.558594 C 13.96875 1.558594 12.566406 2.953125 12.566406 4.679688 C 12.566406 6.402344 13.96875 7.796875 15.699219 7.796875 C 18.480469 7.796875 21.292969 9.421875 21.292969 12.535156 L 21.292969 56.34375 C 21.292969 58.066406 22.695312 59.460938 24.425781 59.460938 C 26.152344 59.460938 27.558594 58.066406 27.558594 56.34375 L 27.558594 12.535156 C 27.558594 9.582031 30.746094 7.597656 33.722656 7.597656 C 36.734375 7.597656 40.082031 9.625 40.082031 12.535156 L 40.082031 50.105469 C 40.082031 50.277344 40.152344 50.421875 40.179688 50.578125 C 40.664062 55.980469 44.226562 60.84375 49.195312 63.519531 C 48.476562 66.339844 46.398438 68.808594 43.429688 68.808594 L 40.082031 68.808594 C 38.351562 68.808594 36.949219 70.207031 36.949219 71.925781 C 36.949219 73.652344 38.351562 75.042969 40.082031 75.042969 L 43.425781 75.042969 C 49.011719 75.042969 53.613281 71.09375 55.171875 65.503906 C 56 65.625 56.839844 65.6875 57.699219 65.6875 L 60.558594 65.6875 C 66.324219 65.6875 71.011719 60.976562 71.011719 55.1875 C 71.011719 49.558594 66.101562 44.796875 60.289062 44.796875 Z M 60.5625 59.457031 L 57.703125 59.457031 C 57.039062 59.457031 56.382812 59.394531 55.738281 59.273438 L 55.738281 55.234375 C 55.738281 53 57.863281 51.027344 60.289062 51.027344 C 62.625 51.027344 64.75 53.011719 64.75 55.183594 C 64.75 57.546875 62.871094 59.457031 60.5625 59.457031 Z M 60.5625 59.457031 " fill-opacity="1" fill-rule="nonzero"/></g></svg>