<svg xmlns="http://www.w3.org/2000/svg" xmlns:xlink="http://www.w3.org/1999/xlink" width="100" zoomAndPan="magnify" viewBox="0 0 75 74.999997" height="100" preserveAspectRatio="xMidYMid meet" version="1.0"><defs><clipPath id="e31d6ece06"><path d="M 3.09375 0 L 72.09375 0 L 72.09375 75 L 3.09375 75 Z M 3.09375 0 " clip-rule="nonzero"/></clipPath></defs><g clip-path="url(#e31d6ece06)"><path fill="#000000" d="M 40.726562 0 C 34.507812 0 28.9375 2.09375 24.980469 5.976562 C 21.023438 9.855469 18.792969 15.445312 18.792969 21.875 C 18.792969 26.726562 20.5 30.976562 22.03125 35.132812 C 20.558594 34.648438 18.949219 34.375 17.226562 34.375 C 12.785156 34.375 9.058594 36.148438 6.65625 38.84375 C 4.253906 41.539062 3.125 45.007812 3.125 48.4375 C 3.125 51.867188 4.253906 55.335938 6.65625 58.03125 C 9.058594 60.726562 12.785156 62.5 17.226562 62.5 C 21.664062 62.5 25.394531 60.726562 27.796875 58.03125 C 30.0625 55.492188 31.15625 52.257812 31.277344 49.023438 C 31.3125 48.828125 31.328125 48.632812 31.328125 48.4375 C 31.328125 42.5 29.585938 37.523438 28.003906 33.210938 C 26.421875 28.894531 25.058594 25.25 25.058594 21.875 C 25.058594 16.847656 26.695312 13.058594 29.375 10.429688 C 32.054688 7.800781 35.890625 6.25 40.726562 6.25 C 45.566406 6.25 49.398438 7.800781 52.082031 10.429688 C 54.761719 13.058594 56.394531 16.847656 56.394531 21.875 C 56.394531 26.46875 53.632812 31.753906 50.464844 38.019531 C 47.296875 44.285156 43.859375 51.582031 43.859375 60.414062 C 43.859375 68.382812 49.941406 75 57.871094 75 C 61.785156 75 65.472656 73.46875 68.054688 70.671875 C 70.632812 67.875 72.0625 63.917969 72.0625 59.375 C 72.066406 58.957031 71.992188 58.554688 71.835938 58.164062 C 71.679688 57.777344 71.453125 57.433594 71.160156 57.136719 C 70.867188 56.839844 70.523438 56.609375 70.136719 56.449219 C 69.75 56.285156 69.347656 56.207031 68.929688 56.207031 C 68.507812 56.207031 68.105469 56.285156 67.71875 56.449219 C 67.332031 56.609375 66.992188 56.839844 66.699219 57.136719 C 66.402344 57.433594 66.175781 57.777344 66.019531 58.164062 C 65.863281 58.554688 65.789062 58.957031 65.796875 59.375 C 65.796875 62.644531 64.828125 64.9375 63.445312 66.4375 C 62.0625 67.9375 60.21875 68.75 57.871094 68.75 C 53.261719 68.75 50.128906 65.429688 50.128906 60.414062 C 50.128906 53.203125 52.960938 46.960938 56.058594 40.832031 C 59.15625 34.703125 62.660156 28.742188 62.660156 21.875 C 62.660156 15.445312 60.429688 9.855469 56.472656 5.976562 C 52.519531 2.09375 46.945312 0 40.726562 0 Z M 17.226562 40.625 C 20.097656 40.625 21.855469 41.585938 23.105469 42.992188 C 24.359375 44.398438 25.058594 46.398438 25.058594 48.4375 C 25.058594 50.476562 24.359375 52.476562 23.105469 53.882812 C 21.855469 55.289062 20.097656 56.25 17.226562 56.25 C 14.355469 56.25 12.597656 55.289062 11.34375 53.882812 C 10.089844 52.476562 9.390625 50.476562 9.390625 48.4375 C 9.390625 46.398438 10.089844 44.398438 11.34375 42.992188 C 12.597656 41.585938 14.355469 40.625 17.226562 40.625 Z M 17.226562 40.625 " fill-opacity="1" fill-rule="nonzero"/></g></svg>