<svg xmlns="http://www.w3.org/2000/svg" xmlns:xlink="http://www.w3.org/1999/xlink" width="100" zoomAndPan="magnify" viewBox="0 0 75 74.999997" height="100" preserveAspectRatio="xMidYMid meet" version="1.0"><defs><clipPath id="97ba356732"><path d="M 0 8.0625 L 75 8.0625 L 75 67.3125 L 0 67.3125 Z M 0 8.0625 " clip-rule="nonzero"/></clipPath></defs><g clip-path="url(#97ba356732)"><path fill="#000000" d="M 37.234375 8.078125 C 22.070312 8.078125 10.636719 17.933594 10.636719 30.996094 C 10.636719 36.875 12.464844 41.804688 16.070312 45.71875 L 2.660156 45.71875 C 1.191406 45.71875 0 46.917969 0 48.394531 C 0 49.871094 1.191406 51.070312 2.660156 51.070312 L 23.9375 51.070312 C 25.152344 51.070312 26.21875 50.242188 26.511719 49.050781 C 26.816406 47.863281 26.269531 46.625 25.191406 46.042969 C 18.976562 42.65625 15.957031 37.734375 15.957031 30.996094 C 15.957031 20.984375 25.105469 13.429688 37.234375 13.429688 C 49.363281 13.429688 58.511719 20.984375 58.511719 30.996094 C 58.511719 37.742188 55.492188 42.664062 49.273438 46.042969 C 48.199219 46.625 47.652344 47.859375 47.957031 49.050781 C 48.246094 50.242188 49.3125 51.070312 50.53125 51.070312 L 71.808594 51.070312 C 73.277344 51.070312 74.46875 49.871094 74.46875 48.394531 C 74.46875 46.917969 73.277344 45.71875 71.808594 45.71875 L 58.394531 45.71875 C 62.003906 41.804688 63.828125 36.878906 63.828125 30.996094 C 63.828125 17.929688 52.398438 8.078125 37.234375 8.078125 Z M 2.660156 61.777344 C 2.304688 61.769531 1.960938 61.835938 1.628906 61.96875 C 1.300781 62.101562 1.007812 62.296875 0.753906 62.546875 C 0.5 62.796875 0.304688 63.089844 0.167969 63.417969 C 0.03125 63.75 -0.0390625 64.09375 -0.0390625 64.453125 C -0.0390625 64.8125 0.03125 65.15625 0.167969 65.484375 C 0.304688 65.816406 0.5 66.105469 0.753906 66.359375 C 1.007812 66.609375 1.300781 66.804688 1.628906 66.9375 C 1.960938 67.070312 2.304688 67.132812 2.660156 67.128906 L 71.808594 67.128906 C 72.164062 67.132812 72.507812 67.070312 72.835938 66.9375 C 73.167969 66.804688 73.460938 66.609375 73.714844 66.359375 C 73.96875 66.105469 74.164062 65.816406 74.300781 65.484375 C 74.4375 65.15625 74.507812 64.8125 74.507812 64.453125 C 74.507812 64.09375 74.4375 63.75 74.300781 63.417969 C 74.164062 63.089844 73.96875 62.796875 73.714844 62.546875 C 73.460938 62.296875 73.167969 62.101562 72.835938 61.96875 C 72.507812 61.835938 72.164062 61.769531 71.808594 61.777344 Z M 2.660156 61.777344 " fill-opacity="1" fill-rule="nonzero"/></g></svg>