<svg xmlns="http://www.w3.org/2000/svg" xmlns:xlink="http://www.w3.org/1999/xlink" width="100" zoomAndPan="magnify" viewBox="0 0 75 74.999997" height="100" preserveAspectRatio="xMidYMid meet" version="1.0"><defs><clipPath id="0da9a1173c"><path d="M 3.515625 0 L 71.765625 0 L 71.765625 75 L 3.515625 75 Z M 3.515625 0 " clip-rule="nonzero"/></clipPath></defs><g clip-path="url(#0da9a1173c)"><path fill="#000000" d="M 68.84375 35.59375 L 51.976562 35.59375 C 52.324219 24.53125 56.714844 13.570312 65.175781 5.144531 C 66.28125 4.039062 66.28125 2.253906 65.175781 1.148438 C 64.066406 0.046875 62.273438 0.046875 61.164062 1.148438 C 51.597656 10.679688 46.65625 23.085938 46.308594 35.59375 L 29.019531 35.59375 C 28.351562 23.566406 23.425781 11.730469 14.21875 2.5625 C 13.113281 1.460938 11.3125 1.460938 10.207031 2.5625 C 9.097656 3.667969 9.097656 5.453125 10.207031 6.558594 C 18.308594 14.625 22.675781 25.015625 23.335938 35.59375 L 6.4375 35.59375 C 4.871094 35.59375 3.601562 36.859375 3.601562 38.417969 C 3.601562 39.976562 4.871094 41.242188 6.4375 41.242188 L 23.335938 41.242188 C 22.675781 51.820312 18.308594 62.210938 10.207031 70.277344 C 9.097656 71.382812 9.097656 73.167969 10.207031 74.273438 C 10.761719 74.824219 11.484375 75.101562 12.210938 75.101562 C 12.9375 75.101562 13.664062 74.824219 14.21875 74.273438 C 23.425781 65.105469 28.351562 53.269531 29.019531 41.242188 L 46.460938 41.242188 C 47.425781 52.78125 52.316406 64.050781 61.164062 72.859375 C 61.71875 73.410156 62.441406 73.6875 63.167969 73.6875 C 63.894531 73.6875 64.617188 73.410156 65.171875 72.859375 C 66.28125 71.753906 66.28125 69.96875 65.171875 68.863281 C 57.4375 61.15625 53.09375 51.332031 52.148438 41.242188 L 68.84375 41.242188 C 70.410156 41.242188 71.679688 39.976562 71.679688 38.417969 C 71.679688 36.859375 70.410156 35.59375 68.84375 35.59375 Z M 68.84375 35.59375 " fill-opacity="1" fill-rule="nonzero"/></g></svg>