<svg xmlns="http://www.w3.org/2000/svg" xmlns:xlink="http://www.w3.org/1999/xlink" width="100" zoomAndPan="magnify" viewBox="0 0 75 74.999997" height="100" preserveAspectRatio="xMidYMid meet" version="1.0"><defs><clipPath id="baf02bdedd"><path d="M 1 2.53125 L 74 2.53125 L 74 72.28125 L 1 72.28125 Z M 1 2.53125 " clip-rule="nonzero"/></clipPath></defs><g clip-path="url(#baf02bdedd)"><path fill="#000000" d="M 3.625 2.511719 C 3.355469 2.523438 3.09375 2.578125 2.839844 2.675781 C 2.589844 2.773438 2.359375 2.910156 2.148438 3.082031 C 1.941406 3.253906 1.765625 3.453125 1.621094 3.679688 C 1.480469 3.910156 1.375 4.15625 1.3125 4.417969 C 1.25 4.679688 1.230469 4.945312 1.253906 5.214844 C 1.277344 5.480469 1.339844 5.742188 1.449219 5.988281 C 1.554688 6.234375 1.699219 6.460938 1.878906 6.660156 C 2.058594 6.863281 2.265625 7.027344 2.503906 7.164062 C 2.503906 7.164062 3.148438 7.476562 4.152344 9.089844 C 5.152344 10.703125 6.277344 13.484375 6.277344 18.179688 L 6.277344 54.84375 C 6.273438 55.175781 6.332031 55.5 6.457031 55.808594 C 6.582031 56.117188 6.761719 56.390625 6.996094 56.628906 C 7.230469 56.867188 7.503906 57.046875 7.8125 57.175781 C 8.121094 57.304688 8.441406 57.371094 8.777344 57.371094 C 9.109375 57.371094 9.429688 57.304688 9.738281 57.175781 C 10.046875 57.046875 10.320312 56.867188 10.554688 56.628906 C 10.789062 56.390625 10.96875 56.117188 11.09375 55.808594 C 11.21875 55.5 11.277344 55.175781 11.273438 54.84375 L 11.273438 18.179688 C 11.273438 17.339844 11.1875 16.613281 11.128906 15.851562 C 11.226562 15.574219 11.277344 15.285156 11.273438 14.988281 C 11.273438 10.828125 14.59375 7.511719 18.765625 7.511719 C 22.9375 7.511719 26.261719 10.828125 26.261719 14.988281 L 26.261719 54.84375 C 26.253906 55.175781 26.316406 55.5 26.441406 55.808594 C 26.566406 56.117188 26.746094 56.390625 26.980469 56.628906 C 27.214844 56.867188 27.484375 57.046875 27.792969 57.175781 C 28.101562 57.304688 28.421875 57.371094 28.757812 57.371094 C 29.09375 57.371094 29.414062 57.304688 29.722656 57.175781 C 30.03125 57.046875 30.300781 56.867188 30.535156 56.628906 C 30.769531 56.390625 30.949219 56.117188 31.074219 55.808594 C 31.199219 55.5 31.261719 55.175781 31.253906 54.84375 L 31.253906 15.160156 C 31.257812 15.101562 31.257812 15.046875 31.253906 14.988281 C 31.253906 10.828125 34.578125 7.511719 38.75 7.511719 C 42.921875 7.511719 46.242188 10.828125 46.242188 14.988281 L 46.242188 44.878906 C 46.242188 52.050781 48.164062 56.671875 51.285156 59.308594 C 54.410156 61.945312 58.234375 62.316406 61.230469 62.316406 L 61.230469 72.28125 L 73.71875 59.824219 L 61.230469 47.371094 L 61.230469 57.335938 C 58.667969 57.335938 56.25 56.980469 54.515625 55.515625 C 52.78125 54.050781 51.238281 51.199219 51.238281 44.878906 L 51.238281 14.988281 C 51.238281 8.136719 45.617188 2.53125 38.75 2.53125 C 34.660156 2.53125 31.039062 4.546875 28.757812 7.601562 C 26.476562 4.546875 22.855469 2.53125 18.765625 2.53125 C 14.753906 2.53125 11.199219 4.476562 8.914062 7.433594 C 8.742188 7.113281 8.582031 6.746094 8.40625 6.460938 C 6.90625 4.046875 5.058594 2.882812 5.058594 2.882812 C 4.617188 2.609375 4.140625 2.488281 3.625 2.511719 Z M 3.625 2.511719 " fill-opacity="1" fill-rule="nonzero"/></g></svg>