<svg xmlns="http://www.w3.org/2000/svg" xmlns:xlink="http://www.w3.org/1999/xlink" width="100" zoomAndPan="magnify" viewBox="0 0 75 74.999997" height="100" preserveAspectRatio="xMidYMid meet" version="1.0"><path stroke-linecap="round" transform="matrix(1.5, 0, 0, 1.5, 0.0000015, -0.000001)" fill="none" stroke-linejoin="round" d="M 25.000001 18.000002 C 40.927086 18.000002 36.747398 2.000001 48.000003 2.000001 " stroke="#000000" stroke-width="4" stroke-opacity="1" stroke-miterlimit="10"/><path stroke-linecap="round" transform="matrix(1.5, 0, 0, 1.5, 0.0000015, -0.000001)" fill="none" stroke-linejoin="round" d="M 25.000001 18.000002 C 9.072916 18.000002 13.5 2.26823 1.999999 2.000001 " stroke="#000000" stroke-width="4" stroke-opacity="1" stroke-miterlimit="10"/><path stroke-linecap="round" transform="matrix(1.5, 0, 0, 1.5, 0.0000015, -0.000001)" fill="none" stroke-linejoin="round" d="M 40.000002 33.002608 C 40.000002 33.492191 39.976565 33.984378 39.927086 34.471358 C 39.880211 34.960941 39.807294 35.445316 39.71094 35.927087 C 39.61719 36.411462 39.497398 36.88542 39.354169 37.356775 C 39.21094 37.825525 39.046877 38.289066 38.859377 38.742191 C 38.669273 39.195316 38.46094 39.640629 38.229169 40.072921 C 37.997398 40.505212 37.744794 40.927087 37.471356 41.335942 C 37.197919 41.744796 36.906252 42.138025 36.596356 42.518233 C 36.283856 42.898442 35.953127 43.260421 35.606773 43.609379 C 35.260419 43.955733 34.895835 44.286463 34.515627 44.596358 C 34.135418 44.908859 33.742189 45.200525 33.333335 45.473963 C 32.924481 45.7474 32.50521 46.000004 32.070314 46.231775 C 31.638022 46.463546 31.195314 46.671879 30.739585 46.859379 C 30.28646 47.049484 29.825522 47.213546 29.354168 47.356775 C 28.885418 47.500005 28.408855 47.617192 27.927085 47.713546 C 27.445314 47.8099 26.958335 47.882817 26.471355 47.929692 C 25.981772 47.979171 25.492189 48.002609 25.000001 48.002609 C 24.507814 48.002609 24.01823 47.979171 23.528647 47.929692 C 23.041668 47.882817 22.554688 47.8099 22.072917 47.713546 C 21.591147 47.617192 21.114584 47.500005 20.645834 47.356775 C 20.17448 47.213546 19.713542 47.049484 19.260417 46.859379 C 18.804688 46.671879 18.36198 46.463546 17.929688 46.231775 C 17.494792 46.000004 17.075521 45.7474 16.666667 45.473963 C 16.257813 45.200525 15.864584 44.908859 15.484375 44.596358 C 15.104167 44.286463 14.739584 43.955733 14.393229 43.609379 C 14.046875 43.260421 13.716146 42.898442 13.403646 42.518233 C 13.09375 42.138025 12.802083 41.744796 12.528646 41.335942 C 12.255208 40.927087 12.002604 40.505212 11.770833 40.072921 C 11.539062 39.640629 11.330729 39.195316 11.140625 38.742191 C 10.953125 38.289066 10.789062 37.825525 10.645833 37.356775 C 10.502604 36.88542 10.382812 36.411462 10.289062 35.927087 C 10.192708 35.445316 10.119791 34.960941 10.072916 34.471358 C 10.023437 33.984378 10 33.492191 10 33.002608 C 10 32.51042 10.023437 32.020837 10.072916 31.531253 C 10.119791 31.04167 10.192708 30.557295 10.289062 30.075524 C 10.382812 29.593753 10.502604 29.117191 10.645833 28.648441 C 10.789062 28.177086 10.953125 27.716149 11.140625 27.263024 C 11.330729 26.807295 11.539062 26.364586 11.770833 25.932294 C 12.002604 25.497399 12.255208 25.078128 12.528646 24.669274 C 12.802083 24.260419 13.09375 23.864586 13.403646 23.486982 C 13.716146 23.106773 14.046875 22.74219 14.393229 22.395836 C 14.739584 22.046877 15.104167 21.718752 15.484375 21.406252 C 15.864584 21.096357 16.257813 20.802086 16.666667 20.531252 C 17.075521 20.257815 17.494792 20.005211 17.929688 19.77344 C 18.36198 19.541669 18.804688 19.330731 19.260417 19.143231 C 19.713542 18.955731 20.17448 18.791669 20.645834 18.64844 C 21.114584 18.505211 21.591147 18.385419 22.072917 18.289065 C 22.554688 18.195315 23.041668 18.122398 23.528647 18.075523 C 24.01823 18.026044 24.507814 18.002606 25.000001 18.002606 C 25.492189 18.002606 25.981772 18.026044 26.471355 18.075523 C 26.958335 18.122398 27.445314 18.195315 27.927085 18.289065 C 28.408855 18.385419 28.885418 18.505211 29.354168 18.64844 C 29.825522 18.791669 30.28646 18.955731 30.739585 19.143231 C 31.195314 19.330731 31.638022 19.541669 32.070314 19.77344 C 32.50521 20.005211 32.924481 20.257815 33.333335 20.531252 C 33.742189 20.802086 34.135418 21.096357 34.515627 21.406252 C 34.895835 21.718752 35.260419 22.046877 35.606773 22.395836 C 35.953127 22.74219 36.283856 23.106773 36.596356 23.486982 C 36.906252 23.864586 37.197919 24.260419 37.471356 24.669274 C 37.744794 25.078128 37.997398 25.497399 38.229169 25.932294 C 38.46094 26.364586 38.669273 26.807295 38.859377 27.263024 C 39.046877 27.716149 39.21094 28.177086 39.354169 28.648441 C 39.497398 29.117191 39.61719 29.593753 39.71094 30.075524 C 39.807294 30.557295 39.880211 31.04167 39.927086 31.531253 C 39.976565 32.020837 40.000002 32.51042 40.000002 33.002608 Z M 40.000002 33.002608 " stroke="#000000" stroke-width="4" stroke-opacity="1" stroke-miterlimit="10"/></svg>