<svg xmlns="http://www.w3.org/2000/svg" xmlns:xlink="http://www.w3.org/1999/xlink" width="100" zoomAndPan="magnify" viewBox="0 0 75 74.999997" height="100" preserveAspectRatio="xMidYMid meet" version="1.0"><path fill="#000000" d="M 2.683594 0.265625 C 2.375 0.277344 2.074219 0.339844 1.785156 0.453125 C 1.496094 0.566406 1.234375 0.71875 0.996094 0.917969 C 0.753906 1.113281 0.554688 1.34375 0.390625 1.609375 C 0.226562 1.871094 0.109375 2.152344 0.0351562 2.453125 C -0.0390625 2.753906 -0.0585938 3.058594 -0.0351562 3.367188 C -0.0078125 3.675781 0.0664062 3.972656 0.191406 4.257812 C 0.3125 4.542969 0.476562 4.800781 0.683594 5.03125 C 0.890625 5.261719 1.128906 5.457031 1.398438 5.609375 C 1.398438 5.609375 2.140625 5.96875 3.289062 7.824219 C 4.433594 9.679688 5.726562 12.875 5.726562 18.265625 L 5.726562 60.402344 C 5.71875 60.785156 5.789062 61.152344 5.929688 61.507812 C 6.074219 61.863281 6.28125 62.179688 6.550781 62.453125 C 6.816406 62.722656 7.128906 62.933594 7.484375 63.082031 C 7.835938 63.230469 8.203125 63.304688 8.585938 63.304688 C 8.972656 63.304688 9.339844 63.230469 9.691406 63.082031 C 10.046875 62.933594 10.355469 62.722656 10.625 62.453125 C 10.894531 62.179688 11.101562 61.863281 11.246094 61.507812 C 11.386719 61.152344 11.457031 60.785156 11.449219 60.402344 L 11.449219 18.265625 C 11.449219 17.300781 11.351562 16.46875 11.28125 15.59375 C 11.398438 15.273438 11.453125 14.941406 11.449219 14.597656 C 11.449219 9.820312 15.257812 6.011719 20.039062 6.011719 C 24.820312 6.011719 28.625 9.820312 28.625 14.597656 L 28.625 60.402344 C 28.621094 60.785156 28.6875 61.152344 28.832031 61.507812 C 28.976562 61.863281 29.179688 62.179688 29.449219 62.453125 C 29.71875 62.722656 30.03125 62.933594 30.382812 63.082031 C 30.738281 63.230469 31.105469 63.304688 31.488281 63.304688 C 31.871094 63.304688 32.238281 63.230469 32.59375 63.082031 C 32.945312 62.933594 33.257812 62.722656 33.527344 62.453125 C 33.796875 62.179688 34.003906 61.863281 34.144531 61.507812 C 34.289062 61.152344 34.355469 60.785156 34.351562 60.402344 L 34.351562 14.800781 C 34.351562 14.734375 34.351562 14.667969 34.351562 14.597656 C 34.351562 9.820312 38.160156 6.011719 42.9375 6.011719 C 47.71875 6.011719 51.527344 9.820312 51.527344 14.597656 L 51.527344 54.675781 C 51.527344 56.328125 51.703125 57.785156 51.894531 59.214844 C 49.117188 60.972656 45.9375 62.410156 42.234375 63.351562 C 41.855469 63.433594 41.507812 63.589844 41.191406 63.8125 C 40.875 64.039062 40.613281 64.316406 40.410156 64.644531 C 40.207031 64.976562 40.074219 65.332031 40.015625 65.714844 C 39.957031 66.097656 39.972656 66.480469 40.070312 66.855469 C 40.164062 67.230469 40.332031 67.574219 40.566406 67.882812 C 40.800781 68.191406 41.085938 68.441406 41.421875 68.636719 C 41.761719 68.828125 42.121094 68.945312 42.507812 68.992188 C 42.890625 69.039062 43.269531 69.007812 43.644531 68.898438 C 47.246094 67.980469 50.421875 66.617188 53.292969 64.984375 C 54.4375 67.777344 56.09375 69.902344 58.144531 71.394531 C 62.234375 74.359375 67.179688 74.714844 71.566406 74.714844 C 71.949219 74.71875 72.316406 74.652344 72.671875 74.507812 C 73.027344 74.363281 73.34375 74.160156 73.617188 73.890625 C 73.886719 73.621094 74.097656 73.308594 74.246094 72.957031 C 74.394531 72.601562 74.46875 72.234375 74.46875 71.851562 C 74.46875 71.46875 74.394531 71.101562 74.246094 70.746094 C 74.097656 70.394531 73.886719 70.082031 73.617188 69.8125 C 73.34375 69.542969 73.027344 69.335938 72.671875 69.195312 C 72.316406 69.050781 71.949219 68.984375 71.566406 68.988281 C 67.5625 68.988281 63.917969 68.507812 61.511719 66.761719 C 60.121094 65.753906 58.972656 64.15625 58.203125 61.699219 C 62.488281 58.292969 65.785156 54.230469 68.1875 50.113281 C 72.8125 42.195312 74.425781 34.289062 74.425781 29.628906 L 74.425781 28.914062 C 74.425781 22.621094 69.265625 17.460938 62.976562 17.460938 C 60.886719 17.460938 58.945312 18.078125 57.25 19.070312 L 57.25 14.597656 C 57.25 6.726562 50.8125 0.285156 42.9375 0.285156 C 38.25 0.285156 34.101562 2.601562 31.488281 6.113281 C 28.875 2.601562 24.726562 0.285156 20.039062 0.285156 C 15.4375 0.285156 11.367188 2.523438 8.746094 5.921875 C 8.550781 5.550781 8.363281 5.128906 8.164062 4.804688 C 6.449219 2.027344 4.328125 0.6875 4.328125 0.6875 C 3.824219 0.378906 3.277344 0.234375 2.683594 0.265625 Z M 62.976562 23.1875 C 66.167969 23.1875 68.703125 25.71875 68.703125 28.914062 L 68.703125 29.628906 C 68.703125 32.816406 67.292969 40.296875 63.246094 47.226562 C 61.664062 49.9375 59.695312 52.578125 57.273438 54.957031 C 57.273438 54.847656 57.25 54.785156 57.25 54.675781 L 57.25 29.113281 C 57.253906 29.046875 57.253906 28.980469 57.25 28.914062 C 57.25 25.71875 59.785156 23.1875 62.976562 23.1875 Z M 62.976562 23.1875 " fill-opacity="1" fill-rule="nonzero"/></svg>