<?xml version="1.0" encoding="UTF-8"?>
<svg xmlns="http://www.w3.org/2000/svg" xmlns:xlink="http://www.w3.org/1999/xlink" width="30pt" height="30.000001pt" viewBox="0 0 30 30.000001" version="1.2">
<defs>
<clipPath id="clip1">
  <path d="M 1 6 L 29 6 L 29 23 L 1 23 Z M 1 6 "/>
</clipPath>
<clipPath id="clip2">
  <path d="M 8.527344 -1.816406 L 31.230469 18.523438 L 20.089844 30.957031 L -2.613281 10.613281 Z M 8.527344 -1.816406 "/>
</clipPath>
<clipPath id="clip3">
  <path d="M 8.527344 -1.816406 L 31.230469 18.523438 L 20.089844 30.957031 L -2.613281 10.613281 Z M 8.527344 -1.816406 "/>
</clipPath>
</defs>
<g id="surface1">
<g clip-path="url(#clip1)" clip-rule="nonzero">
<g clip-path="url(#clip2)" clip-rule="nonzero">
<g clip-path="url(#clip3)" clip-rule="nonzero">
<path style=" stroke:none;fill-rule:nonzero;fill:rgb(100%,100%,100%);fill-opacity:1;" d="M 21.523438 18.570312 C 21.523438 18.566406 16.578125 16.441406 14.21875 15.246094 C 11.835938 14.039062 9.296875 12.589844 7.292969 11.378906 C 3.425781 9.039062 2.082031 7.800781 1.855469 7.347656 C 1.839844 7.316406 1.855469 7.277344 1.890625 7.273438 C 2.363281 7.203125 4.148438 7.460938 8.585938 9.304688 C 8.207031 9.742188 7.871094 10.222656 7.585938 10.753906 C 7.59375 10.757812 12.042969 13.328125 14.546875 14.597656 C 16.925781 15.804688 19.644531 17.125 21.855469 17.945312 C 22.109375 17.410156 22.292969 16.863281 22.421875 16.308594 C 26.535156 18.796875 27.796875 20.082031 28.019531 20.503906 C 28.039062 20.535156 28.019531 20.570312 27.984375 20.578125 C 27.484375 20.660156 25.703125 20.289062 21.523438 18.570312 Z M 28.71875 20.902344 C 28.894531 20.554688 29.359375 19.640625 22.691406 15.621094 C 22.667969 15.605469 22.617188 15.578125 22.554688 15.539062 C 22.820312 13.421875 22.230469 11.289062 20.933594 9.617188 C 20.230469 8.71875 19.324219 7.957031 18.238281 7.40625 C 15.140625 5.839844 11.507812 6.480469 9.121094 8.742188 C 9.050781 8.710938 9 8.6875 8.980469 8.679688 C 1.792969 5.683594 1.332031 6.601562 1.15625 6.945312 C 1.050781 7.152344 0.839844 7.570312 2.164062 8.757812 C 3.003906 9.507812 4.519531 10.617188 7 12.125 C 7 12.125 7.003906 12.125 7.003906 12.125 C 6.734375 12.964844 6.613281 13.820312 6.625 14.671875 C 6.671875 17.539062 8.269531 20.292969 11.007812 21.679688 C 14.5625 23.480469 18.820312 22.375 21.085938 19.25 C 21.085938 19.25 21.089844 19.25 21.089844 19.25 C 28.019531 22.109375 28.550781 21.238281 28.71875 20.902344 "/>
</g>
</g>
</g>
</g>
</svg>
