<svg xmlns="http://www.w3.org/2000/svg" xmlns:xlink="http://www.w3.org/1999/xlink" width="100" zoomAndPan="magnify" viewBox="0 0 75 74.999997" height="100" preserveAspectRatio="xMidYMid meet" version="1.0"><defs><clipPath id="46ee209b64"><path d="M 0 14 L 75 14 L 75 61.453125 L 0 61.453125 Z M 0 14 " clip-rule="nonzero"/></clipPath></defs><g clip-path="url(#46ee209b64)"><path fill="#ffffff" d="M 74.585938 46.589844 C 74.484375 50.613281 71.332031 54.195312 67.492188 55.433594 C 64.253906 56.476562 60.683594 56.03125 57.554688 54.648438 C 57.0625 55.761719 56.109375 56.679688 54.933594 57.019531 C 53.410156 57.46875 51.667969 56.902344 50.617188 55.726562 C 49.230469 57.203125 47.453125 58.339844 45.566406 59.113281 C 42.710938 60.285156 39.601562 60.699219 36.519531 60.925781 C 33.636719 61.132812 30.65625 61.171875 27.949219 60.152344 C 25.824219 59.347656 23.890625 57.757812 22.988281 55.722656 C 21.839844 57.0625 19.882812 57.726562 18.171875 57.21875 C 16.523438 56.726562 15.28125 55.1875 14.996094 53.507812 C 14.125 54.171875 13.199219 54.761719 12.203125 55.222656 C 9.984375 56.257812 7.378906 56.625 5.070312 55.824219 C 2.757812 55.027344 0.839844 52.921875 0.652344 50.488281 C 0.496094 48.4375 1.515625 46.472656 2.785156 44.851562 C 5.105469 41.890625 8.378906 39.679688 11.988281 38.605469 C 11.0625 38.222656 10.25 37.523438 9.75 36.652344 C 8.828125 35.058594 8.867188 33.03125 9.570312 31.332031 C 10.273438 29.632812 11.578125 28.238281 13.0625 27.144531 C 16.804688 24.378906 21.839844 23.453125 26.335938 24.636719 C 26.179688 23.269531 26.460938 21.835938 27.074219 20.59375 C 28 18.714844 29.632812 17.246094 31.46875 16.238281 C 35.851562 13.828125 41.570312 14.0625 45.742188 16.820312 C 49.289062 19.167969 51.585938 23.25 51.882812 27.472656 C 53.128906 27.160156 54.5 27.308594 55.625 27.9375 C 57.210938 28.824219 58.230469 30.621094 58.203125 32.433594 C 59.808594 30.933594 62.519531 30.753906 64.289062 32.070312 C 65.734375 33.140625 66.398438 35.089844 66.070312 36.839844 C 68.007812 37.253906 69.847656 38.117188 71.328125 39.425781 C 73.355469 41.222656 74.652344 43.886719 74.585938 46.589844 Z M 74.585938 46.589844 " fill-opacity="1" fill-rule="nonzero"/><path fill="#000000" d="M 72.523438 40.136719 C 70.960938 38.332031 68.777344 37.167969 66.472656 36.613281 C 66.738281 34.558594 65.773438 32.378906 63.882812 31.425781 C 62.210938 30.585938 60.082031 30.746094 58.53125 31.78125 C 58.375 30.433594 57.726562 29.160156 56.679688 28.265625 C 55.453125 27.214844 53.796875 26.84375 52.21875 27.105469 C 51.753906 22.230469 48.71875 17.679688 44.234375 15.605469 C 39.628906 13.476562 33.847656 13.910156 29.757812 16.972656 C 27.449219 18.703125 25.832031 21.308594 25.9375 24.226562 C 22.40625 23.441406 18.621094 23.863281 15.355469 25.417969 C 12.066406 26.988281 8.675781 29.988281 8.679688 33.910156 C 8.683594 35.820312 9.558594 37.589844 11.175781 38.558594 C 9.167969 39.253906 7.28125 40.265625 5.609375 41.582031 C 3.742188 43.050781 2 44.914062 0.992188 47.085938 C 0 49.214844 0.0117188 51.613281 1.433594 53.550781 C 2.78125 55.386719 4.90625 56.40625 7.160156 56.546875 C 9.914062 56.710938 12.539062 55.640625 14.75 54.074219 C 15.214844 55.703125 16.484375 57.09375 18.148438 57.539062 C 19.808594 57.984375 21.609375 57.4375 22.867188 56.300781 C 23.65625 57.777344 24.933594 58.960938 26.390625 59.78125 C 28.175781 60.789062 30.238281 61.195312 32.269531 61.308594 C 34.472656 61.433594 36.707031 61.253906 38.898438 61.003906 C 41.046875 60.753906 43.1875 60.335938 45.21875 59.570312 C 47.21875 58.820312 49.078125 57.699219 50.601562 56.203125 C 51.628906 57.152344 53.066406 57.621094 54.457031 57.425781 C 55.867188 57.230469 57.050781 56.292969 57.726562 55.070312 C 60.699219 56.292969 64.058594 56.730469 67.183594 55.839844 C 69.84375 55.078125 72.183594 53.332031 73.625 50.96875 C 74.429688 49.648438 74.90625 48.136719 74.957031 46.59375 C 74.996094 44.210938 74.078125 41.925781 72.523438 40.136719 Z M 70.847656 53.214844 C 68.652344 55.070312 65.828125 55.851562 62.976562 55.683594 C 61.179688 55.582031 59.414062 55.109375 57.769531 54.386719 C 57.574219 54.300781 57.304688 54.359375 57.207031 54.566406 C 56.675781 55.734375 55.636719 56.671875 54.335938 56.84375 C 53.050781 57.011719 51.761719 56.445312 50.90625 55.511719 C 50.75 55.339844 50.449219 55.433594 50.320312 55.574219 C 47.511719 58.527344 43.523438 59.777344 39.585938 60.316406 C 37.554688 60.59375 35.480469 60.761719 33.429688 60.742188 C 31.390625 60.722656 29.289062 60.460938 27.433594 59.578125 C 25.664062 58.738281 24.140625 57.363281 23.324219 55.570312 C 23.214844 55.324219 22.824219 55.414062 22.6875 55.570312 C 21.621094 56.785156 19.882812 57.398438 18.304688 56.925781 C 16.746094 56.460938 15.644531 54.988281 15.363281 53.429688 C 15.3125 53.160156 14.929688 53.164062 14.757812 53.292969 C 12.839844 54.753906 10.582031 55.855469 8.132812 55.949219 C 5.96875 56.03125 3.859375 55.28125 2.417969 53.636719 C 0.953125 51.960938 0.671875 49.753906 1.484375 47.707031 C 2.308594 45.636719 3.890625 43.84375 5.578125 42.417969 C 7.46875 40.824219 9.679688 39.613281 12.050781 38.898438 C 12.277344 38.832031 12.53125 38.488281 12.203125 38.347656 C 10.511719 37.617188 9.523438 36.007812 9.425781 34.195312 C 9.328125 32.390625 10.074219 30.671875 11.210938 29.300781 C 13.449219 26.605469 16.933594 25.011719 20.363281 24.5625 C 22.316406 24.308594 24.304688 24.4375 26.207031 24.929688 C 26.445312 24.992188 26.730469 24.820312 26.703125 24.5625 C 26.148438 19.183594 31.574219 15.601562 36.3125 14.992188 C 41.109375 14.371094 45.984375 16.359375 48.839844 20.277344 C 50.390625 22.402344 51.324219 24.933594 51.519531 27.554688 C 51.535156 27.738281 51.804688 27.800781 51.945312 27.769531 C 53.441406 27.410156 55.039062 27.730469 56.199219 28.765625 C 57.230469 29.6875 57.839844 31.046875 57.835938 32.433594 C 57.832031 32.726562 58.238281 32.832031 58.441406 32.648438 C 59.804688 31.40625 61.910156 31.121094 63.546875 31.996094 C 65.257812 32.914062 66.03125 34.984375 65.703125 36.835938 C 65.679688 36.980469 65.8125 37.101562 65.941406 37.132812 C 68.207031 37.625 70.328125 38.730469 71.878906 40.472656 C 73.359375 42.140625 74.257812 44.347656 74.21875 46.585938 C 74.136719 49.175781 72.808594 51.558594 70.847656 53.214844 Z M 70.847656 53.214844 " fill-opacity="1" fill-rule="nonzero"/></g></svg>